<svg viewBox="0 0 640 300" width="100%" xmlns="http://www.w3.org/2000/svg" font-family="ui-sans-serif, system-ui, sans-serif">
<text x="56" y="20" font-size="13" font-weight="600" fill="currentColor">pop-weighted-abs-latitude — goblin-twin-solo</text>
<line x1="56.0" y1="186.0" x2="624.0" y2="186.0" stroke="currentColor" stroke-opacity="0.15" stroke-width="1" />
<text x="50" y="186.0" font-size="11" fill="currentColor" opacity="0.75" text-anchor="end">50</text>
<line x1="56.0" y1="136.0" x2="624.0" y2="136.0" stroke="currentColor" stroke-opacity="0.15" stroke-width="1" />
<text x="50" y="136.0" font-size="11" fill="currentColor" opacity="0.75" text-anchor="end">100</text>
<line x1="56.0" y1="86.0" x2="624.0" y2="86.0" stroke="currentColor" stroke-opacity="0.15" stroke-width="1" />
<text x="50" y="86.0" font-size="11" fill="currentColor" opacity="0.75" text-anchor="end">150</text>
<line x1="56.0" y1="36.0" x2="624.0" y2="36.0" stroke="currentColor" stroke-opacity="0.15" stroke-width="1" />
<text x="50" y="36.0" font-size="11" fill="currentColor" opacity="0.75" text-anchor="end">200</text>
<text x="87.6" y="232.0" font-size="11" fill="currentColor" text-anchor="middle">0</text>
<text x="87.6" y="252.0" font-size="11" fill="currentColor" opacity="0.85" text-anchor="middle">&lt; 0</text>
<rect x="123.8" y="76.0" width="53.6" height="160.0" fill="#5b8dd9" rx="2" />
<text x="150.7" y="72.0" font-size="11" fill="currentColor" text-anchor="middle">160</text>
<text x="150.7" y="252.0" font-size="11" fill="currentColor" opacity="0.85" text-anchor="middle">[0, 10)</text>
<rect x="187.0" y="118.0" width="53.6" height="118.0" fill="#5b8dd9" rx="2" />
<text x="213.8" y="114.0" font-size="11" fill="currentColor" text-anchor="middle">118</text>
<text x="213.8" y="252.0" font-size="11" fill="currentColor" opacity="0.85" text-anchor="middle">[10, 20)</text>
<rect x="250.1" y="149.0" width="53.6" height="87.0" fill="#5b8dd9" rx="2" />
<text x="276.9" y="145.0" font-size="11" fill="currentColor" text-anchor="middle">87</text>
<text x="276.9" y="252.0" font-size="11" fill="currentColor" opacity="0.85" text-anchor="middle">[20, 30)</text>
<rect x="313.2" y="229.0" width="53.6" height="7.0" fill="#5b8dd9" rx="2" />
<text x="340.0" y="225.0" font-size="11" fill="currentColor" text-anchor="middle">7</text>
<text x="340.0" y="252.0" font-size="11" fill="currentColor" opacity="0.85" text-anchor="middle">[30, 40)</text>
<rect x="376.3" y="227.0" width="53.6" height="9.0" fill="#5b8dd9" rx="2" />
<text x="403.1" y="223.0" font-size="11" fill="currentColor" text-anchor="middle">9</text>
<text x="403.1" y="252.0" font-size="11" fill="currentColor" opacity="0.85" text-anchor="middle">[40, 50)</text>
<rect x="439.4" y="232.0" width="53.6" height="4.0" fill="#5b8dd9" rx="2" />
<text x="466.2" y="228.0" font-size="11" fill="currentColor" text-anchor="middle">4</text>
<text x="466.2" y="252.0" font-size="11" fill="currentColor" opacity="0.85" text-anchor="middle">[50, 60)</text>
<rect x="502.5" y="233.0" width="53.6" height="3.0" fill="#5b8dd9" rx="2" />
<text x="529.3" y="229.0" font-size="11" fill="currentColor" text-anchor="middle">3</text>
<text x="529.3" y="252.0" font-size="11" fill="currentColor" opacity="0.85" text-anchor="middle">&gt;= 60</text>
<rect x="565.6" y="124.0" width="53.6" height="112.0" fill="#5b8dd9" rx="2" />
<text x="592.4" y="120.0" font-size="11" fill="currentColor" text-anchor="middle">112</text>
<text x="592.4" y="252.0" font-size="11" fill="currentColor" opacity="0.85" text-anchor="middle">absent</text>
</svg>
