<svg viewBox="0 0 640 300" width="100%" xmlns="http://www.w3.org/2000/svg" font-family="ui-sans-serif, system-ui, sans-serif">
<text x="56" y="20" font-size="13" font-weight="600" fill="currentColor">shoreline-development — goblin-twin-solo</text>
<line x1="56.0" y1="186.0" x2="624.0" y2="186.0" stroke="currentColor" stroke-opacity="0.15" stroke-width="1" />
<text x="50" y="186.0" font-size="11" fill="currentColor" opacity="0.75" text-anchor="end">125</text>
<line x1="56.0" y1="136.0" x2="624.0" y2="136.0" stroke="currentColor" stroke-opacity="0.15" stroke-width="1" />
<text x="50" y="136.0" font-size="11" fill="currentColor" opacity="0.75" text-anchor="end">250</text>
<line x1="56.0" y1="86.0" x2="624.0" y2="86.0" stroke="currentColor" stroke-opacity="0.15" stroke-width="1" />
<text x="50" y="86.0" font-size="11" fill="currentColor" opacity="0.75" text-anchor="end">375</text>
<line x1="56.0" y1="36.0" x2="624.0" y2="36.0" stroke="currentColor" stroke-opacity="0.15" stroke-width="1" />
<text x="50" y="36.0" font-size="11" fill="currentColor" opacity="0.75" text-anchor="end">500</text>
<text x="91.5" y="232.0" font-size="11" fill="currentColor" text-anchor="middle">0</text>
<text x="91.5" y="252.0" font-size="11" fill="currentColor" opacity="0.85" text-anchor="middle">&lt; 1</text>
<text x="162.5" y="232.0" font-size="11" fill="currentColor" text-anchor="middle">0</text>
<text x="162.5" y="252.0" font-size="11" fill="currentColor" opacity="0.85" text-anchor="middle">[1, 1.5)</text>
<rect x="203.3" y="234.8" width="60.4" height="1.2" fill="#5b8dd9" rx="2" />
<text x="233.5" y="230.8" font-size="11" fill="currentColor" text-anchor="middle">3</text>
<text x="233.5" y="252.0" font-size="11" fill="currentColor" opacity="0.85" text-anchor="middle">[1.5, 2)</text>
<rect x="274.3" y="234.8" width="60.4" height="1.2" fill="#5b8dd9" rx="2" />
<text x="304.5" y="230.8" font-size="11" fill="currentColor" text-anchor="middle">3</text>
<text x="304.5" y="252.0" font-size="11" fill="currentColor" opacity="0.85" text-anchor="middle">[2, 2.5)</text>
<rect x="345.3" y="231.6" width="60.4" height="4.4" fill="#5b8dd9" rx="2" />
<text x="375.5" y="227.6" font-size="11" fill="currentColor" text-anchor="middle">11</text>
<text x="375.5" y="252.0" font-size="11" fill="currentColor" opacity="0.85" text-anchor="middle">[2.5, 3)</text>
<rect x="416.3" y="220.0" width="60.4" height="16.0" fill="#5b8dd9" rx="2" />
<text x="446.5" y="216.0" font-size="11" fill="currentColor" text-anchor="middle">40</text>
<text x="446.5" y="252.0" font-size="11" fill="currentColor" opacity="0.85" text-anchor="middle">[3, 4)</text>
<rect x="487.3" y="198.0" width="60.4" height="38.0" fill="#5b8dd9" rx="2" />
<text x="517.5" y="194.0" font-size="11" fill="currentColor" text-anchor="middle">95</text>
<text x="517.5" y="252.0" font-size="11" fill="currentColor" opacity="0.85" text-anchor="middle">[4, 6)</text>
<rect x="558.3" y="96.8" width="60.4" height="139.2" fill="#5b8dd9" rx="2" />
<text x="588.5" y="92.8" font-size="11" fill="currentColor" text-anchor="middle">348</text>
<text x="588.5" y="252.0" font-size="11" fill="currentColor" opacity="0.85" text-anchor="middle">&gt;= 6</text>
</svg>
