<svg viewBox="0 0 640 300" width="100%" xmlns="http://www.w3.org/2000/svg" font-family="ui-sans-serif, system-ui, sans-serif">
<text x="56" y="20" font-size="13" font-weight="600" fill="currentColor">goblin-flagship-roles — goblin-solo</text>
<line x1="56.0" y1="186.0" x2="624.0" y2="186.0" stroke="currentColor" stroke-opacity="0.15" stroke-width="1" />
<text x="50" y="186.0" font-size="11" fill="currentColor" opacity="0.75" text-anchor="end">125</text>
<line x1="56.0" y1="136.0" x2="624.0" y2="136.0" stroke="currentColor" stroke-opacity="0.15" stroke-width="1" />
<text x="50" y="136.0" font-size="11" fill="currentColor" opacity="0.75" text-anchor="end">250</text>
<line x1="56.0" y1="86.0" x2="624.0" y2="86.0" stroke="currentColor" stroke-opacity="0.15" stroke-width="1" />
<text x="50" y="86.0" font-size="11" fill="currentColor" opacity="0.75" text-anchor="end">375</text>
<line x1="56.0" y1="36.0" x2="624.0" y2="36.0" stroke="currentColor" stroke-opacity="0.15" stroke-width="1" />
<text x="50" y="36.0" font-size="11" fill="currentColor" opacity="0.75" text-anchor="end">500</text>
<rect x="63.1" y="226.8" width="80.5" height="9.2" fill="#5b8dd9" rx="2" />
<text x="103.3" y="222.8" font-size="11" fill="currentColor" text-anchor="middle">23</text>
<text x="103.3" y="252.0" font-size="11" fill="currentColor" opacity="0.85" text-anchor="end" transform="rotate(-30 103.3 252.0)">farmer,chief</text>
<rect x="157.8" y="62.4" width="80.5" height="173.6" fill="#5b8dd9" rx="2" />
<text x="198.0" y="58.4" font-size="11" fill="currentColor" text-anchor="middle">434</text>
<text x="198.0" y="252.0" font-size="11" fill="currentColor" opacity="0.85" text-anchor="end" transform="rotate(-30 198.0 252.0)">farmer,shaman,chief</text>
<rect x="252.4" y="235.6" width="80.5" height="0.4" fill="#5b8dd9" rx="2" />
<text x="292.7" y="231.6" font-size="11" fill="currentColor" text-anchor="middle">1</text>
<text x="292.7" y="252.0" font-size="11" fill="currentColor" opacity="0.85" text-anchor="end" transform="rotate(-30 292.7 252.0)">farmer,warrior,shaman,chief</text>
<rect x="347.1" y="235.2" width="80.5" height="0.8" fill="#5b8dd9" rx="2" />
<text x="387.3" y="231.2" font-size="11" fill="currentColor" text-anchor="middle">2</text>
<text x="387.3" y="252.0" font-size="11" fill="currentColor" opacity="0.85" text-anchor="end" transform="rotate(-30 387.3 252.0)">fisher,chief</text>
<rect x="441.8" y="223.6" width="80.5" height="12.4" fill="#5b8dd9" rx="2" />
<text x="482.0" y="219.6" font-size="11" fill="currentColor" text-anchor="middle">31</text>
<text x="482.0" y="252.0" font-size="11" fill="currentColor" opacity="0.85" text-anchor="end" transform="rotate(-30 482.0 252.0)">forager,chief</text>
<rect x="536.4" y="232.4" width="80.5" height="3.6" fill="#5b8dd9" rx="2" />
<text x="576.7" y="228.4" font-size="11" fill="currentColor" text-anchor="middle">9</text>
<text x="576.7" y="252.0" font-size="11" fill="currentColor" opacity="0.85" text-anchor="end" transform="rotate(-30 576.7 252.0)">herder,chief</text>
</svg>
