<svg viewBox="0 0 640 300" width="100%" xmlns="http://www.w3.org/2000/svg" font-family="ui-sans-serif, system-ui, sans-serif">
<text x="56" y="20" font-size="13" font-weight="600" fill="currentColor">total-tide — goblin-twin-solo</text>
<line x1="56.0" y1="186.0" x2="624.0" y2="186.0" stroke="currentColor" stroke-opacity="0.15" stroke-width="1" />
<text x="50" y="186.0" font-size="11" fill="currentColor" opacity="0.75" text-anchor="end">50</text>
<line x1="56.0" y1="136.0" x2="624.0" y2="136.0" stroke="currentColor" stroke-opacity="0.15" stroke-width="1" />
<text x="50" y="136.0" font-size="11" fill="currentColor" opacity="0.75" text-anchor="end">100</text>
<line x1="56.0" y1="86.0" x2="624.0" y2="86.0" stroke="currentColor" stroke-opacity="0.15" stroke-width="1" />
<text x="50" y="86.0" font-size="11" fill="currentColor" opacity="0.75" text-anchor="end">150</text>
<line x1="56.0" y1="36.0" x2="624.0" y2="36.0" stroke="currentColor" stroke-opacity="0.15" stroke-width="1" />
<text x="50" y="36.0" font-size="11" fill="currentColor" opacity="0.75" text-anchor="end">200</text>
<text x="84.4" y="232.0" font-size="11" fill="currentColor" text-anchor="middle">0</text>
<text x="84.4" y="252.0" font-size="11" fill="currentColor" opacity="0.85" text-anchor="middle">&lt; 0</text>
<rect x="117.1" y="39.0" width="48.3" height="197.0" fill="#5b8dd9" rx="2" />
<text x="141.2" y="35.0" font-size="11" fill="currentColor" text-anchor="middle">197</text>
<text x="141.2" y="252.0" font-size="11" fill="currentColor" opacity="0.85" text-anchor="middle">[0, 1)</text>
<rect x="173.9" y="178.0" width="48.3" height="58.0" fill="#5b8dd9" rx="2" />
<text x="198.0" y="174.0" font-size="11" fill="currentColor" text-anchor="middle">58</text>
<text x="198.0" y="252.0" font-size="11" fill="currentColor" opacity="0.85" text-anchor="middle">[1, 2)</text>
<rect x="230.7" y="176.0" width="48.3" height="60.0" fill="#5b8dd9" rx="2" />
<text x="254.8" y="172.0" font-size="11" fill="currentColor" text-anchor="middle">60</text>
<text x="254.8" y="252.0" font-size="11" fill="currentColor" opacity="0.85" text-anchor="middle">[2, 3)</text>
<rect x="287.5" y="196.0" width="48.3" height="40.0" fill="#5b8dd9" rx="2" />
<text x="311.6" y="192.0" font-size="11" fill="currentColor" text-anchor="middle">40</text>
<text x="311.6" y="252.0" font-size="11" fill="currentColor" opacity="0.85" text-anchor="middle">[3, 4)</text>
<rect x="344.3" y="201.0" width="48.3" height="35.0" fill="#5b8dd9" rx="2" />
<text x="368.4" y="197.0" font-size="11" fill="currentColor" text-anchor="middle">35</text>
<text x="368.4" y="252.0" font-size="11" fill="currentColor" opacity="0.85" text-anchor="middle">[4, 5)</text>
<rect x="401.1" y="197.0" width="48.3" height="39.0" fill="#5b8dd9" rx="2" />
<text x="425.2" y="193.0" font-size="11" fill="currentColor" text-anchor="middle">39</text>
<text x="425.2" y="252.0" font-size="11" fill="currentColor" opacity="0.85" text-anchor="middle">[5, 6)</text>
<rect x="457.9" y="207.0" width="48.3" height="29.0" fill="#5b8dd9" rx="2" />
<text x="482.0" y="203.0" font-size="11" fill="currentColor" text-anchor="middle">29</text>
<text x="482.0" y="252.0" font-size="11" fill="currentColor" opacity="0.85" text-anchor="middle">[6, 7)</text>
<rect x="514.7" y="194.0" width="48.3" height="42.0" fill="#5b8dd9" rx="2" />
<text x="538.8" y="190.0" font-size="11" fill="currentColor" text-anchor="middle">42</text>
<text x="538.8" y="252.0" font-size="11" fill="currentColor" opacity="0.85" text-anchor="middle">[7, 8)</text>
<text x="595.6" y="232.0" font-size="11" fill="currentColor" text-anchor="middle">0</text>
<text x="595.6" y="252.0" font-size="11" fill="currentColor" opacity="0.85" text-anchor="middle">&gt;= 8</text>
</svg>
