<svg viewBox="0 0 640 300" width="100%" xmlns="http://www.w3.org/2000/svg" font-family="ui-sans-serif, system-ui, sans-serif">
<text x="56" y="20" font-size="13" font-weight="600" fill="currentColor">dominant-land-biome — goblin-solo</text>
<line x1="56.0" y1="186.0" x2="624.0" y2="186.0" stroke="currentColor" stroke-opacity="0.15" stroke-width="1" />
<text x="50" y="186.0" font-size="11" fill="currentColor" opacity="0.75" text-anchor="end">125</text>
<line x1="56.0" y1="136.0" x2="624.0" y2="136.0" stroke="currentColor" stroke-opacity="0.15" stroke-width="1" />
<text x="50" y="136.0" font-size="11" fill="currentColor" opacity="0.75" text-anchor="end">250</text>
<line x1="56.0" y1="86.0" x2="624.0" y2="86.0" stroke="currentColor" stroke-opacity="0.15" stroke-width="1" />
<text x="50" y="86.0" font-size="11" fill="currentColor" opacity="0.75" text-anchor="end">375</text>
<line x1="56.0" y1="36.0" x2="624.0" y2="36.0" stroke="currentColor" stroke-opacity="0.15" stroke-width="1" />
<text x="50" y="36.0" font-size="11" fill="currentColor" opacity="0.75" text-anchor="end">500</text>
<rect x="62.1" y="210.8" width="69.0" height="25.2" fill="#5b8dd9" rx="2" />
<text x="96.6" y="206.8" font-size="11" fill="currentColor" text-anchor="middle">63</text>
<text x="96.6" y="252.0" font-size="11" fill="currentColor" opacity="0.85" text-anchor="end" transform="rotate(-30 96.6 252.0)">alpine</text>
<rect x="143.2" y="109.6" width="69.0" height="126.4" fill="#5b8dd9" rx="2" />
<text x="177.7" y="105.6" font-size="11" fill="currentColor" text-anchor="middle">316</text>
<text x="177.7" y="252.0" font-size="11" fill="currentColor" opacity="0.85" text-anchor="end" transform="rotate(-30 177.7 252.0)">ice</text>
<rect x="224.4" y="235.2" width="69.0" height="0.8" fill="#5b8dd9" rx="2" />
<text x="258.9" y="231.2" font-size="11" fill="currentColor" text-anchor="middle">2</text>
<text x="258.9" y="252.0" font-size="11" fill="currentColor" opacity="0.85" text-anchor="end" transform="rotate(-30 258.9 252.0)">savanna</text>
<rect x="305.5" y="230.0" width="69.0" height="6.0" fill="#5b8dd9" rx="2" />
<text x="340.0" y="226.0" font-size="11" fill="currentColor" text-anchor="middle">15</text>
<text x="340.0" y="252.0" font-size="11" fill="currentColor" opacity="0.85" text-anchor="end" transform="rotate(-30 340.0 252.0)">taiga</text>
<rect x="386.7" y="230.8" width="69.0" height="5.2" fill="#5b8dd9" rx="2" />
<text x="421.1" y="226.8" font-size="11" fill="currentColor" text-anchor="middle">13</text>
<text x="421.1" y="252.0" font-size="11" fill="currentColor" opacity="0.85" text-anchor="end" transform="rotate(-30 421.1 252.0)">temperate-forest</text>
<rect x="467.8" y="202.8" width="69.0" height="33.2" fill="#5b8dd9" rx="2" />
<text x="502.3" y="198.8" font-size="11" fill="currentColor" text-anchor="middle">83</text>
<text x="502.3" y="252.0" font-size="11" fill="currentColor" opacity="0.85" text-anchor="end" transform="rotate(-30 502.3 252.0)">tropical-seasonal-forest</text>
<rect x="548.9" y="232.8" width="69.0" height="3.2" fill="#5b8dd9" rx="2" />
<text x="583.4" y="228.8" font-size="11" fill="currentColor" text-anchor="middle">8</text>
<text x="583.4" y="252.0" font-size="11" fill="currentColor" opacity="0.85" text-anchor="end" transform="rotate(-30 583.4 252.0)">tundra</text>
</svg>
