<svg viewBox="0 0 640 300" width="100%" xmlns="http://www.w3.org/2000/svg" font-family="ui-sans-serif, system-ui, sans-serif">
<text x="56" y="20" font-size="13" font-weight="600" fill="currentColor">largest-figure-members — goblin-twin-solo</text>
<line x1="56.0" y1="186.0" x2="624.0" y2="186.0" stroke="currentColor" stroke-opacity="0.15" stroke-width="1" />
<text x="50" y="186.0" font-size="11" fill="currentColor" opacity="0.75" text-anchor="end">50</text>
<line x1="56.0" y1="136.0" x2="624.0" y2="136.0" stroke="currentColor" stroke-opacity="0.15" stroke-width="1" />
<text x="50" y="136.0" font-size="11" fill="currentColor" opacity="0.75" text-anchor="end">100</text>
<line x1="56.0" y1="86.0" x2="624.0" y2="86.0" stroke="currentColor" stroke-opacity="0.15" stroke-width="1" />
<text x="50" y="86.0" font-size="11" fill="currentColor" opacity="0.75" text-anchor="end">150</text>
<line x1="56.0" y1="36.0" x2="624.0" y2="36.0" stroke="currentColor" stroke-opacity="0.15" stroke-width="1" />
<text x="50" y="36.0" font-size="11" fill="currentColor" opacity="0.75" text-anchor="end">200</text>
<rect x="60.3" y="200.0" width="48.3" height="36.0" fill="#5b8dd9" rx="2" />
<text x="84.4" y="196.0" font-size="11" fill="currentColor" text-anchor="middle">36</text>
<text x="84.4" y="252.0" font-size="11" fill="currentColor" opacity="0.85" text-anchor="middle">0</text>
<rect x="117.1" y="234.0" width="48.3" height="2.0" fill="#5b8dd9" rx="2" />
<text x="141.2" y="230.0" font-size="11" fill="currentColor" text-anchor="middle">2</text>
<text x="141.2" y="252.0" font-size="11" fill="currentColor" opacity="0.85" text-anchor="middle">10</text>
<rect x="173.9" y="235.0" width="48.3" height="1.0" fill="#5b8dd9" rx="2" />
<text x="198.0" y="231.0" font-size="11" fill="currentColor" text-anchor="middle">1</text>
<text x="198.0" y="252.0" font-size="11" fill="currentColor" opacity="0.85" text-anchor="middle">13</text>
<rect x="230.7" y="117.0" width="48.3" height="119.0" fill="#5b8dd9" rx="2" />
<text x="254.8" y="113.0" font-size="11" fill="currentColor" text-anchor="middle">119</text>
<text x="254.8" y="252.0" font-size="11" fill="currentColor" opacity="0.85" text-anchor="middle">3</text>
<rect x="287.5" y="84.0" width="48.3" height="152.0" fill="#5b8dd9" rx="2" />
<text x="311.6" y="80.0" font-size="11" fill="currentColor" text-anchor="middle">152</text>
<text x="311.6" y="252.0" font-size="11" fill="currentColor" opacity="0.85" text-anchor="middle">4</text>
<rect x="344.3" y="137.0" width="48.3" height="99.0" fill="#5b8dd9" rx="2" />
<text x="368.4" y="133.0" font-size="11" fill="currentColor" text-anchor="middle">99</text>
<text x="368.4" y="252.0" font-size="11" fill="currentColor" opacity="0.85" text-anchor="middle">5</text>
<rect x="401.1" y="182.0" width="48.3" height="54.0" fill="#5b8dd9" rx="2" />
<text x="425.2" y="178.0" font-size="11" fill="currentColor" text-anchor="middle">54</text>
<text x="425.2" y="252.0" font-size="11" fill="currentColor" opacity="0.85" text-anchor="middle">6</text>
<rect x="457.9" y="211.0" width="48.3" height="25.0" fill="#5b8dd9" rx="2" />
<text x="482.0" y="207.0" font-size="11" fill="currentColor" text-anchor="middle">25</text>
<text x="482.0" y="252.0" font-size="11" fill="currentColor" opacity="0.85" text-anchor="middle">7</text>
<rect x="514.7" y="228.0" width="48.3" height="8.0" fill="#5b8dd9" rx="2" />
<text x="538.8" y="224.0" font-size="11" fill="currentColor" text-anchor="middle">8</text>
<text x="538.8" y="252.0" font-size="11" fill="currentColor" opacity="0.85" text-anchor="middle">8</text>
<rect x="571.5" y="232.0" width="48.3" height="4.0" fill="#5b8dd9" rx="2" />
<text x="595.6" y="228.0" font-size="11" fill="currentColor" text-anchor="middle">4</text>
<text x="595.6" y="252.0" font-size="11" fill="currentColor" opacity="0.85" text-anchor="middle">9</text>
</svg>
