<svg viewBox="0 0 640 300" width="100%" xmlns="http://www.w3.org/2000/svg" font-family="ui-sans-serif, system-ui, sans-serif">
<text x="56" y="20" font-size="13" font-weight="600" fill="currentColor">goblin-flagship-population — goblin-solo</text>
<line x1="56.0" y1="186.0" x2="624.0" y2="186.0" stroke="currentColor" stroke-opacity="0.15" stroke-width="1" />
<text x="50" y="186.0" font-size="11" fill="currentColor" opacity="0.75" text-anchor="end">62.5</text>
<line x1="56.0" y1="136.0" x2="624.0" y2="136.0" stroke="currentColor" stroke-opacity="0.15" stroke-width="1" />
<text x="50" y="136.0" font-size="11" fill="currentColor" opacity="0.75" text-anchor="end">125</text>
<line x1="56.0" y1="86.0" x2="624.0" y2="86.0" stroke="currentColor" stroke-opacity="0.15" stroke-width="1" />
<text x="50" y="86.0" font-size="11" fill="currentColor" opacity="0.75" text-anchor="end">187.5</text>
<line x1="56.0" y1="36.0" x2="624.0" y2="36.0" stroke="currentColor" stroke-opacity="0.15" stroke-width="1" />
<text x="50" y="36.0" font-size="11" fill="currentColor" opacity="0.75" text-anchor="end">250</text>
<text x="96.6" y="232.0" font-size="11" fill="currentColor" text-anchor="middle">0</text>
<text x="96.6" y="252.0" font-size="11" fill="currentColor" opacity="0.85" text-anchor="end" transform="rotate(-30 96.6 252.0)">&lt; 0</text>
<text x="177.7" y="232.0" font-size="11" fill="currentColor" text-anchor="middle">0</text>
<text x="177.7" y="252.0" font-size="11" fill="currentColor" opacity="0.85" text-anchor="end" transform="rotate(-30 177.7 252.0)">[0, 100)</text>
<text x="258.9" y="232.0" font-size="11" fill="currentColor" text-anchor="middle">0</text>
<text x="258.9" y="252.0" font-size="11" fill="currentColor" opacity="0.85" text-anchor="end" transform="rotate(-30 258.9 252.0)">[100, 200)</text>
<rect x="305.5" y="212.8" width="69.0" height="23.2" fill="#5b8dd9" rx="2" />
<text x="340.0" y="208.8" font-size="11" fill="currentColor" text-anchor="middle">29</text>
<text x="340.0" y="252.0" font-size="11" fill="currentColor" opacity="0.85" text-anchor="end" transform="rotate(-30 340.0 252.0)">[200, 300)</text>
<rect x="386.7" y="73.6" width="69.0" height="162.4" fill="#5b8dd9" rx="2" />
<text x="421.1" y="69.6" font-size="11" fill="currentColor" text-anchor="middle">203</text>
<text x="421.1" y="252.0" font-size="11" fill="currentColor" opacity="0.85" text-anchor="end" transform="rotate(-30 421.1 252.0)">[300, 400)</text>
<rect x="467.8" y="65.6" width="69.0" height="170.4" fill="#5b8dd9" rx="2" />
<text x="502.3" y="61.6" font-size="11" fill="currentColor" text-anchor="middle">213</text>
<text x="502.3" y="252.0" font-size="11" fill="currentColor" opacity="0.85" text-anchor="end" transform="rotate(-30 502.3 252.0)">[400, 500)</text>
<rect x="548.9" y="192.0" width="69.0" height="44.0" fill="#5b8dd9" rx="2" />
<text x="583.4" y="188.0" font-size="11" fill="currentColor" text-anchor="middle">55</text>
<text x="583.4" y="252.0" font-size="11" fill="currentColor" opacity="0.85" text-anchor="end" transform="rotate(-30 583.4 252.0)">&gt;= 500</text>
</svg>
