<svg viewBox="0 0 640 300" width="100%" xmlns="http://www.w3.org/2000/svg" font-family="ui-sans-serif, system-ui, sans-serif">
<text x="56" y="20" font-size="13" font-weight="600" fill="currentColor">capacity-by-abs-latitude — goblin-solo</text>
<line x1="56.0" y1="186.0" x2="624.0" y2="186.0" stroke="currentColor" stroke-opacity="0.15" stroke-width="1" />
<text x="50" y="186.0" font-size="11" fill="currentColor" opacity="0.75" text-anchor="end">50</text>
<line x1="56.0" y1="136.0" x2="624.0" y2="136.0" stroke="currentColor" stroke-opacity="0.15" stroke-width="1" />
<text x="50" y="136.0" font-size="11" fill="currentColor" opacity="0.75" text-anchor="end">100</text>
<line x1="56.0" y1="86.0" x2="624.0" y2="86.0" stroke="currentColor" stroke-opacity="0.15" stroke-width="1" />
<text x="50" y="86.0" font-size="11" fill="currentColor" opacity="0.75" text-anchor="end">150</text>
<line x1="56.0" y1="36.0" x2="624.0" y2="36.0" stroke="currentColor" stroke-opacity="0.15" stroke-width="1" />
<text x="50" y="36.0" font-size="11" fill="currentColor" opacity="0.75" text-anchor="end">200</text>
<rect x="61.3" y="169.0" width="60.4" height="67.0" fill="#5b8dd9" rx="2" />
<text x="91.5" y="165.0" font-size="11" fill="currentColor" text-anchor="middle">67</text>
<text x="91.5" y="252.0" font-size="11" fill="currentColor" opacity="0.85" text-anchor="middle">&lt; 1</text>
<rect x="132.3" y="200.0" width="60.4" height="36.0" fill="#5b8dd9" rx="2" />
<text x="162.5" y="196.0" font-size="11" fill="currentColor" text-anchor="middle">36</text>
<text x="162.5" y="252.0" font-size="11" fill="currentColor" opacity="0.85" text-anchor="middle">[1, 3)</text>
<rect x="203.3" y="217.0" width="60.4" height="19.0" fill="#5b8dd9" rx="2" />
<text x="233.5" y="213.0" font-size="11" fill="currentColor" text-anchor="middle">19</text>
<text x="233.5" y="252.0" font-size="11" fill="currentColor" opacity="0.85" text-anchor="middle">[3, 5)</text>
<rect x="274.3" y="193.0" width="60.4" height="43.0" fill="#5b8dd9" rx="2" />
<text x="304.5" y="189.0" font-size="11" fill="currentColor" text-anchor="middle">43</text>
<text x="304.5" y="252.0" font-size="11" fill="currentColor" opacity="0.85" text-anchor="middle">[5, 10)</text>
<rect x="345.3" y="196.0" width="60.4" height="40.0" fill="#5b8dd9" rx="2" />
<text x="375.5" y="192.0" font-size="11" fill="currentColor" text-anchor="middle">40</text>
<text x="375.5" y="252.0" font-size="11" fill="currentColor" opacity="0.85" text-anchor="middle">[10, 20)</text>
<rect x="416.3" y="94.0" width="60.4" height="142.0" fill="#5b8dd9" rx="2" />
<text x="446.5" y="90.0" font-size="11" fill="currentColor" text-anchor="middle">142</text>
<text x="446.5" y="252.0" font-size="11" fill="currentColor" opacity="0.85" text-anchor="middle">[20, 40)</text>
<rect x="487.3" y="88.0" width="60.4" height="148.0" fill="#5b8dd9" rx="2" />
<text x="517.5" y="84.0" font-size="11" fill="currentColor" text-anchor="middle">148</text>
<text x="517.5" y="252.0" font-size="11" fill="currentColor" opacity="0.85" text-anchor="middle">[40, 60)</text>
<rect x="558.3" y="231.0" width="60.4" height="5.0" fill="#5b8dd9" rx="2" />
<text x="588.5" y="227.0" font-size="11" fill="currentColor" text-anchor="middle">5</text>
<text x="588.5" y="252.0" font-size="11" fill="currentColor" opacity="0.85" text-anchor="middle">&gt;= 60</text>
</svg>
