<svg viewBox="0 0 640 300" width="100%" xmlns="http://www.w3.org/2000/svg" font-family="ui-sans-serif, system-ui, sans-serif">
<text x="56" y="20" font-size="13" font-weight="600" fill="currentColor">name-collision-rate — goblin-twin-solo</text>
<line x1="56.0" y1="186.0" x2="624.0" y2="186.0" stroke="currentColor" stroke-opacity="0.15" stroke-width="1" />
<text x="50" y="186.0" font-size="11" fill="currentColor" opacity="0.75" text-anchor="end">50</text>
<line x1="56.0" y1="136.0" x2="624.0" y2="136.0" stroke="currentColor" stroke-opacity="0.15" stroke-width="1" />
<text x="50" y="136.0" font-size="11" fill="currentColor" opacity="0.75" text-anchor="end">100</text>
<line x1="56.0" y1="86.0" x2="624.0" y2="86.0" stroke="currentColor" stroke-opacity="0.15" stroke-width="1" />
<text x="50" y="86.0" font-size="11" fill="currentColor" opacity="0.75" text-anchor="end">150</text>
<line x1="56.0" y1="36.0" x2="624.0" y2="36.0" stroke="currentColor" stroke-opacity="0.15" stroke-width="1" />
<text x="50" y="36.0" font-size="11" fill="currentColor" opacity="0.75" text-anchor="end">200</text>
<text x="91.5" y="232.0" font-size="11" fill="currentColor" text-anchor="middle">0</text>
<text x="91.5" y="252.0" font-size="11" fill="currentColor" opacity="0.85" text-anchor="end" transform="rotate(-30 91.5 252.0)">&lt; 0</text>
<rect x="132.3" y="144.0" width="60.4" height="92.0" fill="#5b8dd9" rx="2" />
<text x="162.5" y="140.0" font-size="11" fill="currentColor" text-anchor="middle">92</text>
<text x="162.5" y="252.0" font-size="11" fill="currentColor" opacity="0.85" text-anchor="end" transform="rotate(-30 162.5 252.0)">[0, 0.01)</text>
<text x="233.5" y="232.0" font-size="11" fill="currentColor" text-anchor="middle">0</text>
<text x="233.5" y="252.0" font-size="11" fill="currentColor" opacity="0.85" text-anchor="end" transform="rotate(-30 233.5 252.0)">[0.01, 0.02)</text>
<rect x="274.3" y="54.0" width="60.4" height="182.0" fill="#5b8dd9" rx="2" />
<text x="304.5" y="50.0" font-size="11" fill="currentColor" text-anchor="middle">182</text>
<text x="304.5" y="252.0" font-size="11" fill="currentColor" opacity="0.85" text-anchor="end" transform="rotate(-30 304.5 252.0)">[0.02, 0.05)</text>
<rect x="345.3" y="90.0" width="60.4" height="146.0" fill="#5b8dd9" rx="2" />
<text x="375.5" y="86.0" font-size="11" fill="currentColor" text-anchor="middle">146</text>
<text x="375.5" y="252.0" font-size="11" fill="currentColor" opacity="0.85" text-anchor="end" transform="rotate(-30 375.5 252.0)">[0.05, 0.1)</text>
<rect x="416.3" y="173.0" width="60.4" height="63.0" fill="#5b8dd9" rx="2" />
<text x="446.5" y="169.0" font-size="11" fill="currentColor" text-anchor="middle">63</text>
<text x="446.5" y="252.0" font-size="11" fill="currentColor" opacity="0.85" text-anchor="end" transform="rotate(-30 446.5 252.0)">[0.1, 0.2)</text>
<rect x="487.3" y="225.0" width="60.4" height="11.0" fill="#5b8dd9" rx="2" />
<text x="517.5" y="221.0" font-size="11" fill="currentColor" text-anchor="middle">11</text>
<text x="517.5" y="252.0" font-size="11" fill="currentColor" opacity="0.85" text-anchor="end" transform="rotate(-30 517.5 252.0)">[0.2, 0.4)</text>
<rect x="558.3" y="230.0" width="60.4" height="6.0" fill="#5b8dd9" rx="2" />
<text x="588.5" y="226.0" font-size="11" fill="currentColor" text-anchor="middle">6</text>
<text x="588.5" y="252.0" font-size="11" fill="currentColor" opacity="0.85" text-anchor="end" transform="rotate(-30 588.5 252.0)">&gt;= 0.4</text>
</svg>
