<svg viewBox="0 0 640 300" width="100%" xmlns="http://www.w3.org/2000/svg" font-family="ui-sans-serif, system-ui, sans-serif">
<text x="56" y="20" font-size="13" font-weight="600" fill="currentColor">homophony-merger-share-goblin — goblin-solo</text>
<line x1="56.0" y1="186.0" x2="624.0" y2="186.0" stroke="currentColor" stroke-opacity="0.15" stroke-width="1" />
<text x="50" y="186.0" font-size="11" fill="currentColor" opacity="0.75" text-anchor="end">50</text>
<line x1="56.0" y1="136.0" x2="624.0" y2="136.0" stroke="currentColor" stroke-opacity="0.15" stroke-width="1" />
<text x="50" y="136.0" font-size="11" fill="currentColor" opacity="0.75" text-anchor="end">100</text>
<line x1="56.0" y1="86.0" x2="624.0" y2="86.0" stroke="currentColor" stroke-opacity="0.15" stroke-width="1" />
<text x="50" y="86.0" font-size="11" fill="currentColor" opacity="0.75" text-anchor="end">150</text>
<line x1="56.0" y1="36.0" x2="624.0" y2="36.0" stroke="currentColor" stroke-opacity="0.15" stroke-width="1" />
<text x="50" y="36.0" font-size="11" fill="currentColor" opacity="0.75" text-anchor="end">200</text>
<text x="91.5" y="232.0" font-size="11" fill="currentColor" text-anchor="middle">0</text>
<text x="91.5" y="252.0" font-size="11" fill="currentColor" opacity="0.85" text-anchor="end" transform="rotate(-30 91.5 252.0)">&lt; 0</text>
<rect x="132.3" y="109.0" width="60.4" height="127.0" fill="#5b8dd9" rx="2" />
<text x="162.5" y="105.0" font-size="11" fill="currentColor" text-anchor="middle">127</text>
<text x="162.5" y="252.0" font-size="11" fill="currentColor" opacity="0.85" text-anchor="end" transform="rotate(-30 162.5 252.0)">[0, 0.2)</text>
<rect x="203.3" y="180.0" width="60.4" height="56.0" fill="#5b8dd9" rx="2" />
<text x="233.5" y="176.0" font-size="11" fill="currentColor" text-anchor="middle">56</text>
<text x="233.5" y="252.0" font-size="11" fill="currentColor" opacity="0.85" text-anchor="end" transform="rotate(-30 233.5 252.0)">[0.2, 0.4)</text>
<rect x="274.3" y="164.0" width="60.4" height="72.0" fill="#5b8dd9" rx="2" />
<text x="304.5" y="160.0" font-size="11" fill="currentColor" text-anchor="middle">72</text>
<text x="304.5" y="252.0" font-size="11" fill="currentColor" opacity="0.85" text-anchor="end" transform="rotate(-30 304.5 252.0)">[0.4, 0.6)</text>
<rect x="345.3" y="150.0" width="60.4" height="86.0" fill="#5b8dd9" rx="2" />
<text x="375.5" y="146.0" font-size="11" fill="currentColor" text-anchor="middle">86</text>
<text x="375.5" y="252.0" font-size="11" fill="currentColor" opacity="0.85" text-anchor="end" transform="rotate(-30 375.5 252.0)">[0.6, 0.8)</text>
<rect x="416.3" y="187.0" width="60.4" height="49.0" fill="#5b8dd9" rx="2" />
<text x="446.5" y="183.0" font-size="11" fill="currentColor" text-anchor="middle">49</text>
<text x="446.5" y="252.0" font-size="11" fill="currentColor" opacity="0.85" text-anchor="end" transform="rotate(-30 446.5 252.0)">[0.8, 1)</text>
<rect x="487.3" y="144.0" width="60.4" height="92.0" fill="#5b8dd9" rx="2" />
<text x="517.5" y="140.0" font-size="11" fill="currentColor" text-anchor="middle">92</text>
<text x="517.5" y="252.0" font-size="11" fill="currentColor" opacity="0.85" text-anchor="end" transform="rotate(-30 517.5 252.0)">&gt;= 1</text>
<rect x="558.3" y="218.0" width="60.4" height="18.0" fill="#5b8dd9" rx="2" />
<text x="588.5" y="214.0" font-size="11" fill="currentColor" text-anchor="middle">18</text>
<text x="588.5" y="252.0" font-size="11" fill="currentColor" opacity="0.85" text-anchor="end" transform="rotate(-30 588.5 252.0)">absent</text>
</svg>
