<svg viewBox="0 0 640 300" width="100%" xmlns="http://www.w3.org/2000/svg" font-family="ui-sans-serif, system-ui, sans-serif">
<text x="56" y="20" font-size="13" font-weight="600" fill="currentColor">dominant-rock — goblin-solo</text>
<line x1="56.0" y1="186.0" x2="624.0" y2="186.0" stroke="currentColor" stroke-opacity="0.15" stroke-width="1" />
<text x="50" y="186.0" font-size="11" fill="currentColor" opacity="0.75" text-anchor="end">50</text>
<line x1="56.0" y1="136.0" x2="624.0" y2="136.0" stroke="currentColor" stroke-opacity="0.15" stroke-width="1" />
<text x="50" y="136.0" font-size="11" fill="currentColor" opacity="0.75" text-anchor="end">100</text>
<line x1="56.0" y1="86.0" x2="624.0" y2="86.0" stroke="currentColor" stroke-opacity="0.15" stroke-width="1" />
<text x="50" y="86.0" font-size="11" fill="currentColor" opacity="0.75" text-anchor="end">150</text>
<line x1="56.0" y1="36.0" x2="624.0" y2="36.0" stroke="currentColor" stroke-opacity="0.15" stroke-width="1" />
<text x="50" y="36.0" font-size="11" fill="currentColor" opacity="0.75" text-anchor="end">200</text>
<rect x="62.1" y="192.0" width="69.0" height="44.0" fill="#5b8dd9" rx="2" />
<text x="96.6" y="188.0" font-size="11" fill="currentColor" text-anchor="middle">44</text>
<text x="96.6" y="252.0" font-size="11" fill="currentColor" opacity="0.85" text-anchor="end" transform="rotate(-30 96.6 252.0)">andesite</text>
<rect x="143.2" y="234.0" width="69.0" height="2.0" fill="#5b8dd9" rx="2" />
<text x="177.7" y="230.0" font-size="11" fill="currentColor" text-anchor="middle">2</text>
<text x="177.7" y="252.0" font-size="11" fill="currentColor" opacity="0.85" text-anchor="end" transform="rotate(-30 177.7 252.0)">conglomerate</text>
<rect x="224.4" y="51.0" width="69.0" height="185.0" fill="#5b8dd9" rx="2" />
<text x="258.9" y="47.0" font-size="11" fill="currentColor" text-anchor="middle">185</text>
<text x="258.9" y="252.0" font-size="11" fill="currentColor" opacity="0.85" text-anchor="end" transform="rotate(-30 258.9 252.0)">evaporite</text>
<rect x="305.5" y="169.0" width="69.0" height="67.0" fill="#5b8dd9" rx="2" />
<text x="340.0" y="165.0" font-size="11" fill="currentColor" text-anchor="middle">67</text>
<text x="340.0" y="252.0" font-size="11" fill="currentColor" opacity="0.85" text-anchor="end" transform="rotate(-30 340.0 252.0)">gneiss</text>
<rect x="386.7" y="233.0" width="69.0" height="3.0" fill="#5b8dd9" rx="2" />
<text x="421.1" y="229.0" font-size="11" fill="currentColor" text-anchor="middle">3</text>
<text x="421.1" y="252.0" font-size="11" fill="currentColor" opacity="0.85" text-anchor="end" transform="rotate(-30 421.1 252.0)">granite</text>
<rect x="467.8" y="220.0" width="69.0" height="16.0" fill="#5b8dd9" rx="2" />
<text x="502.3" y="216.0" font-size="11" fill="currentColor" text-anchor="middle">16</text>
<text x="502.3" y="252.0" font-size="11" fill="currentColor" opacity="0.85" text-anchor="end" transform="rotate(-30 502.3 252.0)">sandstone</text>
<rect x="548.9" y="53.0" width="69.0" height="183.0" fill="#5b8dd9" rx="2" />
<text x="583.4" y="49.0" font-size="11" fill="currentColor" text-anchor="middle">183</text>
<text x="583.4" y="252.0" font-size="11" fill="currentColor" opacity="0.85" text-anchor="end" transform="rotate(-30 583.4 252.0)">shale</text>
</svg>
