<svg viewBox="0 0 640 300" width="100%" xmlns="http://www.w3.org/2000/svg" font-family="ui-sans-serif, system-ui, sans-serif">
<text x="56" y="20" font-size="13" font-weight="600" fill="currentColor">homophony-count-goblin — goblin-solo</text>
<line x1="56.0" y1="186.0" x2="624.0" y2="186.0" stroke="currentColor" stroke-opacity="0.15" stroke-width="1" />
<text x="50" y="186.0" font-size="11" fill="currentColor" opacity="0.75" text-anchor="end">62.5</text>
<line x1="56.0" y1="136.0" x2="624.0" y2="136.0" stroke="currentColor" stroke-opacity="0.15" stroke-width="1" />
<text x="50" y="136.0" font-size="11" fill="currentColor" opacity="0.75" text-anchor="end">125</text>
<line x1="56.0" y1="86.0" x2="624.0" y2="86.0" stroke="currentColor" stroke-opacity="0.15" stroke-width="1" />
<text x="50" y="86.0" font-size="11" fill="currentColor" opacity="0.75" text-anchor="end">187.5</text>
<line x1="56.0" y1="36.0" x2="624.0" y2="36.0" stroke="currentColor" stroke-opacity="0.15" stroke-width="1" />
<text x="50" y="36.0" font-size="11" fill="currentColor" opacity="0.75" text-anchor="end">250</text>
<text x="91.5" y="232.0" font-size="11" fill="currentColor" text-anchor="middle">0</text>
<text x="91.5" y="252.0" font-size="11" fill="currentColor" opacity="0.85" text-anchor="middle">&lt; 0</text>
<rect x="132.3" y="53.6" width="60.4" height="182.4" fill="#5b8dd9" rx="2" />
<text x="162.5" y="49.6" font-size="11" fill="currentColor" text-anchor="middle">228</text>
<text x="162.5" y="252.0" font-size="11" fill="currentColor" opacity="0.85" text-anchor="middle">[0, 1)</text>
<rect x="203.3" y="144.8" width="60.4" height="91.2" fill="#5b8dd9" rx="2" />
<text x="233.5" y="140.8" font-size="11" fill="currentColor" text-anchor="middle">114</text>
<text x="233.5" y="252.0" font-size="11" fill="currentColor" opacity="0.85" text-anchor="middle">[1, 2)</text>
<rect x="274.3" y="180.0" width="60.4" height="56.0" fill="#5b8dd9" rx="2" />
<text x="304.5" y="176.0" font-size="11" fill="currentColor" text-anchor="middle">70</text>
<text x="304.5" y="252.0" font-size="11" fill="currentColor" opacity="0.85" text-anchor="middle">[2, 3)</text>
<rect x="345.3" y="203.2" width="60.4" height="32.8" fill="#5b8dd9" rx="2" />
<text x="375.5" y="199.2" font-size="11" fill="currentColor" text-anchor="middle">41</text>
<text x="375.5" y="252.0" font-size="11" fill="currentColor" opacity="0.85" text-anchor="middle">[3, 5)</text>
<rect x="416.3" y="213.6" width="60.4" height="22.4" fill="#5b8dd9" rx="2" />
<text x="446.5" y="209.6" font-size="11" fill="currentColor" text-anchor="middle">28</text>
<text x="446.5" y="252.0" font-size="11" fill="currentColor" opacity="0.85" text-anchor="middle">[5, 8)</text>
<rect x="487.3" y="224.8" width="60.4" height="11.2" fill="#5b8dd9" rx="2" />
<text x="517.5" y="220.8" font-size="11" fill="currentColor" text-anchor="middle">14</text>
<text x="517.5" y="252.0" font-size="11" fill="currentColor" opacity="0.85" text-anchor="middle">[8, 12)</text>
<rect x="558.3" y="232.0" width="60.4" height="4.0" fill="#5b8dd9" rx="2" />
<text x="588.5" y="228.0" font-size="11" fill="currentColor" text-anchor="middle">5</text>
<text x="588.5" y="252.0" font-size="11" fill="currentColor" opacity="0.85" text-anchor="middle">&gt;= 12</text>
</svg>
