<svg viewBox="0 0 640 300" width="100%" xmlns="http://www.w3.org/2000/svg" font-family="ui-sans-serif, system-ui, sans-serif">
<text x="56" y="20" font-size="13" font-weight="600" fill="currentColor">dominant-land-biome — goblin-solo</text>
<line x1="56.0" y1="186.0" x2="624.0" y2="186.0" stroke="currentColor" stroke-opacity="0.15" stroke-width="1" />
<text x="50" y="186.0" font-size="11" fill="currentColor" opacity="0.75" text-anchor="end">50</text>
<line x1="56.0" y1="136.0" x2="624.0" y2="136.0" stroke="currentColor" stroke-opacity="0.15" stroke-width="1" />
<text x="50" y="136.0" font-size="11" fill="currentColor" opacity="0.75" text-anchor="end">100</text>
<line x1="56.0" y1="86.0" x2="624.0" y2="86.0" stroke="currentColor" stroke-opacity="0.15" stroke-width="1" />
<text x="50" y="86.0" font-size="11" fill="currentColor" opacity="0.75" text-anchor="end">150</text>
<line x1="56.0" y1="36.0" x2="624.0" y2="36.0" stroke="currentColor" stroke-opacity="0.15" stroke-width="1" />
<text x="50" y="36.0" font-size="11" fill="currentColor" opacity="0.75" text-anchor="end">200</text>
<rect x="62.1" y="125.0" width="69.0" height="111.0" fill="#5b8dd9" rx="2" />
<text x="96.6" y="121.0" font-size="11" fill="currentColor" text-anchor="middle">111</text>
<text x="96.6" y="252.0" font-size="11" fill="currentColor" opacity="0.85" text-anchor="end" transform="rotate(-30 96.6 252.0)">alpine</text>
<rect x="143.2" y="50.0" width="69.0" height="186.0" fill="#5b8dd9" rx="2" />
<text x="177.7" y="46.0" font-size="11" fill="currentColor" text-anchor="middle">186</text>
<text x="177.7" y="252.0" font-size="11" fill="currentColor" opacity="0.85" text-anchor="end" transform="rotate(-30 177.7 252.0)">ice</text>
<rect x="224.4" y="232.0" width="69.0" height="4.0" fill="#5b8dd9" rx="2" />
<text x="258.9" y="228.0" font-size="11" fill="currentColor" text-anchor="middle">4</text>
<text x="258.9" y="252.0" font-size="11" fill="currentColor" opacity="0.85" text-anchor="end" transform="rotate(-30 258.9 252.0)">savanna</text>
<rect x="305.5" y="192.0" width="69.0" height="44.0" fill="#5b8dd9" rx="2" />
<text x="340.0" y="188.0" font-size="11" fill="currentColor" text-anchor="middle">44</text>
<text x="340.0" y="252.0" font-size="11" fill="currentColor" opacity="0.85" text-anchor="end" transform="rotate(-30 340.0 252.0)">taiga</text>
<rect x="386.7" y="193.0" width="69.0" height="43.0" fill="#5b8dd9" rx="2" />
<text x="421.1" y="189.0" font-size="11" fill="currentColor" text-anchor="middle">43</text>
<text x="421.1" y="252.0" font-size="11" fill="currentColor" opacity="0.85" text-anchor="end" transform="rotate(-30 421.1 252.0)">temperate-forest</text>
<rect x="467.8" y="149.0" width="69.0" height="87.0" fill="#5b8dd9" rx="2" />
<text x="502.3" y="145.0" font-size="11" fill="currentColor" text-anchor="middle">87</text>
<text x="502.3" y="252.0" font-size="11" fill="currentColor" opacity="0.85" text-anchor="end" transform="rotate(-30 502.3 252.0)">tropical-seasonal-forest</text>
<rect x="548.9" y="211.0" width="69.0" height="25.0" fill="#5b8dd9" rx="2" />
<text x="583.4" y="207.0" font-size="11" fill="currentColor" text-anchor="middle">25</text>
<text x="583.4" y="252.0" font-size="11" fill="currentColor" opacity="0.85" text-anchor="end" transform="rotate(-30 583.4 252.0)">tundra</text>
</svg>
