<svg viewBox="0 0 640 300" width="100%" xmlns="http://www.w3.org/2000/svg" font-family="ui-sans-serif, system-ui, sans-serif">
<text x="56" y="20" font-size="13" font-weight="600" fill="currentColor">distinguishable-capacity-goblin — goblin-solo</text>
<line x1="56.0" y1="186.0" x2="624.0" y2="186.0" stroke="currentColor" stroke-opacity="0.15" stroke-width="1" />
<text x="50" y="186.0" font-size="11" fill="currentColor" opacity="0.75" text-anchor="end">50</text>
<line x1="56.0" y1="136.0" x2="624.0" y2="136.0" stroke="currentColor" stroke-opacity="0.15" stroke-width="1" />
<text x="50" y="136.0" font-size="11" fill="currentColor" opacity="0.75" text-anchor="end">100</text>
<line x1="56.0" y1="86.0" x2="624.0" y2="86.0" stroke="currentColor" stroke-opacity="0.15" stroke-width="1" />
<text x="50" y="86.0" font-size="11" fill="currentColor" opacity="0.75" text-anchor="end">150</text>
<line x1="56.0" y1="36.0" x2="624.0" y2="36.0" stroke="currentColor" stroke-opacity="0.15" stroke-width="1" />
<text x="50" y="36.0" font-size="11" fill="currentColor" opacity="0.75" text-anchor="end">200</text>
<rect x="61.3" y="197.0" width="60.4" height="39.0" fill="#5b8dd9" rx="2" />
<text x="91.5" y="193.0" font-size="11" fill="currentColor" text-anchor="middle">39</text>
<text x="91.5" y="252.0" font-size="11" fill="currentColor" opacity="0.85" text-anchor="end" transform="rotate(-30 91.5 252.0)">&lt; 24</text>
<rect x="132.3" y="163.0" width="60.4" height="73.0" fill="#5b8dd9" rx="2" />
<text x="162.5" y="159.0" font-size="11" fill="currentColor" text-anchor="middle">73</text>
<text x="162.5" y="252.0" font-size="11" fill="currentColor" opacity="0.85" text-anchor="end" transform="rotate(-30 162.5 252.0)">[24, 48)</text>
<rect x="203.3" y="118.0" width="60.4" height="118.0" fill="#5b8dd9" rx="2" />
<text x="233.5" y="114.0" font-size="11" fill="currentColor" text-anchor="middle">118</text>
<text x="233.5" y="252.0" font-size="11" fill="currentColor" opacity="0.85" text-anchor="end" transform="rotate(-30 233.5 252.0)">[48, 96)</text>
<rect x="274.3" y="117.0" width="60.4" height="119.0" fill="#5b8dd9" rx="2" />
<text x="304.5" y="113.0" font-size="11" fill="currentColor" text-anchor="middle">119</text>
<text x="304.5" y="252.0" font-size="11" fill="currentColor" opacity="0.85" text-anchor="end" transform="rotate(-30 304.5 252.0)">[96, 192)</text>
<rect x="345.3" y="158.0" width="60.4" height="78.0" fill="#5b8dd9" rx="2" />
<text x="375.5" y="154.0" font-size="11" fill="currentColor" text-anchor="middle">78</text>
<text x="375.5" y="252.0" font-size="11" fill="currentColor" opacity="0.85" text-anchor="end" transform="rotate(-30 375.5 252.0)">[192, 384)</text>
<rect x="416.3" y="189.0" width="60.4" height="47.0" fill="#5b8dd9" rx="2" />
<text x="446.5" y="185.0" font-size="11" fill="currentColor" text-anchor="middle">47</text>
<text x="446.5" y="252.0" font-size="11" fill="currentColor" opacity="0.85" text-anchor="end" transform="rotate(-30 446.5 252.0)">[384, 768)</text>
<rect x="487.3" y="218.0" width="60.4" height="18.0" fill="#5b8dd9" rx="2" />
<text x="517.5" y="214.0" font-size="11" fill="currentColor" text-anchor="middle">18</text>
<text x="517.5" y="252.0" font-size="11" fill="currentColor" opacity="0.85" text-anchor="end" transform="rotate(-30 517.5 252.0)">[768, 1536)</text>
<rect x="558.3" y="228.0" width="60.4" height="8.0" fill="#5b8dd9" rx="2" />
<text x="588.5" y="224.0" font-size="11" fill="currentColor" text-anchor="middle">8</text>
<text x="588.5" y="252.0" font-size="11" fill="currentColor" opacity="0.85" text-anchor="end" transform="rotate(-30 588.5 252.0)">&gt;= 1536</text>
</svg>
