<svg viewBox="0 0 640 300" width="100%" xmlns="http://www.w3.org/2000/svg" font-family="ui-sans-serif, system-ui, sans-serif">
<text x="56" y="20" font-size="13" font-weight="600" fill="currentColor">year-std-days — goblin-twin-solo</text>
<line x1="56.0" y1="186.0" x2="624.0" y2="186.0" stroke="currentColor" stroke-opacity="0.15" stroke-width="1" />
<text x="50" y="186.0" font-size="11" fill="currentColor" opacity="0.75" text-anchor="end">50</text>
<line x1="56.0" y1="136.0" x2="624.0" y2="136.0" stroke="currentColor" stroke-opacity="0.15" stroke-width="1" />
<text x="50" y="136.0" font-size="11" fill="currentColor" opacity="0.75" text-anchor="end">100</text>
<line x1="56.0" y1="86.0" x2="624.0" y2="86.0" stroke="currentColor" stroke-opacity="0.15" stroke-width="1" />
<text x="50" y="86.0" font-size="11" fill="currentColor" opacity="0.75" text-anchor="end">150</text>
<line x1="56.0" y1="36.0" x2="624.0" y2="36.0" stroke="currentColor" stroke-opacity="0.15" stroke-width="1" />
<text x="50" y="36.0" font-size="11" fill="currentColor" opacity="0.75" text-anchor="end">200</text>
<text x="87.6" y="232.0" font-size="11" fill="currentColor" text-anchor="middle">0</text>
<text x="87.6" y="252.0" font-size="11" fill="currentColor" opacity="0.85" text-anchor="end" transform="rotate(-30 87.6 252.0)">&lt; 0</text>
<rect x="123.8" y="181.0" width="53.6" height="55.0" fill="#5b8dd9" rx="2" />
<text x="150.7" y="177.0" font-size="11" fill="currentColor" text-anchor="middle">55</text>
<text x="150.7" y="252.0" font-size="11" fill="currentColor" opacity="0.85" text-anchor="end" transform="rotate(-30 150.7 252.0)">[0, 200)</text>
<rect x="187.0" y="83.0" width="53.6" height="153.0" fill="#5b8dd9" rx="2" />
<text x="213.8" y="79.0" font-size="11" fill="currentColor" text-anchor="middle">153</text>
<text x="213.8" y="252.0" font-size="11" fill="currentColor" opacity="0.85" text-anchor="end" transform="rotate(-30 213.8 252.0)">[200, 400)</text>
<rect x="250.1" y="111.0" width="53.6" height="125.0" fill="#5b8dd9" rx="2" />
<text x="276.9" y="107.0" font-size="11" fill="currentColor" text-anchor="middle">125</text>
<text x="276.9" y="252.0" font-size="11" fill="currentColor" opacity="0.85" text-anchor="end" transform="rotate(-30 276.9 252.0)">[400, 600)</text>
<rect x="313.2" y="142.0" width="53.6" height="94.0" fill="#5b8dd9" rx="2" />
<text x="340.0" y="138.0" font-size="11" fill="currentColor" text-anchor="middle">94</text>
<text x="340.0" y="252.0" font-size="11" fill="currentColor" opacity="0.85" text-anchor="end" transform="rotate(-30 340.0 252.0)">[600, 800)</text>
<rect x="376.3" y="177.0" width="53.6" height="59.0" fill="#5b8dd9" rx="2" />
<text x="403.1" y="173.0" font-size="11" fill="currentColor" text-anchor="middle">59</text>
<text x="403.1" y="252.0" font-size="11" fill="currentColor" opacity="0.85" text-anchor="end" transform="rotate(-30 403.1 252.0)">[800, 1000)</text>
<rect x="439.4" y="222.0" width="53.6" height="14.0" fill="#5b8dd9" rx="2" />
<text x="466.2" y="218.0" font-size="11" fill="currentColor" text-anchor="middle">14</text>
<text x="466.2" y="252.0" font-size="11" fill="currentColor" opacity="0.85" text-anchor="end" transform="rotate(-30 466.2 252.0)">[1000, 1200)</text>
<text x="529.3" y="232.0" font-size="11" fill="currentColor" text-anchor="middle">0</text>
<text x="529.3" y="252.0" font-size="11" fill="currentColor" opacity="0.85" text-anchor="end" transform="rotate(-30 529.3 252.0)">[1200, 1400)</text>
<text x="592.4" y="232.0" font-size="11" fill="currentColor" text-anchor="middle">0</text>
<text x="592.4" y="252.0" font-size="11" fill="currentColor" opacity="0.85" text-anchor="end" transform="rotate(-30 592.4 252.0)">&gt;= 1400</text>
</svg>
