<svg viewBox="0 0 640 300" width="100%" xmlns="http://www.w3.org/2000/svg" font-family="ui-sans-serif, system-ui, sans-serif">
<text x="56" y="20" font-size="13" font-weight="600" fill="currentColor">pantheon-cyclic-share-goblin-twin — goblin-twin-solo</text>
<line x1="56.0" y1="186.0" x2="624.0" y2="186.0" stroke="currentColor" stroke-opacity="0.15" stroke-width="1" />
<text x="50" y="186.0" font-size="11" fill="currentColor" opacity="0.75" text-anchor="end">62.5</text>
<line x1="56.0" y1="136.0" x2="624.0" y2="136.0" stroke="currentColor" stroke-opacity="0.15" stroke-width="1" />
<text x="50" y="136.0" font-size="11" fill="currentColor" opacity="0.75" text-anchor="end">125</text>
<line x1="56.0" y1="86.0" x2="624.0" y2="86.0" stroke="currentColor" stroke-opacity="0.15" stroke-width="1" />
<text x="50" y="86.0" font-size="11" fill="currentColor" opacity="0.75" text-anchor="end">187.5</text>
<line x1="56.0" y1="36.0" x2="624.0" y2="36.0" stroke="currentColor" stroke-opacity="0.15" stroke-width="1" />
<text x="50" y="36.0" font-size="11" fill="currentColor" opacity="0.75" text-anchor="end">250</text>
<text x="91.5" y="232.0" font-size="11" fill="currentColor" text-anchor="middle">0</text>
<text x="91.5" y="252.0" font-size="11" fill="currentColor" opacity="0.85" text-anchor="end" transform="rotate(-30 91.5 252.0)">&lt; 0</text>
<rect x="132.3" y="234.4" width="60.4" height="1.6" fill="#5b8dd9" rx="2" />
<text x="162.5" y="230.4" font-size="11" fill="currentColor" text-anchor="middle">2</text>
<text x="162.5" y="252.0" font-size="11" fill="currentColor" opacity="0.85" text-anchor="end" transform="rotate(-30 162.5 252.0)">[0, 0.2)</text>
<rect x="203.3" y="235.2" width="60.4" height="0.8" fill="#5b8dd9" rx="2" />
<text x="233.5" y="231.2" font-size="11" fill="currentColor" text-anchor="middle">1</text>
<text x="233.5" y="252.0" font-size="11" fill="currentColor" opacity="0.85" text-anchor="end" transform="rotate(-30 233.5 252.0)">[0.2, 0.4)</text>
<rect x="274.3" y="229.6" width="60.4" height="6.4" fill="#5b8dd9" rx="2" />
<text x="304.5" y="225.6" font-size="11" fill="currentColor" text-anchor="middle">8</text>
<text x="304.5" y="252.0" font-size="11" fill="currentColor" opacity="0.85" text-anchor="end" transform="rotate(-30 304.5 252.0)">[0.4, 0.6)</text>
<rect x="345.3" y="216.8" width="60.4" height="19.2" fill="#5b8dd9" rx="2" />
<text x="375.5" y="212.8" font-size="11" fill="currentColor" text-anchor="middle">24</text>
<text x="375.5" y="252.0" font-size="11" fill="currentColor" opacity="0.85" text-anchor="end" transform="rotate(-30 375.5 252.0)">[0.6, 0.8)</text>
<rect x="416.3" y="151.2" width="60.4" height="84.8" fill="#5b8dd9" rx="2" />
<text x="446.5" y="147.2" font-size="11" fill="currentColor" text-anchor="middle">106</text>
<text x="446.5" y="252.0" font-size="11" fill="currentColor" opacity="0.85" text-anchor="end" transform="rotate(-30 446.5 252.0)">[0.8, 1)</text>
<rect x="487.3" y="39.2" width="60.4" height="196.8" fill="#5b8dd9" rx="2" />
<text x="517.5" y="35.2" font-size="11" fill="currentColor" text-anchor="middle">246</text>
<text x="517.5" y="252.0" font-size="11" fill="currentColor" opacity="0.85" text-anchor="end" transform="rotate(-30 517.5 252.0)">&gt;= 1</text>
<rect x="558.3" y="145.6" width="60.4" height="90.4" fill="#5b8dd9" rx="2" />
<text x="588.5" y="141.6" font-size="11" fill="currentColor" text-anchor="middle">113</text>
<text x="588.5" y="252.0" font-size="11" fill="currentColor" opacity="0.85" text-anchor="end" transform="rotate(-30 588.5 252.0)">absent</text>
</svg>
