<svg viewBox="0 0 640 300" width="100%" xmlns="http://www.w3.org/2000/svg" font-family="ui-sans-serif, system-ui, sans-serif">
<text x="56" y="20" font-size="13" font-weight="600" fill="currentColor">total-population — goblin-twin-solo</text>
<line x1="56.0" y1="186.0" x2="624.0" y2="186.0" stroke="currentColor" stroke-opacity="0.15" stroke-width="1" />
<text x="50" y="186.0" font-size="11" fill="currentColor" opacity="0.75" text-anchor="end">50</text>
<line x1="56.0" y1="136.0" x2="624.0" y2="136.0" stroke="currentColor" stroke-opacity="0.15" stroke-width="1" />
<text x="50" y="136.0" font-size="11" fill="currentColor" opacity="0.75" text-anchor="end">100</text>
<line x1="56.0" y1="86.0" x2="624.0" y2="86.0" stroke="currentColor" stroke-opacity="0.15" stroke-width="1" />
<text x="50" y="86.0" font-size="11" fill="currentColor" opacity="0.75" text-anchor="end">150</text>
<line x1="56.0" y1="36.0" x2="624.0" y2="36.0" stroke="currentColor" stroke-opacity="0.15" stroke-width="1" />
<text x="50" y="36.0" font-size="11" fill="currentColor" opacity="0.75" text-anchor="end">200</text>
<text x="96.6" y="232.0" font-size="11" fill="currentColor" text-anchor="middle">0</text>
<text x="96.6" y="252.0" font-size="11" fill="currentColor" opacity="0.85" text-anchor="end" transform="rotate(-30 96.6 252.0)">&lt; 0</text>
<rect x="143.2" y="42.0" width="69.0" height="194.0" fill="#5b8dd9" rx="2" />
<text x="177.7" y="38.0" font-size="11" fill="currentColor" text-anchor="middle">194</text>
<text x="177.7" y="252.0" font-size="11" fill="currentColor" opacity="0.85" text-anchor="end" transform="rotate(-30 177.7 252.0)">[0, 500)</text>
<rect x="224.4" y="176.0" width="69.0" height="60.0" fill="#5b8dd9" rx="2" />
<text x="258.9" y="172.0" font-size="11" fill="currentColor" text-anchor="middle">60</text>
<text x="258.9" y="252.0" font-size="11" fill="currentColor" opacity="0.85" text-anchor="end" transform="rotate(-30 258.9 252.0)">[500, 1000)</text>
<rect x="305.5" y="130.0" width="69.0" height="106.0" fill="#5b8dd9" rx="2" />
<text x="340.0" y="126.0" font-size="11" fill="currentColor" text-anchor="middle">106</text>
<text x="340.0" y="252.0" font-size="11" fill="currentColor" opacity="0.85" text-anchor="end" transform="rotate(-30 340.0 252.0)">[1000, 2000)</text>
<rect x="386.7" y="109.0" width="69.0" height="127.0" fill="#5b8dd9" rx="2" />
<text x="421.1" y="105.0" font-size="11" fill="currentColor" text-anchor="middle">127</text>
<text x="421.1" y="252.0" font-size="11" fill="currentColor" opacity="0.85" text-anchor="end" transform="rotate(-30 421.1 252.0)">[2000, 4000)</text>
<rect x="467.8" y="223.0" width="69.0" height="13.0" fill="#5b8dd9" rx="2" />
<text x="502.3" y="219.0" font-size="11" fill="currentColor" text-anchor="middle">13</text>
<text x="502.3" y="252.0" font-size="11" fill="currentColor" opacity="0.85" text-anchor="end" transform="rotate(-30 502.3 252.0)">[4000, 8000)</text>
<text x="583.4" y="232.0" font-size="11" fill="currentColor" text-anchor="middle">0</text>
<text x="583.4" y="252.0" font-size="11" fill="currentColor" opacity="0.85" text-anchor="end" transform="rotate(-30 583.4 252.0)">&gt;= 8000</text>
</svg>
