<svg viewBox="0 0 640 300" width="100%" xmlns="http://www.w3.org/2000/svg" font-family="ui-sans-serif, system-ui, sans-serif">
<text x="56" y="20" font-size="13" font-weight="600" fill="currentColor">ecliptic-figure-count — goblin-twin-solo</text>
<line x1="56.0" y1="186.0" x2="624.0" y2="186.0" stroke="currentColor" stroke-opacity="0.15" stroke-width="1" />
<text x="50" y="186.0" font-size="11" fill="currentColor" opacity="0.75" text-anchor="end">50</text>
<line x1="56.0" y1="136.0" x2="624.0" y2="136.0" stroke="currentColor" stroke-opacity="0.15" stroke-width="1" />
<text x="50" y="136.0" font-size="11" fill="currentColor" opacity="0.75" text-anchor="end">100</text>
<line x1="56.0" y1="86.0" x2="624.0" y2="86.0" stroke="currentColor" stroke-opacity="0.15" stroke-width="1" />
<text x="50" y="86.0" font-size="11" fill="currentColor" opacity="0.75" text-anchor="end">150</text>
<line x1="56.0" y1="36.0" x2="624.0" y2="36.0" stroke="currentColor" stroke-opacity="0.15" stroke-width="1" />
<text x="50" y="36.0" font-size="11" fill="currentColor" opacity="0.75" text-anchor="end">200</text>
<rect x="61.3" y="63.0" width="60.4" height="173.0" fill="#5b8dd9" rx="2" />
<text x="91.5" y="59.0" font-size="11" fill="currentColor" text-anchor="middle">173</text>
<text x="91.5" y="252.0" font-size="11" fill="currentColor" opacity="0.85" text-anchor="middle">0</text>
<rect x="132.3" y="94.0" width="60.4" height="142.0" fill="#5b8dd9" rx="2" />
<text x="162.5" y="90.0" font-size="11" fill="currentColor" text-anchor="middle">142</text>
<text x="162.5" y="252.0" font-size="11" fill="currentColor" opacity="0.85" text-anchor="middle">1</text>
<rect x="203.3" y="151.0" width="60.4" height="85.0" fill="#5b8dd9" rx="2" />
<text x="233.5" y="147.0" font-size="11" fill="currentColor" text-anchor="middle">85</text>
<text x="233.5" y="252.0" font-size="11" fill="currentColor" opacity="0.85" text-anchor="middle">2</text>
<rect x="274.3" y="182.0" width="60.4" height="54.0" fill="#5b8dd9" rx="2" />
<text x="304.5" y="178.0" font-size="11" fill="currentColor" text-anchor="middle">54</text>
<text x="304.5" y="252.0" font-size="11" fill="currentColor" opacity="0.85" text-anchor="middle">3</text>
<rect x="345.3" y="208.0" width="60.4" height="28.0" fill="#5b8dd9" rx="2" />
<text x="375.5" y="204.0" font-size="11" fill="currentColor" text-anchor="middle">28</text>
<text x="375.5" y="252.0" font-size="11" fill="currentColor" opacity="0.85" text-anchor="middle">4</text>
<rect x="416.3" y="223.0" width="60.4" height="13.0" fill="#5b8dd9" rx="2" />
<text x="446.5" y="219.0" font-size="11" fill="currentColor" text-anchor="middle">13</text>
<text x="446.5" y="252.0" font-size="11" fill="currentColor" opacity="0.85" text-anchor="middle">5</text>
<rect x="487.3" y="232.0" width="60.4" height="4.0" fill="#5b8dd9" rx="2" />
<text x="517.5" y="228.0" font-size="11" fill="currentColor" text-anchor="middle">4</text>
<text x="517.5" y="252.0" font-size="11" fill="currentColor" opacity="0.85" text-anchor="middle">6</text>
<rect x="558.3" y="235.0" width="60.4" height="1.0" fill="#5b8dd9" rx="2" />
<text x="588.5" y="231.0" font-size="11" fill="currentColor" text-anchor="middle">1</text>
<text x="588.5" y="252.0" font-size="11" fill="currentColor" opacity="0.85" text-anchor="middle">7</text>
</svg>
