<svg viewBox="0 0 640 300" width="100%" xmlns="http://www.w3.org/2000/svg" font-family="ui-sans-serif, system-ui, sans-serif">
<text x="56" y="20" font-size="13" font-weight="600" fill="currentColor">name-collision-rate — goblin-twin-solo</text>
<line x1="56.0" y1="186.0" x2="624.0" y2="186.0" stroke="currentColor" stroke-opacity="0.15" stroke-width="1" />
<text x="50" y="186.0" font-size="11" fill="currentColor" opacity="0.75" text-anchor="end">62.5</text>
<line x1="56.0" y1="136.0" x2="624.0" y2="136.0" stroke="currentColor" stroke-opacity="0.15" stroke-width="1" />
<text x="50" y="136.0" font-size="11" fill="currentColor" opacity="0.75" text-anchor="end">125</text>
<line x1="56.0" y1="86.0" x2="624.0" y2="86.0" stroke="currentColor" stroke-opacity="0.15" stroke-width="1" />
<text x="50" y="86.0" font-size="11" fill="currentColor" opacity="0.75" text-anchor="end">187.5</text>
<line x1="56.0" y1="36.0" x2="624.0" y2="36.0" stroke="currentColor" stroke-opacity="0.15" stroke-width="1" />
<text x="50" y="36.0" font-size="11" fill="currentColor" opacity="0.75" text-anchor="end">250</text>
<text x="91.5" y="232.0" font-size="11" fill="currentColor" text-anchor="middle">0</text>
<text x="91.5" y="252.0" font-size="11" fill="currentColor" opacity="0.85" text-anchor="end" transform="rotate(-30 91.5 252.0)">&lt; 0</text>
<rect x="132.3" y="52.0" width="60.4" height="184.0" fill="#5b8dd9" rx="2" />
<text x="162.5" y="48.0" font-size="11" fill="currentColor" text-anchor="middle">230</text>
<text x="162.5" y="252.0" font-size="11" fill="currentColor" opacity="0.85" text-anchor="end" transform="rotate(-30 162.5 252.0)">[0, 0.01)</text>
<rect x="203.3" y="229.6" width="60.4" height="6.4" fill="#5b8dd9" rx="2" />
<text x="233.5" y="225.6" font-size="11" fill="currentColor" text-anchor="middle">8</text>
<text x="233.5" y="252.0" font-size="11" fill="currentColor" opacity="0.85" text-anchor="end" transform="rotate(-30 233.5 252.0)">[0.01, 0.02)</text>
<rect x="274.3" y="197.6" width="60.4" height="38.4" fill="#5b8dd9" rx="2" />
<text x="304.5" y="193.6" font-size="11" fill="currentColor" text-anchor="middle">48</text>
<text x="304.5" y="252.0" font-size="11" fill="currentColor" opacity="0.85" text-anchor="end" transform="rotate(-30 304.5 252.0)">[0.02, 0.05)</text>
<rect x="345.3" y="178.4" width="60.4" height="57.6" fill="#5b8dd9" rx="2" />
<text x="375.5" y="174.4" font-size="11" fill="currentColor" text-anchor="middle">72</text>
<text x="375.5" y="252.0" font-size="11" fill="currentColor" opacity="0.85" text-anchor="end" transform="rotate(-30 375.5 252.0)">[0.05, 0.1)</text>
<rect x="416.3" y="204.8" width="60.4" height="31.2" fill="#5b8dd9" rx="2" />
<text x="446.5" y="200.8" font-size="11" fill="currentColor" text-anchor="middle">39</text>
<text x="446.5" y="252.0" font-size="11" fill="currentColor" opacity="0.85" text-anchor="end" transform="rotate(-30 446.5 252.0)">[0.1, 0.2)</text>
<rect x="487.3" y="183.2" width="60.4" height="52.8" fill="#5b8dd9" rx="2" />
<text x="517.5" y="179.2" font-size="11" fill="currentColor" text-anchor="middle">66</text>
<text x="517.5" y="252.0" font-size="11" fill="currentColor" opacity="0.85" text-anchor="end" transform="rotate(-30 517.5 252.0)">[0.2, 0.4)</text>
<rect x="558.3" y="206.4" width="60.4" height="29.6" fill="#5b8dd9" rx="2" />
<text x="588.5" y="202.4" font-size="11" fill="currentColor" text-anchor="middle">37</text>
<text x="588.5" y="252.0" font-size="11" fill="currentColor" opacity="0.85" text-anchor="end" transform="rotate(-30 588.5 252.0)">&gt;= 0.4</text>
</svg>
