<svg viewBox="0 0 640 300" width="100%" xmlns="http://www.w3.org/2000/svg" font-family="ui-sans-serif, system-ui, sans-serif">
<text x="56" y="20" font-size="13" font-weight="600" fill="currentColor">divergence-magnitude-goblin — goblin-solo</text>
<line x1="56.0" y1="186.0" x2="624.0" y2="186.0" stroke="currentColor" stroke-opacity="0.15" stroke-width="1" />
<text x="50" y="186.0" font-size="11" fill="currentColor" opacity="0.75" text-anchor="end">50</text>
<line x1="56.0" y1="136.0" x2="624.0" y2="136.0" stroke="currentColor" stroke-opacity="0.15" stroke-width="1" />
<text x="50" y="136.0" font-size="11" fill="currentColor" opacity="0.75" text-anchor="end">100</text>
<line x1="56.0" y1="86.0" x2="624.0" y2="86.0" stroke="currentColor" stroke-opacity="0.15" stroke-width="1" />
<text x="50" y="86.0" font-size="11" fill="currentColor" opacity="0.75" text-anchor="end">150</text>
<line x1="56.0" y1="36.0" x2="624.0" y2="36.0" stroke="currentColor" stroke-opacity="0.15" stroke-width="1" />
<text x="50" y="36.0" font-size="11" fill="currentColor" opacity="0.75" text-anchor="end">200</text>
<text x="91.5" y="232.0" font-size="11" fill="currentColor" text-anchor="middle">0</text>
<text x="91.5" y="252.0" font-size="11" fill="currentColor" opacity="0.85" text-anchor="middle">&lt; 0</text>
<rect x="132.3" y="222.0" width="60.4" height="14.0" fill="#5b8dd9" rx="2" />
<text x="162.5" y="218.0" font-size="11" fill="currentColor" text-anchor="middle">14</text>
<text x="162.5" y="252.0" font-size="11" fill="currentColor" opacity="0.85" text-anchor="middle">[0, 1)</text>
<rect x="203.3" y="155.0" width="60.4" height="81.0" fill="#5b8dd9" rx="2" />
<text x="233.5" y="151.0" font-size="11" fill="currentColor" text-anchor="middle">81</text>
<text x="233.5" y="252.0" font-size="11" fill="currentColor" opacity="0.85" text-anchor="middle">[1, 2)</text>
<rect x="274.3" y="131.0" width="60.4" height="105.0" fill="#5b8dd9" rx="2" />
<text x="304.5" y="127.0" font-size="11" fill="currentColor" text-anchor="middle">105</text>
<text x="304.5" y="252.0" font-size="11" fill="currentColor" opacity="0.85" text-anchor="middle">[2, 3)</text>
<rect x="345.3" y="121.0" width="60.4" height="115.0" fill="#5b8dd9" rx="2" />
<text x="375.5" y="117.0" font-size="11" fill="currentColor" text-anchor="middle">115</text>
<text x="375.5" y="252.0" font-size="11" fill="currentColor" opacity="0.85" text-anchor="middle">[3, 4)</text>
<rect x="416.3" y="80.0" width="60.4" height="156.0" fill="#5b8dd9" rx="2" />
<text x="446.5" y="76.0" font-size="11" fill="currentColor" text-anchor="middle">156</text>
<text x="446.5" y="252.0" font-size="11" fill="currentColor" opacity="0.85" text-anchor="middle">[4, 6)</text>
<rect x="487.3" y="210.0" width="60.4" height="26.0" fill="#5b8dd9" rx="2" />
<text x="517.5" y="206.0" font-size="11" fill="currentColor" text-anchor="middle">26</text>
<text x="517.5" y="252.0" font-size="11" fill="currentColor" opacity="0.85" text-anchor="middle">[6, 8)</text>
<rect x="558.3" y="233.0" width="60.4" height="3.0" fill="#5b8dd9" rx="2" />
<text x="588.5" y="229.0" font-size="11" fill="currentColor" text-anchor="middle">3</text>
<text x="588.5" y="252.0" font-size="11" fill="currentColor" opacity="0.85" text-anchor="middle">&gt;= 8</text>
</svg>
