<svg viewBox="0 0 640 300" width="100%" xmlns="http://www.w3.org/2000/svg" font-family="ui-sans-serif, system-ui, sans-serif">
<text x="56" y="20" font-size="13" font-weight="600" fill="currentColor">mean-land-temperature-c — goblin-twin-solo</text>
<line x1="56.0" y1="186.0" x2="624.0" y2="186.0" stroke="currentColor" stroke-opacity="0.15" stroke-width="1" />
<text x="50" y="186.0" font-size="11" fill="currentColor" opacity="0.75" text-anchor="end">50</text>
<line x1="56.0" y1="136.0" x2="624.0" y2="136.0" stroke="currentColor" stroke-opacity="0.15" stroke-width="1" />
<text x="50" y="136.0" font-size="11" fill="currentColor" opacity="0.75" text-anchor="end">100</text>
<line x1="56.0" y1="86.0" x2="624.0" y2="86.0" stroke="currentColor" stroke-opacity="0.15" stroke-width="1" />
<text x="50" y="86.0" font-size="11" fill="currentColor" opacity="0.75" text-anchor="end">150</text>
<line x1="56.0" y1="36.0" x2="624.0" y2="36.0" stroke="currentColor" stroke-opacity="0.15" stroke-width="1" />
<text x="50" y="36.0" font-size="11" fill="currentColor" opacity="0.75" text-anchor="end">200</text>
<rect x="61.3" y="179.0" width="60.4" height="57.0" fill="#5b8dd9" rx="2" />
<text x="91.5" y="175.0" font-size="11" fill="currentColor" text-anchor="middle">57</text>
<text x="91.5" y="252.0" font-size="11" fill="currentColor" opacity="0.85" text-anchor="end" transform="rotate(-30 91.5 252.0)">&lt; -30</text>
<rect x="132.3" y="166.0" width="60.4" height="70.0" fill="#5b8dd9" rx="2" />
<text x="162.5" y="162.0" font-size="11" fill="currentColor" text-anchor="middle">70</text>
<text x="162.5" y="252.0" font-size="11" fill="currentColor" opacity="0.85" text-anchor="end" transform="rotate(-30 162.5 252.0)">[-30, -20)</text>
<rect x="203.3" y="138.0" width="60.4" height="98.0" fill="#5b8dd9" rx="2" />
<text x="233.5" y="134.0" font-size="11" fill="currentColor" text-anchor="middle">98</text>
<text x="233.5" y="252.0" font-size="11" fill="currentColor" opacity="0.85" text-anchor="end" transform="rotate(-30 233.5 252.0)">[-20, -10)</text>
<rect x="274.3" y="135.0" width="60.4" height="101.0" fill="#5b8dd9" rx="2" />
<text x="304.5" y="131.0" font-size="11" fill="currentColor" text-anchor="middle">101</text>
<text x="304.5" y="252.0" font-size="11" fill="currentColor" opacity="0.85" text-anchor="end" transform="rotate(-30 304.5 252.0)">[-10, 0)</text>
<rect x="345.3" y="146.0" width="60.4" height="90.0" fill="#5b8dd9" rx="2" />
<text x="375.5" y="142.0" font-size="11" fill="currentColor" text-anchor="middle">90</text>
<text x="375.5" y="252.0" font-size="11" fill="currentColor" opacity="0.85" text-anchor="end" transform="rotate(-30 375.5 252.0)">[0, 10)</text>
<rect x="416.3" y="188.0" width="60.4" height="48.0" fill="#5b8dd9" rx="2" />
<text x="446.5" y="184.0" font-size="11" fill="currentColor" text-anchor="middle">48</text>
<text x="446.5" y="252.0" font-size="11" fill="currentColor" opacity="0.85" text-anchor="end" transform="rotate(-30 446.5 252.0)">[10, 20)</text>
<rect x="487.3" y="206.0" width="60.4" height="30.0" fill="#5b8dd9" rx="2" />
<text x="517.5" y="202.0" font-size="11" fill="currentColor" text-anchor="middle">30</text>
<text x="517.5" y="252.0" font-size="11" fill="currentColor" opacity="0.85" text-anchor="end" transform="rotate(-30 517.5 252.0)">[20, 30)</text>
<rect x="558.3" y="230.0" width="60.4" height="6.0" fill="#5b8dd9" rx="2" />
<text x="588.5" y="226.0" font-size="11" fill="currentColor" text-anchor="middle">6</text>
<text x="588.5" y="252.0" font-size="11" fill="currentColor" opacity="0.85" text-anchor="end" transform="rotate(-30 588.5 252.0)">&gt;= 30</text>
</svg>
