<svg viewBox="0 0 640 300" width="100%" xmlns="http://www.w3.org/2000/svg" font-family="ui-sans-serif, system-ui, sans-serif">
<text x="56" y="20" font-size="13" font-weight="600" fill="currentColor">flagship-biome — goblin-solo</text>
<line x1="56.0" y1="186.0" x2="624.0" y2="186.0" stroke="currentColor" stroke-opacity="0.15" stroke-width="1" />
<text x="50" y="186.0" font-size="11" fill="currentColor" opacity="0.75" text-anchor="end">125</text>
<line x1="56.0" y1="136.0" x2="624.0" y2="136.0" stroke="currentColor" stroke-opacity="0.15" stroke-width="1" />
<text x="50" y="136.0" font-size="11" fill="currentColor" opacity="0.75" text-anchor="end">250</text>
<line x1="56.0" y1="86.0" x2="624.0" y2="86.0" stroke="currentColor" stroke-opacity="0.15" stroke-width="1" />
<text x="50" y="86.0" font-size="11" fill="currentColor" opacity="0.75" text-anchor="end">375</text>
<line x1="56.0" y1="36.0" x2="624.0" y2="36.0" stroke="currentColor" stroke-opacity="0.15" stroke-width="1" />
<text x="50" y="36.0" font-size="11" fill="currentColor" opacity="0.75" text-anchor="end">500</text>
<rect x="60.7" y="222.8" width="53.6" height="13.2" fill="#5b8dd9" rx="2" />
<text x="87.6" y="218.8" font-size="11" fill="currentColor" text-anchor="middle">33</text>
<text x="87.6" y="252.0" font-size="11" fill="currentColor" opacity="0.85" text-anchor="end" transform="rotate(-30 87.6 252.0)">alpine</text>
<rect x="123.8" y="234.4" width="53.6" height="1.6" fill="#5b8dd9" rx="2" />
<text x="150.7" y="230.4" font-size="11" fill="currentColor" text-anchor="middle">4</text>
<text x="150.7" y="252.0" font-size="11" fill="currentColor" opacity="0.85" text-anchor="end" transform="rotate(-30 150.7 252.0)">savanna</text>
<rect x="187.0" y="226.4" width="53.6" height="9.6" fill="#5b8dd9" rx="2" />
<text x="213.8" y="222.4" font-size="11" fill="currentColor" text-anchor="middle">24</text>
<text x="213.8" y="252.0" font-size="11" fill="currentColor" opacity="0.85" text-anchor="end" transform="rotate(-30 213.8 252.0)">shrubland</text>
<rect x="250.1" y="213.6" width="53.6" height="22.4" fill="#5b8dd9" rx="2" />
<text x="276.9" y="209.6" font-size="11" fill="currentColor" text-anchor="middle">56</text>
<text x="276.9" y="252.0" font-size="11" fill="currentColor" opacity="0.85" text-anchor="end" transform="rotate(-30 276.9 252.0)">taiga</text>
<rect x="313.2" y="206.8" width="53.6" height="29.2" fill="#5b8dd9" rx="2" />
<text x="340.0" y="202.8" font-size="11" fill="currentColor" text-anchor="middle">73</text>
<text x="340.0" y="252.0" font-size="11" fill="currentColor" opacity="0.85" text-anchor="end" transform="rotate(-30 340.0 252.0)">temperate-forest</text>
<rect x="376.3" y="231.2" width="53.6" height="4.8" fill="#5b8dd9" rx="2" />
<text x="403.1" y="227.2" font-size="11" fill="currentColor" text-anchor="middle">12</text>
<text x="403.1" y="252.0" font-size="11" fill="currentColor" opacity="0.85" text-anchor="end" transform="rotate(-30 403.1 252.0)">temperate-grassland</text>
<rect x="439.4" y="121.2" width="53.6" height="114.8" fill="#5b8dd9" rx="2" />
<text x="466.2" y="117.2" font-size="11" fill="currentColor" text-anchor="middle">287</text>
<text x="466.2" y="252.0" font-size="11" fill="currentColor" opacity="0.85" text-anchor="end" transform="rotate(-30 466.2 252.0)">temperate-rainforest</text>
<rect x="502.5" y="232.0" width="53.6" height="4.0" fill="#5b8dd9" rx="2" />
<text x="529.3" y="228.0" font-size="11" fill="currentColor" text-anchor="middle">10</text>
<text x="529.3" y="252.0" font-size="11" fill="currentColor" opacity="0.85" text-anchor="end" transform="rotate(-30 529.3 252.0)">tropical-rainforest</text>
<rect x="565.6" y="235.6" width="53.6" height="0.4" fill="#5b8dd9" rx="2" />
<text x="592.4" y="231.6" font-size="11" fill="currentColor" text-anchor="middle">1</text>
<text x="592.4" y="252.0" font-size="11" fill="currentColor" opacity="0.85" text-anchor="end" transform="rotate(-30 592.4 252.0)">tropical-seasonal-forest</text>
</svg>
