<svg viewBox="0 0 640 300" width="100%" xmlns="http://www.w3.org/2000/svg" font-family="ui-sans-serif, system-ui, sans-serif">
<text x="56" y="20" font-size="13" font-weight="600" fill="currentColor">flagship-biome — goblin-solo</text>
<line x1="56.0" y1="186.0" x2="624.0" y2="186.0" stroke="currentColor" stroke-opacity="0.15" stroke-width="1" />
<text x="50" y="186.0" font-size="11" fill="currentColor" opacity="0.75" text-anchor="end">50</text>
<line x1="56.0" y1="136.0" x2="624.0" y2="136.0" stroke="currentColor" stroke-opacity="0.15" stroke-width="1" />
<text x="50" y="136.0" font-size="11" fill="currentColor" opacity="0.75" text-anchor="end">100</text>
<line x1="56.0" y1="86.0" x2="624.0" y2="86.0" stroke="currentColor" stroke-opacity="0.15" stroke-width="1" />
<text x="50" y="86.0" font-size="11" fill="currentColor" opacity="0.75" text-anchor="end">150</text>
<line x1="56.0" y1="36.0" x2="624.0" y2="36.0" stroke="currentColor" stroke-opacity="0.15" stroke-width="1" />
<text x="50" y="36.0" font-size="11" fill="currentColor" opacity="0.75" text-anchor="end">200</text>
<rect x="60.7" y="231.0" width="53.6" height="5.0" fill="#5b8dd9" rx="2" />
<text x="87.6" y="227.0" font-size="11" fill="currentColor" text-anchor="middle">5</text>
<text x="87.6" y="252.0" font-size="11" fill="currentColor" opacity="0.85" text-anchor="end" transform="rotate(-30 87.6 252.0)">alpine</text>
<rect x="123.8" y="231.0" width="53.6" height="5.0" fill="#5b8dd9" rx="2" />
<text x="150.7" y="227.0" font-size="11" fill="currentColor" text-anchor="middle">5</text>
<text x="150.7" y="252.0" font-size="11" fill="currentColor" opacity="0.85" text-anchor="end" transform="rotate(-30 150.7 252.0)">savanna</text>
<rect x="187.0" y="234.0" width="53.6" height="2.0" fill="#5b8dd9" rx="2" />
<text x="213.8" y="230.0" font-size="11" fill="currentColor" text-anchor="middle">2</text>
<text x="213.8" y="252.0" font-size="11" fill="currentColor" opacity="0.85" text-anchor="end" transform="rotate(-30 213.8 252.0)">shrubland</text>
<rect x="250.1" y="210.0" width="53.6" height="26.0" fill="#5b8dd9" rx="2" />
<text x="276.9" y="206.0" font-size="11" fill="currentColor" text-anchor="middle">26</text>
<text x="276.9" y="252.0" font-size="11" fill="currentColor" opacity="0.85" text-anchor="end" transform="rotate(-30 276.9 252.0)">taiga</text>
<rect x="313.2" y="102.0" width="53.6" height="134.0" fill="#5b8dd9" rx="2" />
<text x="340.0" y="98.0" font-size="11" fill="currentColor" text-anchor="middle">134</text>
<text x="340.0" y="252.0" font-size="11" fill="currentColor" opacity="0.85" text-anchor="end" transform="rotate(-30 340.0 252.0)">temperate-forest</text>
<rect x="376.3" y="223.0" width="53.6" height="13.0" fill="#5b8dd9" rx="2" />
<text x="403.1" y="219.0" font-size="11" fill="currentColor" text-anchor="middle">13</text>
<text x="403.1" y="252.0" font-size="11" fill="currentColor" opacity="0.85" text-anchor="end" transform="rotate(-30 403.1 252.0)">temperate-rainforest</text>
<rect x="439.4" y="173.0" width="53.6" height="63.0" fill="#5b8dd9" rx="2" />
<text x="466.2" y="169.0" font-size="11" fill="currentColor" text-anchor="middle">63</text>
<text x="466.2" y="252.0" font-size="11" fill="currentColor" opacity="0.85" text-anchor="end" transform="rotate(-30 466.2 252.0)">tropical-rainforest</text>
<rect x="502.5" y="97.0" width="53.6" height="139.0" fill="#5b8dd9" rx="2" />
<text x="529.3" y="93.0" font-size="11" fill="currentColor" text-anchor="middle">139</text>
<text x="529.3" y="252.0" font-size="11" fill="currentColor" opacity="0.85" text-anchor="end" transform="rotate(-30 529.3 252.0)">tropical-seasonal-forest</text>
<rect x="565.6" y="123.0" width="53.6" height="113.0" fill="#5b8dd9" rx="2" />
<text x="592.4" y="119.0" font-size="11" fill="currentColor" text-anchor="middle">113</text>
<text x="592.4" y="252.0" font-size="11" fill="currentColor" opacity="0.85" text-anchor="end" transform="rotate(-30 592.4 252.0)">absent</text>
</svg>
