<svg viewBox="0 0 640 300" width="100%" xmlns="http://www.w3.org/2000/svg" font-family="ui-sans-serif, system-ui, sans-serif">
<text x="56" y="20" font-size="13" font-weight="600" fill="currentColor">flagship-subsistence — goblin-solo</text>
<line x1="56.0" y1="186.0" x2="624.0" y2="186.0" stroke="currentColor" stroke-opacity="0.15" stroke-width="1" />
<text x="50" y="186.0" font-size="11" fill="currentColor" opacity="0.75" text-anchor="end">125</text>
<line x1="56.0" y1="136.0" x2="624.0" y2="136.0" stroke="currentColor" stroke-opacity="0.15" stroke-width="1" />
<text x="50" y="136.0" font-size="11" fill="currentColor" opacity="0.75" text-anchor="end">250</text>
<line x1="56.0" y1="86.0" x2="624.0" y2="86.0" stroke="currentColor" stroke-opacity="0.15" stroke-width="1" />
<text x="50" y="86.0" font-size="11" fill="currentColor" opacity="0.75" text-anchor="end">375</text>
<line x1="56.0" y1="36.0" x2="624.0" y2="36.0" stroke="currentColor" stroke-opacity="0.15" stroke-width="1" />
<text x="50" y="36.0" font-size="11" fill="currentColor" opacity="0.75" text-anchor="end">500</text>
<rect x="66.7" y="52.8" width="120.7" height="183.2" fill="#5b8dd9" rx="2" />
<text x="127.0" y="48.8" font-size="11" fill="currentColor" text-anchor="middle">458</text>
<text x="127.0" y="252.0" font-size="11" fill="currentColor" opacity="0.85" text-anchor="middle">farming</text>
<rect x="208.7" y="235.2" width="120.7" height="0.8" fill="#5b8dd9" rx="2" />
<text x="269.0" y="231.2" font-size="11" fill="currentColor" text-anchor="middle">2</text>
<text x="269.0" y="252.0" font-size="11" fill="currentColor" opacity="0.85" text-anchor="middle">fishing</text>
<rect x="350.6" y="223.6" width="120.7" height="12.4" fill="#5b8dd9" rx="2" />
<text x="411.0" y="219.6" font-size="11" fill="currentColor" text-anchor="middle">31</text>
<text x="411.0" y="252.0" font-size="11" fill="currentColor" opacity="0.85" text-anchor="middle">foraging</text>
<rect x="492.6" y="232.4" width="120.7" height="3.6" fill="#5b8dd9" rx="2" />
<text x="553.0" y="228.4" font-size="11" fill="currentColor" text-anchor="middle">9</text>
<text x="553.0" y="252.0" font-size="11" fill="currentColor" opacity="0.85" text-anchor="middle">herding</text>
</svg>
