<svg viewBox="0 0 640 300" width="100%" xmlns="http://www.w3.org/2000/svg" font-family="ui-sans-serif, system-ui, sans-serif">
<text x="56" y="20" font-size="13" font-weight="600" fill="currentColor">name-length-goblin — goblin-solo</text>
<line x1="56.0" y1="186.0" x2="624.0" y2="186.0" stroke="currentColor" stroke-opacity="0.15" stroke-width="1" />
<text x="50" y="186.0" font-size="11" fill="currentColor" opacity="0.75" text-anchor="end">125</text>
<line x1="56.0" y1="136.0" x2="624.0" y2="136.0" stroke="currentColor" stroke-opacity="0.15" stroke-width="1" />
<text x="50" y="136.0" font-size="11" fill="currentColor" opacity="0.75" text-anchor="end">250</text>
<line x1="56.0" y1="86.0" x2="624.0" y2="86.0" stroke="currentColor" stroke-opacity="0.15" stroke-width="1" />
<text x="50" y="86.0" font-size="11" fill="currentColor" opacity="0.75" text-anchor="end">375</text>
<line x1="56.0" y1="36.0" x2="624.0" y2="36.0" stroke="currentColor" stroke-opacity="0.15" stroke-width="1" />
<text x="50" y="36.0" font-size="11" fill="currentColor" opacity="0.75" text-anchor="end">500</text>
<text x="84.4" y="232.0" font-size="11" fill="currentColor" text-anchor="middle">0</text>
<text x="84.4" y="252.0" font-size="11" fill="currentColor" opacity="0.85" text-anchor="middle">&lt; 2</text>
<text x="141.2" y="232.0" font-size="11" fill="currentColor" text-anchor="middle">0</text>
<text x="141.2" y="252.0" font-size="11" fill="currentColor" opacity="0.85" text-anchor="middle">[2, 3)</text>
<text x="198.0" y="232.0" font-size="11" fill="currentColor" text-anchor="middle">0</text>
<text x="198.0" y="252.0" font-size="11" fill="currentColor" opacity="0.85" text-anchor="middle">[3, 4)</text>
<rect x="230.7" y="235.6" width="48.3" height="0.4" fill="#5b8dd9" rx="2" />
<text x="254.8" y="231.6" font-size="11" fill="currentColor" text-anchor="middle">1</text>
<text x="254.8" y="252.0" font-size="11" fill="currentColor" opacity="0.85" text-anchor="middle">[4, 5)</text>
<rect x="287.5" y="232.8" width="48.3" height="3.2" fill="#5b8dd9" rx="2" />
<text x="311.6" y="228.8" font-size="11" fill="currentColor" text-anchor="middle">8</text>
<text x="311.6" y="252.0" font-size="11" fill="currentColor" opacity="0.85" text-anchor="middle">[5, 6)</text>
<rect x="344.3" y="227.2" width="48.3" height="8.8" fill="#5b8dd9" rx="2" />
<text x="368.4" y="223.2" font-size="11" fill="currentColor" text-anchor="middle">22</text>
<text x="368.4" y="252.0" font-size="11" fill="currentColor" opacity="0.85" text-anchor="middle">[6, 7)</text>
<rect x="401.1" y="217.6" width="48.3" height="18.4" fill="#5b8dd9" rx="2" />
<text x="425.2" y="213.6" font-size="11" fill="currentColor" text-anchor="middle">46</text>
<text x="425.2" y="252.0" font-size="11" fill="currentColor" opacity="0.85" text-anchor="middle">[7, 8)</text>
<rect x="457.9" y="210.0" width="48.3" height="26.0" fill="#5b8dd9" rx="2" />
<text x="482.0" y="206.0" font-size="11" fill="currentColor" text-anchor="middle">65</text>
<text x="482.0" y="252.0" font-size="11" fill="currentColor" opacity="0.85" text-anchor="middle">[8, 9)</text>
<rect x="514.7" y="208.4" width="48.3" height="27.6" fill="#5b8dd9" rx="2" />
<text x="538.8" y="204.4" font-size="11" fill="currentColor" text-anchor="middle">69</text>
<text x="538.8" y="252.0" font-size="11" fill="currentColor" opacity="0.85" text-anchor="middle">[9, 10)</text>
<rect x="571.5" y="120.4" width="48.3" height="115.6" fill="#5b8dd9" rx="2" />
<text x="595.6" y="116.4" font-size="11" fill="currentColor" text-anchor="middle">289</text>
<text x="595.6" y="252.0" font-size="11" fill="currentColor" opacity="0.85" text-anchor="middle">&gt;= 10</text>
</svg>
