<svg viewBox="0 0 640 300" width="100%" xmlns="http://www.w3.org/2000/svg" font-family="ui-sans-serif, system-ui, sans-serif">
<text x="56" y="20" font-size="13" font-weight="600" fill="currentColor">eclipse-year-days — goblin-twin-solo</text>
<line x1="56.0" y1="186.0" x2="624.0" y2="186.0" stroke="currentColor" stroke-opacity="0.15" stroke-width="1" />
<text x="50" y="186.0" font-size="11" fill="currentColor" opacity="0.75" text-anchor="end">50</text>
<line x1="56.0" y1="136.0" x2="624.0" y2="136.0" stroke="currentColor" stroke-opacity="0.15" stroke-width="1" />
<text x="50" y="136.0" font-size="11" fill="currentColor" opacity="0.75" text-anchor="end">100</text>
<line x1="56.0" y1="86.0" x2="624.0" y2="86.0" stroke="currentColor" stroke-opacity="0.15" stroke-width="1" />
<text x="50" y="86.0" font-size="11" fill="currentColor" opacity="0.75" text-anchor="end">150</text>
<line x1="56.0" y1="36.0" x2="624.0" y2="36.0" stroke="currentColor" stroke-opacity="0.15" stroke-width="1" />
<text x="50" y="36.0" font-size="11" fill="currentColor" opacity="0.75" text-anchor="end">200</text>
<text x="87.6" y="232.0" font-size="11" fill="currentColor" text-anchor="middle">0</text>
<text x="87.6" y="252.0" font-size="11" fill="currentColor" opacity="0.85" text-anchor="end" transform="rotate(-30 87.6 252.0)">&lt; 0</text>
<text x="150.7" y="232.0" font-size="11" fill="currentColor" text-anchor="middle">0</text>
<text x="150.7" y="252.0" font-size="11" fill="currentColor" opacity="0.85" text-anchor="end" transform="rotate(-30 150.7 252.0)">[0, 100)</text>
<rect x="187.0" y="185.0" width="53.6" height="51.0" fill="#5b8dd9" rx="2" />
<text x="213.8" y="181.0" font-size="11" fill="currentColor" text-anchor="middle">51</text>
<text x="213.8" y="252.0" font-size="11" fill="currentColor" opacity="0.85" text-anchor="end" transform="rotate(-30 213.8 252.0)">[100, 200)</text>
<rect x="250.1" y="163.0" width="53.6" height="73.0" fill="#5b8dd9" rx="2" />
<text x="276.9" y="159.0" font-size="11" fill="currentColor" text-anchor="middle">73</text>
<text x="276.9" y="252.0" font-size="11" fill="currentColor" opacity="0.85" text-anchor="end" transform="rotate(-30 276.9 252.0)">[200, 300)</text>
<rect x="313.2" y="175.0" width="53.6" height="61.0" fill="#5b8dd9" rx="2" />
<text x="340.0" y="171.0" font-size="11" fill="currentColor" text-anchor="middle">61</text>
<text x="340.0" y="252.0" font-size="11" fill="currentColor" opacity="0.85" text-anchor="end" transform="rotate(-30 340.0 252.0)">[300, 400)</text>
<rect x="376.3" y="132.0" width="53.6" height="104.0" fill="#5b8dd9" rx="2" />
<text x="403.1" y="128.0" font-size="11" fill="currentColor" text-anchor="middle">104</text>
<text x="403.1" y="252.0" font-size="11" fill="currentColor" opacity="0.85" text-anchor="end" transform="rotate(-30 403.1 252.0)">[400, 600)</text>
<rect x="439.4" y="107.0" width="53.6" height="129.0" fill="#5b8dd9" rx="2" />
<text x="466.2" y="103.0" font-size="11" fill="currentColor" text-anchor="middle">129</text>
<text x="466.2" y="252.0" font-size="11" fill="currentColor" opacity="0.85" text-anchor="end" transform="rotate(-30 466.2 252.0)">[600, 1000)</text>
<rect x="502.5" y="226.0" width="53.6" height="10.0" fill="#5b8dd9" rx="2" />
<text x="529.3" y="222.0" font-size="11" fill="currentColor" text-anchor="middle">10</text>
<text x="529.3" y="252.0" font-size="11" fill="currentColor" opacity="0.85" text-anchor="end" transform="rotate(-30 529.3 252.0)">&gt;= 1000</text>
<rect x="565.6" y="164.0" width="53.6" height="72.0" fill="#5b8dd9" rx="2" />
<text x="592.4" y="160.0" font-size="11" fill="currentColor" text-anchor="middle">72</text>
<text x="592.4" y="252.0" font-size="11" fill="currentColor" opacity="0.85" text-anchor="end" transform="rotate(-30 592.4 252.0)">absent</text>
</svg>
