<svg viewBox="0 0 640 300" width="100%" xmlns="http://www.w3.org/2000/svg" font-family="ui-sans-serif, system-ui, sans-serif">
<text x="56" y="20" font-size="13" font-weight="600" fill="currentColor">mean-land-temperature-c — goblin-solo</text>
<line x1="56.0" y1="186.0" x2="624.0" y2="186.0" stroke="currentColor" stroke-opacity="0.15" stroke-width="1" />
<text x="50" y="186.0" font-size="11" fill="currentColor" opacity="0.75" text-anchor="end">50</text>
<line x1="56.0" y1="136.0" x2="624.0" y2="136.0" stroke="currentColor" stroke-opacity="0.15" stroke-width="1" />
<text x="50" y="136.0" font-size="11" fill="currentColor" opacity="0.75" text-anchor="end">100</text>
<line x1="56.0" y1="86.0" x2="624.0" y2="86.0" stroke="currentColor" stroke-opacity="0.15" stroke-width="1" />
<text x="50" y="86.0" font-size="11" fill="currentColor" opacity="0.75" text-anchor="end">150</text>
<line x1="56.0" y1="36.0" x2="624.0" y2="36.0" stroke="currentColor" stroke-opacity="0.15" stroke-width="1" />
<text x="50" y="36.0" font-size="11" fill="currentColor" opacity="0.75" text-anchor="end">200</text>
<rect x="61.3" y="205.0" width="60.4" height="31.0" fill="#5b8dd9" rx="2" />
<text x="91.5" y="201.0" font-size="11" fill="currentColor" text-anchor="middle">31</text>
<text x="91.5" y="252.0" font-size="11" fill="currentColor" opacity="0.85" text-anchor="end" transform="rotate(-30 91.5 252.0)">&lt; -30</text>
<rect x="132.3" y="113.0" width="60.4" height="123.0" fill="#5b8dd9" rx="2" />
<text x="162.5" y="109.0" font-size="11" fill="currentColor" text-anchor="middle">123</text>
<text x="162.5" y="252.0" font-size="11" fill="currentColor" opacity="0.85" text-anchor="end" transform="rotate(-30 162.5 252.0)">[-30, -20)</text>
<rect x="203.3" y="121.0" width="60.4" height="115.0" fill="#5b8dd9" rx="2" />
<text x="233.5" y="117.0" font-size="11" fill="currentColor" text-anchor="middle">115</text>
<text x="233.5" y="252.0" font-size="11" fill="currentColor" opacity="0.85" text-anchor="end" transform="rotate(-30 233.5 252.0)">[-20, -10)</text>
<rect x="274.3" y="137.0" width="60.4" height="99.0" fill="#5b8dd9" rx="2" />
<text x="304.5" y="133.0" font-size="11" fill="currentColor" text-anchor="middle">99</text>
<text x="304.5" y="252.0" font-size="11" fill="currentColor" opacity="0.85" text-anchor="end" transform="rotate(-30 304.5 252.0)">[-10, 0)</text>
<rect x="345.3" y="161.0" width="60.4" height="75.0" fill="#5b8dd9" rx="2" />
<text x="375.5" y="157.0" font-size="11" fill="currentColor" text-anchor="middle">75</text>
<text x="375.5" y="252.0" font-size="11" fill="currentColor" opacity="0.85" text-anchor="end" transform="rotate(-30 375.5 252.0)">[0, 10)</text>
<rect x="416.3" y="180.0" width="60.4" height="56.0" fill="#5b8dd9" rx="2" />
<text x="446.5" y="176.0" font-size="11" fill="currentColor" text-anchor="middle">56</text>
<text x="446.5" y="252.0" font-size="11" fill="currentColor" opacity="0.85" text-anchor="end" transform="rotate(-30 446.5 252.0)">[10, 20)</text>
<rect x="487.3" y="235.0" width="60.4" height="1.0" fill="#5b8dd9" rx="2" />
<text x="517.5" y="231.0" font-size="11" fill="currentColor" text-anchor="middle">1</text>
<text x="517.5" y="252.0" font-size="11" fill="currentColor" opacity="0.85" text-anchor="end" transform="rotate(-30 517.5 252.0)">[20, 30)</text>
<text x="588.5" y="232.0" font-size="11" fill="currentColor" text-anchor="middle">0</text>
<text x="588.5" y="252.0" font-size="11" fill="currentColor" opacity="0.85" text-anchor="end" transform="rotate(-30 588.5 252.0)">&gt;= 30</text>
</svg>
