<svg viewBox="0 0 640 300" width="100%" xmlns="http://www.w3.org/2000/svg" font-family="ui-sans-serif, system-ui, sans-serif">
<text x="56" y="20" font-size="13" font-weight="600" fill="currentColor">homophony-count-goblin — goblin-solo</text>
<line x1="56.0" y1="186.0" x2="624.0" y2="186.0" stroke="currentColor" stroke-opacity="0.15" stroke-width="1" />
<text x="50" y="186.0" font-size="11" fill="currentColor" opacity="0.75" text-anchor="end">50</text>
<line x1="56.0" y1="136.0" x2="624.0" y2="136.0" stroke="currentColor" stroke-opacity="0.15" stroke-width="1" />
<text x="50" y="136.0" font-size="11" fill="currentColor" opacity="0.75" text-anchor="end">100</text>
<line x1="56.0" y1="86.0" x2="624.0" y2="86.0" stroke="currentColor" stroke-opacity="0.15" stroke-width="1" />
<text x="50" y="86.0" font-size="11" fill="currentColor" opacity="0.75" text-anchor="end">150</text>
<line x1="56.0" y1="36.0" x2="624.0" y2="36.0" stroke="currentColor" stroke-opacity="0.15" stroke-width="1" />
<text x="50" y="36.0" font-size="11" fill="currentColor" opacity="0.75" text-anchor="end">200</text>
<text x="91.5" y="232.0" font-size="11" fill="currentColor" text-anchor="middle">0</text>
<text x="91.5" y="252.0" font-size="11" fill="currentColor" opacity="0.85" text-anchor="middle">&lt; 0</text>
<rect x="132.3" y="85.0" width="60.4" height="151.0" fill="#5b8dd9" rx="2" />
<text x="162.5" y="81.0" font-size="11" fill="currentColor" text-anchor="middle">151</text>
<text x="162.5" y="252.0" font-size="11" fill="currentColor" opacity="0.85" text-anchor="middle">[0, 1)</text>
<rect x="203.3" y="145.0" width="60.4" height="91.0" fill="#5b8dd9" rx="2" />
<text x="233.5" y="141.0" font-size="11" fill="currentColor" text-anchor="middle">91</text>
<text x="233.5" y="252.0" font-size="11" fill="currentColor" opacity="0.85" text-anchor="middle">[1, 2)</text>
<rect x="274.3" y="190.0" width="60.4" height="46.0" fill="#5b8dd9" rx="2" />
<text x="304.5" y="186.0" font-size="11" fill="currentColor" text-anchor="middle">46</text>
<text x="304.5" y="252.0" font-size="11" fill="currentColor" opacity="0.85" text-anchor="middle">[2, 3)</text>
<rect x="345.3" y="144.0" width="60.4" height="92.0" fill="#5b8dd9" rx="2" />
<text x="375.5" y="140.0" font-size="11" fill="currentColor" text-anchor="middle">92</text>
<text x="375.5" y="252.0" font-size="11" fill="currentColor" opacity="0.85" text-anchor="middle">[3, 5)</text>
<rect x="416.3" y="172.0" width="60.4" height="64.0" fill="#5b8dd9" rx="2" />
<text x="446.5" y="168.0" font-size="11" fill="currentColor" text-anchor="middle">64</text>
<text x="446.5" y="252.0" font-size="11" fill="currentColor" opacity="0.85" text-anchor="middle">[5, 8)</text>
<rect x="487.3" y="204.0" width="60.4" height="32.0" fill="#5b8dd9" rx="2" />
<text x="517.5" y="200.0" font-size="11" fill="currentColor" text-anchor="middle">32</text>
<text x="517.5" y="252.0" font-size="11" fill="currentColor" opacity="0.85" text-anchor="middle">[8, 12)</text>
<rect x="558.3" y="212.0" width="60.4" height="24.0" fill="#5b8dd9" rx="2" />
<text x="588.5" y="208.0" font-size="11" fill="currentColor" text-anchor="middle">24</text>
<text x="588.5" y="252.0" font-size="11" fill="currentColor" opacity="0.85" text-anchor="middle">&gt;= 12</text>
</svg>
