<svg viewBox="0 0 640 300" width="100%" xmlns="http://www.w3.org/2000/svg" font-family="ui-sans-serif, system-ui, sans-serif">
<text x="56" y="20" font-size="13" font-weight="600" fill="currentColor">lunar-eclipses-per-century — goblin-twin-solo</text>
<line x1="56.0" y1="186.0" x2="624.0" y2="186.0" stroke="currentColor" stroke-opacity="0.15" stroke-width="1" />
<text x="50" y="186.0" font-size="11" fill="currentColor" opacity="0.75" text-anchor="end">50</text>
<line x1="56.0" y1="136.0" x2="624.0" y2="136.0" stroke="currentColor" stroke-opacity="0.15" stroke-width="1" />
<text x="50" y="136.0" font-size="11" fill="currentColor" opacity="0.75" text-anchor="end">100</text>
<line x1="56.0" y1="86.0" x2="624.0" y2="86.0" stroke="currentColor" stroke-opacity="0.15" stroke-width="1" />
<text x="50" y="86.0" font-size="11" fill="currentColor" opacity="0.75" text-anchor="end">150</text>
<line x1="56.0" y1="36.0" x2="624.0" y2="36.0" stroke="currentColor" stroke-opacity="0.15" stroke-width="1" />
<text x="50" y="36.0" font-size="11" fill="currentColor" opacity="0.75" text-anchor="end">200</text>
<text x="91.5" y="232.0" font-size="11" fill="currentColor" text-anchor="middle">0</text>
<text x="91.5" y="252.0" font-size="11" fill="currentColor" opacity="0.85" text-anchor="end" transform="rotate(-30 91.5 252.0)">&lt; 0</text>
<rect x="132.3" y="89.0" width="60.4" height="147.0" fill="#5b8dd9" rx="2" />
<text x="162.5" y="85.0" font-size="11" fill="currentColor" text-anchor="middle">147</text>
<text x="162.5" y="252.0" font-size="11" fill="currentColor" opacity="0.85" text-anchor="end" transform="rotate(-30 162.5 252.0)">[0, 50)</text>
<rect x="203.3" y="204.0" width="60.4" height="32.0" fill="#5b8dd9" rx="2" />
<text x="233.5" y="200.0" font-size="11" fill="currentColor" text-anchor="middle">32</text>
<text x="233.5" y="252.0" font-size="11" fill="currentColor" opacity="0.85" text-anchor="end" transform="rotate(-30 233.5 252.0)">[50, 100)</text>
<rect x="274.3" y="167.0" width="60.4" height="69.0" fill="#5b8dd9" rx="2" />
<text x="304.5" y="163.0" font-size="11" fill="currentColor" text-anchor="middle">69</text>
<text x="304.5" y="252.0" font-size="11" fill="currentColor" opacity="0.85" text-anchor="end" transform="rotate(-30 304.5 252.0)">[100, 200)</text>
<rect x="345.3" y="156.0" width="60.4" height="80.0" fill="#5b8dd9" rx="2" />
<text x="375.5" y="152.0" font-size="11" fill="currentColor" text-anchor="middle">80</text>
<text x="375.5" y="252.0" font-size="11" fill="currentColor" opacity="0.85" text-anchor="end" transform="rotate(-30 375.5 252.0)">[200, 400)</text>
<rect x="416.3" y="170.0" width="60.4" height="66.0" fill="#5b8dd9" rx="2" />
<text x="446.5" y="166.0" font-size="11" fill="currentColor" text-anchor="middle">66</text>
<text x="446.5" y="252.0" font-size="11" fill="currentColor" opacity="0.85" text-anchor="end" transform="rotate(-30 446.5 252.0)">[400, 800)</text>
<rect x="487.3" y="192.0" width="60.4" height="44.0" fill="#5b8dd9" rx="2" />
<text x="517.5" y="188.0" font-size="11" fill="currentColor" text-anchor="middle">44</text>
<text x="517.5" y="252.0" font-size="11" fill="currentColor" opacity="0.85" text-anchor="end" transform="rotate(-30 517.5 252.0)">[800, 1600)</text>
<rect x="558.3" y="174.0" width="60.4" height="62.0" fill="#5b8dd9" rx="2" />
<text x="588.5" y="170.0" font-size="11" fill="currentColor" text-anchor="middle">62</text>
<text x="588.5" y="252.0" font-size="11" fill="currentColor" opacity="0.85" text-anchor="end" transform="rotate(-30 588.5 252.0)">&gt;= 1600</text>
</svg>
