<svg viewBox="0 0 640 300" width="100%" xmlns="http://www.w3.org/2000/svg" font-family="ui-sans-serif, system-ui, sans-serif">
<text x="56" y="20" font-size="13" font-weight="600" fill="currentColor">figure-count — goblin-twin-solo</text>
<line x1="56.0" y1="186.0" x2="624.0" y2="186.0" stroke="currentColor" stroke-opacity="0.15" stroke-width="1" />
<text x="50" y="186.0" font-size="11" fill="currentColor" opacity="0.75" text-anchor="end">12.5</text>
<line x1="56.0" y1="136.0" x2="624.0" y2="136.0" stroke="currentColor" stroke-opacity="0.15" stroke-width="1" />
<text x="50" y="136.0" font-size="11" fill="currentColor" opacity="0.75" text-anchor="end">25</text>
<line x1="56.0" y1="86.0" x2="624.0" y2="86.0" stroke="currentColor" stroke-opacity="0.15" stroke-width="1" />
<text x="50" y="86.0" font-size="11" fill="currentColor" opacity="0.75" text-anchor="end">37.5</text>
<line x1="56.0" y1="36.0" x2="624.0" y2="36.0" stroke="currentColor" stroke-opacity="0.15" stroke-width="1" />
<text x="50" y="36.0" font-size="11" fill="currentColor" opacity="0.75" text-anchor="end">50</text>
<rect x="58.1" y="92.0" width="24.1" height="144.0" fill="#5b8dd9" rx="2" />
<text x="70.2" y="88.0" font-size="11" fill="currentColor" text-anchor="middle">36</text>
<text x="70.2" y="252.0" font-size="11" fill="currentColor" opacity="0.85" text-anchor="middle">0</text>
<rect x="86.5" y="44.0" width="24.1" height="192.0" fill="#5b8dd9" rx="2" />
<text x="98.6" y="40.0" font-size="11" fill="currentColor" text-anchor="middle">48</text>
<text x="98.6" y="252.0" font-size="11" fill="currentColor" opacity="0.85" text-anchor="middle">1</text>
<rect x="114.9" y="128.0" width="24.1" height="108.0" fill="#5b8dd9" rx="2" />
<text x="127.0" y="124.0" font-size="11" fill="currentColor" text-anchor="middle">27</text>
<text x="127.0" y="252.0" font-size="11" fill="currentColor" opacity="0.85" text-anchor="middle">10</text>
<rect x="143.3" y="136.0" width="24.1" height="100.0" fill="#5b8dd9" rx="2" />
<text x="155.4" y="132.0" font-size="11" fill="currentColor" text-anchor="middle">25</text>
<text x="155.4" y="252.0" font-size="11" fill="currentColor" opacity="0.85" text-anchor="middle">11</text>
<rect x="171.7" y="168.0" width="24.1" height="68.0" fill="#5b8dd9" rx="2" />
<text x="183.8" y="164.0" font-size="11" fill="currentColor" text-anchor="middle">17</text>
<text x="183.8" y="252.0" font-size="11" fill="currentColor" opacity="0.85" text-anchor="middle">12</text>
<rect x="200.1" y="160.0" width="24.1" height="76.0" fill="#5b8dd9" rx="2" />
<text x="212.2" y="156.0" font-size="11" fill="currentColor" text-anchor="middle">19</text>
<text x="212.2" y="252.0" font-size="11" fill="currentColor" opacity="0.85" text-anchor="middle">13</text>
<rect x="228.5" y="196.0" width="24.1" height="40.0" fill="#5b8dd9" rx="2" />
<text x="240.6" y="192.0" font-size="11" fill="currentColor" text-anchor="middle">10</text>
<text x="240.6" y="252.0" font-size="11" fill="currentColor" opacity="0.85" text-anchor="middle">14</text>
<rect x="256.9" y="188.0" width="24.1" height="48.0" fill="#5b8dd9" rx="2" />
<text x="269.0" y="184.0" font-size="11" fill="currentColor" text-anchor="middle">12</text>
<text x="269.0" y="252.0" font-size="11" fill="currentColor" opacity="0.85" text-anchor="middle">15</text>
<rect x="285.3" y="212.0" width="24.1" height="24.0" fill="#5b8dd9" rx="2" />
<text x="297.4" y="208.0" font-size="11" fill="currentColor" text-anchor="middle">6</text>
<text x="297.4" y="252.0" font-size="11" fill="currentColor" opacity="0.85" text-anchor="middle">16</text>
<rect x="313.7" y="216.0" width="24.1" height="20.0" fill="#5b8dd9" rx="2" />
<text x="325.8" y="212.0" font-size="11" fill="currentColor" text-anchor="middle">5</text>
<text x="325.8" y="252.0" font-size="11" fill="currentColor" opacity="0.85" text-anchor="middle">17</text>
<rect x="342.1" y="220.0" width="24.1" height="16.0" fill="#5b8dd9" rx="2" />
<text x="354.2" y="216.0" font-size="11" fill="currentColor" text-anchor="middle">4</text>
<text x="354.2" y="252.0" font-size="11" fill="currentColor" opacity="0.85" text-anchor="middle">18</text>
<rect x="370.5" y="68.0" width="24.1" height="168.0" fill="#5b8dd9" rx="2" />
<text x="382.6" y="64.0" font-size="11" fill="currentColor" text-anchor="middle">42</text>
<text x="382.6" y="252.0" font-size="11" fill="currentColor" opacity="0.85" text-anchor="middle">2</text>
<rect x="398.9" y="232.0" width="24.1" height="4.0" fill="#5b8dd9" rx="2" />
<text x="411.0" y="228.0" font-size="11" fill="currentColor" text-anchor="middle">1</text>
<text x="411.0" y="252.0" font-size="11" fill="currentColor" opacity="0.85" text-anchor="middle">23</text>
<rect x="427.3" y="48.0" width="24.1" height="188.0" fill="#5b8dd9" rx="2" />
<text x="439.4" y="44.0" font-size="11" fill="currentColor" text-anchor="middle">47</text>
<text x="439.4" y="252.0" font-size="11" fill="currentColor" opacity="0.85" text-anchor="middle">3</text>
<rect x="455.7" y="72.0" width="24.1" height="164.0" fill="#5b8dd9" rx="2" />
<text x="467.8" y="68.0" font-size="11" fill="currentColor" text-anchor="middle">41</text>
<text x="467.8" y="252.0" font-size="11" fill="currentColor" opacity="0.85" text-anchor="middle">4</text>
<rect x="484.1" y="108.0" width="24.1" height="128.0" fill="#5b8dd9" rx="2" />
<text x="496.2" y="104.0" font-size="11" fill="currentColor" text-anchor="middle">32</text>
<text x="496.2" y="252.0" font-size="11" fill="currentColor" opacity="0.85" text-anchor="middle">5</text>
<rect x="512.5" y="96.0" width="24.1" height="140.0" fill="#5b8dd9" rx="2" />
<text x="524.6" y="92.0" font-size="11" fill="currentColor" text-anchor="middle">35</text>
<text x="524.6" y="252.0" font-size="11" fill="currentColor" opacity="0.85" text-anchor="middle">6</text>
<rect x="540.9" y="108.0" width="24.1" height="128.0" fill="#5b8dd9" rx="2" />
<text x="553.0" y="104.0" font-size="11" fill="currentColor" text-anchor="middle">32</text>
<text x="553.0" y="252.0" font-size="11" fill="currentColor" opacity="0.85" text-anchor="middle">7</text>
<rect x="569.3" y="136.0" width="24.1" height="100.0" fill="#5b8dd9" rx="2" />
<text x="581.4" y="132.0" font-size="11" fill="currentColor" text-anchor="middle">25</text>
<text x="581.4" y="252.0" font-size="11" fill="currentColor" opacity="0.85" text-anchor="middle">8</text>
<rect x="597.7" y="92.0" width="24.1" height="144.0" fill="#5b8dd9" rx="2" />
<text x="609.8" y="88.0" font-size="11" fill="currentColor" text-anchor="middle">36</text>
<text x="609.8" y="252.0" font-size="11" fill="currentColor" opacity="0.85" text-anchor="middle">9</text>
</svg>
