<svg viewBox="0 0 640 300" width="100%" xmlns="http://www.w3.org/2000/svg" font-family="ui-sans-serif, system-ui, sans-serif">
<text x="56" y="20" font-size="13" font-weight="600" fill="currentColor">core-homophony-hobgoblin — default</text>
<line x1="56.0" y1="186.0" x2="624.0" y2="186.0" stroke="currentColor" stroke-opacity="0.15" stroke-width="1" />
<text x="50" y="186.0" font-size="11" fill="currentColor" opacity="0.75" text-anchor="end">250</text>
<line x1="56.0" y1="136.0" x2="624.0" y2="136.0" stroke="currentColor" stroke-opacity="0.15" stroke-width="1" />
<text x="50" y="136.0" font-size="11" fill="currentColor" opacity="0.75" text-anchor="end">500</text>
<line x1="56.0" y1="86.0" x2="624.0" y2="86.0" stroke="currentColor" stroke-opacity="0.15" stroke-width="1" />
<text x="50" y="86.0" font-size="11" fill="currentColor" opacity="0.75" text-anchor="end">750</text>
<line x1="56.0" y1="36.0" x2="624.0" y2="36.0" stroke="currentColor" stroke-opacity="0.15" stroke-width="1" />
<text x="50" y="36.0" font-size="11" fill="currentColor" opacity="0.75" text-anchor="end">1000</text>
<text x="91.5" y="232.0" font-size="11" fill="currentColor" text-anchor="middle">0</text>
<text x="91.5" y="252.0" font-size="11" fill="currentColor" opacity="0.85" text-anchor="middle">&lt; 0</text>
<rect x="132.3" y="89.6" width="60.4" height="146.4" fill="#5b8dd9" rx="2" />
<text x="162.5" y="85.6" font-size="11" fill="currentColor" text-anchor="middle">732</text>
<text x="162.5" y="252.0" font-size="11" fill="currentColor" opacity="0.85" text-anchor="middle">[0, 1)</text>
<rect x="203.3" y="207.8" width="60.4" height="28.2" fill="#5b8dd9" rx="2" />
<text x="233.5" y="203.8" font-size="11" fill="currentColor" text-anchor="middle">141</text>
<text x="233.5" y="252.0" font-size="11" fill="currentColor" opacity="0.85" text-anchor="middle">[1, 2)</text>
<rect x="274.3" y="222.4" width="60.4" height="13.6" fill="#5b8dd9" rx="2" />
<text x="304.5" y="218.4" font-size="11" fill="currentColor" text-anchor="middle">68</text>
<text x="304.5" y="252.0" font-size="11" fill="currentColor" opacity="0.85" text-anchor="middle">[2, 3)</text>
<rect x="345.3" y="228.4" width="60.4" height="7.6" fill="#5b8dd9" rx="2" />
<text x="375.5" y="224.4" font-size="11" fill="currentColor" text-anchor="middle">38</text>
<text x="375.5" y="252.0" font-size="11" fill="currentColor" opacity="0.85" text-anchor="middle">[3, 5)</text>
<rect x="416.3" y="232.8" width="60.4" height="3.2" fill="#5b8dd9" rx="2" />
<text x="446.5" y="228.8" font-size="11" fill="currentColor" text-anchor="middle">16</text>
<text x="446.5" y="252.0" font-size="11" fill="currentColor" opacity="0.85" text-anchor="middle">[5, 8)</text>
<rect x="487.3" y="235.2" width="60.4" height="0.8" fill="#5b8dd9" rx="2" />
<text x="517.5" y="231.2" font-size="11" fill="currentColor" text-anchor="middle">4</text>
<text x="517.5" y="252.0" font-size="11" fill="currentColor" opacity="0.85" text-anchor="middle">[8, 12)</text>
<rect x="558.3" y="235.8" width="60.4" height="0.2" fill="#5b8dd9" rx="2" />
<text x="588.5" y="231.8" font-size="11" fill="currentColor" text-anchor="middle">1</text>
<text x="588.5" y="252.0" font-size="11" fill="currentColor" opacity="0.85" text-anchor="middle">&gt;= 12</text>
</svg>
