<svg viewBox="0 0 640 300" width="100%" xmlns="http://www.w3.org/2000/svg" font-family="ui-sans-serif, system-ui, sans-serif">
<text x="56" y="20" font-size="13" font-weight="600" fill="currentColor">goblin-flagship-surplus — default</text>
<line x1="56.0" y1="186.0" x2="624.0" y2="186.0" stroke="currentColor" stroke-opacity="0.15" stroke-width="1" />
<text x="50" y="186.0" font-size="11" fill="currentColor" opacity="0.75" text-anchor="end">125</text>
<line x1="56.0" y1="136.0" x2="624.0" y2="136.0" stroke="currentColor" stroke-opacity="0.15" stroke-width="1" />
<text x="50" y="136.0" font-size="11" fill="currentColor" opacity="0.75" text-anchor="end">250</text>
<line x1="56.0" y1="86.0" x2="624.0" y2="86.0" stroke="currentColor" stroke-opacity="0.15" stroke-width="1" />
<text x="50" y="86.0" font-size="11" fill="currentColor" opacity="0.75" text-anchor="end">375</text>
<line x1="56.0" y1="36.0" x2="624.0" y2="36.0" stroke="currentColor" stroke-opacity="0.15" stroke-width="1" />
<text x="50" y="36.0" font-size="11" fill="currentColor" opacity="0.75" text-anchor="end">500</text>
<text x="96.6" y="232.0" font-size="11" fill="currentColor" text-anchor="middle">0</text>
<text x="96.6" y="252.0" font-size="11" fill="currentColor" opacity="0.85" text-anchor="end" transform="rotate(-30 96.6 252.0)">&lt; 0</text>
<rect x="143.2" y="232.8" width="69.0" height="3.2" fill="#5b8dd9" rx="2" />
<text x="177.7" y="228.8" font-size="11" fill="currentColor" text-anchor="middle">8</text>
<text x="177.7" y="252.0" font-size="11" fill="currentColor" opacity="0.85" text-anchor="end" transform="rotate(-30 177.7 252.0)">[0, 0.2)</text>
<rect x="224.4" y="227.6" width="69.0" height="8.4" fill="#5b8dd9" rx="2" />
<text x="258.9" y="223.6" font-size="11" fill="currentColor" text-anchor="middle">21</text>
<text x="258.9" y="252.0" font-size="11" fill="currentColor" opacity="0.85" text-anchor="end" transform="rotate(-30 258.9 252.0)">[0.2, 0.4)</text>
<rect x="305.5" y="210.0" width="69.0" height="26.0" fill="#5b8dd9" rx="2" />
<text x="340.0" y="206.0" font-size="11" fill="currentColor" text-anchor="middle">65</text>
<text x="340.0" y="252.0" font-size="11" fill="currentColor" opacity="0.85" text-anchor="end" transform="rotate(-30 340.0 252.0)">[0.4, 0.6)</text>
<rect x="386.7" y="84.4" width="69.0" height="151.6" fill="#5b8dd9" rx="2" />
<text x="421.1" y="80.4" font-size="11" fill="currentColor" text-anchor="middle">379</text>
<text x="421.1" y="252.0" font-size="11" fill="currentColor" opacity="0.85" text-anchor="end" transform="rotate(-30 421.1 252.0)">[0.6, 0.8)</text>
<rect x="467.8" y="225.2" width="69.0" height="10.8" fill="#5b8dd9" rx="2" />
<text x="502.3" y="221.2" font-size="11" fill="currentColor" text-anchor="middle">27</text>
<text x="502.3" y="252.0" font-size="11" fill="currentColor" opacity="0.85" text-anchor="end" transform="rotate(-30 502.3 252.0)">[0.8, 1)</text>
<text x="583.4" y="232.0" font-size="11" fill="currentColor" text-anchor="middle">0</text>
<text x="583.4" y="252.0" font-size="11" fill="currentColor" opacity="0.85" text-anchor="end" transform="rotate(-30 583.4 252.0)">&gt;= 1</text>
</svg>
