<svg viewBox="0 0 640 300" width="100%" xmlns="http://www.w3.org/2000/svg" font-family="ui-sans-serif, system-ui, sans-serif">
<text x="56" y="20" font-size="13" font-weight="600" fill="currentColor">dominant-land-biome — default</text>
<line x1="56.0" y1="186.0" x2="624.0" y2="186.0" stroke="currentColor" stroke-opacity="0.15" stroke-width="1" />
<text x="50" y="186.0" font-size="11" fill="currentColor" opacity="0.75" text-anchor="end">50</text>
<line x1="56.0" y1="136.0" x2="624.0" y2="136.0" stroke="currentColor" stroke-opacity="0.15" stroke-width="1" />
<text x="50" y="136.0" font-size="11" fill="currentColor" opacity="0.75" text-anchor="end">100</text>
<line x1="56.0" y1="86.0" x2="624.0" y2="86.0" stroke="currentColor" stroke-opacity="0.15" stroke-width="1" />
<text x="50" y="86.0" font-size="11" fill="currentColor" opacity="0.75" text-anchor="end">150</text>
<line x1="56.0" y1="36.0" x2="624.0" y2="36.0" stroke="currentColor" stroke-opacity="0.15" stroke-width="1" />
<text x="50" y="36.0" font-size="11" fill="currentColor" opacity="0.75" text-anchor="end">200</text>
<rect x="63.1" y="173.0" width="80.5" height="63.0" fill="#5b8dd9" rx="2" />
<text x="103.3" y="169.0" font-size="11" fill="currentColor" text-anchor="middle">63</text>
<text x="103.3" y="252.0" font-size="11" fill="currentColor" opacity="0.85" text-anchor="end" transform="rotate(-30 103.3 252.0)">alpine</text>
<rect x="157.8" y="55.0" width="80.5" height="181.0" fill="#5b8dd9" rx="2" />
<text x="198.0" y="51.0" font-size="11" fill="currentColor" text-anchor="middle">181</text>
<text x="198.0" y="252.0" font-size="11" fill="currentColor" opacity="0.85" text-anchor="end" transform="rotate(-30 198.0 252.0)">ice</text>
<rect x="252.4" y="189.0" width="80.5" height="47.0" fill="#5b8dd9" rx="2" />
<text x="292.7" y="185.0" font-size="11" fill="currentColor" text-anchor="middle">47</text>
<text x="292.7" y="252.0" font-size="11" fill="currentColor" opacity="0.85" text-anchor="end" transform="rotate(-30 292.7 252.0)">taiga</text>
<rect x="347.1" y="182.0" width="80.5" height="54.0" fill="#5b8dd9" rx="2" />
<text x="387.3" y="178.0" font-size="11" fill="currentColor" text-anchor="middle">54</text>
<text x="387.3" y="252.0" font-size="11" fill="currentColor" opacity="0.85" text-anchor="end" transform="rotate(-30 387.3 252.0)">temperate-forest</text>
<rect x="441.8" y="109.0" width="80.5" height="127.0" fill="#5b8dd9" rx="2" />
<text x="482.0" y="105.0" font-size="11" fill="currentColor" text-anchor="middle">127</text>
<text x="482.0" y="252.0" font-size="11" fill="currentColor" opacity="0.85" text-anchor="end" transform="rotate(-30 482.0 252.0)">tropical-seasonal-forest</text>
<rect x="536.4" y="208.0" width="80.5" height="28.0" fill="#5b8dd9" rx="2" />
<text x="576.7" y="204.0" font-size="11" fill="currentColor" text-anchor="middle">28</text>
<text x="576.7" y="252.0" font-size="11" fill="currentColor" opacity="0.85" text-anchor="end" transform="rotate(-30 576.7 252.0)">tundra</text>
</svg>
