<svg viewBox="0 0 640 300" width="100%" xmlns="http://www.w3.org/2000/svg" font-family="ui-sans-serif, system-ui, sans-serif">
<text x="56" y="20" font-size="13" font-weight="600" fill="currentColor">moons-admitted — default</text>
<line x1="56.0" y1="186.0" x2="624.0" y2="186.0" stroke="currentColor" stroke-opacity="0.15" stroke-width="1" />
<text x="50" y="186.0" font-size="11" fill="currentColor" opacity="0.75" text-anchor="end">62.5</text>
<line x1="56.0" y1="136.0" x2="624.0" y2="136.0" stroke="currentColor" stroke-opacity="0.15" stroke-width="1" />
<text x="50" y="136.0" font-size="11" fill="currentColor" opacity="0.75" text-anchor="end">125</text>
<line x1="56.0" y1="86.0" x2="624.0" y2="86.0" stroke="currentColor" stroke-opacity="0.15" stroke-width="1" />
<text x="50" y="86.0" font-size="11" fill="currentColor" opacity="0.75" text-anchor="end">187.5</text>
<line x1="56.0" y1="36.0" x2="624.0" y2="36.0" stroke="currentColor" stroke-opacity="0.15" stroke-width="1" />
<text x="50" y="36.0" font-size="11" fill="currentColor" opacity="0.75" text-anchor="end">250</text>
<rect x="66.7" y="178.4" width="120.7" height="57.6" fill="#5b8dd9" rx="2" />
<text x="127.0" y="174.4" font-size="11" fill="currentColor" text-anchor="middle">72</text>
<text x="127.0" y="252.0" font-size="11" fill="currentColor" opacity="0.85" text-anchor="middle">0</text>
<rect x="208.7" y="73.6" width="120.7" height="162.4" fill="#5b8dd9" rx="2" />
<text x="269.0" y="69.6" font-size="11" fill="currentColor" text-anchor="middle">203</text>
<text x="269.0" y="252.0" font-size="11" fill="currentColor" opacity="0.85" text-anchor="middle">1</text>
<rect x="350.6" y="104.0" width="120.7" height="132.0" fill="#5b8dd9" rx="2" />
<text x="411.0" y="100.0" font-size="11" fill="currentColor" text-anchor="middle">165</text>
<text x="411.0" y="252.0" font-size="11" fill="currentColor" opacity="0.85" text-anchor="middle">2</text>
<rect x="492.6" y="188.0" width="120.7" height="48.0" fill="#5b8dd9" rx="2" />
<text x="553.0" y="184.0" font-size="11" fill="currentColor" text-anchor="middle">60</text>
<text x="553.0" y="252.0" font-size="11" fill="currentColor" opacity="0.85" text-anchor="middle">3</text>
</svg>
