<svg viewBox="0 0 640 300" width="100%" xmlns="http://www.w3.org/2000/svg" font-family="ui-sans-serif, system-ui, sans-serif">
<text x="56" y="20" font-size="13" font-weight="600" fill="currentColor">flagship-biome — default</text>
<line x1="56.0" y1="186.0" x2="624.0" y2="186.0" stroke="currentColor" stroke-opacity="0.15" stroke-width="1" />
<text x="50" y="186.0" font-size="11" fill="currentColor" opacity="0.75" text-anchor="end">125</text>
<line x1="56.0" y1="136.0" x2="624.0" y2="136.0" stroke="currentColor" stroke-opacity="0.15" stroke-width="1" />
<text x="50" y="136.0" font-size="11" fill="currentColor" opacity="0.75" text-anchor="end">250</text>
<line x1="56.0" y1="86.0" x2="624.0" y2="86.0" stroke="currentColor" stroke-opacity="0.15" stroke-width="1" />
<text x="50" y="86.0" font-size="11" fill="currentColor" opacity="0.75" text-anchor="end">375</text>
<line x1="56.0" y1="36.0" x2="624.0" y2="36.0" stroke="currentColor" stroke-opacity="0.15" stroke-width="1" />
<text x="50" y="36.0" font-size="11" fill="currentColor" opacity="0.75" text-anchor="end">500</text>
<rect x="66.7" y="233.6" width="120.7" height="2.4" fill="#5b8dd9" rx="2" />
<text x="127.0" y="229.6" font-size="11" fill="currentColor" text-anchor="middle">6</text>
<text x="127.0" y="252.0" font-size="11" fill="currentColor" opacity="0.85" text-anchor="end" transform="rotate(-30 127.0 252.0)">alpine</text>
<rect x="208.7" y="213.2" width="120.7" height="22.8" fill="#5b8dd9" rx="2" />
<text x="269.0" y="209.2" font-size="11" fill="currentColor" text-anchor="middle">57</text>
<text x="269.0" y="252.0" font-size="11" fill="currentColor" opacity="0.85" text-anchor="end" transform="rotate(-30 269.0 252.0)">taiga</text>
<rect x="350.6" y="188.8" width="120.7" height="47.2" fill="#5b8dd9" rx="2" />
<text x="411.0" y="184.8" font-size="11" fill="currentColor" text-anchor="middle">118</text>
<text x="411.0" y="252.0" font-size="11" fill="currentColor" opacity="0.85" text-anchor="end" transform="rotate(-30 411.0 252.0)">temperate-forest</text>
<rect x="492.6" y="108.4" width="120.7" height="127.6" fill="#5b8dd9" rx="2" />
<text x="553.0" y="104.4" font-size="11" fill="currentColor" text-anchor="middle">319</text>
<text x="553.0" y="252.0" font-size="11" fill="currentColor" opacity="0.85" text-anchor="end" transform="rotate(-30 553.0 252.0)">temperate-rainforest</text>
</svg>
