<svg viewBox="0 0 640 300" width="100%" xmlns="http://www.w3.org/2000/svg" font-family="ui-sans-serif, system-ui, sans-serif">
<text x="56" y="20" font-size="13" font-weight="600" fill="currentColor">goblin-flagship-roles — default</text>
<line x1="56.0" y1="186.0" x2="624.0" y2="186.0" stroke="currentColor" stroke-opacity="0.15" stroke-width="1" />
<text x="50" y="186.0" font-size="11" fill="currentColor" opacity="0.75" text-anchor="end">125</text>
<line x1="56.0" y1="136.0" x2="624.0" y2="136.0" stroke="currentColor" stroke-opacity="0.15" stroke-width="1" />
<text x="50" y="136.0" font-size="11" fill="currentColor" opacity="0.75" text-anchor="end">250</text>
<line x1="56.0" y1="86.0" x2="624.0" y2="86.0" stroke="currentColor" stroke-opacity="0.15" stroke-width="1" />
<text x="50" y="86.0" font-size="11" fill="currentColor" opacity="0.75" text-anchor="end">375</text>
<line x1="56.0" y1="36.0" x2="624.0" y2="36.0" stroke="currentColor" stroke-opacity="0.15" stroke-width="1" />
<text x="50" y="36.0" font-size="11" fill="currentColor" opacity="0.75" text-anchor="end">500</text>
<rect x="64.5" y="229.6" width="96.6" height="6.4" fill="#5b8dd9" rx="2" />
<text x="112.8" y="225.6" font-size="11" fill="currentColor" text-anchor="middle">16</text>
<text x="112.8" y="252.0" font-size="11" fill="currentColor" opacity="0.85" text-anchor="end" transform="rotate(-30 112.8 252.0)">farmer,artisan,shaman,chief</text>
<rect x="178.1" y="227.6" width="96.6" height="8.4" fill="#5b8dd9" rx="2" />
<text x="226.4" y="223.6" font-size="11" fill="currentColor" text-anchor="middle">21</text>
<text x="226.4" y="252.0" font-size="11" fill="currentColor" opacity="0.85" text-anchor="end" transform="rotate(-30 226.4 252.0)">farmer,chief</text>
<rect x="291.7" y="210.0" width="96.6" height="26.0" fill="#5b8dd9" rx="2" />
<text x="340.0" y="206.0" font-size="11" fill="currentColor" text-anchor="middle">65</text>
<text x="340.0" y="252.0" font-size="11" fill="currentColor" opacity="0.85" text-anchor="end" transform="rotate(-30 340.0 252.0)">farmer,shaman,chief</text>
<rect x="405.3" y="232.8" width="96.6" height="3.2" fill="#5b8dd9" rx="2" />
<text x="453.6" y="228.8" font-size="11" fill="currentColor" text-anchor="middle">8</text>
<text x="453.6" y="252.0" font-size="11" fill="currentColor" opacity="0.85" text-anchor="end" transform="rotate(-30 453.6 252.0)">fisher,chief</text>
<rect x="518.9" y="80.0" width="96.6" height="156.0" fill="#5b8dd9" rx="2" />
<text x="567.2" y="76.0" font-size="11" fill="currentColor" text-anchor="middle">390</text>
<text x="567.2" y="252.0" font-size="11" fill="currentColor" opacity="0.85" text-anchor="end" transform="rotate(-30 567.2 252.0)">slave,farmer,artisan,shaman,chief</text>
</svg>
