<svg viewBox="0 0 640 300" width="100%" xmlns="http://www.w3.org/2000/svg" font-family="ui-sans-serif, system-ui, sans-serif">
<text x="56" y="20" font-size="13" font-weight="600" fill="currentColor">name-length-kobold — default</text>
<line x1="56.0" y1="186.0" x2="624.0" y2="186.0" stroke="currentColor" stroke-opacity="0.15" stroke-width="1" />
<text x="50" y="186.0" font-size="11" fill="currentColor" opacity="0.75" text-anchor="end">25</text>
<line x1="56.0" y1="136.0" x2="624.0" y2="136.0" stroke="currentColor" stroke-opacity="0.15" stroke-width="1" />
<text x="50" y="136.0" font-size="11" fill="currentColor" opacity="0.75" text-anchor="end">50</text>
<line x1="56.0" y1="86.0" x2="624.0" y2="86.0" stroke="currentColor" stroke-opacity="0.15" stroke-width="1" />
<text x="50" y="86.0" font-size="11" fill="currentColor" opacity="0.75" text-anchor="end">75</text>
<line x1="56.0" y1="36.0" x2="624.0" y2="36.0" stroke="currentColor" stroke-opacity="0.15" stroke-width="1" />
<text x="50" y="36.0" font-size="11" fill="currentColor" opacity="0.75" text-anchor="end">100</text>
<text x="81.8" y="232.0" font-size="11" fill="currentColor" text-anchor="middle">0</text>
<text x="81.8" y="252.0" font-size="11" fill="currentColor" opacity="0.85" text-anchor="middle">&lt; 2</text>
<rect x="111.5" y="218.0" width="43.9" height="18.0" fill="#5b8dd9" rx="2" />
<text x="133.5" y="214.0" font-size="11" fill="currentColor" text-anchor="middle">9</text>
<text x="133.5" y="252.0" font-size="11" fill="currentColor" opacity="0.85" text-anchor="middle">[2, 3)</text>
<rect x="163.1" y="156.0" width="43.9" height="80.0" fill="#5b8dd9" rx="2" />
<text x="185.1" y="152.0" font-size="11" fill="currentColor" text-anchor="middle">40</text>
<text x="185.1" y="252.0" font-size="11" fill="currentColor" opacity="0.85" text-anchor="middle">[3, 4)</text>
<rect x="214.8" y="82.0" width="43.9" height="154.0" fill="#5b8dd9" rx="2" />
<text x="236.7" y="78.0" font-size="11" fill="currentColor" text-anchor="middle">77</text>
<text x="236.7" y="252.0" font-size="11" fill="currentColor" opacity="0.85" text-anchor="middle">[4, 5)</text>
<rect x="266.4" y="60.0" width="43.9" height="176.0" fill="#5b8dd9" rx="2" />
<text x="288.4" y="56.0" font-size="11" fill="currentColor" text-anchor="middle">88</text>
<text x="288.4" y="252.0" font-size="11" fill="currentColor" opacity="0.85" text-anchor="middle">[5, 6)</text>
<rect x="318.1" y="96.0" width="43.9" height="140.0" fill="#5b8dd9" rx="2" />
<text x="340.0" y="92.0" font-size="11" fill="currentColor" text-anchor="middle">70</text>
<text x="340.0" y="252.0" font-size="11" fill="currentColor" opacity="0.85" text-anchor="middle">[6, 7)</text>
<rect x="369.7" y="114.0" width="43.9" height="122.0" fill="#5b8dd9" rx="2" />
<text x="391.6" y="110.0" font-size="11" fill="currentColor" text-anchor="middle">61</text>
<text x="391.6" y="252.0" font-size="11" fill="currentColor" opacity="0.85" text-anchor="middle">[7, 8)</text>
<rect x="421.3" y="156.0" width="43.9" height="80.0" fill="#5b8dd9" rx="2" />
<text x="443.3" y="152.0" font-size="11" fill="currentColor" text-anchor="middle">40</text>
<text x="443.3" y="252.0" font-size="11" fill="currentColor" opacity="0.85" text-anchor="middle">[8, 9)</text>
<rect x="473.0" y="144.0" width="43.9" height="92.0" fill="#5b8dd9" rx="2" />
<text x="494.9" y="140.0" font-size="11" fill="currentColor" text-anchor="middle">46</text>
<text x="494.9" y="252.0" font-size="11" fill="currentColor" opacity="0.85" text-anchor="middle">[9, 10)</text>
<rect x="524.6" y="102.0" width="43.9" height="134.0" fill="#5b8dd9" rx="2" />
<text x="546.5" y="98.0" font-size="11" fill="currentColor" text-anchor="middle">67</text>
<text x="546.5" y="252.0" font-size="11" fill="currentColor" opacity="0.85" text-anchor="middle">&gt;= 10</text>
<rect x="576.2" y="232.0" width="43.9" height="4.0" fill="#5b8dd9" rx="2" />
<text x="598.2" y="228.0" font-size="11" fill="currentColor" text-anchor="middle">2</text>
<text x="598.2" y="252.0" font-size="11" fill="currentColor" opacity="0.85" text-anchor="middle">absent</text>
</svg>
