<svg viewBox="0 0 640 300" width="100%" xmlns="http://www.w3.org/2000/svg" font-family="ui-sans-serif, system-ui, sans-serif">
<text x="56" y="20" font-size="13" font-weight="600" fill="currentColor">name-length-goblin — default</text>
<line x1="56.0" y1="186.0" x2="624.0" y2="186.0" stroke="currentColor" stroke-opacity="0.15" stroke-width="1" />
<text x="50" y="186.0" font-size="11" fill="currentColor" opacity="0.75" text-anchor="end">25</text>
<line x1="56.0" y1="136.0" x2="624.0" y2="136.0" stroke="currentColor" stroke-opacity="0.15" stroke-width="1" />
<text x="50" y="136.0" font-size="11" fill="currentColor" opacity="0.75" text-anchor="end">50</text>
<line x1="56.0" y1="86.0" x2="624.0" y2="86.0" stroke="currentColor" stroke-opacity="0.15" stroke-width="1" />
<text x="50" y="86.0" font-size="11" fill="currentColor" opacity="0.75" text-anchor="end">75</text>
<line x1="56.0" y1="36.0" x2="624.0" y2="36.0" stroke="currentColor" stroke-opacity="0.15" stroke-width="1" />
<text x="50" y="36.0" font-size="11" fill="currentColor" opacity="0.75" text-anchor="end">100</text>
<text x="81.8" y="232.0" font-size="11" fill="currentColor" text-anchor="middle">0</text>
<text x="81.8" y="252.0" font-size="11" fill="currentColor" opacity="0.85" text-anchor="middle">&lt; 2</text>
<rect x="111.5" y="222.0" width="43.9" height="14.0" fill="#5b8dd9" rx="2" />
<text x="133.5" y="218.0" font-size="11" fill="currentColor" text-anchor="middle">7</text>
<text x="133.5" y="252.0" font-size="11" fill="currentColor" opacity="0.85" text-anchor="middle">[2, 3)</text>
<rect x="163.1" y="152.0" width="43.9" height="84.0" fill="#5b8dd9" rx="2" />
<text x="185.1" y="148.0" font-size="11" fill="currentColor" text-anchor="middle">42</text>
<text x="185.1" y="252.0" font-size="11" fill="currentColor" opacity="0.85" text-anchor="middle">[3, 4)</text>
<rect x="214.8" y="40.0" width="43.9" height="196.0" fill="#5b8dd9" rx="2" />
<text x="236.7" y="36.0" font-size="11" fill="currentColor" text-anchor="middle">98</text>
<text x="236.7" y="252.0" font-size="11" fill="currentColor" opacity="0.85" text-anchor="middle">[4, 5)</text>
<rect x="266.4" y="70.0" width="43.9" height="166.0" fill="#5b8dd9" rx="2" />
<text x="288.4" y="66.0" font-size="11" fill="currentColor" text-anchor="middle">83</text>
<text x="288.4" y="252.0" font-size="11" fill="currentColor" opacity="0.85" text-anchor="middle">[5, 6)</text>
<rect x="318.1" y="90.0" width="43.9" height="146.0" fill="#5b8dd9" rx="2" />
<text x="340.0" y="86.0" font-size="11" fill="currentColor" text-anchor="middle">73</text>
<text x="340.0" y="252.0" font-size="11" fill="currentColor" opacity="0.85" text-anchor="middle">[6, 7)</text>
<rect x="369.7" y="124.0" width="43.9" height="112.0" fill="#5b8dd9" rx="2" />
<text x="391.6" y="120.0" font-size="11" fill="currentColor" text-anchor="middle">56</text>
<text x="391.6" y="252.0" font-size="11" fill="currentColor" opacity="0.85" text-anchor="middle">[7, 8)</text>
<rect x="421.3" y="144.0" width="43.9" height="92.0" fill="#5b8dd9" rx="2" />
<text x="443.3" y="140.0" font-size="11" fill="currentColor" text-anchor="middle">46</text>
<text x="443.3" y="252.0" font-size="11" fill="currentColor" opacity="0.85" text-anchor="middle">[8, 9)</text>
<rect x="473.0" y="158.0" width="43.9" height="78.0" fill="#5b8dd9" rx="2" />
<text x="494.9" y="154.0" font-size="11" fill="currentColor" text-anchor="middle">39</text>
<text x="494.9" y="252.0" font-size="11" fill="currentColor" opacity="0.85" text-anchor="middle">[9, 10)</text>
<rect x="524.6" y="128.0" width="43.9" height="108.0" fill="#5b8dd9" rx="2" />
<text x="546.5" y="124.0" font-size="11" fill="currentColor" text-anchor="middle">54</text>
<text x="546.5" y="252.0" font-size="11" fill="currentColor" opacity="0.85" text-anchor="middle">&gt;= 10</text>
<rect x="576.2" y="232.0" width="43.9" height="4.0" fill="#5b8dd9" rx="2" />
<text x="598.2" y="228.0" font-size="11" fill="currentColor" text-anchor="middle">2</text>
<text x="598.2" y="252.0" font-size="11" fill="currentColor" opacity="0.85" text-anchor="middle">absent</text>
</svg>
