<svg viewBox="0 0 640 300" width="100%" xmlns="http://www.w3.org/2000/svg" font-family="ui-sans-serif, system-ui, sans-serif">
<text x="56" y="20" font-size="13" font-weight="600" fill="currentColor">kobold-flagship-population — default</text>
<line x1="56.0" y1="186.0" x2="624.0" y2="186.0" stroke="currentColor" stroke-opacity="0.15" stroke-width="1" />
<text x="50" y="186.0" font-size="11" fill="currentColor" opacity="0.75" text-anchor="end">50</text>
<line x1="56.0" y1="136.0" x2="624.0" y2="136.0" stroke="currentColor" stroke-opacity="0.15" stroke-width="1" />
<text x="50" y="136.0" font-size="11" fill="currentColor" opacity="0.75" text-anchor="end">100</text>
<line x1="56.0" y1="86.0" x2="624.0" y2="86.0" stroke="currentColor" stroke-opacity="0.15" stroke-width="1" />
<text x="50" y="86.0" font-size="11" fill="currentColor" opacity="0.75" text-anchor="end">150</text>
<line x1="56.0" y1="36.0" x2="624.0" y2="36.0" stroke="currentColor" stroke-opacity="0.15" stroke-width="1" />
<text x="50" y="36.0" font-size="11" fill="currentColor" opacity="0.75" text-anchor="end">200</text>
<text x="91.5" y="232.0" font-size="11" fill="currentColor" text-anchor="middle">0</text>
<text x="91.5" y="252.0" font-size="11" fill="currentColor" opacity="0.85" text-anchor="end" transform="rotate(-30 91.5 252.0)">&lt; 0</text>
<text x="162.5" y="232.0" font-size="11" fill="currentColor" text-anchor="middle">0</text>
<text x="162.5" y="252.0" font-size="11" fill="currentColor" opacity="0.85" text-anchor="end" transform="rotate(-30 162.5 252.0)">[0, 100)</text>
<rect x="203.3" y="233.0" width="60.4" height="3.0" fill="#5b8dd9" rx="2" />
<text x="233.5" y="229.0" font-size="11" fill="currentColor" text-anchor="middle">3</text>
<text x="233.5" y="252.0" font-size="11" fill="currentColor" opacity="0.85" text-anchor="end" transform="rotate(-30 233.5 252.0)">[100, 200)</text>
<rect x="274.3" y="197.0" width="60.4" height="39.0" fill="#5b8dd9" rx="2" />
<text x="304.5" y="193.0" font-size="11" fill="currentColor" text-anchor="middle">39</text>
<text x="304.5" y="252.0" font-size="11" fill="currentColor" opacity="0.85" text-anchor="end" transform="rotate(-30 304.5 252.0)">[200, 300)</text>
<rect x="345.3" y="53.0" width="60.4" height="183.0" fill="#5b8dd9" rx="2" />
<text x="375.5" y="49.0" font-size="11" fill="currentColor" text-anchor="middle">183</text>
<text x="375.5" y="252.0" font-size="11" fill="currentColor" opacity="0.85" text-anchor="end" transform="rotate(-30 375.5 252.0)">[300, 400)</text>
<rect x="416.3" y="38.0" width="60.4" height="198.0" fill="#5b8dd9" rx="2" />
<text x="446.5" y="34.0" font-size="11" fill="currentColor" text-anchor="middle">198</text>
<text x="446.5" y="252.0" font-size="11" fill="currentColor" opacity="0.85" text-anchor="end" transform="rotate(-30 446.5 252.0)">[400, 500)</text>
<rect x="487.3" y="162.0" width="60.4" height="74.0" fill="#5b8dd9" rx="2" />
<text x="517.5" y="158.0" font-size="11" fill="currentColor" text-anchor="middle">74</text>
<text x="517.5" y="252.0" font-size="11" fill="currentColor" opacity="0.85" text-anchor="end" transform="rotate(-30 517.5 252.0)">&gt;= 500</text>
<rect x="558.3" y="233.0" width="60.4" height="3.0" fill="#5b8dd9" rx="2" />
<text x="588.5" y="229.0" font-size="11" fill="currentColor" text-anchor="middle">3</text>
<text x="588.5" y="252.0" font-size="11" fill="currentColor" opacity="0.85" text-anchor="end" transform="rotate(-30 588.5 252.0)">absent</text>
</svg>
