<svg viewBox="0 0 640 300" width="100%" xmlns="http://www.w3.org/2000/svg" font-family="ui-sans-serif, system-ui, sans-serif">
<text x="56" y="20" font-size="13" font-weight="600" fill="currentColor">obliquity-degrees — default</text>
<line x1="56.0" y1="186.0" x2="624.0" y2="186.0" stroke="currentColor" stroke-opacity="0.15" stroke-width="1" />
<text x="50" y="186.0" font-size="11" fill="currentColor" opacity="0.75" text-anchor="end">25</text>
<line x1="56.0" y1="136.0" x2="624.0" y2="136.0" stroke="currentColor" stroke-opacity="0.15" stroke-width="1" />
<text x="50" y="136.0" font-size="11" fill="currentColor" opacity="0.75" text-anchor="end">50</text>
<line x1="56.0" y1="86.0" x2="624.0" y2="86.0" stroke="currentColor" stroke-opacity="0.15" stroke-width="1" />
<text x="50" y="86.0" font-size="11" fill="currentColor" opacity="0.75" text-anchor="end">75</text>
<line x1="56.0" y1="36.0" x2="624.0" y2="36.0" stroke="currentColor" stroke-opacity="0.15" stroke-width="1" />
<text x="50" y="36.0" font-size="11" fill="currentColor" opacity="0.75" text-anchor="end">100</text>
<text x="87.6" y="232.0" font-size="11" fill="currentColor" text-anchor="middle">0</text>
<text x="87.6" y="252.0" font-size="11" fill="currentColor" opacity="0.85" text-anchor="middle">< 0</text>
<rect x="123.8" y="78.0" width="53.6" height="158.0" fill="#5b8dd9" rx="2" />
<text x="150.7" y="74.0" font-size="11" fill="currentColor" text-anchor="middle">79</text>
<text x="150.7" y="252.0" font-size="11" fill="currentColor" opacity="0.85" text-anchor="middle">[0, 5)</text>
<rect x="187.0" y="118.0" width="53.6" height="118.0" fill="#5b8dd9" rx="2" />
<text x="213.8" y="114.0" font-size="11" fill="currentColor" text-anchor="middle">59</text>
<text x="213.8" y="252.0" font-size="11" fill="currentColor" opacity="0.85" text-anchor="middle">[5, 10)</text>
<rect x="250.1" y="84.0" width="53.6" height="152.0" fill="#5b8dd9" rx="2" />
<text x="276.9" y="80.0" font-size="11" fill="currentColor" text-anchor="middle">76</text>
<text x="276.9" y="252.0" font-size="11" fill="currentColor" opacity="0.85" text-anchor="middle">[10, 15)</text>
<rect x="313.2" y="106.0" width="53.6" height="130.0" fill="#5b8dd9" rx="2" />
<text x="340.0" y="102.0" font-size="11" fill="currentColor" text-anchor="middle">65</text>
<text x="340.0" y="252.0" font-size="11" fill="currentColor" opacity="0.85" text-anchor="middle">[15, 20)</text>
<rect x="376.3" y="80.0" width="53.6" height="156.0" fill="#5b8dd9" rx="2" />
<text x="403.1" y="76.0" font-size="11" fill="currentColor" text-anchor="middle">78</text>
<text x="403.1" y="252.0" font-size="11" fill="currentColor" opacity="0.85" text-anchor="middle">[20, 25)</text>
<rect x="439.4" y="98.0" width="53.6" height="138.0" fill="#5b8dd9" rx="2" />
<text x="466.2" y="94.0" font-size="11" fill="currentColor" text-anchor="middle">69</text>
<text x="466.2" y="252.0" font-size="11" fill="currentColor" opacity="0.85" text-anchor="middle">[25, 30)</text>
<rect x="502.5" y="88.0" width="53.6" height="148.0" fill="#5b8dd9" rx="2" />
<text x="529.3" y="84.0" font-size="11" fill="currentColor" text-anchor="middle">74</text>
<text x="529.3" y="252.0" font-size="11" fill="currentColor" opacity="0.85" text-anchor="middle">[30, 35)</text>
<text x="592.4" y="232.0" font-size="11" fill="currentColor" text-anchor="middle">0</text>
<text x="592.4" y="252.0" font-size="11" fill="currentColor" opacity="0.85" text-anchor="middle">>= 35</text>
</svg>
