<svg viewBox="0 0 640 300" width="100%" xmlns="http://www.w3.org/2000/svg" font-family="ui-sans-serif, system-ui, sans-serif">
<text x="56" y="20" font-size="13" font-weight="600" fill="currentColor">day-length-hours — default</text>
<line x1="56.0" y1="186.0" x2="624.0" y2="186.0" stroke="currentColor" stroke-opacity="0.15" stroke-width="1" />
<text x="50" y="186.0" font-size="11" fill="currentColor" opacity="0.75" text-anchor="end">25</text>
<line x1="56.0" y1="136.0" x2="624.0" y2="136.0" stroke="currentColor" stroke-opacity="0.15" stroke-width="1" />
<text x="50" y="136.0" font-size="11" fill="currentColor" opacity="0.75" text-anchor="end">50</text>
<line x1="56.0" y1="86.0" x2="624.0" y2="86.0" stroke="currentColor" stroke-opacity="0.15" stroke-width="1" />
<text x="50" y="86.0" font-size="11" fill="currentColor" opacity="0.75" text-anchor="end">75</text>
<line x1="56.0" y1="36.0" x2="624.0" y2="36.0" stroke="currentColor" stroke-opacity="0.15" stroke-width="1" />
<text x="50" y="36.0" font-size="11" fill="currentColor" opacity="0.75" text-anchor="end">100</text>
<text x="87.6" y="232.0" font-size="11" fill="currentColor" text-anchor="middle">0</text>
<text x="87.6" y="252.0" font-size="11" fill="currentColor" opacity="0.85" text-anchor="middle">< 16</text>
<rect x="123.8" y="88.0" width="53.6" height="148.0" fill="#5b8dd9" rx="2" />
<text x="150.7" y="84.0" font-size="11" fill="currentColor" text-anchor="middle">74</text>
<text x="150.7" y="252.0" font-size="11" fill="currentColor" opacity="0.85" text-anchor="middle">[16, 20)</text>
<rect x="187.0" y="64.0" width="53.6" height="172.0" fill="#5b8dd9" rx="2" />
<text x="213.8" y="60.0" font-size="11" fill="currentColor" text-anchor="middle">86</text>
<text x="213.8" y="252.0" font-size="11" fill="currentColor" opacity="0.85" text-anchor="middle">[20, 24)</text>
<rect x="250.1" y="92.0" width="53.6" height="144.0" fill="#5b8dd9" rx="2" />
<text x="276.9" y="88.0" font-size="11" fill="currentColor" text-anchor="middle">72</text>
<text x="276.9" y="252.0" font-size="11" fill="currentColor" opacity="0.85" text-anchor="middle">[24, 28)</text>
<rect x="313.2" y="50.0" width="53.6" height="186.0" fill="#5b8dd9" rx="2" />
<text x="340.0" y="46.0" font-size="11" fill="currentColor" text-anchor="middle">93</text>
<text x="340.0" y="252.0" font-size="11" fill="currentColor" opacity="0.85" text-anchor="middle">[28, 32)</text>
<rect x="376.3" y="72.0" width="53.6" height="164.0" fill="#5b8dd9" rx="2" />
<text x="403.1" y="68.0" font-size="11" fill="currentColor" text-anchor="middle">82</text>
<text x="403.1" y="252.0" font-size="11" fill="currentColor" opacity="0.85" text-anchor="middle">[32, 36)</text>
<rect x="439.4" y="96.0" width="53.6" height="140.0" fill="#5b8dd9" rx="2" />
<text x="466.2" y="92.0" font-size="11" fill="currentColor" text-anchor="middle">70</text>
<text x="466.2" y="252.0" font-size="11" fill="currentColor" opacity="0.85" text-anchor="middle">[36, 40)</text>
<text x="529.3" y="232.0" font-size="11" fill="currentColor" text-anchor="middle">0</text>
<text x="529.3" y="252.0" font-size="11" fill="currentColor" opacity="0.85" text-anchor="middle">>= 40</text>
<rect x="565.6" y="190.0" width="53.6" height="46.0" fill="#5b8dd9" rx="2" />
<text x="592.4" y="186.0" font-size="11" fill="currentColor" text-anchor="middle">23</text>
<text x="592.4" y="252.0" font-size="11" fill="currentColor" opacity="0.85" text-anchor="middle">absent</text>
</svg>
