<svg viewBox="0 0 640 300" width="100%" xmlns="http://www.w3.org/2000/svg" font-family="ui-sans-serif, system-ui, sans-serif">
<text x="56" y="20" font-size="13" font-weight="600" fill="currentColor">year-local-days — default</text>
<line x1="56.0" y1="186.0" x2="624.0" y2="186.0" stroke="currentColor" stroke-opacity="0.15" stroke-width="1" />
<text x="50" y="186.0" font-size="11" fill="currentColor" opacity="0.75" text-anchor="end">50</text>
<line x1="56.0" y1="136.0" x2="624.0" y2="136.0" stroke="currentColor" stroke-opacity="0.15" stroke-width="1" />
<text x="50" y="136.0" font-size="11" fill="currentColor" opacity="0.75" text-anchor="end">100</text>
<line x1="56.0" y1="86.0" x2="624.0" y2="86.0" stroke="currentColor" stroke-opacity="0.15" stroke-width="1" />
<text x="50" y="86.0" font-size="11" fill="currentColor" opacity="0.75" text-anchor="end">150</text>
<line x1="56.0" y1="36.0" x2="624.0" y2="36.0" stroke="currentColor" stroke-opacity="0.15" stroke-width="1" />
<text x="50" y="36.0" font-size="11" fill="currentColor" opacity="0.75" text-anchor="end">200</text>
<text x="84.4" y="232.0" font-size="11" fill="currentColor" text-anchor="middle">0</text>
<text x="84.4" y="252.0" font-size="11" fill="currentColor" opacity="0.85" text-anchor="end" transform="rotate(-30 84.4 252.0)">< 0</text>
<rect x="117.1" y="163.0" width="48.3" height="73.0" fill="#5b8dd9" rx="2" />
<text x="141.2" y="159.0" font-size="11" fill="currentColor" text-anchor="middle">73</text>
<text x="141.2" y="252.0" font-size="11" fill="currentColor" opacity="0.85" text-anchor="end" transform="rotate(-30 141.2 252.0)">[0, 200)</text>
<rect x="173.9" y="61.0" width="48.3" height="175.0" fill="#5b8dd9" rx="2" />
<text x="198.0" y="57.0" font-size="11" fill="currentColor" text-anchor="middle">175</text>
<text x="198.0" y="252.0" font-size="11" fill="currentColor" opacity="0.85" text-anchor="end" transform="rotate(-30 198.0 252.0)">[200, 400)</text>
<rect x="230.7" y="136.0" width="48.3" height="100.0" fill="#5b8dd9" rx="2" />
<text x="254.8" y="132.0" font-size="11" fill="currentColor" text-anchor="middle">100</text>
<text x="254.8" y="252.0" font-size="11" fill="currentColor" opacity="0.85" text-anchor="end" transform="rotate(-30 254.8 252.0)">[400, 600)</text>
<rect x="287.5" y="170.0" width="48.3" height="66.0" fill="#5b8dd9" rx="2" />
<text x="311.6" y="166.0" font-size="11" fill="currentColor" text-anchor="middle">66</text>
<text x="311.6" y="252.0" font-size="11" fill="currentColor" opacity="0.85" text-anchor="end" transform="rotate(-30 311.6 252.0)">[600, 800)</text>
<rect x="344.3" y="194.0" width="48.3" height="42.0" fill="#5b8dd9" rx="2" />
<text x="368.4" y="190.0" font-size="11" fill="currentColor" text-anchor="middle">42</text>
<text x="368.4" y="252.0" font-size="11" fill="currentColor" opacity="0.85" text-anchor="end" transform="rotate(-30 368.4 252.0)">[800, 1000)</text>
<rect x="401.1" y="221.0" width="48.3" height="15.0" fill="#5b8dd9" rx="2" />
<text x="425.2" y="217.0" font-size="11" fill="currentColor" text-anchor="middle">15</text>
<text x="425.2" y="252.0" font-size="11" fill="currentColor" opacity="0.85" text-anchor="end" transform="rotate(-30 425.2 252.0)">[1000, 1200)</text>
<rect x="457.9" y="233.0" width="48.3" height="3.0" fill="#5b8dd9" rx="2" />
<text x="482.0" y="229.0" font-size="11" fill="currentColor" text-anchor="middle">3</text>
<text x="482.0" y="252.0" font-size="11" fill="currentColor" opacity="0.85" text-anchor="end" transform="rotate(-30 482.0 252.0)">[1200, 1400)</text>
<rect x="514.7" y="233.0" width="48.3" height="3.0" fill="#5b8dd9" rx="2" />
<text x="538.8" y="229.0" font-size="11" fill="currentColor" text-anchor="middle">3</text>
<text x="538.8" y="252.0" font-size="11" fill="currentColor" opacity="0.85" text-anchor="end" transform="rotate(-30 538.8 252.0)">>= 1400</text>
<rect x="571.5" y="213.0" width="48.3" height="23.0" fill="#5b8dd9" rx="2" />
<text x="595.6" y="209.0" font-size="11" fill="currentColor" text-anchor="middle">23</text>
<text x="595.6" y="252.0" font-size="11" fill="currentColor" opacity="0.85" text-anchor="end" transform="rotate(-30 595.6 252.0)">absent</text>
</svg>
