<svg viewBox="0 0 640 300" width="100%" xmlns="http://www.w3.org/2000/svg" font-family="ui-sans-serif, system-ui, sans-serif">
<text x="56" y="20" font-size="13" font-weight="600" fill="currentColor">habitable-fraction — default</text>
<line x1="56.0" y1="186.0" x2="624.0" y2="186.0" stroke="currentColor" stroke-opacity="0.15" stroke-width="1" />
<text x="50" y="186.0" font-size="11" fill="currentColor" opacity="0.75" text-anchor="end">1250</text>
<line x1="56.0" y1="136.0" x2="624.0" y2="136.0" stroke="currentColor" stroke-opacity="0.15" stroke-width="1" />
<text x="50" y="136.0" font-size="11" fill="currentColor" opacity="0.75" text-anchor="end">2500</text>
<line x1="56.0" y1="86.0" x2="624.0" y2="86.0" stroke="currentColor" stroke-opacity="0.15" stroke-width="1" />
<text x="50" y="86.0" font-size="11" fill="currentColor" opacity="0.75" text-anchor="end">3750</text>
<line x1="56.0" y1="36.0" x2="624.0" y2="36.0" stroke="currentColor" stroke-opacity="0.15" stroke-width="1" />
<text x="50" y="36.0" font-size="11" fill="currentColor" opacity="0.75" text-anchor="end">5000</text>
<text x="91.5" y="232.0" font-size="11" fill="currentColor" text-anchor="middle">0</text>
<text x="91.5" y="252.0" font-size="11" fill="currentColor" opacity="0.85" text-anchor="end" transform="rotate(-30 91.5 252.0)">&lt; 0</text>
<rect x="132.3" y="183.9" width="60.4" height="52.1" fill="#5b8dd9" rx="2" />
<text x="162.5" y="179.9" font-size="11" fill="currentColor" text-anchor="middle">1303</text>
<text x="162.5" y="252.0" font-size="11" fill="currentColor" opacity="0.85" text-anchor="end" transform="rotate(-30 162.5 252.0)">[0, 0.05)</text>
<rect x="203.3" y="178.3" width="60.4" height="57.7" fill="#5b8dd9" rx="2" />
<text x="233.5" y="174.3" font-size="11" fill="currentColor" text-anchor="middle">1443</text>
<text x="233.5" y="252.0" font-size="11" fill="currentColor" opacity="0.85" text-anchor="end" transform="rotate(-30 233.5 252.0)">[0.05, 0.1)</text>
<rect x="274.3" y="56.8" width="60.4" height="179.2" fill="#5b8dd9" rx="2" />
<text x="304.5" y="52.8" font-size="11" fill="currentColor" text-anchor="middle">4481</text>
<text x="304.5" y="252.0" font-size="11" fill="currentColor" opacity="0.85" text-anchor="end" transform="rotate(-30 304.5 252.0)">[0.1, 0.2)</text>
<rect x="345.3" y="135.4" width="60.4" height="100.6" fill="#5b8dd9" rx="2" />
<text x="375.5" y="131.4" font-size="11" fill="currentColor" text-anchor="middle">2514</text>
<text x="375.5" y="252.0" font-size="11" fill="currentColor" opacity="0.85" text-anchor="end" transform="rotate(-30 375.5 252.0)">[0.2, 0.3)</text>
<rect x="416.3" y="225.7" width="60.4" height="10.3" fill="#5b8dd9" rx="2" />
<text x="446.5" y="221.7" font-size="11" fill="currentColor" text-anchor="middle">257</text>
<text x="446.5" y="252.0" font-size="11" fill="currentColor" opacity="0.85" text-anchor="end" transform="rotate(-30 446.5 252.0)">[0.3, 0.4)</text>
<rect x="487.3" y="235.9" width="60.4" height="0.1" fill="#5b8dd9" rx="2" />
<text x="517.5" y="231.9" font-size="11" fill="currentColor" text-anchor="middle">2</text>
<text x="517.5" y="252.0" font-size="11" fill="currentColor" opacity="0.85" text-anchor="end" transform="rotate(-30 517.5 252.0)">[0.4, 0.5)</text>
<text x="588.5" y="232.0" font-size="11" fill="currentColor" text-anchor="middle">0</text>
<text x="588.5" y="252.0" font-size="11" fill="currentColor" opacity="0.85" text-anchor="end" transform="rotate(-30 588.5 252.0)">&gt;= 0.5</text>
</svg>
