<svg viewBox="0 0 640 300" width="100%" xmlns="http://www.w3.org/2000/svg" font-family="ui-sans-serif, system-ui, sans-serif">
<text x="56" y="20" font-size="13" font-weight="600" fill="currentColor">brightest-neighbor-class — default</text>
<line x1="56.0" y1="186.0" x2="624.0" y2="186.0" stroke="currentColor" stroke-opacity="0.15" stroke-width="1" />
<text x="50" y="186.0" font-size="11" fill="currentColor" opacity="0.75" text-anchor="end">1250</text>
<line x1="56.0" y1="136.0" x2="624.0" y2="136.0" stroke="currentColor" stroke-opacity="0.15" stroke-width="1" />
<text x="50" y="136.0" font-size="11" fill="currentColor" opacity="0.75" text-anchor="end">2500</text>
<line x1="56.0" y1="86.0" x2="624.0" y2="86.0" stroke="currentColor" stroke-opacity="0.15" stroke-width="1" />
<text x="50" y="86.0" font-size="11" fill="currentColor" opacity="0.75" text-anchor="end">3750</text>
<line x1="56.0" y1="36.0" x2="624.0" y2="36.0" stroke="currentColor" stroke-opacity="0.15" stroke-width="1" />
<text x="50" y="36.0" font-size="11" fill="currentColor" opacity="0.75" text-anchor="end">5000</text>
<rect x="63.1" y="171.8" width="80.5" height="64.2" fill="#5b8dd9" rx="2" />
<text x="103.3" y="167.8" font-size="11" fill="currentColor" text-anchor="middle">1606</text>
<text x="103.3" y="252.0" font-size="11" fill="currentColor" opacity="0.85" text-anchor="end" transform="rotate(-30 103.3 252.0)">blue-giant</text>
<rect x="157.8" y="153.4" width="80.5" height="82.6" fill="#5b8dd9" rx="2" />
<text x="198.0" y="149.4" font-size="11" fill="currentColor" text-anchor="middle">2065</text>
<text x="198.0" y="252.0" font-size="11" fill="currentColor" opacity="0.85" text-anchor="end" transform="rotate(-30 198.0 252.0)">orange-giant</text>
<rect x="252.4" y="190.2" width="80.5" height="45.8" fill="#5b8dd9" rx="2" />
<text x="292.7" y="186.2" font-size="11" fill="currentColor" text-anchor="middle">1145</text>
<text x="292.7" y="252.0" font-size="11" fill="currentColor" opacity="0.85" text-anchor="end" transform="rotate(-30 292.7 252.0)">red-dwarf</text>
<rect x="347.1" y="137.6" width="80.5" height="98.4" fill="#5b8dd9" rx="2" />
<text x="387.3" y="133.6" font-size="11" fill="currentColor" text-anchor="middle">2461</text>
<text x="387.3" y="252.0" font-size="11" fill="currentColor" opacity="0.85" text-anchor="end" transform="rotate(-30 387.3 252.0)">red-giant</text>
<rect x="441.8" y="131.7" width="80.5" height="104.3" fill="#5b8dd9" rx="2" />
<text x="482.0" y="127.7" font-size="11" fill="currentColor" text-anchor="middle">2607</text>
<text x="482.0" y="252.0" font-size="11" fill="currentColor" opacity="0.85" text-anchor="end" transform="rotate(-30 482.0 252.0)">sun-like</text>
<rect x="536.4" y="231.4" width="80.5" height="4.6" fill="#5b8dd9" rx="2" />
<text x="576.7" y="227.4" font-size="11" fill="currentColor" text-anchor="middle">116</text>
<text x="576.7" y="252.0" font-size="11" fill="currentColor" opacity="0.85" text-anchor="end" transform="rotate(-30 576.7 252.0)">white-dwarf</text>
</svg>
