<svg viewBox="0 0 640 300" width="100%" xmlns="http://www.w3.org/2000/svg" font-family="ui-sans-serif, system-ui, sans-serif">
<text x="56" y="20" font-size="13" font-weight="600" fill="currentColor">flagship-biome — default</text>
<line x1="56.0" y1="186.0" x2="624.0" y2="186.0" stroke="currentColor" stroke-opacity="0.15" stroke-width="1" />
<text x="50" y="186.0" font-size="11" fill="currentColor" opacity="0.75" text-anchor="end">2500</text>
<line x1="56.0" y1="136.0" x2="624.0" y2="136.0" stroke="currentColor" stroke-opacity="0.15" stroke-width="1" />
<text x="50" y="136.0" font-size="11" fill="currentColor" opacity="0.75" text-anchor="end">5000</text>
<line x1="56.0" y1="86.0" x2="624.0" y2="86.0" stroke="currentColor" stroke-opacity="0.15" stroke-width="1" />
<text x="50" y="86.0" font-size="11" fill="currentColor" opacity="0.75" text-anchor="end">7500</text>
<line x1="56.0" y1="36.0" x2="624.0" y2="36.0" stroke="currentColor" stroke-opacity="0.15" stroke-width="1" />
<text x="50" y="36.0" font-size="11" fill="currentColor" opacity="0.75" text-anchor="end">10000</text>
<rect x="59.9" y="217.4" width="43.9" height="18.6" fill="#5b8dd9" rx="2" />
<text x="81.8" y="213.4" font-size="11" fill="currentColor" text-anchor="middle">931</text>
<text x="81.8" y="252.0" font-size="11" fill="currentColor" opacity="0.85" text-anchor="end" transform="rotate(-30 81.8 252.0)">alpine</text>
<rect x="111.5" y="235.8" width="43.9" height="0.2" fill="#5b8dd9" rx="2" />
<text x="133.5" y="231.8" font-size="11" fill="currentColor" text-anchor="middle">9</text>
<text x="133.5" y="252.0" font-size="11" fill="currentColor" opacity="0.85" text-anchor="end" transform="rotate(-30 133.5 252.0)">savanna</text>
<rect x="163.1" y="229.7" width="43.9" height="6.3" fill="#5b8dd9" rx="2" />
<text x="185.1" y="225.7" font-size="11" fill="currentColor" text-anchor="middle">317</text>
<text x="185.1" y="252.0" font-size="11" fill="currentColor" opacity="0.85" text-anchor="end" transform="rotate(-30 185.1 252.0)">shrubland</text>
<rect x="214.8" y="211.1" width="43.9" height="24.9" fill="#5b8dd9" rx="2" />
<text x="236.7" y="207.1" font-size="11" fill="currentColor" text-anchor="middle">1245</text>
<text x="236.7" y="252.0" font-size="11" fill="currentColor" opacity="0.85" text-anchor="end" transform="rotate(-30 236.7 252.0)">taiga</text>
<rect x="266.4" y="192.9" width="43.9" height="43.1" fill="#5b8dd9" rx="2" />
<text x="288.4" y="188.9" font-size="11" fill="currentColor" text-anchor="middle">2157</text>
<text x="288.4" y="252.0" font-size="11" fill="currentColor" opacity="0.85" text-anchor="end" transform="rotate(-30 288.4 252.0)">temperate-forest</text>
<rect x="318.1" y="235.6" width="43.9" height="0.4" fill="#5b8dd9" rx="2" />
<text x="340.0" y="231.6" font-size="11" fill="currentColor" text-anchor="middle">18</text>
<text x="340.0" y="252.0" font-size="11" fill="currentColor" opacity="0.85" text-anchor="end" transform="rotate(-30 340.0 252.0)">temperate-grassland</text>
<rect x="369.7" y="133.4" width="43.9" height="102.6" fill="#5b8dd9" rx="2" />
<text x="391.6" y="129.4" font-size="11" fill="currentColor" text-anchor="middle">5130</text>
<text x="391.6" y="252.0" font-size="11" fill="currentColor" opacity="0.85" text-anchor="end" transform="rotate(-30 391.6 252.0)">temperate-rainforest</text>
<rect x="421.3" y="232.5" width="43.9" height="3.5" fill="#5b8dd9" rx="2" />
<text x="443.3" y="228.5" font-size="11" fill="currentColor" text-anchor="middle">174</text>
<text x="443.3" y="252.0" font-size="11" fill="currentColor" opacity="0.85" text-anchor="end" transform="rotate(-30 443.3 252.0)">tropical-rainforest</text>
<rect x="473.0" y="235.8" width="43.9" height="0.2" fill="#5b8dd9" rx="2" />
<text x="494.9" y="231.8" font-size="11" fill="currentColor" text-anchor="middle">11</text>
<text x="494.9" y="252.0" font-size="11" fill="currentColor" opacity="0.85" text-anchor="end" transform="rotate(-30 494.9 252.0)">tropical-seasonal-forest</text>
<rect x="524.6" y="236.0" width="43.9" height="0.0" fill="#5b8dd9" rx="2" />
<text x="546.5" y="232.0" font-size="11" fill="currentColor" text-anchor="middle">2</text>
<text x="546.5" y="252.0" font-size="11" fill="currentColor" opacity="0.85" text-anchor="end" transform="rotate(-30 546.5 252.0)">tundra</text>
<rect x="576.2" y="235.9" width="43.9" height="0.1" fill="#5b8dd9" rx="2" />
<text x="598.2" y="231.9" font-size="11" fill="currentColor" text-anchor="middle">6</text>
<text x="598.2" y="252.0" font-size="11" fill="currentColor" opacity="0.85" text-anchor="end" transform="rotate(-30 598.2 252.0)">absent</text>
</svg>
