<svg viewBox="0 0 640 300" width="100%" xmlns="http://www.w3.org/2000/svg" font-family="ui-sans-serif, system-ui, sans-serif">
<text x="56" y="20" font-size="13" font-weight="600" fill="currentColor">kobold-flagship-roles — default</text>
<line x1="56.0" y1="186.0" x2="624.0" y2="186.0" stroke="currentColor" stroke-opacity="0.15" stroke-width="1" />
<text x="50" y="186.0" font-size="11" fill="currentColor" opacity="0.75" text-anchor="end">2500</text>
<line x1="56.0" y1="136.0" x2="624.0" y2="136.0" stroke="currentColor" stroke-opacity="0.15" stroke-width="1" />
<text x="50" y="136.0" font-size="11" fill="currentColor" opacity="0.75" text-anchor="end">5000</text>
<line x1="56.0" y1="86.0" x2="624.0" y2="86.0" stroke="currentColor" stroke-opacity="0.15" stroke-width="1" />
<text x="50" y="86.0" font-size="11" fill="currentColor" opacity="0.75" text-anchor="end">7500</text>
<line x1="56.0" y1="36.0" x2="624.0" y2="36.0" stroke="currentColor" stroke-opacity="0.15" stroke-width="1" />
<text x="50" y="36.0" font-size="11" fill="currentColor" opacity="0.75" text-anchor="end">10000</text>
<rect x="63.1" y="210.8" width="80.5" height="25.2" fill="#5b8dd9" rx="2" />
<text x="103.3" y="206.8" font-size="11" fill="currentColor" text-anchor="middle">1260</text>
<text x="103.3" y="252.0" font-size="11" fill="currentColor" opacity="0.85" text-anchor="end" transform="rotate(-30 103.3 252.0)">digger,elders</text>
<rect x="157.8" y="236.0" width="80.5" height="0.0" fill="#5b8dd9" rx="2" />
<text x="198.0" y="232.0" font-size="11" fill="currentColor" text-anchor="middle">1</text>
<text x="198.0" y="252.0" font-size="11" fill="currentColor" opacity="0.85" text-anchor="end" transform="rotate(-30 198.0 252.0)">digger,keeper,elders</text>
<rect x="252.4" y="84.1" width="80.5" height="151.9" fill="#5b8dd9" rx="2" />
<text x="292.7" y="80.1" font-size="11" fill="currentColor" text-anchor="middle">7593</text>
<text x="292.7" y="252.0" font-size="11" fill="currentColor" opacity="0.85" text-anchor="end" transform="rotate(-30 292.7 252.0)">digger,shaper,keeper,elders</text>
<rect x="347.1" y="233.2" width="80.5" height="2.8" fill="#5b8dd9" rx="2" />
<text x="387.3" y="229.2" font-size="11" fill="currentColor" text-anchor="middle">142</text>
<text x="387.3" y="252.0" font-size="11" fill="currentColor" opacity="0.85" text-anchor="end" transform="rotate(-30 387.3 252.0)">digger,warden,elders</text>
<rect x="441.8" y="216.4" width="80.5" height="19.6" fill="#5b8dd9" rx="2" />
<text x="482.0" y="212.4" font-size="11" fill="currentColor" text-anchor="middle">981</text>
<text x="482.0" y="252.0" font-size="11" fill="currentColor" opacity="0.85" text-anchor="end" transform="rotate(-30 482.0 252.0)">digger,warden,shaper,keeper,elders</text>
<rect x="536.4" y="235.5" width="80.5" height="0.5" fill="#5b8dd9" rx="2" />
<text x="576.7" y="231.5" font-size="11" fill="currentColor" text-anchor="middle">23</text>
<text x="576.7" y="252.0" font-size="11" fill="currentColor" opacity="0.85" text-anchor="end" transform="rotate(-30 576.7 252.0)">absent</text>
</svg>
