<svg viewBox="0 0 640 300" width="100%" xmlns="http://www.w3.org/2000/svg" font-family="ui-sans-serif, system-ui, sans-serif">
<text x="56" y="20" font-size="13" font-weight="600" fill="currentColor">total-tide — default</text>
<line x1="56.0" y1="186.0" x2="624.0" y2="186.0" stroke="currentColor" stroke-opacity="0.15" stroke-width="1" />
<text x="50" y="186.0" font-size="11" fill="currentColor" opacity="0.75" text-anchor="end">1250</text>
<line x1="56.0" y1="136.0" x2="624.0" y2="136.0" stroke="currentColor" stroke-opacity="0.15" stroke-width="1" />
<text x="50" y="136.0" font-size="11" fill="currentColor" opacity="0.75" text-anchor="end">2500</text>
<line x1="56.0" y1="86.0" x2="624.0" y2="86.0" stroke="currentColor" stroke-opacity="0.15" stroke-width="1" />
<text x="50" y="86.0" font-size="11" fill="currentColor" opacity="0.75" text-anchor="end">3750</text>
<line x1="56.0" y1="36.0" x2="624.0" y2="36.0" stroke="currentColor" stroke-opacity="0.15" stroke-width="1" />
<text x="50" y="36.0" font-size="11" fill="currentColor" opacity="0.75" text-anchor="end">5000</text>
<text x="84.4" y="232.0" font-size="11" fill="currentColor" text-anchor="middle">0</text>
<text x="84.4" y="252.0" font-size="11" fill="currentColor" opacity="0.85" text-anchor="middle">&lt; 0</text>
<rect x="117.1" y="70.4" width="48.3" height="165.6" fill="#5b8dd9" rx="2" />
<text x="141.2" y="66.4" font-size="11" fill="currentColor" text-anchor="middle">4140</text>
<text x="141.2" y="252.0" font-size="11" fill="currentColor" opacity="0.85" text-anchor="middle">[0, 1)</text>
<rect x="173.9" y="186.4" width="48.3" height="49.6" fill="#5b8dd9" rx="2" />
<text x="198.0" y="182.4" font-size="11" fill="currentColor" text-anchor="middle">1240</text>
<text x="198.0" y="252.0" font-size="11" fill="currentColor" opacity="0.85" text-anchor="middle">[1, 2)</text>
<rect x="230.7" y="196.0" width="48.3" height="40.0" fill="#5b8dd9" rx="2" />
<text x="254.8" y="192.0" font-size="11" fill="currentColor" text-anchor="middle">999</text>
<text x="254.8" y="252.0" font-size="11" fill="currentColor" opacity="0.85" text-anchor="middle">[2, 3)</text>
<rect x="287.5" y="203.9" width="48.3" height="32.1" fill="#5b8dd9" rx="2" />
<text x="311.6" y="199.9" font-size="11" fill="currentColor" text-anchor="middle">803</text>
<text x="311.6" y="252.0" font-size="11" fill="currentColor" opacity="0.85" text-anchor="middle">[3, 4)</text>
<rect x="344.3" y="208.8" width="48.3" height="27.2" fill="#5b8dd9" rx="2" />
<text x="368.4" y="204.8" font-size="11" fill="currentColor" text-anchor="middle">679</text>
<text x="368.4" y="252.0" font-size="11" fill="currentColor" opacity="0.85" text-anchor="middle">[4, 5)</text>
<rect x="401.1" y="209.8" width="48.3" height="26.2" fill="#5b8dd9" rx="2" />
<text x="425.2" y="205.8" font-size="11" fill="currentColor" text-anchor="middle">655</text>
<text x="425.2" y="252.0" font-size="11" fill="currentColor" opacity="0.85" text-anchor="middle">[5, 6)</text>
<rect x="457.9" y="208.3" width="48.3" height="27.7" fill="#5b8dd9" rx="2" />
<text x="482.0" y="204.3" font-size="11" fill="currentColor" text-anchor="middle">692</text>
<text x="482.0" y="252.0" font-size="11" fill="currentColor" opacity="0.85" text-anchor="middle">[6, 7)</text>
<rect x="514.7" y="204.3" width="48.3" height="31.7" fill="#5b8dd9" rx="2" />
<text x="538.8" y="200.3" font-size="11" fill="currentColor" text-anchor="middle">792</text>
<text x="538.8" y="252.0" font-size="11" fill="currentColor" opacity="0.85" text-anchor="middle">[7, 8)</text>
<text x="595.6" y="232.0" font-size="11" fill="currentColor" text-anchor="middle">0</text>
<text x="595.6" y="252.0" font-size="11" fill="currentColor" opacity="0.85" text-anchor="middle">&gt;= 8</text>
</svg>
