<svg viewBox="0 0 640 300" width="100%" xmlns="http://www.w3.org/2000/svg" font-family="ui-sans-serif, system-ui, sans-serif">
<text x="56" y="20" font-size="13" font-weight="600" fill="currentColor">goblin-flagship-roles — default</text>
<line x1="56.0" y1="186.0" x2="624.0" y2="186.0" stroke="currentColor" stroke-opacity="0.15" stroke-width="1" />
<text x="50" y="186.0" font-size="11" fill="currentColor" opacity="0.75" text-anchor="end">2500</text>
<line x1="56.0" y1="136.0" x2="624.0" y2="136.0" stroke="currentColor" stroke-opacity="0.15" stroke-width="1" />
<text x="50" y="136.0" font-size="11" fill="currentColor" opacity="0.75" text-anchor="end">5000</text>
<line x1="56.0" y1="86.0" x2="624.0" y2="86.0" stroke="currentColor" stroke-opacity="0.15" stroke-width="1" />
<text x="50" y="86.0" font-size="11" fill="currentColor" opacity="0.75" text-anchor="end">7500</text>
<line x1="56.0" y1="36.0" x2="624.0" y2="36.0" stroke="currentColor" stroke-opacity="0.15" stroke-width="1" />
<text x="50" y="36.0" font-size="11" fill="currentColor" opacity="0.75" text-anchor="end">10000</text>
<rect x="59.9" y="226.7" width="43.9" height="9.3" fill="#5b8dd9" rx="2" />
<text x="81.8" y="222.7" font-size="11" fill="currentColor" text-anchor="middle">464</text>
<text x="81.8" y="252.0" font-size="11" fill="currentColor" opacity="0.85" text-anchor="end" transform="rotate(-30 81.8 252.0)">farmer,artisan,shaman,chief</text>
<rect x="111.5" y="230.1" width="43.9" height="5.9" fill="#5b8dd9" rx="2" />
<text x="133.5" y="226.1" font-size="11" fill="currentColor" text-anchor="middle">293</text>
<text x="133.5" y="252.0" font-size="11" fill="currentColor" opacity="0.85" text-anchor="end" transform="rotate(-30 133.5 252.0)">farmer,chief</text>
<rect x="163.1" y="221.0" width="43.9" height="15.0" fill="#5b8dd9" rx="2" />
<text x="185.1" y="217.0" font-size="11" fill="currentColor" text-anchor="middle">752</text>
<text x="185.1" y="252.0" font-size="11" fill="currentColor" opacity="0.85" text-anchor="end" transform="rotate(-30 185.1 252.0)">farmer,shaman,chief</text>
<rect x="214.8" y="235.9" width="43.9" height="0.1" fill="#5b8dd9" rx="2" />
<text x="236.7" y="231.9" font-size="11" fill="currentColor" text-anchor="middle">6</text>
<text x="236.7" y="252.0" font-size="11" fill="currentColor" opacity="0.85" text-anchor="end" transform="rotate(-30 236.7 252.0)">farmer,warrior,artisan,shaman,chief</text>
<rect x="266.4" y="211.2" width="43.9" height="24.8" fill="#5b8dd9" rx="2" />
<text x="288.4" y="207.2" font-size="11" fill="currentColor" text-anchor="middle">1238</text>
<text x="288.4" y="252.0" font-size="11" fill="currentColor" opacity="0.85" text-anchor="end" transform="rotate(-30 288.4 252.0)">fisher,chief</text>
<rect x="318.1" y="236.0" width="43.9" height="0.0" fill="#5b8dd9" rx="2" />
<text x="340.0" y="232.0" font-size="11" fill="currentColor" text-anchor="middle">2</text>
<text x="340.0" y="252.0" font-size="11" fill="currentColor" opacity="0.85" text-anchor="end" transform="rotate(-30 340.0 252.0)">fisher,warrior,chief</text>
<rect x="369.7" y="235.9" width="43.9" height="0.1" fill="#5b8dd9" rx="2" />
<text x="391.6" y="231.9" font-size="11" fill="currentColor" text-anchor="middle">6</text>
<text x="391.6" y="252.0" font-size="11" fill="currentColor" opacity="0.85" text-anchor="end" transform="rotate(-30 391.6 252.0)">forager,chief</text>
<rect x="421.3" y="235.9" width="43.9" height="0.1" fill="#5b8dd9" rx="2" />
<text x="443.3" y="231.9" font-size="11" fill="currentColor" text-anchor="middle">4</text>
<text x="443.3" y="252.0" font-size="11" fill="currentColor" opacity="0.85" text-anchor="end" transform="rotate(-30 443.3 252.0)">herder,chief</text>
<rect x="473.0" y="91.7" width="43.9" height="144.3" fill="#5b8dd9" rx="2" />
<text x="494.9" y="87.7" font-size="11" fill="currentColor" text-anchor="middle">7216</text>
<text x="494.9" y="252.0" font-size="11" fill="currentColor" opacity="0.85" text-anchor="end" transform="rotate(-30 494.9 252.0)">slave,farmer,artisan,shaman,chief</text>
<rect x="524.6" y="235.7" width="43.9" height="0.3" fill="#5b8dd9" rx="2" />
<text x="546.5" y="231.7" font-size="11" fill="currentColor" text-anchor="middle">13</text>
<text x="546.5" y="252.0" font-size="11" fill="currentColor" opacity="0.85" text-anchor="end" transform="rotate(-30 546.5 252.0)">slave,farmer,warrior,artisan,shaman,chief</text>
<rect x="576.2" y="235.9" width="43.9" height="0.1" fill="#5b8dd9" rx="2" />
<text x="598.2" y="231.9" font-size="11" fill="currentColor" text-anchor="middle">6</text>
<text x="598.2" y="252.0" font-size="11" fill="currentColor" opacity="0.85" text-anchor="end" transform="rotate(-30 598.2 252.0)">absent</text>
</svg>
