<svg viewBox="0 0 640 300" width="100%" xmlns="http://www.w3.org/2000/svg" font-family="ui-sans-serif, system-ui, sans-serif">
<text x="56" y="20" font-size="13" font-weight="600" fill="currentColor">flagship-subsistence — default</text>
<line x1="56.0" y1="186.0" x2="624.0" y2="186.0" stroke="currentColor" stroke-opacity="0.15" stroke-width="1" />
<text x="50" y="186.0" font-size="11" fill="currentColor" opacity="0.75" text-anchor="end">2500</text>
<line x1="56.0" y1="136.0" x2="624.0" y2="136.0" stroke="currentColor" stroke-opacity="0.15" stroke-width="1" />
<text x="50" y="136.0" font-size="11" fill="currentColor" opacity="0.75" text-anchor="end">5000</text>
<line x1="56.0" y1="86.0" x2="624.0" y2="86.0" stroke="currentColor" stroke-opacity="0.15" stroke-width="1" />
<text x="50" y="86.0" font-size="11" fill="currentColor" opacity="0.75" text-anchor="end">7500</text>
<line x1="56.0" y1="36.0" x2="624.0" y2="36.0" stroke="currentColor" stroke-opacity="0.15" stroke-width="1" />
<text x="50" y="36.0" font-size="11" fill="currentColor" opacity="0.75" text-anchor="end">10000</text>
<rect x="64.5" y="61.1" width="96.6" height="174.9" fill="#5b8dd9" rx="2" />
<text x="112.8" y="57.1" font-size="11" fill="currentColor" text-anchor="middle">8744</text>
<text x="112.8" y="252.0" font-size="11" fill="currentColor" opacity="0.85" text-anchor="middle">farming</text>
<rect x="178.1" y="211.2" width="96.6" height="24.8" fill="#5b8dd9" rx="2" />
<text x="226.4" y="207.2" font-size="11" fill="currentColor" text-anchor="middle">1240</text>
<text x="226.4" y="252.0" font-size="11" fill="currentColor" opacity="0.85" text-anchor="middle">fishing</text>
<rect x="291.7" y="235.9" width="96.6" height="0.1" fill="#5b8dd9" rx="2" />
<text x="340.0" y="231.9" font-size="11" fill="currentColor" text-anchor="middle">6</text>
<text x="340.0" y="252.0" font-size="11" fill="currentColor" opacity="0.85" text-anchor="middle">foraging</text>
<rect x="405.3" y="235.9" width="96.6" height="0.1" fill="#5b8dd9" rx="2" />
<text x="453.6" y="231.9" font-size="11" fill="currentColor" text-anchor="middle">4</text>
<text x="453.6" y="252.0" font-size="11" fill="currentColor" opacity="0.85" text-anchor="middle">herding</text>
<rect x="518.9" y="235.9" width="96.6" height="0.1" fill="#5b8dd9" rx="2" />
<text x="567.2" y="231.9" font-size="11" fill="currentColor" text-anchor="middle">6</text>
<text x="567.2" y="252.0" font-size="11" fill="currentColor" opacity="0.85" text-anchor="middle">absent</text>
</svg>
