<svg viewBox="0 0 640 300" width="100%" xmlns="http://www.w3.org/2000/svg" font-family="ui-sans-serif, system-ui, sans-serif">
<text x="56" y="20" font-size="13" font-weight="600" fill="currentColor">pantheon-size-goblin — default</text>
<line x1="56.0" y1="186.0" x2="624.0" y2="186.0" stroke="currentColor" stroke-opacity="0.15" stroke-width="1" />
<text x="50" y="186.0" font-size="11" fill="currentColor" opacity="0.75" text-anchor="end">1250</text>
<line x1="56.0" y1="136.0" x2="624.0" y2="136.0" stroke="currentColor" stroke-opacity="0.15" stroke-width="1" />
<text x="50" y="136.0" font-size="11" fill="currentColor" opacity="0.75" text-anchor="end">2500</text>
<line x1="56.0" y1="86.0" x2="624.0" y2="86.0" stroke="currentColor" stroke-opacity="0.15" stroke-width="1" />
<text x="50" y="86.0" font-size="11" fill="currentColor" opacity="0.75" text-anchor="end">3750</text>
<line x1="56.0" y1="36.0" x2="624.0" y2="36.0" stroke="currentColor" stroke-opacity="0.15" stroke-width="1" />
<text x="50" y="36.0" font-size="11" fill="currentColor" opacity="0.75" text-anchor="end">5000</text>
<text x="87.6" y="232.0" font-size="11" fill="currentColor" text-anchor="middle">0</text>
<text x="87.6" y="252.0" font-size="11" fill="currentColor" opacity="0.85" text-anchor="middle">&lt; 0</text>
<text x="150.7" y="232.0" font-size="11" fill="currentColor" text-anchor="middle">0</text>
<text x="150.7" y="252.0" font-size="11" fill="currentColor" opacity="0.85" text-anchor="middle">[0, 1)</text>
<rect x="187.0" y="194.7" width="53.6" height="41.3" fill="#5b8dd9" rx="2" />
<text x="213.8" y="190.7" font-size="11" fill="currentColor" text-anchor="middle">1032</text>
<text x="213.8" y="252.0" font-size="11" fill="currentColor" opacity="0.85" text-anchor="middle">[1, 2)</text>
<rect x="250.1" y="141.7" width="53.6" height="94.3" fill="#5b8dd9" rx="2" />
<text x="276.9" y="137.7" font-size="11" fill="currentColor" text-anchor="middle">2357</text>
<text x="276.9" y="252.0" font-size="11" fill="currentColor" opacity="0.85" text-anchor="middle">[2, 3)</text>
<rect x="313.2" y="99.3" width="53.6" height="136.7" fill="#5b8dd9" rx="2" />
<text x="340.0" y="95.3" font-size="11" fill="currentColor" text-anchor="middle">3417</text>
<text x="340.0" y="252.0" font-size="11" fill="currentColor" opacity="0.85" text-anchor="middle">[3, 4)</text>
<rect x="376.3" y="144.4" width="53.6" height="91.6" fill="#5b8dd9" rx="2" />
<text x="403.1" y="140.4" font-size="11" fill="currentColor" text-anchor="middle">2290</text>
<text x="403.1" y="252.0" font-size="11" fill="currentColor" opacity="0.85" text-anchor="middle">[4, 5)</text>
<rect x="439.4" y="204.9" width="53.6" height="31.1" fill="#5b8dd9" rx="2" />
<text x="466.2" y="200.9" font-size="11" fill="currentColor" text-anchor="middle">777</text>
<text x="466.2" y="252.0" font-size="11" fill="currentColor" opacity="0.85" text-anchor="middle">[5, 6)</text>
<rect x="502.5" y="232.0" width="53.6" height="4.0" fill="#5b8dd9" rx="2" />
<text x="529.3" y="228.0" font-size="11" fill="currentColor" text-anchor="middle">99</text>
<text x="529.3" y="252.0" font-size="11" fill="currentColor" opacity="0.85" text-anchor="middle">&gt;= 6</text>
<rect x="565.6" y="234.9" width="53.6" height="1.1" fill="#5b8dd9" rx="2" />
<text x="592.4" y="230.9" font-size="11" fill="currentColor" text-anchor="middle">28</text>
<text x="592.4" y="252.0" font-size="11" fill="currentColor" opacity="0.85" text-anchor="middle">absent</text>
</svg>
