<svg viewBox="0 0 640 300" width="100%" xmlns="http://www.w3.org/2000/svg" font-family="ui-sans-serif, system-ui, sans-serif">
<text x="56" y="20" font-size="13" font-weight="600" fill="currentColor">day-length-hours — default</text>
<line x1="56.0" y1="186.0" x2="624.0" y2="186.0" stroke="currentColor" stroke-opacity="0.15" stroke-width="1" />
<text x="50" y="186.0" font-size="11" fill="currentColor" opacity="0.75" text-anchor="end">500</text>
<line x1="56.0" y1="136.0" x2="624.0" y2="136.0" stroke="currentColor" stroke-opacity="0.15" stroke-width="1" />
<text x="50" y="136.0" font-size="11" fill="currentColor" opacity="0.75" text-anchor="end">1000</text>
<line x1="56.0" y1="86.0" x2="624.0" y2="86.0" stroke="currentColor" stroke-opacity="0.15" stroke-width="1" />
<text x="50" y="86.0" font-size="11" fill="currentColor" opacity="0.75" text-anchor="end">1500</text>
<line x1="56.0" y1="36.0" x2="624.0" y2="36.0" stroke="currentColor" stroke-opacity="0.15" stroke-width="1" />
<text x="50" y="36.0" font-size="11" fill="currentColor" opacity="0.75" text-anchor="end">2000</text>
<text x="87.6" y="232.0" font-size="11" fill="currentColor" text-anchor="middle">0</text>
<text x="87.6" y="252.0" font-size="11" fill="currentColor" opacity="0.85" text-anchor="middle">< 16</text>
<rect x="123.8" y="76.4" width="53.6" height="159.6" fill="#5b8dd9" rx="2" />
<text x="150.7" y="72.4" font-size="11" fill="currentColor" text-anchor="middle">1596</text>
<text x="150.7" y="252.0" font-size="11" fill="currentColor" opacity="0.85" text-anchor="middle">[16, 20)</text>
<rect x="187.0" y="74.0" width="53.6" height="162.0" fill="#5b8dd9" rx="2" />
<text x="213.8" y="70.0" font-size="11" fill="currentColor" text-anchor="middle">1620</text>
<text x="213.8" y="252.0" font-size="11" fill="currentColor" opacity="0.85" text-anchor="middle">[20, 24)</text>
<rect x="250.1" y="78.7" width="53.6" height="157.3" fill="#5b8dd9" rx="2" />
<text x="276.9" y="74.7" font-size="11" fill="currentColor" text-anchor="middle">1573</text>
<text x="276.9" y="252.0" font-size="11" fill="currentColor" opacity="0.85" text-anchor="middle">[24, 28)</text>
<rect x="313.2" y="75.3" width="53.6" height="160.7" fill="#5b8dd9" rx="2" />
<text x="340.0" y="71.3" font-size="11" fill="currentColor" text-anchor="middle">1607</text>
<text x="340.0" y="252.0" font-size="11" fill="currentColor" opacity="0.85" text-anchor="middle">[28, 32)</text>
<rect x="376.3" y="77.1" width="53.6" height="158.9" fill="#5b8dd9" rx="2" />
<text x="403.1" y="73.1" font-size="11" fill="currentColor" text-anchor="middle">1589</text>
<text x="403.1" y="252.0" font-size="11" fill="currentColor" opacity="0.85" text-anchor="middle">[32, 36)</text>
<rect x="439.4" y="80.2" width="53.6" height="155.8" fill="#5b8dd9" rx="2" />
<text x="466.2" y="76.2" font-size="11" fill="currentColor" text-anchor="middle">1558</text>
<text x="466.2" y="252.0" font-size="11" fill="currentColor" opacity="0.85" text-anchor="middle">[36, 40)</text>
<text x="529.3" y="232.0" font-size="11" fill="currentColor" text-anchor="middle">0</text>
<text x="529.3" y="252.0" font-size="11" fill="currentColor" opacity="0.85" text-anchor="middle">>= 40</text>
<rect x="565.6" y="190.3" width="53.6" height="45.7" fill="#5b8dd9" rx="2" />
<text x="592.4" y="186.3" font-size="11" fill="currentColor" text-anchor="middle">457</text>
<text x="592.4" y="252.0" font-size="11" fill="currentColor" opacity="0.85" text-anchor="middle">absent</text>
</svg>
