<svg viewBox="0 0 640 300" width="100%" xmlns="http://www.w3.org/2000/svg" font-family="ui-sans-serif, system-ui, sans-serif">
<text x="56" y="20" font-size="13" font-weight="600" fill="currentColor">pantheon-size — default</text>
<line x1="56.0" y1="186.0" x2="624.0" y2="186.0" stroke="currentColor" stroke-opacity="0.15" stroke-width="1" />
<text x="50" y="186.0" font-size="11" fill="currentColor" opacity="0.75" text-anchor="end">1250</text>
<line x1="56.0" y1="136.0" x2="624.0" y2="136.0" stroke="currentColor" stroke-opacity="0.15" stroke-width="1" />
<text x="50" y="136.0" font-size="11" fill="currentColor" opacity="0.75" text-anchor="end">2500</text>
<line x1="56.0" y1="86.0" x2="624.0" y2="86.0" stroke="currentColor" stroke-opacity="0.15" stroke-width="1" />
<text x="50" y="86.0" font-size="11" fill="currentColor" opacity="0.75" text-anchor="end">3750</text>
<line x1="56.0" y1="36.0" x2="624.0" y2="36.0" stroke="currentColor" stroke-opacity="0.15" stroke-width="1" />
<text x="50" y="36.0" font-size="11" fill="currentColor" opacity="0.75" text-anchor="end">5000</text>
<text x="91.5" y="232.0" font-size="11" fill="currentColor" text-anchor="middle">0</text>
<text x="91.5" y="252.0" font-size="11" fill="currentColor" opacity="0.85" text-anchor="middle">&lt; 1</text>
<rect x="132.3" y="210.6" width="60.4" height="25.4" fill="#5b8dd9" rx="2" />
<text x="162.5" y="206.6" font-size="11" fill="currentColor" text-anchor="middle">635</text>
<text x="162.5" y="252.0" font-size="11" fill="currentColor" opacity="0.85" text-anchor="middle">[1, 2)</text>
<rect x="203.3" y="135.5" width="60.4" height="100.5" fill="#5b8dd9" rx="2" />
<text x="233.5" y="131.5" font-size="11" fill="currentColor" text-anchor="middle">2512</text>
<text x="233.5" y="252.0" font-size="11" fill="currentColor" opacity="0.85" text-anchor="middle">[2, 3)</text>
<rect x="274.3" y="93.1" width="60.4" height="142.9" fill="#5b8dd9" rx="2" />
<text x="304.5" y="89.1" font-size="11" fill="currentColor" text-anchor="middle">3573</text>
<text x="304.5" y="252.0" font-size="11" fill="currentColor" opacity="0.85" text-anchor="middle">[3, 4)</text>
<rect x="345.3" y="141.5" width="60.4" height="94.5" fill="#5b8dd9" rx="2" />
<text x="375.5" y="137.5" font-size="11" fill="currentColor" text-anchor="middle">2363</text>
<text x="375.5" y="252.0" font-size="11" fill="currentColor" opacity="0.85" text-anchor="middle">[4, 5)</text>
<rect x="416.3" y="204.5" width="60.4" height="31.5" fill="#5b8dd9" rx="2" />
<text x="446.5" y="200.5" font-size="11" fill="currentColor" text-anchor="middle">788</text>
<text x="446.5" y="252.0" font-size="11" fill="currentColor" opacity="0.85" text-anchor="middle">[5, 6)</text>
<rect x="487.3" y="232.0" width="60.4" height="4.0" fill="#5b8dd9" rx="2" />
<text x="517.5" y="228.0" font-size="11" fill="currentColor" text-anchor="middle">101</text>
<text x="517.5" y="252.0" font-size="11" fill="currentColor" opacity="0.85" text-anchor="middle">&gt;= 6</text>
<rect x="558.3" y="234.9" width="60.4" height="1.1" fill="#5b8dd9" rx="2" />
<text x="588.5" y="230.9" font-size="11" fill="currentColor" text-anchor="middle">28</text>
<text x="588.5" y="252.0" font-size="11" fill="currentColor" opacity="0.85" text-anchor="middle">absent</text>
</svg>
