<svg viewBox="0 0 640 300" width="100%" xmlns="http://www.w3.org/2000/svg" font-family="ui-sans-serif, system-ui, sans-serif">
<text x="56" y="20" font-size="13" font-weight="600" fill="currentColor">dominant-land-biome — default</text>
<line x1="56.0" y1="186.0" x2="624.0" y2="186.0" stroke="currentColor" stroke-opacity="0.15" stroke-width="1" />
<text x="50" y="186.0" font-size="11" fill="currentColor" opacity="0.75" text-anchor="end">1250</text>
<line x1="56.0" y1="136.0" x2="624.0" y2="136.0" stroke="currentColor" stroke-opacity="0.15" stroke-width="1" />
<text x="50" y="136.0" font-size="11" fill="currentColor" opacity="0.75" text-anchor="end">2500</text>
<line x1="56.0" y1="86.0" x2="624.0" y2="86.0" stroke="currentColor" stroke-opacity="0.15" stroke-width="1" />
<text x="50" y="86.0" font-size="11" fill="currentColor" opacity="0.75" text-anchor="end">3750</text>
<line x1="56.0" y1="36.0" x2="624.0" y2="36.0" stroke="currentColor" stroke-opacity="0.15" stroke-width="1" />
<text x="50" y="36.0" font-size="11" fill="currentColor" opacity="0.75" text-anchor="end">5000</text>
<rect x="61.3" y="153.7" width="60.4" height="82.3" fill="#5b8dd9" rx="2" />
<text x="91.5" y="149.7" font-size="11" fill="currentColor" text-anchor="middle">2057</text>
<text x="91.5" y="252.0" font-size="11" fill="currentColor" opacity="0.85" text-anchor="end" transform="rotate(-30 91.5 252.0)">alpine</text>
<rect x="132.3" y="236.0" width="60.4" height="0.0" fill="#5b8dd9" rx="2" />
<text x="162.5" y="232.0" font-size="11" fill="currentColor" text-anchor="middle">1</text>
<text x="162.5" y="252.0" font-size="11" fill="currentColor" opacity="0.85" text-anchor="end" transform="rotate(-30 162.5 252.0)">desert</text>
<rect x="203.3" y="85.0" width="60.4" height="151.0" fill="#5b8dd9" rx="2" />
<text x="233.5" y="81.0" font-size="11" fill="currentColor" text-anchor="middle">3776</text>
<text x="233.5" y="252.0" font-size="11" fill="currentColor" opacity="0.85" text-anchor="end" transform="rotate(-30 233.5 252.0)">ice</text>
<rect x="274.3" y="234.3" width="60.4" height="1.7" fill="#5b8dd9" rx="2" />
<text x="304.5" y="230.3" font-size="11" fill="currentColor" text-anchor="middle">42</text>
<text x="304.5" y="252.0" font-size="11" fill="currentColor" opacity="0.85" text-anchor="end" transform="rotate(-30 304.5 252.0)">savanna</text>
<rect x="345.3" y="197.6" width="60.4" height="38.4" fill="#5b8dd9" rx="2" />
<text x="375.5" y="193.6" font-size="11" fill="currentColor" text-anchor="middle">960</text>
<text x="375.5" y="252.0" font-size="11" fill="currentColor" opacity="0.85" text-anchor="end" transform="rotate(-30 375.5 252.0)">taiga</text>
<rect x="416.3" y="206.7" width="60.4" height="29.3" fill="#5b8dd9" rx="2" />
<text x="446.5" y="202.7" font-size="11" fill="currentColor" text-anchor="middle">732</text>
<text x="446.5" y="252.0" font-size="11" fill="currentColor" opacity="0.85" text-anchor="end" transform="rotate(-30 446.5 252.0)">temperate-forest</text>
<rect x="487.3" y="158.3" width="60.4" height="77.7" fill="#5b8dd9" rx="2" />
<text x="517.5" y="154.3" font-size="11" fill="currentColor" text-anchor="middle">1942</text>
<text x="517.5" y="252.0" font-size="11" fill="currentColor" opacity="0.85" text-anchor="end" transform="rotate(-30 517.5 252.0)">tropical-seasonal-forest</text>
<rect x="558.3" y="216.4" width="60.4" height="19.6" fill="#5b8dd9" rx="2" />
<text x="588.5" y="212.4" font-size="11" fill="currentColor" text-anchor="middle">490</text>
<text x="588.5" y="252.0" font-size="11" fill="currentColor" opacity="0.85" text-anchor="end" transform="rotate(-30 588.5 252.0)">tundra</text>
</svg>
