<svg viewBox="0 0 640 300" width="100%" xmlns="http://www.w3.org/2000/svg" font-family="ui-sans-serif, system-ui, sans-serif">
<text x="56" y="20" font-size="13" font-weight="600" fill="currentColor">months-per-year-innermost — default</text>
<line x1="56.0" y1="186.0" x2="624.0" y2="186.0" stroke="currentColor" stroke-opacity="0.15" stroke-width="1" />
<text x="50" y="186.0" font-size="11" fill="currentColor" opacity="0.75" text-anchor="end">1250</text>
<line x1="56.0" y1="136.0" x2="624.0" y2="136.0" stroke="currentColor" stroke-opacity="0.15" stroke-width="1" />
<text x="50" y="136.0" font-size="11" fill="currentColor" opacity="0.75" text-anchor="end">2500</text>
<line x1="56.0" y1="86.0" x2="624.0" y2="86.0" stroke="currentColor" stroke-opacity="0.15" stroke-width="1" />
<text x="50" y="86.0" font-size="11" fill="currentColor" opacity="0.75" text-anchor="end">3750</text>
<line x1="56.0" y1="36.0" x2="624.0" y2="36.0" stroke="currentColor" stroke-opacity="0.15" stroke-width="1" />
<text x="50" y="36.0" font-size="11" fill="currentColor" opacity="0.75" text-anchor="end">5000</text>
<text x="84.4" y="232.0" font-size="11" fill="currentColor" text-anchor="middle">0</text>
<text x="84.4" y="252.0" font-size="11" fill="currentColor" opacity="0.85" text-anchor="end" transform="rotate(-30 84.4 252.0)">< 0</text>
<text x="141.2" y="232.0" font-size="11" fill="currentColor" text-anchor="middle">0</text>
<text x="141.2" y="252.0" font-size="11" fill="currentColor" opacity="0.85" text-anchor="end" transform="rotate(-30 141.2 252.0)">[0, 5)</text>
<rect x="173.9" y="191.8" width="48.3" height="44.2" fill="#5b8dd9" rx="2" />
<text x="198.0" y="187.8" font-size="11" fill="currentColor" text-anchor="middle">1106</text>
<text x="198.0" y="252.0" font-size="11" fill="currentColor" opacity="0.85" text-anchor="end" transform="rotate(-30 198.0 252.0)">[5, 10)</text>
<rect x="230.7" y="89.6" width="48.3" height="146.4" fill="#5b8dd9" rx="2" />
<text x="254.8" y="85.6" font-size="11" fill="currentColor" text-anchor="middle">3659</text>
<text x="254.8" y="252.0" font-size="11" fill="currentColor" opacity="0.85" text-anchor="end" transform="rotate(-30 254.8 252.0)">[10, 25)</text>
<rect x="287.5" y="135.5" width="48.3" height="100.5" fill="#5b8dd9" rx="2" />
<text x="311.6" y="131.5" font-size="11" fill="currentColor" text-anchor="middle">2513</text>
<text x="311.6" y="252.0" font-size="11" fill="currentColor" opacity="0.85" text-anchor="end" transform="rotate(-30 311.6 252.0)">[25, 50)</text>
<rect x="344.3" y="194.8" width="48.3" height="41.2" fill="#5b8dd9" rx="2" />
<text x="368.4" y="190.8" font-size="11" fill="currentColor" text-anchor="middle">1031</text>
<text x="368.4" y="252.0" font-size="11" fill="currentColor" opacity="0.85" text-anchor="end" transform="rotate(-30 368.4 252.0)">[50, 100)</text>
<rect x="401.1" y="228.1" width="48.3" height="7.9" fill="#5b8dd9" rx="2" />
<text x="425.2" y="224.1" font-size="11" fill="currentColor" text-anchor="middle">197</text>
<text x="425.2" y="252.0" font-size="11" fill="currentColor" opacity="0.85" text-anchor="end" transform="rotate(-30 425.2 252.0)">[100, 250)</text>
<rect x="457.9" y="235.8" width="48.3" height="0.2" fill="#5b8dd9" rx="2" />
<text x="482.0" y="231.8" font-size="11" fill="currentColor" text-anchor="middle">6</text>
<text x="482.0" y="252.0" font-size="11" fill="currentColor" opacity="0.85" text-anchor="end" transform="rotate(-30 482.0 252.0)">[250, 700)</text>
<text x="538.8" y="232.0" font-size="11" fill="currentColor" text-anchor="middle">0</text>
<text x="538.8" y="252.0" font-size="11" fill="currentColor" opacity="0.85" text-anchor="end" transform="rotate(-30 538.8 252.0)">>= 700</text>
<rect x="571.5" y="176.5" width="48.3" height="59.5" fill="#5b8dd9" rx="2" />
<text x="595.6" y="172.5" font-size="11" fill="currentColor" text-anchor="middle">1488</text>
<text x="595.6" y="252.0" font-size="11" fill="currentColor" opacity="0.85" text-anchor="end" transform="rotate(-30 595.6 252.0)">absent</text>
</svg>
