<svg viewBox="0 0 640 300" width="100%" xmlns="http://www.w3.org/2000/svg" font-family="ui-sans-serif, system-ui, sans-serif">
<text x="56" y="20" font-size="13" font-weight="600" fill="currentColor">name-collision-rate — default</text>
<line x1="56.0" y1="186.0" x2="624.0" y2="186.0" stroke="currentColor" stroke-opacity="0.15" stroke-width="1" />
<text x="50" y="186.0" font-size="11" fill="currentColor" opacity="0.75" text-anchor="end">2500</text>
<line x1="56.0" y1="136.0" x2="624.0" y2="136.0" stroke="currentColor" stroke-opacity="0.15" stroke-width="1" />
<text x="50" y="136.0" font-size="11" fill="currentColor" opacity="0.75" text-anchor="end">5000</text>
<line x1="56.0" y1="86.0" x2="624.0" y2="86.0" stroke="currentColor" stroke-opacity="0.15" stroke-width="1" />
<text x="50" y="86.0" font-size="11" fill="currentColor" opacity="0.75" text-anchor="end">7500</text>
<line x1="56.0" y1="36.0" x2="624.0" y2="36.0" stroke="currentColor" stroke-opacity="0.15" stroke-width="1" />
<text x="50" y="36.0" font-size="11" fill="currentColor" opacity="0.75" text-anchor="end">10000</text>
<text x="87.6" y="232.0" font-size="11" fill="currentColor" text-anchor="middle">0</text>
<text x="87.6" y="252.0" font-size="11" fill="currentColor" opacity="0.85" text-anchor="end" transform="rotate(-30 87.6 252.0)">&lt; 0</text>
<rect x="123.8" y="108.0" width="53.6" height="128.0" fill="#5b8dd9" rx="2" />
<text x="150.7" y="104.0" font-size="11" fill="currentColor" text-anchor="middle">6398</text>
<text x="150.7" y="252.0" font-size="11" fill="currentColor" opacity="0.85" text-anchor="end" transform="rotate(-30 150.7 252.0)">[0, 0.01)</text>
<rect x="187.0" y="234.2" width="53.6" height="1.8" fill="#5b8dd9" rx="2" />
<text x="213.8" y="230.2" font-size="11" fill="currentColor" text-anchor="middle">92</text>
<text x="213.8" y="252.0" font-size="11" fill="currentColor" opacity="0.85" text-anchor="end" transform="rotate(-30 213.8 252.0)">[0.01, 0.02)</text>
<rect x="250.1" y="201.5" width="53.6" height="34.5" fill="#5b8dd9" rx="2" />
<text x="276.9" y="197.5" font-size="11" fill="currentColor" text-anchor="middle">1724</text>
<text x="276.9" y="252.0" font-size="11" fill="currentColor" opacity="0.85" text-anchor="end" transform="rotate(-30 276.9 252.0)">[0.02, 0.05)</text>
<rect x="313.2" y="216.4" width="53.6" height="19.6" fill="#5b8dd9" rx="2" />
<text x="340.0" y="212.4" font-size="11" fill="currentColor" text-anchor="middle">980</text>
<text x="340.0" y="252.0" font-size="11" fill="currentColor" opacity="0.85" text-anchor="end" transform="rotate(-30 340.0 252.0)">[0.05, 0.1)</text>
<rect x="376.3" y="224.8" width="53.6" height="11.2" fill="#5b8dd9" rx="2" />
<text x="403.1" y="220.8" font-size="11" fill="currentColor" text-anchor="middle">560</text>
<text x="403.1" y="252.0" font-size="11" fill="currentColor" opacity="0.85" text-anchor="end" transform="rotate(-30 403.1 252.0)">[0.1, 0.2)</text>
<rect x="439.4" y="232.0" width="53.6" height="4.0" fill="#5b8dd9" rx="2" />
<text x="466.2" y="228.0" font-size="11" fill="currentColor" text-anchor="middle">198</text>
<text x="466.2" y="252.0" font-size="11" fill="currentColor" opacity="0.85" text-anchor="end" transform="rotate(-30 466.2 252.0)">[0.2, 0.4)</text>
<rect x="502.5" y="235.1" width="53.6" height="0.9" fill="#5b8dd9" rx="2" />
<text x="529.3" y="231.1" font-size="11" fill="currentColor" text-anchor="middle">45</text>
<text x="529.3" y="252.0" font-size="11" fill="currentColor" opacity="0.85" text-anchor="end" transform="rotate(-30 529.3 252.0)">&gt;= 0.4</text>
<rect x="565.6" y="235.9" width="53.6" height="0.1" fill="#5b8dd9" rx="2" />
<text x="592.4" y="231.9" font-size="11" fill="currentColor" text-anchor="middle">3</text>
<text x="592.4" y="252.0" font-size="11" fill="currentColor" opacity="0.85" text-anchor="end" transform="rotate(-30 592.4 252.0)">absent</text>
</svg>
