<svg viewBox="0 0 640 300" width="100%" xmlns="http://www.w3.org/2000/svg" font-family="ui-sans-serif, system-ui, sans-serif">
<text x="56" y="20" font-size="13" font-weight="600" fill="currentColor">plate-count — default</text>
<line x1="56.0" y1="186.0" x2="624.0" y2="186.0" stroke="currentColor" stroke-opacity="0.15" stroke-width="1" />
<text x="50" y="186.0" font-size="11" fill="currentColor" opacity="0.75" text-anchor="end">125</text>
<line x1="56.0" y1="136.0" x2="624.0" y2="136.0" stroke="currentColor" stroke-opacity="0.15" stroke-width="1" />
<text x="50" y="136.0" font-size="11" fill="currentColor" opacity="0.75" text-anchor="end">250</text>
<line x1="56.0" y1="86.0" x2="624.0" y2="86.0" stroke="currentColor" stroke-opacity="0.15" stroke-width="1" />
<text x="50" y="86.0" font-size="11" fill="currentColor" opacity="0.75" text-anchor="end">375</text>
<line x1="56.0" y1="36.0" x2="624.0" y2="36.0" stroke="currentColor" stroke-opacity="0.15" stroke-width="1" />
<text x="50" y="36.0" font-size="11" fill="currentColor" opacity="0.75" text-anchor="end">500</text>
<rect x="57.3" y="120.4" width="14.6" height="115.6" fill="#5b8dd9" rx="2" />
<text x="64.6" y="116.4" font-size="11" fill="currentColor" text-anchor="middle">289</text>
<text x="64.6" y="252.0" font-size="11" fill="currentColor" opacity="0.85" text-anchor="middle">10</text>
<rect x="74.5" y="119.2" width="14.6" height="116.8" fill="#5b8dd9" rx="2" />
<text x="81.8" y="115.2" font-size="11" fill="currentColor" text-anchor="middle">292</text>
<text x="81.8" y="252.0" font-size="11" fill="currentColor" opacity="0.85" text-anchor="middle">11</text>
<rect x="91.7" y="109.6" width="14.6" height="126.4" fill="#5b8dd9" rx="2" />
<text x="99.0" y="105.6" font-size="11" fill="currentColor" text-anchor="middle">316</text>
<text x="99.0" y="252.0" font-size="11" fill="currentColor" opacity="0.85" text-anchor="middle">12</text>
<rect x="108.9" y="112.8" width="14.6" height="123.2" fill="#5b8dd9" rx="2" />
<text x="116.2" y="108.8" font-size="11" fill="currentColor" text-anchor="middle">308</text>
<text x="116.2" y="252.0" font-size="11" fill="currentColor" opacity="0.85" text-anchor="middle">13</text>
<rect x="126.1" y="123.6" width="14.6" height="112.4" fill="#5b8dd9" rx="2" />
<text x="133.5" y="119.6" font-size="11" fill="currentColor" text-anchor="middle">281</text>
<text x="133.5" y="252.0" font-size="11" fill="currentColor" opacity="0.85" text-anchor="middle">14</text>
<rect x="143.4" y="110.4" width="14.6" height="125.6" fill="#5b8dd9" rx="2" />
<text x="150.7" y="106.4" font-size="11" fill="currentColor" text-anchor="middle">314</text>
<text x="150.7" y="252.0" font-size="11" fill="currentColor" opacity="0.85" text-anchor="middle">15</text>
<rect x="160.6" y="116.8" width="14.6" height="119.2" fill="#5b8dd9" rx="2" />
<text x="167.9" y="112.8" font-size="11" fill="currentColor" text-anchor="middle">298</text>
<text x="167.9" y="252.0" font-size="11" fill="currentColor" opacity="0.85" text-anchor="middle">16</text>
<rect x="177.8" y="120.4" width="14.6" height="115.6" fill="#5b8dd9" rx="2" />
<text x="185.1" y="116.4" font-size="11" fill="currentColor" text-anchor="middle">289</text>
<text x="185.1" y="252.0" font-size="11" fill="currentColor" opacity="0.85" text-anchor="middle">17</text>
<rect x="195.0" y="112.4" width="14.6" height="123.6" fill="#5b8dd9" rx="2" />
<text x="202.3" y="108.4" font-size="11" fill="currentColor" text-anchor="middle">309</text>
<text x="202.3" y="252.0" font-size="11" fill="currentColor" opacity="0.85" text-anchor="middle">18</text>
<rect x="212.2" y="120.8" width="14.6" height="115.2" fill="#5b8dd9" rx="2" />
<text x="219.5" y="116.8" font-size="11" fill="currentColor" text-anchor="middle">288</text>
<text x="219.5" y="252.0" font-size="11" fill="currentColor" opacity="0.85" text-anchor="middle">19</text>
<rect x="229.4" y="100.0" width="14.6" height="136.0" fill="#5b8dd9" rx="2" />
<text x="236.7" y="96.0" font-size="11" fill="currentColor" text-anchor="middle">340</text>
<text x="236.7" y="252.0" font-size="11" fill="currentColor" opacity="0.85" text-anchor="middle">20</text>
<rect x="246.6" y="116.0" width="14.6" height="120.0" fill="#5b8dd9" rx="2" />
<text x="253.9" y="112.0" font-size="11" fill="currentColor" text-anchor="middle">300</text>
<text x="253.9" y="252.0" font-size="11" fill="currentColor" opacity="0.85" text-anchor="middle">21</text>
<rect x="263.8" y="115.2" width="14.6" height="120.8" fill="#5b8dd9" rx="2" />
<text x="271.2" y="111.2" font-size="11" fill="currentColor" text-anchor="middle">302</text>
<text x="271.2" y="252.0" font-size="11" fill="currentColor" opacity="0.85" text-anchor="middle">22</text>
<rect x="281.0" y="108.4" width="14.6" height="127.6" fill="#5b8dd9" rx="2" />
<text x="288.4" y="104.4" font-size="11" fill="currentColor" text-anchor="middle">319</text>
<text x="288.4" y="252.0" font-size="11" fill="currentColor" opacity="0.85" text-anchor="middle">23</text>
<rect x="298.3" y="114.8" width="14.6" height="121.2" fill="#5b8dd9" rx="2" />
<text x="305.6" y="110.8" font-size="11" fill="currentColor" text-anchor="middle">303</text>
<text x="305.6" y="252.0" font-size="11" fill="currentColor" opacity="0.85" text-anchor="middle">24</text>
<rect x="315.5" y="122.4" width="14.6" height="113.6" fill="#5b8dd9" rx="2" />
<text x="322.8" y="118.4" font-size="11" fill="currentColor" text-anchor="middle">284</text>
<text x="322.8" y="252.0" font-size="11" fill="currentColor" opacity="0.85" text-anchor="middle">25</text>
<rect x="332.7" y="112.0" width="14.6" height="124.0" fill="#5b8dd9" rx="2" />
<text x="340.0" y="108.0" font-size="11" fill="currentColor" text-anchor="middle">310</text>
<text x="340.0" y="252.0" font-size="11" fill="currentColor" opacity="0.85" text-anchor="middle">26</text>
<rect x="349.9" y="101.6" width="14.6" height="134.4" fill="#5b8dd9" rx="2" />
<text x="357.2" y="97.6" font-size="11" fill="currentColor" text-anchor="middle">336</text>
<text x="357.2" y="252.0" font-size="11" fill="currentColor" opacity="0.85" text-anchor="middle">27</text>
<rect x="367.1" y="126.4" width="14.6" height="109.6" fill="#5b8dd9" rx="2" />
<text x="374.4" y="122.4" font-size="11" fill="currentColor" text-anchor="middle">274</text>
<text x="374.4" y="252.0" font-size="11" fill="currentColor" opacity="0.85" text-anchor="middle">28</text>
<rect x="384.3" y="120.8" width="14.6" height="115.2" fill="#5b8dd9" rx="2" />
<text x="391.6" y="116.8" font-size="11" fill="currentColor" text-anchor="middle">288</text>
<text x="391.6" y="252.0" font-size="11" fill="currentColor" opacity="0.85" text-anchor="middle">29</text>
<rect x="401.5" y="121.2" width="14.6" height="114.8" fill="#5b8dd9" rx="2" />
<text x="408.8" y="117.2" font-size="11" fill="currentColor" text-anchor="middle">287</text>
<text x="408.8" y="252.0" font-size="11" fill="currentColor" opacity="0.85" text-anchor="middle">30</text>
<rect x="418.7" y="106.8" width="14.6" height="129.2" fill="#5b8dd9" rx="2" />
<text x="426.1" y="102.8" font-size="11" fill="currentColor" text-anchor="middle">323</text>
<text x="426.1" y="252.0" font-size="11" fill="currentColor" opacity="0.85" text-anchor="middle">31</text>
<rect x="436.0" y="113.2" width="14.6" height="122.8" fill="#5b8dd9" rx="2" />
<text x="443.3" y="109.2" font-size="11" fill="currentColor" text-anchor="middle">307</text>
<text x="443.3" y="252.0" font-size="11" fill="currentColor" opacity="0.85" text-anchor="middle">32</text>
<rect x="453.2" y="107.2" width="14.6" height="128.8" fill="#5b8dd9" rx="2" />
<text x="460.5" y="103.2" font-size="11" fill="currentColor" text-anchor="middle">322</text>
<text x="460.5" y="252.0" font-size="11" fill="currentColor" opacity="0.85" text-anchor="middle">33</text>
<rect x="470.4" y="112.8" width="14.6" height="123.2" fill="#5b8dd9" rx="2" />
<text x="477.7" y="108.8" font-size="11" fill="currentColor" text-anchor="middle">308</text>
<text x="477.7" y="252.0" font-size="11" fill="currentColor" opacity="0.85" text-anchor="middle">34</text>
<rect x="487.6" y="108.8" width="14.6" height="127.2" fill="#5b8dd9" rx="2" />
<text x="494.9" y="104.8" font-size="11" fill="currentColor" text-anchor="middle">318</text>
<text x="494.9" y="252.0" font-size="11" fill="currentColor" opacity="0.85" text-anchor="middle">35</text>
<rect x="504.8" y="114.8" width="14.6" height="121.2" fill="#5b8dd9" rx="2" />
<text x="512.1" y="110.8" font-size="11" fill="currentColor" text-anchor="middle">303</text>
<text x="512.1" y="252.0" font-size="11" fill="currentColor" opacity="0.85" text-anchor="middle">36</text>
<rect x="522.0" y="122.0" width="14.6" height="114.0" fill="#5b8dd9" rx="2" />
<text x="529.3" y="118.0" font-size="11" fill="currentColor" text-anchor="middle">285</text>
<text x="529.3" y="252.0" font-size="11" fill="currentColor" opacity="0.85" text-anchor="middle">37</text>
<rect x="539.2" y="124.8" width="14.6" height="111.2" fill="#5b8dd9" rx="2" />
<text x="546.5" y="120.8" font-size="11" fill="currentColor" text-anchor="middle">278</text>
<text x="546.5" y="252.0" font-size="11" fill="currentColor" opacity="0.85" text-anchor="middle">38</text>
<rect x="556.4" y="108.8" width="14.6" height="127.2" fill="#5b8dd9" rx="2" />
<text x="563.8" y="104.8" font-size="11" fill="currentColor" text-anchor="middle">318</text>
<text x="563.8" y="252.0" font-size="11" fill="currentColor" opacity="0.85" text-anchor="middle">39</text>
<rect x="573.7" y="114.4" width="14.6" height="121.6" fill="#5b8dd9" rx="2" />
<text x="581.0" y="110.4" font-size="11" fill="currentColor" text-anchor="middle">304</text>
<text x="581.0" y="252.0" font-size="11" fill="currentColor" opacity="0.85" text-anchor="middle">40</text>
<rect x="590.9" y="104.4" width="14.6" height="131.6" fill="#5b8dd9" rx="2" />
<text x="598.2" y="100.4" font-size="11" fill="currentColor" text-anchor="middle">329</text>
<text x="598.2" y="252.0" font-size="11" fill="currentColor" opacity="0.85" text-anchor="middle">8</text>
<rect x="608.1" y="124.8" width="14.6" height="111.2" fill="#5b8dd9" rx="2" />
<text x="615.4" y="120.8" font-size="11" fill="currentColor" text-anchor="middle">278</text>
<text x="615.4" y="252.0" font-size="11" fill="currentColor" opacity="0.85" text-anchor="middle">9</text>
</svg>
