<svg viewBox="0 0 640 300" width="100%" xmlns="http://www.w3.org/2000/svg" font-family="ui-sans-serif, system-ui, sans-serif">
<text x="56" y="20" font-size="13" font-weight="600" fill="currentColor">kobold-flagship-roles — default</text>
<line x1="56.0" y1="186.0" x2="624.0" y2="186.0" stroke="currentColor" stroke-opacity="0.15" stroke-width="1" />
<text x="50" y="186.0" font-size="11" fill="currentColor" opacity="0.75" text-anchor="end">2500</text>
<line x1="56.0" y1="136.0" x2="624.0" y2="136.0" stroke="currentColor" stroke-opacity="0.15" stroke-width="1" />
<text x="50" y="136.0" font-size="11" fill="currentColor" opacity="0.75" text-anchor="end">5000</text>
<line x1="56.0" y1="86.0" x2="624.0" y2="86.0" stroke="currentColor" stroke-opacity="0.15" stroke-width="1" />
<text x="50" y="86.0" font-size="11" fill="currentColor" opacity="0.75" text-anchor="end">7500</text>
<line x1="56.0" y1="36.0" x2="624.0" y2="36.0" stroke="currentColor" stroke-opacity="0.15" stroke-width="1" />
<text x="50" y="36.0" font-size="11" fill="currentColor" opacity="0.75" text-anchor="end">10000</text>
<rect x="62.1" y="207.4" width="69.0" height="28.6" fill="#5b8dd9" rx="2" />
<text x="96.6" y="203.4" font-size="11" fill="currentColor" text-anchor="middle">1428</text>
<text x="96.6" y="252.0" font-size="11" fill="currentColor" opacity="0.85" text-anchor="end" transform="rotate(-30 96.6 252.0)">digger,elders</text>
<rect x="143.2" y="234.1" width="69.0" height="1.9" fill="#5b8dd9" rx="2" />
<text x="177.7" y="230.1" font-size="11" fill="currentColor" text-anchor="middle">93</text>
<text x="177.7" y="252.0" font-size="11" fill="currentColor" opacity="0.85" text-anchor="end" transform="rotate(-30 177.7 252.0)">digger,keeper,elders</text>
<rect x="224.4" y="77.7" width="69.0" height="158.3" fill="#5b8dd9" rx="2" />
<text x="258.9" y="73.7" font-size="11" fill="currentColor" text-anchor="middle">7913</text>
<text x="258.9" y="252.0" font-size="11" fill="currentColor" opacity="0.85" text-anchor="end" transform="rotate(-30 258.9 252.0)">digger,shaper,keeper,elders</text>
<rect x="305.5" y="234.8" width="69.0" height="1.2" fill="#5b8dd9" rx="2" />
<text x="340.0" y="230.8" font-size="11" fill="currentColor" text-anchor="middle">60</text>
<text x="340.0" y="252.0" font-size="11" fill="currentColor" opacity="0.85" text-anchor="end" transform="rotate(-30 340.0 252.0)">digger,warden,elders</text>
<rect x="386.7" y="236.0" width="69.0" height="0.0" fill="#5b8dd9" rx="2" />
<text x="421.1" y="232.0" font-size="11" fill="currentColor" text-anchor="middle">1</text>
<text x="421.1" y="252.0" font-size="11" fill="currentColor" opacity="0.85" text-anchor="end" transform="rotate(-30 421.1 252.0)">digger,warden,keeper,elders</text>
<rect x="467.8" y="226.0" width="69.0" height="10.0" fill="#5b8dd9" rx="2" />
<text x="502.3" y="222.0" font-size="11" fill="currentColor" text-anchor="middle">501</text>
<text x="502.3" y="252.0" font-size="11" fill="currentColor" opacity="0.85" text-anchor="end" transform="rotate(-30 502.3 252.0)">digger,warden,shaper,keeper,elders</text>
<rect x="548.9" y="235.9" width="69.0" height="0.1" fill="#5b8dd9" rx="2" />
<text x="583.4" y="231.9" font-size="11" fill="currentColor" text-anchor="middle">4</text>
<text x="583.4" y="252.0" font-size="11" fill="currentColor" opacity="0.85" text-anchor="end" transform="rotate(-30 583.4 252.0)">absent</text>
</svg>
