<svg viewBox="0 0 640 300" width="100%" xmlns="http://www.w3.org/2000/svg" font-family="ui-sans-serif, system-ui, sans-serif">
<text x="56" y="20" font-size="13" font-weight="600" fill="currentColor">year-std-days — default</text>
<line x1="56.0" y1="186.0" x2="624.0" y2="186.0" stroke="currentColor" stroke-opacity="0.15" stroke-width="1" />
<text x="50" y="186.0" font-size="11" fill="currentColor" opacity="0.75" text-anchor="end">1250</text>
<line x1="56.0" y1="136.0" x2="624.0" y2="136.0" stroke="currentColor" stroke-opacity="0.15" stroke-width="1" />
<text x="50" y="136.0" font-size="11" fill="currentColor" opacity="0.75" text-anchor="end">2500</text>
<line x1="56.0" y1="86.0" x2="624.0" y2="86.0" stroke="currentColor" stroke-opacity="0.15" stroke-width="1" />
<text x="50" y="86.0" font-size="11" fill="currentColor" opacity="0.75" text-anchor="end">3750</text>
<line x1="56.0" y1="36.0" x2="624.0" y2="36.0" stroke="currentColor" stroke-opacity="0.15" stroke-width="1" />
<text x="50" y="36.0" font-size="11" fill="currentColor" opacity="0.75" text-anchor="end">5000</text>
<text x="87.6" y="232.0" font-size="11" fill="currentColor" text-anchor="middle">0</text>
<text x="87.6" y="252.0" font-size="11" fill="currentColor" opacity="0.85" text-anchor="end" transform="rotate(-30 87.6 252.0)">< 0</text>
<rect x="123.8" y="195.4" width="53.6" height="40.6" fill="#5b8dd9" rx="2" />
<text x="150.7" y="191.4" font-size="11" fill="currentColor" text-anchor="middle">1016</text>
<text x="150.7" y="252.0" font-size="11" fill="currentColor" opacity="0.85" text-anchor="end" transform="rotate(-30 150.7 252.0)">[0, 200)</text>
<rect x="187.0" y="101.4" width="53.6" height="134.6" fill="#5b8dd9" rx="2" />
<text x="213.8" y="97.4" font-size="11" fill="currentColor" text-anchor="middle">3365</text>
<text x="213.8" y="252.0" font-size="11" fill="currentColor" opacity="0.85" text-anchor="end" transform="rotate(-30 213.8 252.0)">[200, 400)</text>
<rect x="250.1" y="137.1" width="53.6" height="98.9" fill="#5b8dd9" rx="2" />
<text x="276.9" y="133.1" font-size="11" fill="currentColor" text-anchor="middle">2472</text>
<text x="276.9" y="252.0" font-size="11" fill="currentColor" opacity="0.85" text-anchor="end" transform="rotate(-30 276.9 252.0)">[400, 600)</text>
<rect x="313.2" y="159.4" width="53.6" height="76.6" fill="#5b8dd9" rx="2" />
<text x="340.0" y="155.4" font-size="11" fill="currentColor" text-anchor="middle">1915</text>
<text x="340.0" y="252.0" font-size="11" fill="currentColor" opacity="0.85" text-anchor="end" transform="rotate(-30 340.0 252.0)">[600, 800)</text>
<rect x="376.3" y="197.6" width="53.6" height="38.4" fill="#5b8dd9" rx="2" />
<text x="403.1" y="193.6" font-size="11" fill="currentColor" text-anchor="middle">961</text>
<text x="403.1" y="252.0" font-size="11" fill="currentColor" opacity="0.85" text-anchor="end" transform="rotate(-30 403.1 252.0)">[800, 1000)</text>
<rect x="439.4" y="225.2" width="53.6" height="10.8" fill="#5b8dd9" rx="2" />
<text x="466.2" y="221.2" font-size="11" fill="currentColor" text-anchor="middle">271</text>
<text x="466.2" y="252.0" font-size="11" fill="currentColor" opacity="0.85" text-anchor="end" transform="rotate(-30 466.2 252.0)">[1000, 1200)</text>
<text x="529.3" y="232.0" font-size="11" fill="currentColor" text-anchor="middle">0</text>
<text x="529.3" y="252.0" font-size="11" fill="currentColor" opacity="0.85" text-anchor="end" transform="rotate(-30 529.3 252.0)">[1200, 1400)</text>
<text x="592.4" y="232.0" font-size="11" fill="currentColor" text-anchor="middle">0</text>
<text x="592.4" y="252.0" font-size="11" fill="currentColor" opacity="0.85" text-anchor="end" transform="rotate(-30 592.4 252.0)">>= 1400</text>
</svg>
