<svg viewBox="0 0 640 300" width="100%" xmlns="http://www.w3.org/2000/svg" font-family="ui-sans-serif, system-ui, sans-serif">
<text x="56" y="20" font-size="13" font-weight="600" fill="currentColor">goblin-flagship-roles — default</text>
<line x1="56.0" y1="186.0" x2="624.0" y2="186.0" stroke="currentColor" stroke-opacity="0.15" stroke-width="1" />
<text x="50" y="186.0" font-size="11" fill="currentColor" opacity="0.75" text-anchor="end">2500</text>
<line x1="56.0" y1="136.0" x2="624.0" y2="136.0" stroke="currentColor" stroke-opacity="0.15" stroke-width="1" />
<text x="50" y="136.0" font-size="11" fill="currentColor" opacity="0.75" text-anchor="end">5000</text>
<line x1="56.0" y1="86.0" x2="624.0" y2="86.0" stroke="currentColor" stroke-opacity="0.15" stroke-width="1" />
<text x="50" y="86.0" font-size="11" fill="currentColor" opacity="0.75" text-anchor="end">7500</text>
<line x1="56.0" y1="36.0" x2="624.0" y2="36.0" stroke="currentColor" stroke-opacity="0.15" stroke-width="1" />
<text x="50" y="36.0" font-size="11" fill="currentColor" opacity="0.75" text-anchor="end">10000</text>
<rect x="61.3" y="226.0" width="60.4" height="10.0" fill="#5b8dd9" rx="2" />
<text x="91.5" y="222.0" font-size="11" fill="currentColor" text-anchor="middle">498</text>
<text x="91.5" y="252.0" font-size="11" fill="currentColor" opacity="0.85" text-anchor="end" transform="rotate(-30 91.5 252.0)">farmer,artisan,shaman,chief</text>
<rect x="132.3" y="229.4" width="60.4" height="6.6" fill="#5b8dd9" rx="2" />
<text x="162.5" y="225.4" font-size="11" fill="currentColor" text-anchor="middle">328</text>
<text x="162.5" y="252.0" font-size="11" fill="currentColor" opacity="0.85" text-anchor="end" transform="rotate(-30 162.5 252.0)">farmer,chief</text>
<rect x="203.3" y="218.4" width="60.4" height="17.6" fill="#5b8dd9" rx="2" />
<text x="233.5" y="214.4" font-size="11" fill="currentColor" text-anchor="middle">880</text>
<text x="233.5" y="252.0" font-size="11" fill="currentColor" opacity="0.85" text-anchor="end" transform="rotate(-30 233.5 252.0)">farmer,shaman,chief</text>
<rect x="274.3" y="236.0" width="60.4" height="0.0" fill="#5b8dd9" rx="2" />
<text x="304.5" y="232.0" font-size="11" fill="currentColor" text-anchor="middle">1</text>
<text x="304.5" y="252.0" font-size="11" fill="currentColor" opacity="0.85" text-anchor="end" transform="rotate(-30 304.5 252.0)">farmer,warrior,chief</text>
<rect x="345.3" y="207.8" width="60.4" height="28.2" fill="#5b8dd9" rx="2" />
<text x="375.5" y="203.8" font-size="11" fill="currentColor" text-anchor="middle">1412</text>
<text x="375.5" y="252.0" font-size="11" fill="currentColor" opacity="0.85" text-anchor="end" transform="rotate(-30 375.5 252.0)">fisher,chief</text>
<rect x="416.3" y="236.0" width="60.4" height="0.0" fill="#5b8dd9" rx="2" />
<text x="446.5" y="232.0" font-size="11" fill="currentColor" text-anchor="middle">2</text>
<text x="446.5" y="252.0" font-size="11" fill="currentColor" opacity="0.85" text-anchor="end" transform="rotate(-30 446.5 252.0)">fisher,warrior,chief</text>
<rect x="487.3" y="99.0" width="60.4" height="137.0" fill="#5b8dd9" rx="2" />
<text x="517.5" y="95.0" font-size="11" fill="currentColor" text-anchor="middle">6851</text>
<text x="517.5" y="252.0" font-size="11" fill="currentColor" opacity="0.85" text-anchor="end" transform="rotate(-30 517.5 252.0)">slave,farmer,artisan,shaman,chief</text>
<rect x="558.3" y="235.4" width="60.4" height="0.6" fill="#5b8dd9" rx="2" />
<text x="588.5" y="231.4" font-size="11" fill="currentColor" text-anchor="middle">28</text>
<text x="588.5" y="252.0" font-size="11" fill="currentColor" opacity="0.85" text-anchor="end" transform="rotate(-30 588.5 252.0)">absent</text>
</svg>
