<svg viewBox="0 0 640 300" width="100%" xmlns="http://www.w3.org/2000/svg" font-family="ui-sans-serif, system-ui, sans-serif">
<text x="56" y="20" font-size="13" font-weight="600" fill="currentColor">pantheon-size-goblin — default</text>
<line x1="56.0" y1="186.0" x2="624.0" y2="186.0" stroke="currentColor" stroke-opacity="0.15" stroke-width="1" />
<text x="50" y="186.0" font-size="11" fill="currentColor" opacity="0.75" text-anchor="end">250</text>
<line x1="56.0" y1="136.0" x2="624.0" y2="136.0" stroke="currentColor" stroke-opacity="0.15" stroke-width="1" />
<text x="50" y="136.0" font-size="11" fill="currentColor" opacity="0.75" text-anchor="end">500</text>
<line x1="56.0" y1="86.0" x2="624.0" y2="86.0" stroke="currentColor" stroke-opacity="0.15" stroke-width="1" />
<text x="50" y="86.0" font-size="11" fill="currentColor" opacity="0.75" text-anchor="end">750</text>
<line x1="56.0" y1="36.0" x2="624.0" y2="36.0" stroke="currentColor" stroke-opacity="0.15" stroke-width="1" />
<text x="50" y="36.0" font-size="11" fill="currentColor" opacity="0.75" text-anchor="end">1000</text>
<text x="87.6" y="232.0" font-size="11" fill="currentColor" text-anchor="middle">0</text>
<text x="87.6" y="252.0" font-size="11" fill="currentColor" opacity="0.85" text-anchor="middle">&lt; 0</text>
<text x="150.7" y="232.0" font-size="11" fill="currentColor" text-anchor="middle">0</text>
<text x="150.7" y="252.0" font-size="11" fill="currentColor" opacity="0.85" text-anchor="middle">[0, 1)</text>
<rect x="187.0" y="227.2" width="53.6" height="8.8" fill="#5b8dd9" rx="2" />
<text x="213.8" y="223.2" font-size="11" fill="currentColor" text-anchor="middle">44</text>
<text x="213.8" y="252.0" font-size="11" fill="currentColor" opacity="0.85" text-anchor="middle">[1, 2)</text>
<rect x="250.1" y="223.6" width="53.6" height="12.4" fill="#5b8dd9" rx="2" />
<text x="276.9" y="219.6" font-size="11" fill="currentColor" text-anchor="middle">62</text>
<text x="276.9" y="252.0" font-size="11" fill="currentColor" opacity="0.85" text-anchor="middle">[2, 3)</text>
<rect x="313.2" y="226.4" width="53.6" height="9.6" fill="#5b8dd9" rx="2" />
<text x="340.0" y="222.4" font-size="11" fill="currentColor" text-anchor="middle">48</text>
<text x="340.0" y="252.0" font-size="11" fill="currentColor" opacity="0.85" text-anchor="middle">[3, 4)</text>
<rect x="376.3" y="233.0" width="53.6" height="3.0" fill="#5b8dd9" rx="2" />
<text x="403.1" y="229.0" font-size="11" fill="currentColor" text-anchor="middle">15</text>
<text x="403.1" y="252.0" font-size="11" fill="currentColor" opacity="0.85" text-anchor="middle">[4, 5)</text>
<rect x="439.4" y="213.0" width="53.6" height="23.0" fill="#5b8dd9" rx="2" />
<text x="466.2" y="209.0" font-size="11" fill="currentColor" text-anchor="middle">115</text>
<text x="466.2" y="252.0" font-size="11" fill="currentColor" opacity="0.85" text-anchor="middle">[5, 6)</text>
<rect x="502.5" y="94.6" width="53.6" height="141.4" fill="#5b8dd9" rx="2" />
<text x="529.3" y="90.6" font-size="11" fill="currentColor" text-anchor="middle">707</text>
<text x="529.3" y="252.0" font-size="11" fill="currentColor" opacity="0.85" text-anchor="middle">&gt;= 6</text>
<rect x="565.6" y="234.2" width="53.6" height="1.8" fill="#5b8dd9" rx="2" />
<text x="592.4" y="230.2" font-size="11" fill="currentColor" text-anchor="middle">9</text>
<text x="592.4" y="252.0" font-size="11" fill="currentColor" opacity="0.85" text-anchor="middle">absent</text>
</svg>
