<svg viewBox="0 0 640 300" width="100%" xmlns="http://www.w3.org/2000/svg" font-family="ui-sans-serif, system-ui, sans-serif">
<text x="56" y="20" font-size="13" font-weight="600" fill="currentColor">cult-form — default</text>
<line x1="56.0" y1="186.0" x2="624.0" y2="186.0" stroke="currentColor" stroke-opacity="0.15" stroke-width="1" />
<text x="50" y="186.0" font-size="11" fill="currentColor" opacity="0.75" text-anchor="end">250</text>
<line x1="56.0" y1="136.0" x2="624.0" y2="136.0" stroke="currentColor" stroke-opacity="0.15" stroke-width="1" />
<text x="50" y="136.0" font-size="11" fill="currentColor" opacity="0.75" text-anchor="end">500</text>
<line x1="56.0" y1="86.0" x2="624.0" y2="86.0" stroke="currentColor" stroke-opacity="0.15" stroke-width="1" />
<text x="50" y="86.0" font-size="11" fill="currentColor" opacity="0.75" text-anchor="end">750</text>
<line x1="56.0" y1="36.0" x2="624.0" y2="36.0" stroke="currentColor" stroke-opacity="0.15" stroke-width="1" />
<text x="50" y="36.0" font-size="11" fill="currentColor" opacity="0.75" text-anchor="end">1000</text>
<rect x="70.2" y="221.8" width="160.9" height="14.2" fill="#5b8dd9" rx="2" />
<text x="150.7" y="217.8" font-size="11" fill="currentColor" text-anchor="middle">71</text>
<text x="150.7" y="252.0" font-size="11" fill="currentColor" opacity="0.85" text-anchor="end" transform="rotate(-30 150.7 252.0)">folk</text>
<rect x="259.5" y="52.0" width="160.9" height="184.0" fill="#5b8dd9" rx="2" />
<text x="340.0" y="48.0" font-size="11" fill="currentColor" text-anchor="middle">920</text>
<text x="340.0" y="252.0" font-size="11" fill="currentColor" opacity="0.85" text-anchor="end" transform="rotate(-30 340.0 252.0)">organized</text>
<rect x="448.9" y="234.2" width="160.9" height="1.8" fill="#5b8dd9" rx="2" />
<text x="529.3" y="230.2" font-size="11" fill="currentColor" text-anchor="middle">9</text>
<text x="529.3" y="252.0" font-size="11" fill="currentColor" opacity="0.85" text-anchor="end" transform="rotate(-30 529.3 252.0)">absent</text>
</svg>
