<svg viewBox="0 0 640 300" width="100%" xmlns="http://www.w3.org/2000/svg" font-family="ui-sans-serif, system-ui, sans-serif">
<text x="56" y="20" font-size="13" font-weight="600" fill="currentColor">lunar-eclipses-per-century — default</text>
<line x1="56.0" y1="186.0" x2="624.0" y2="186.0" stroke="currentColor" stroke-opacity="0.15" stroke-width="1" />
<text x="50" y="186.0" font-size="11" fill="currentColor" opacity="0.75" text-anchor="end">62.5</text>
<line x1="56.0" y1="136.0" x2="624.0" y2="136.0" stroke="currentColor" stroke-opacity="0.15" stroke-width="1" />
<text x="50" y="136.0" font-size="11" fill="currentColor" opacity="0.75" text-anchor="end">125</text>
<line x1="56.0" y1="86.0" x2="624.0" y2="86.0" stroke="currentColor" stroke-opacity="0.15" stroke-width="1" />
<text x="50" y="86.0" font-size="11" fill="currentColor" opacity="0.75" text-anchor="end">187.5</text>
<line x1="56.0" y1="36.0" x2="624.0" y2="36.0" stroke="currentColor" stroke-opacity="0.15" stroke-width="1" />
<text x="50" y="36.0" font-size="11" fill="currentColor" opacity="0.75" text-anchor="end">250</text>
<text x="91.5" y="232.0" font-size="11" fill="currentColor" text-anchor="middle">0</text>
<text x="91.5" y="252.0" font-size="11" fill="currentColor" opacity="0.85" text-anchor="end" transform="rotate(-30 91.5 252.0)">&lt; 0</text>
<rect x="132.3" y="66.4" width="60.4" height="169.6" fill="#5b8dd9" rx="2" />
<text x="162.5" y="62.4" font-size="11" fill="currentColor" text-anchor="middle">212</text>
<text x="162.5" y="252.0" font-size="11" fill="currentColor" opacity="0.85" text-anchor="end" transform="rotate(-30 162.5 252.0)">[0, 50)</text>
<rect x="203.3" y="180.0" width="60.4" height="56.0" fill="#5b8dd9" rx="2" />
<text x="233.5" y="176.0" font-size="11" fill="currentColor" text-anchor="middle">70</text>
<text x="233.5" y="252.0" font-size="11" fill="currentColor" opacity="0.85" text-anchor="end" transform="rotate(-30 233.5 252.0)">[50, 100)</text>
<rect x="274.3" y="124.0" width="60.4" height="112.0" fill="#5b8dd9" rx="2" />
<text x="304.5" y="120.0" font-size="11" fill="currentColor" text-anchor="middle">140</text>
<text x="304.5" y="252.0" font-size="11" fill="currentColor" opacity="0.85" text-anchor="end" transform="rotate(-30 304.5 252.0)">[100, 200)</text>
<rect x="345.3" y="93.6" width="60.4" height="142.4" fill="#5b8dd9" rx="2" />
<text x="375.5" y="89.6" font-size="11" fill="currentColor" text-anchor="middle">178</text>
<text x="375.5" y="252.0" font-size="11" fill="currentColor" opacity="0.85" text-anchor="end" transform="rotate(-30 375.5 252.0)">[200, 400)</text>
<rect x="416.3" y="102.4" width="60.4" height="133.6" fill="#5b8dd9" rx="2" />
<text x="446.5" y="98.4" font-size="11" fill="currentColor" text-anchor="middle">167</text>
<text x="446.5" y="252.0" font-size="11" fill="currentColor" opacity="0.85" text-anchor="end" transform="rotate(-30 446.5 252.0)">[400, 800)</text>
<rect x="487.3" y="148.8" width="60.4" height="87.2" fill="#5b8dd9" rx="2" />
<text x="517.5" y="144.8" font-size="11" fill="currentColor" text-anchor="middle">109</text>
<text x="517.5" y="252.0" font-size="11" fill="currentColor" opacity="0.85" text-anchor="end" transform="rotate(-30 517.5 252.0)">[800, 1600)</text>
<rect x="558.3" y="136.8" width="60.4" height="99.2" fill="#5b8dd9" rx="2" />
<text x="588.5" y="132.8" font-size="11" fill="currentColor" text-anchor="middle">124</text>
<text x="588.5" y="252.0" font-size="11" fill="currentColor" opacity="0.85" text-anchor="end" transform="rotate(-30 588.5 252.0)">&gt;= 1600</text>
</svg>
