<svg viewBox="0 0 640 300" width="100%" xmlns="http://www.w3.org/2000/svg" font-family="ui-sans-serif, system-ui, sans-serif">
<text x="56" y="20" font-size="13" font-weight="600" fill="currentColor">flagship-biome — default</text>
<line x1="56.0" y1="186.0" x2="624.0" y2="186.0" stroke="currentColor" stroke-opacity="0.15" stroke-width="1" />
<text x="50" y="186.0" font-size="11" fill="currentColor" opacity="0.75" text-anchor="end">250</text>
<line x1="56.0" y1="136.0" x2="624.0" y2="136.0" stroke="currentColor" stroke-opacity="0.15" stroke-width="1" />
<text x="50" y="136.0" font-size="11" fill="currentColor" opacity="0.75" text-anchor="end">500</text>
<line x1="56.0" y1="86.0" x2="624.0" y2="86.0" stroke="currentColor" stroke-opacity="0.15" stroke-width="1" />
<text x="50" y="86.0" font-size="11" fill="currentColor" opacity="0.75" text-anchor="end">750</text>
<line x1="56.0" y1="36.0" x2="624.0" y2="36.0" stroke="currentColor" stroke-opacity="0.15" stroke-width="1" />
<text x="50" y="36.0" font-size="11" fill="currentColor" opacity="0.75" text-anchor="end">1000</text>
<rect x="60.3" y="234.4" width="48.3" height="1.6" fill="#5b8dd9" rx="2" />
<text x="84.4" y="230.4" font-size="11" fill="currentColor" text-anchor="middle">8</text>
<text x="84.4" y="252.0" font-size="11" fill="currentColor" opacity="0.85" text-anchor="end" transform="rotate(-30 84.4 252.0)">alpine</text>
<rect x="117.1" y="234.0" width="48.3" height="2.0" fill="#5b8dd9" rx="2" />
<text x="141.2" y="230.0" font-size="11" fill="currentColor" text-anchor="middle">10</text>
<text x="141.2" y="252.0" font-size="11" fill="currentColor" opacity="0.85" text-anchor="end" transform="rotate(-30 141.2 252.0)">savanna</text>
<rect x="173.9" y="234.4" width="48.3" height="1.6" fill="#5b8dd9" rx="2" />
<text x="198.0" y="230.4" font-size="11" fill="currentColor" text-anchor="middle">8</text>
<text x="198.0" y="252.0" font-size="11" fill="currentColor" opacity="0.85" text-anchor="end" transform="rotate(-30 198.0 252.0)">shrubland</text>
<rect x="230.7" y="202.2" width="48.3" height="33.8" fill="#5b8dd9" rx="2" />
<text x="254.8" y="198.2" font-size="11" fill="currentColor" text-anchor="middle">169</text>
<text x="254.8" y="252.0" font-size="11" fill="currentColor" opacity="0.85" text-anchor="end" transform="rotate(-30 254.8 252.0)">taiga</text>
<rect x="287.5" y="135.8" width="48.3" height="100.2" fill="#5b8dd9" rx="2" />
<text x="311.6" y="131.8" font-size="11" fill="currentColor" text-anchor="middle">501</text>
<text x="311.6" y="252.0" font-size="11" fill="currentColor" opacity="0.85" text-anchor="end" transform="rotate(-30 311.6 252.0)">temperate-forest</text>
<rect x="344.3" y="231.8" width="48.3" height="4.2" fill="#5b8dd9" rx="2" />
<text x="368.4" y="227.8" font-size="11" fill="currentColor" text-anchor="middle">21</text>
<text x="368.4" y="252.0" font-size="11" fill="currentColor" opacity="0.85" text-anchor="end" transform="rotate(-30 368.4 252.0)">temperate-rainforest</text>
<rect x="401.1" y="235.8" width="48.3" height="0.2" fill="#5b8dd9" rx="2" />
<text x="425.2" y="231.8" font-size="11" fill="currentColor" text-anchor="middle">1</text>
<text x="425.2" y="252.0" font-size="11" fill="currentColor" opacity="0.85" text-anchor="end" transform="rotate(-30 425.2 252.0)">tropical-rainforest</text>
<rect x="457.9" y="180.2" width="48.3" height="55.8" fill="#5b8dd9" rx="2" />
<text x="482.0" y="176.2" font-size="11" fill="currentColor" text-anchor="middle">279</text>
<text x="482.0" y="252.0" font-size="11" fill="currentColor" opacity="0.85" text-anchor="end" transform="rotate(-30 482.0 252.0)">tropical-seasonal-forest</text>
<rect x="514.7" y="235.6" width="48.3" height="0.4" fill="#5b8dd9" rx="2" />
<text x="538.8" y="231.6" font-size="11" fill="currentColor" text-anchor="middle">2</text>
<text x="538.8" y="252.0" font-size="11" fill="currentColor" opacity="0.85" text-anchor="end" transform="rotate(-30 538.8 252.0)">tundra</text>
<rect x="571.5" y="235.8" width="48.3" height="0.2" fill="#5b8dd9" rx="2" />
<text x="595.6" y="231.8" font-size="11" fill="currentColor" text-anchor="middle">1</text>
<text x="595.6" y="252.0" font-size="11" fill="currentColor" opacity="0.85" text-anchor="end" transform="rotate(-30 595.6 252.0)">absent</text>
</svg>
