<svg viewBox="0 0 640 300" width="100%" xmlns="http://www.w3.org/2000/svg" font-family="ui-sans-serif, system-ui, sans-serif">
<text x="56" y="20" font-size="13" font-weight="600" fill="currentColor">name-collision-rate — default</text>
<line x1="56.0" y1="186.0" x2="624.0" y2="186.0" stroke="currentColor" stroke-opacity="0.15" stroke-width="1" />
<text x="50" y="186.0" font-size="11" fill="currentColor" opacity="0.75" text-anchor="end">125</text>
<line x1="56.0" y1="136.0" x2="624.0" y2="136.0" stroke="currentColor" stroke-opacity="0.15" stroke-width="1" />
<text x="50" y="136.0" font-size="11" fill="currentColor" opacity="0.75" text-anchor="end">250</text>
<line x1="56.0" y1="86.0" x2="624.0" y2="86.0" stroke="currentColor" stroke-opacity="0.15" stroke-width="1" />
<text x="50" y="86.0" font-size="11" fill="currentColor" opacity="0.75" text-anchor="end">375</text>
<line x1="56.0" y1="36.0" x2="624.0" y2="36.0" stroke="currentColor" stroke-opacity="0.15" stroke-width="1" />
<text x="50" y="36.0" font-size="11" fill="currentColor" opacity="0.75" text-anchor="end">500</text>
<text x="87.6" y="232.0" font-size="11" fill="currentColor" text-anchor="middle">0</text>
<text x="87.6" y="252.0" font-size="11" fill="currentColor" opacity="0.85" text-anchor="end" transform="rotate(-30 87.6 252.0)">&lt; 0</text>
<rect x="123.8" y="216.0" width="53.6" height="20.0" fill="#5b8dd9" rx="2" />
<text x="150.7" y="212.0" font-size="11" fill="currentColor" text-anchor="middle">50</text>
<text x="150.7" y="252.0" font-size="11" fill="currentColor" opacity="0.85" text-anchor="end" transform="rotate(-30 150.7 252.0)">[0, 0.01)</text>
<rect x="187.0" y="234.0" width="53.6" height="2.0" fill="#5b8dd9" rx="2" />
<text x="213.8" y="230.0" font-size="11" fill="currentColor" text-anchor="middle">5</text>
<text x="213.8" y="252.0" font-size="11" fill="currentColor" opacity="0.85" text-anchor="end" transform="rotate(-30 213.8 252.0)">[0.01, 0.02)</text>
<rect x="250.1" y="222.0" width="53.6" height="14.0" fill="#5b8dd9" rx="2" />
<text x="276.9" y="218.0" font-size="11" fill="currentColor" text-anchor="middle">35</text>
<text x="276.9" y="252.0" font-size="11" fill="currentColor" opacity="0.85" text-anchor="end" transform="rotate(-30 276.9 252.0)">[0.02, 0.05)</text>
<rect x="313.2" y="182.8" width="53.6" height="53.2" fill="#5b8dd9" rx="2" />
<text x="340.0" y="178.8" font-size="11" fill="currentColor" text-anchor="middle">133</text>
<text x="340.0" y="252.0" font-size="11" fill="currentColor" opacity="0.85" text-anchor="end" transform="rotate(-30 340.0 252.0)">[0.05, 0.1)</text>
<rect x="376.3" y="139.6" width="53.6" height="96.4" fill="#5b8dd9" rx="2" />
<text x="403.1" y="135.6" font-size="11" fill="currentColor" text-anchor="middle">241</text>
<text x="403.1" y="252.0" font-size="11" fill="currentColor" opacity="0.85" text-anchor="end" transform="rotate(-30 403.1 252.0)">[0.1, 0.2)</text>
<rect x="439.4" y="126.0" width="53.6" height="110.0" fill="#5b8dd9" rx="2" />
<text x="466.2" y="122.0" font-size="11" fill="currentColor" text-anchor="middle">275</text>
<text x="466.2" y="252.0" font-size="11" fill="currentColor" opacity="0.85" text-anchor="end" transform="rotate(-30 466.2 252.0)">[0.2, 0.4)</text>
<rect x="502.5" y="222.4" width="53.6" height="13.6" fill="#5b8dd9" rx="2" />
<text x="529.3" y="218.4" font-size="11" fill="currentColor" text-anchor="middle">34</text>
<text x="529.3" y="252.0" font-size="11" fill="currentColor" opacity="0.85" text-anchor="end" transform="rotate(-30 529.3 252.0)">&gt;= 0.4</text>
<rect x="565.6" y="145.2" width="53.6" height="90.8" fill="#5b8dd9" rx="2" />
<text x="592.4" y="141.2" font-size="11" fill="currentColor" text-anchor="middle">227</text>
<text x="592.4" y="252.0" font-size="11" fill="currentColor" opacity="0.85" text-anchor="end" transform="rotate(-30 592.4 252.0)">absent</text>
</svg>
