<svg viewBox="0 0 640 300" width="100%" xmlns="http://www.w3.org/2000/svg" font-family="ui-sans-serif, system-ui, sans-serif">
<text x="56" y="20" font-size="13" font-weight="600" fill="currentColor">mean-land-temperature-c — default</text>
<line x1="56.0" y1="186.0" x2="624.0" y2="186.0" stroke="currentColor" stroke-opacity="0.15" stroke-width="1" />
<text x="50" y="186.0" font-size="11" fill="currentColor" opacity="0.75" text-anchor="end">62.5</text>
<line x1="56.0" y1="136.0" x2="624.0" y2="136.0" stroke="currentColor" stroke-opacity="0.15" stroke-width="1" />
<text x="50" y="136.0" font-size="11" fill="currentColor" opacity="0.75" text-anchor="end">125</text>
<line x1="56.0" y1="86.0" x2="624.0" y2="86.0" stroke="currentColor" stroke-opacity="0.15" stroke-width="1" />
<text x="50" y="86.0" font-size="11" fill="currentColor" opacity="0.75" text-anchor="end">187.5</text>
<line x1="56.0" y1="36.0" x2="624.0" y2="36.0" stroke="currentColor" stroke-opacity="0.15" stroke-width="1" />
<text x="50" y="36.0" font-size="11" fill="currentColor" opacity="0.75" text-anchor="end">250</text>
<rect x="61.3" y="188.0" width="60.4" height="48.0" fill="#5b8dd9" rx="2" />
<text x="91.5" y="184.0" font-size="11" fill="currentColor" text-anchor="middle">60</text>
<text x="91.5" y="252.0" font-size="11" fill="currentColor" opacity="0.85" text-anchor="end" transform="rotate(-30 91.5 252.0)">&lt; -30</text>
<rect x="132.3" y="40.0" width="60.4" height="196.0" fill="#5b8dd9" rx="2" />
<text x="162.5" y="36.0" font-size="11" fill="currentColor" text-anchor="middle">245</text>
<text x="162.5" y="252.0" font-size="11" fill="currentColor" opacity="0.85" text-anchor="end" transform="rotate(-30 162.5 252.0)">[-30, -20)</text>
<rect x="203.3" y="56.8" width="60.4" height="179.2" fill="#5b8dd9" rx="2" />
<text x="233.5" y="52.8" font-size="11" fill="currentColor" text-anchor="middle">224</text>
<text x="233.5" y="252.0" font-size="11" fill="currentColor" opacity="0.85" text-anchor="end" transform="rotate(-30 233.5 252.0)">[-20, -10)</text>
<rect x="274.3" y="88.8" width="60.4" height="147.2" fill="#5b8dd9" rx="2" />
<text x="304.5" y="84.8" font-size="11" fill="currentColor" text-anchor="middle">184</text>
<text x="304.5" y="252.0" font-size="11" fill="currentColor" opacity="0.85" text-anchor="end" transform="rotate(-30 304.5 252.0)">[-10, 0)</text>
<rect x="345.3" y="100.8" width="60.4" height="135.2" fill="#5b8dd9" rx="2" />
<text x="375.5" y="96.8" font-size="11" fill="currentColor" text-anchor="middle">169</text>
<text x="375.5" y="252.0" font-size="11" fill="currentColor" opacity="0.85" text-anchor="end" transform="rotate(-30 375.5 252.0)">[0, 10)</text>
<rect x="416.3" y="144.0" width="60.4" height="92.0" fill="#5b8dd9" rx="2" />
<text x="446.5" y="140.0" font-size="11" fill="currentColor" text-anchor="middle">115</text>
<text x="446.5" y="252.0" font-size="11" fill="currentColor" opacity="0.85" text-anchor="end" transform="rotate(-30 446.5 252.0)">[10, 20)</text>
<rect x="487.3" y="233.6" width="60.4" height="2.4" fill="#5b8dd9" rx="2" />
<text x="517.5" y="229.6" font-size="11" fill="currentColor" text-anchor="middle">3</text>
<text x="517.5" y="252.0" font-size="11" fill="currentColor" opacity="0.85" text-anchor="end" transform="rotate(-30 517.5 252.0)">[20, 30)</text>
<text x="588.5" y="232.0" font-size="11" fill="currentColor" text-anchor="middle">0</text>
<text x="588.5" y="252.0" font-size="11" fill="currentColor" opacity="0.85" text-anchor="end" transform="rotate(-30 588.5 252.0)">&gt;= 30</text>
</svg>
