<svg viewBox="0 0 640 300" width="100%" xmlns="http://www.w3.org/2000/svg" font-family="ui-sans-serif, system-ui, sans-serif">
<text x="56" y="20" font-size="13" font-weight="600" fill="currentColor">flagship-biome — default</text>
<line x1="56.0" y1="186.0" x2="624.0" y2="186.0" stroke="currentColor" stroke-opacity="0.15" stroke-width="1" />
<text x="50" y="186.0" font-size="11" fill="currentColor" opacity="0.75" text-anchor="end">125</text>
<line x1="56.0" y1="136.0" x2="624.0" y2="136.0" stroke="currentColor" stroke-opacity="0.15" stroke-width="1" />
<text x="50" y="136.0" font-size="11" fill="currentColor" opacity="0.75" text-anchor="end">250</text>
<line x1="56.0" y1="86.0" x2="624.0" y2="86.0" stroke="currentColor" stroke-opacity="0.15" stroke-width="1" />
<text x="50" y="86.0" font-size="11" fill="currentColor" opacity="0.75" text-anchor="end">375</text>
<line x1="56.0" y1="36.0" x2="624.0" y2="36.0" stroke="currentColor" stroke-opacity="0.15" stroke-width="1" />
<text x="50" y="36.0" font-size="11" fill="currentColor" opacity="0.75" text-anchor="end">500</text>
<rect x="59.9" y="230.8" width="43.9" height="5.2" fill="#5b8dd9" rx="2" />
<text x="81.8" y="226.8" font-size="11" fill="currentColor" text-anchor="middle">13</text>
<text x="81.8" y="252.0" font-size="11" fill="currentColor" opacity="0.85" text-anchor="end" transform="rotate(-30 81.8 252.0)">alpine</text>
<rect x="111.5" y="235.2" width="43.9" height="0.8" fill="#5b8dd9" rx="2" />
<text x="133.5" y="231.2" font-size="11" fill="currentColor" text-anchor="middle">2</text>
<text x="133.5" y="252.0" font-size="11" fill="currentColor" opacity="0.85" text-anchor="end" transform="rotate(-30 133.5 252.0)">coral-reef</text>
<rect x="163.1" y="235.6" width="43.9" height="0.4" fill="#5b8dd9" rx="2" />
<text x="185.1" y="231.6" font-size="11" fill="currentColor" text-anchor="middle">1</text>
<text x="185.1" y="252.0" font-size="11" fill="currentColor" opacity="0.85" text-anchor="end" transform="rotate(-30 185.1 252.0)">desert</text>
<rect x="214.8" y="232.4" width="43.9" height="3.6" fill="#5b8dd9" rx="2" />
<text x="236.7" y="228.4" font-size="11" fill="currentColor" text-anchor="middle">9</text>
<text x="236.7" y="252.0" font-size="11" fill="currentColor" opacity="0.85" text-anchor="end" transform="rotate(-30 236.7 252.0)">savanna</text>
<rect x="266.4" y="234.0" width="43.9" height="2.0" fill="#5b8dd9" rx="2" />
<text x="288.4" y="230.0" font-size="11" fill="currentColor" text-anchor="middle">5</text>
<text x="288.4" y="252.0" font-size="11" fill="currentColor" opacity="0.85" text-anchor="end" transform="rotate(-30 288.4 252.0)">shrubland</text>
<rect x="318.1" y="218.0" width="43.9" height="18.0" fill="#5b8dd9" rx="2" />
<text x="340.0" y="214.0" font-size="11" fill="currentColor" text-anchor="middle">45</text>
<text x="340.0" y="252.0" font-size="11" fill="currentColor" opacity="0.85" text-anchor="end" transform="rotate(-30 340.0 252.0)">taiga</text>
<rect x="369.7" y="141.6" width="43.9" height="94.4" fill="#5b8dd9" rx="2" />
<text x="391.6" y="137.6" font-size="11" fill="currentColor" text-anchor="middle">236</text>
<text x="391.6" y="252.0" font-size="11" fill="currentColor" opacity="0.85" text-anchor="end" transform="rotate(-30 391.6 252.0)">temperate-forest</text>
<rect x="421.3" y="216.0" width="43.9" height="20.0" fill="#5b8dd9" rx="2" />
<text x="443.3" y="212.0" font-size="11" fill="currentColor" text-anchor="middle">50</text>
<text x="443.3" y="252.0" font-size="11" fill="currentColor" opacity="0.85" text-anchor="end" transform="rotate(-30 443.3 252.0)">temperate-rainforest</text>
<rect x="473.0" y="183.2" width="43.9" height="52.8" fill="#5b8dd9" rx="2" />
<text x="494.9" y="179.2" font-size="11" fill="currentColor" text-anchor="middle">132</text>
<text x="494.9" y="252.0" font-size="11" fill="currentColor" opacity="0.85" text-anchor="end" transform="rotate(-30 494.9 252.0)">tropical-rainforest</text>
<rect x="524.6" y="124.8" width="43.9" height="111.2" fill="#5b8dd9" rx="2" />
<text x="546.5" y="120.8" font-size="11" fill="currentColor" text-anchor="middle">278</text>
<text x="546.5" y="252.0" font-size="11" fill="currentColor" opacity="0.85" text-anchor="end" transform="rotate(-30 546.5 252.0)">tropical-seasonal-forest</text>
<rect x="576.2" y="144.4" width="43.9" height="91.6" fill="#5b8dd9" rx="2" />
<text x="598.2" y="140.4" font-size="11" fill="currentColor" text-anchor="middle">229</text>
<text x="598.2" y="252.0" font-size="11" fill="currentColor" opacity="0.85" text-anchor="end" transform="rotate(-30 598.2 252.0)">absent</text>
</svg>
