<svg viewBox="0 0 640 300" width="100%" xmlns="http://www.w3.org/2000/svg" font-family="ui-sans-serif, system-ui, sans-serif">
<text x="56" y="20" font-size="13" font-weight="600" fill="currentColor">settlement-count — default</text>
<line x1="56.0" y1="186.0" x2="624.0" y2="186.0" stroke="currentColor" stroke-opacity="0.15" stroke-width="1" />
<text x="50" y="186.0" font-size="11" fill="currentColor" opacity="0.75" text-anchor="end">62.5</text>
<line x1="56.0" y1="136.0" x2="624.0" y2="136.0" stroke="currentColor" stroke-opacity="0.15" stroke-width="1" />
<text x="50" y="136.0" font-size="11" fill="currentColor" opacity="0.75" text-anchor="end">125</text>
<line x1="56.0" y1="86.0" x2="624.0" y2="86.0" stroke="currentColor" stroke-opacity="0.15" stroke-width="1" />
<text x="50" y="86.0" font-size="11" fill="currentColor" opacity="0.75" text-anchor="end">187.5</text>
<line x1="56.0" y1="36.0" x2="624.0" y2="36.0" stroke="currentColor" stroke-opacity="0.15" stroke-width="1" />
<text x="50" y="36.0" font-size="11" fill="currentColor" opacity="0.75" text-anchor="end">250</text>
<text x="91.5" y="232.0" font-size="11" fill="currentColor" text-anchor="middle">0</text>
<text x="91.5" y="252.0" font-size="11" fill="currentColor" opacity="0.85" text-anchor="end" transform="rotate(-30 91.5 252.0)">&lt; 0</text>
<rect x="132.3" y="49.6" width="60.4" height="186.4" fill="#5b8dd9" rx="2" />
<text x="162.5" y="45.6" font-size="11" fill="currentColor" text-anchor="middle">233</text>
<text x="162.5" y="252.0" font-size="11" fill="currentColor" opacity="0.85" text-anchor="end" transform="rotate(-30 162.5 252.0)">[0, 10)</text>
<rect x="203.3" y="204.8" width="60.4" height="31.2" fill="#5b8dd9" rx="2" />
<text x="233.5" y="200.8" font-size="11" fill="currentColor" text-anchor="middle">39</text>
<text x="233.5" y="252.0" font-size="11" fill="currentColor" opacity="0.85" text-anchor="end" transform="rotate(-30 233.5 252.0)">[10, 20)</text>
<rect x="274.3" y="118.4" width="60.4" height="117.6" fill="#5b8dd9" rx="2" />
<text x="304.5" y="114.4" font-size="11" fill="currentColor" text-anchor="middle">147</text>
<text x="304.5" y="252.0" font-size="11" fill="currentColor" opacity="0.85" text-anchor="end" transform="rotate(-30 304.5 252.0)">[20, 40)</text>
<rect x="345.3" y="101.6" width="60.4" height="134.4" fill="#5b8dd9" rx="2" />
<text x="375.5" y="97.6" font-size="11" fill="currentColor" text-anchor="middle">168</text>
<text x="375.5" y="252.0" font-size="11" fill="currentColor" opacity="0.85" text-anchor="end" transform="rotate(-30 375.5 252.0)">[40, 60)</text>
<rect x="416.3" y="105.6" width="60.4" height="130.4" fill="#5b8dd9" rx="2" />
<text x="446.5" y="101.6" font-size="11" fill="currentColor" text-anchor="middle">163</text>
<text x="446.5" y="252.0" font-size="11" fill="currentColor" opacity="0.85" text-anchor="end" transform="rotate(-30 446.5 252.0)">[60, 80)</text>
<rect x="487.3" y="69.6" width="60.4" height="166.4" fill="#5b8dd9" rx="2" />
<text x="517.5" y="65.6" font-size="11" fill="currentColor" text-anchor="middle">208</text>
<text x="517.5" y="252.0" font-size="11" fill="currentColor" opacity="0.85" text-anchor="end" transform="rotate(-30 517.5 252.0)">[80, 120)</text>
<rect x="558.3" y="202.4" width="60.4" height="33.6" fill="#5b8dd9" rx="2" />
<text x="588.5" y="198.4" font-size="11" fill="currentColor" text-anchor="middle">42</text>
<text x="588.5" y="252.0" font-size="11" fill="currentColor" opacity="0.85" text-anchor="end" transform="rotate(-30 588.5 252.0)">&gt;= 120</text>
</svg>
