<svg viewBox="0 0 640 300" width="100%" xmlns="http://www.w3.org/2000/svg" font-family="ui-sans-serif, system-ui, sans-serif">
<text x="56" y="20" font-size="13" font-weight="600" fill="currentColor">dominant-land-biome — default</text>
<line x1="56.0" y1="186.0" x2="624.0" y2="186.0" stroke="currentColor" stroke-opacity="0.15" stroke-width="1" />
<text x="50" y="186.0" font-size="11" fill="currentColor" opacity="0.75" text-anchor="end">250</text>
<line x1="56.0" y1="136.0" x2="624.0" y2="136.0" stroke="currentColor" stroke-opacity="0.15" stroke-width="1" />
<text x="50" y="136.0" font-size="11" fill="currentColor" opacity="0.75" text-anchor="end">500</text>
<line x1="56.0" y1="86.0" x2="624.0" y2="86.0" stroke="currentColor" stroke-opacity="0.15" stroke-width="1" />
<text x="50" y="86.0" font-size="11" fill="currentColor" opacity="0.75" text-anchor="end">750</text>
<line x1="56.0" y1="36.0" x2="624.0" y2="36.0" stroke="currentColor" stroke-opacity="0.15" stroke-width="1" />
<text x="50" y="36.0" font-size="11" fill="currentColor" opacity="0.75" text-anchor="end">1000</text>
<rect x="62.1" y="204.2" width="69.0" height="31.8" fill="#5b8dd9" rx="2" />
<text x="96.6" y="200.2" font-size="11" fill="currentColor" text-anchor="middle">159</text>
<text x="96.6" y="252.0" font-size="11" fill="currentColor" opacity="0.85" text-anchor="end" transform="rotate(-30 96.6 252.0)">alpine</text>
<rect x="143.2" y="116.0" width="69.0" height="120.0" fill="#5b8dd9" rx="2" />
<text x="177.7" y="112.0" font-size="11" fill="currentColor" text-anchor="middle">600</text>
<text x="177.7" y="252.0" font-size="11" fill="currentColor" opacity="0.85" text-anchor="end" transform="rotate(-30 177.7 252.0)">ice</text>
<rect x="224.4" y="235.8" width="69.0" height="0.2" fill="#5b8dd9" rx="2" />
<text x="258.9" y="231.8" font-size="11" fill="currentColor" text-anchor="middle">1</text>
<text x="258.9" y="252.0" font-size="11" fill="currentColor" opacity="0.85" text-anchor="end" transform="rotate(-30 258.9 252.0)">savanna</text>
<rect x="305.5" y="225.6" width="69.0" height="10.4" fill="#5b8dd9" rx="2" />
<text x="340.0" y="221.6" font-size="11" fill="currentColor" text-anchor="middle">52</text>
<text x="340.0" y="252.0" font-size="11" fill="currentColor" opacity="0.85" text-anchor="end" transform="rotate(-30 340.0 252.0)">taiga</text>
<rect x="386.7" y="227.2" width="69.0" height="8.8" fill="#5b8dd9" rx="2" />
<text x="421.1" y="223.2" font-size="11" fill="currentColor" text-anchor="middle">44</text>
<text x="421.1" y="252.0" font-size="11" fill="currentColor" opacity="0.85" text-anchor="end" transform="rotate(-30 421.1 252.0)">temperate-forest</text>
<rect x="467.8" y="212.2" width="69.0" height="23.8" fill="#5b8dd9" rx="2" />
<text x="502.3" y="208.2" font-size="11" fill="currentColor" text-anchor="middle">119</text>
<text x="502.3" y="252.0" font-size="11" fill="currentColor" opacity="0.85" text-anchor="end" transform="rotate(-30 502.3 252.0)">tropical-seasonal-forest</text>
<rect x="548.9" y="231.0" width="69.0" height="5.0" fill="#5b8dd9" rx="2" />
<text x="583.4" y="227.0" font-size="11" fill="currentColor" text-anchor="middle">25</text>
<text x="583.4" y="252.0" font-size="11" fill="currentColor" opacity="0.85" text-anchor="end" transform="rotate(-30 583.4 252.0)">tundra</text>
</svg>
