<svg viewBox="0 0 640 300" width="100%" xmlns="http://www.w3.org/2000/svg" font-family="ui-sans-serif, system-ui, sans-serif">
<text x="56" y="20" font-size="13" font-weight="600" fill="currentColor">solar-eclipses-per-century — default</text>
<line x1="56.0" y1="186.0" x2="624.0" y2="186.0" stroke="currentColor" stroke-opacity="0.15" stroke-width="1" />
<text x="50" y="186.0" font-size="11" fill="currentColor" opacity="0.75" text-anchor="end">50</text>
<line x1="56.0" y1="136.0" x2="624.0" y2="136.0" stroke="currentColor" stroke-opacity="0.15" stroke-width="1" />
<text x="50" y="136.0" font-size="11" fill="currentColor" opacity="0.75" text-anchor="end">100</text>
<line x1="56.0" y1="86.0" x2="624.0" y2="86.0" stroke="currentColor" stroke-opacity="0.15" stroke-width="1" />
<text x="50" y="86.0" font-size="11" fill="currentColor" opacity="0.75" text-anchor="end">150</text>
<line x1="56.0" y1="36.0" x2="624.0" y2="36.0" stroke="currentColor" stroke-opacity="0.15" stroke-width="1" />
<text x="50" y="36.0" font-size="11" fill="currentColor" opacity="0.75" text-anchor="end">200</text>
<text x="91.5" y="232.0" font-size="11" fill="currentColor" text-anchor="middle">0</text>
<text x="91.5" y="252.0" font-size="11" fill="currentColor" opacity="0.85" text-anchor="end" transform="rotate(-30 91.5 252.0)">&lt; 0</text>
<rect x="132.3" y="61.0" width="60.4" height="175.0" fill="#5b8dd9" rx="2" />
<text x="162.5" y="57.0" font-size="11" fill="currentColor" text-anchor="middle">175</text>
<text x="162.5" y="252.0" font-size="11" fill="currentColor" opacity="0.85" text-anchor="end" transform="rotate(-30 162.5 252.0)">[0, 50)</text>
<rect x="203.3" y="184.0" width="60.4" height="52.0" fill="#5b8dd9" rx="2" />
<text x="233.5" y="180.0" font-size="11" fill="currentColor" text-anchor="middle">52</text>
<text x="233.5" y="252.0" font-size="11" fill="currentColor" opacity="0.85" text-anchor="end" transform="rotate(-30 233.5 252.0)">[50, 100)</text>
<rect x="274.3" y="137.0" width="60.4" height="99.0" fill="#5b8dd9" rx="2" />
<text x="304.5" y="133.0" font-size="11" fill="currentColor" text-anchor="middle">99</text>
<text x="304.5" y="252.0" font-size="11" fill="currentColor" opacity="0.85" text-anchor="end" transform="rotate(-30 304.5 252.0)">[100, 200)</text>
<rect x="345.3" y="78.0" width="60.4" height="158.0" fill="#5b8dd9" rx="2" />
<text x="375.5" y="74.0" font-size="11" fill="currentColor" text-anchor="middle">158</text>
<text x="375.5" y="252.0" font-size="11" fill="currentColor" opacity="0.85" text-anchor="end" transform="rotate(-30 375.5 252.0)">[200, 400)</text>
<rect x="416.3" y="56.0" width="60.4" height="180.0" fill="#5b8dd9" rx="2" />
<text x="446.5" y="52.0" font-size="11" fill="currentColor" text-anchor="middle">180</text>
<text x="446.5" y="252.0" font-size="11" fill="currentColor" opacity="0.85" text-anchor="end" transform="rotate(-30 446.5 252.0)">[400, 800)</text>
<rect x="487.3" y="86.0" width="60.4" height="150.0" fill="#5b8dd9" rx="2" />
<text x="517.5" y="82.0" font-size="11" fill="currentColor" text-anchor="middle">150</text>
<text x="517.5" y="252.0" font-size="11" fill="currentColor" opacity="0.85" text-anchor="end" transform="rotate(-30 517.5 252.0)">[800, 1600)</text>
<rect x="558.3" y="50.0" width="60.4" height="186.0" fill="#5b8dd9" rx="2" />
<text x="588.5" y="46.0" font-size="11" fill="currentColor" text-anchor="middle">186</text>
<text x="588.5" y="252.0" font-size="11" fill="currentColor" opacity="0.85" text-anchor="end" transform="rotate(-30 588.5 252.0)">&gt;= 1600</text>
</svg>
