<svg viewBox="0 0 640 300" width="100%" xmlns="http://www.w3.org/2000/svg" font-family="ui-sans-serif, system-ui, sans-serif">
<text x="56" y="20" font-size="13" font-weight="600" fill="currentColor">figure-count — default</text>
<line x1="56.0" y1="186.0" x2="624.0" y2="186.0" stroke="currentColor" stroke-opacity="0.15" stroke-width="1" />
<text x="50" y="186.0" font-size="11" fill="currentColor" opacity="0.75" text-anchor="end">50</text>
<line x1="56.0" y1="136.0" x2="624.0" y2="136.0" stroke="currentColor" stroke-opacity="0.15" stroke-width="1" />
<text x="50" y="136.0" font-size="11" fill="currentColor" opacity="0.75" text-anchor="end">100</text>
<line x1="56.0" y1="86.0" x2="624.0" y2="86.0" stroke="currentColor" stroke-opacity="0.15" stroke-width="1" />
<text x="50" y="86.0" font-size="11" fill="currentColor" opacity="0.75" text-anchor="end">150</text>
<line x1="56.0" y1="36.0" x2="624.0" y2="36.0" stroke="currentColor" stroke-opacity="0.15" stroke-width="1" />
<text x="50" y="36.0" font-size="11" fill="currentColor" opacity="0.75" text-anchor="end">200</text>
<rect x="58.0" y="172.0" width="23.0" height="64.0" fill="#5b8dd9" rx="2" />
<text x="69.5" y="168.0" font-size="11" fill="currentColor" text-anchor="middle">64</text>
<text x="69.5" y="252.0" font-size="11" fill="currentColor" opacity="0.85" text-anchor="middle">0</text>
<rect x="85.1" y="144.0" width="23.0" height="92.0" fill="#5b8dd9" rx="2" />
<text x="96.6" y="140.0" font-size="11" fill="currentColor" text-anchor="middle">92</text>
<text x="96.6" y="252.0" font-size="11" fill="currentColor" opacity="0.85" text-anchor="middle">1</text>
<rect x="112.1" y="180.0" width="23.0" height="56.0" fill="#5b8dd9" rx="2" />
<text x="123.6" y="176.0" font-size="11" fill="currentColor" text-anchor="middle">56</text>
<text x="123.6" y="252.0" font-size="11" fill="currentColor" opacity="0.85" text-anchor="middle">10</text>
<rect x="139.2" y="186.0" width="23.0" height="50.0" fill="#5b8dd9" rx="2" />
<text x="150.7" y="182.0" font-size="11" fill="currentColor" text-anchor="middle">50</text>
<text x="150.7" y="252.0" font-size="11" fill="currentColor" opacity="0.85" text-anchor="middle">11</text>
<rect x="166.2" y="202.0" width="23.0" height="34.0" fill="#5b8dd9" rx="2" />
<text x="177.7" y="198.0" font-size="11" fill="currentColor" text-anchor="middle">34</text>
<text x="177.7" y="252.0" font-size="11" fill="currentColor" opacity="0.85" text-anchor="middle">12</text>
<rect x="193.3" y="196.0" width="23.0" height="40.0" fill="#5b8dd9" rx="2" />
<text x="204.8" y="192.0" font-size="11" fill="currentColor" text-anchor="middle">40</text>
<text x="204.8" y="252.0" font-size="11" fill="currentColor" opacity="0.85" text-anchor="middle">13</text>
<rect x="220.3" y="209.0" width="23.0" height="27.0" fill="#5b8dd9" rx="2" />
<text x="231.8" y="205.0" font-size="11" fill="currentColor" text-anchor="middle">27</text>
<text x="231.8" y="252.0" font-size="11" fill="currentColor" opacity="0.85" text-anchor="middle">14</text>
<rect x="247.4" y="214.0" width="23.0" height="22.0" fill="#5b8dd9" rx="2" />
<text x="258.9" y="210.0" font-size="11" fill="currentColor" text-anchor="middle">22</text>
<text x="258.9" y="252.0" font-size="11" fill="currentColor" opacity="0.85" text-anchor="middle">15</text>
<rect x="274.4" y="229.0" width="23.0" height="7.0" fill="#5b8dd9" rx="2" />
<text x="285.9" y="225.0" font-size="11" fill="currentColor" text-anchor="middle">7</text>
<text x="285.9" y="252.0" font-size="11" fill="currentColor" opacity="0.85" text-anchor="middle">16</text>
<rect x="301.5" y="228.0" width="23.0" height="8.0" fill="#5b8dd9" rx="2" />
<text x="313.0" y="224.0" font-size="11" fill="currentColor" text-anchor="middle">8</text>
<text x="313.0" y="252.0" font-size="11" fill="currentColor" opacity="0.85" text-anchor="middle">17</text>
<rect x="328.5" y="231.0" width="23.0" height="5.0" fill="#5b8dd9" rx="2" />
<text x="340.0" y="227.0" font-size="11" fill="currentColor" text-anchor="middle">5</text>
<text x="340.0" y="252.0" font-size="11" fill="currentColor" opacity="0.85" text-anchor="middle">18</text>
<rect x="355.6" y="234.0" width="23.0" height="2.0" fill="#5b8dd9" rx="2" />
<text x="367.0" y="230.0" font-size="11" fill="currentColor" text-anchor="middle">2</text>
<text x="367.0" y="252.0" font-size="11" fill="currentColor" opacity="0.85" text-anchor="middle">19</text>
<rect x="382.6" y="148.0" width="23.0" height="88.0" fill="#5b8dd9" rx="2" />
<text x="394.1" y="144.0" font-size="11" fill="currentColor" text-anchor="middle">88</text>
<text x="394.1" y="252.0" font-size="11" fill="currentColor" opacity="0.85" text-anchor="middle">2</text>
<rect x="409.6" y="235.0" width="23.0" height="1.0" fill="#5b8dd9" rx="2" />
<text x="421.1" y="231.0" font-size="11" fill="currentColor" text-anchor="middle">1</text>
<text x="421.1" y="252.0" font-size="11" fill="currentColor" opacity="0.85" text-anchor="middle">23</text>
<rect x="436.7" y="132.0" width="23.0" height="104.0" fill="#5b8dd9" rx="2" />
<text x="448.2" y="128.0" font-size="11" fill="currentColor" text-anchor="middle">104</text>
<text x="448.2" y="252.0" font-size="11" fill="currentColor" opacity="0.85" text-anchor="middle">3</text>
<rect x="463.7" y="163.0" width="23.0" height="73.0" fill="#5b8dd9" rx="2" />
<text x="475.2" y="159.0" font-size="11" fill="currentColor" text-anchor="middle">73</text>
<text x="475.2" y="252.0" font-size="11" fill="currentColor" opacity="0.85" text-anchor="middle">4</text>
<rect x="490.8" y="164.0" width="23.0" height="72.0" fill="#5b8dd9" rx="2" />
<text x="502.3" y="160.0" font-size="11" fill="currentColor" text-anchor="middle">72</text>
<text x="502.3" y="252.0" font-size="11" fill="currentColor" opacity="0.85" text-anchor="middle">5</text>
<rect x="517.8" y="165.0" width="23.0" height="71.0" fill="#5b8dd9" rx="2" />
<text x="529.3" y="161.0" font-size="11" fill="currentColor" text-anchor="middle">71</text>
<text x="529.3" y="252.0" font-size="11" fill="currentColor" opacity="0.85" text-anchor="middle">6</text>
<rect x="544.9" y="171.0" width="23.0" height="65.0" fill="#5b8dd9" rx="2" />
<text x="556.4" y="167.0" font-size="11" fill="currentColor" text-anchor="middle">65</text>
<text x="556.4" y="252.0" font-size="11" fill="currentColor" opacity="0.85" text-anchor="middle">7</text>
<rect x="571.9" y="176.0" width="23.0" height="60.0" fill="#5b8dd9" rx="2" />
<text x="583.4" y="172.0" font-size="11" fill="currentColor" text-anchor="middle">60</text>
<text x="583.4" y="252.0" font-size="11" fill="currentColor" opacity="0.85" text-anchor="middle">8</text>
<rect x="599.0" y="177.0" width="23.0" height="59.0" fill="#5b8dd9" rx="2" />
<text x="610.5" y="173.0" font-size="11" fill="currentColor" text-anchor="middle">59</text>
<text x="610.5" y="252.0" font-size="11" fill="currentColor" opacity="0.85" text-anchor="middle">9</text>
</svg>
