<svg viewBox="0 0 640 300" width="100%" xmlns="http://www.w3.org/2000/svg" font-family="ui-sans-serif, system-ui, sans-serif">
<text x="56" y="20" font-size="13" font-weight="600" fill="currentColor">total-population — default</text>
<line x1="56.0" y1="186.0" x2="624.0" y2="186.0" stroke="currentColor" stroke-opacity="0.15" stroke-width="1" />
<text x="50" y="186.0" font-size="11" fill="currentColor" opacity="0.75" text-anchor="end">125</text>
<line x1="56.0" y1="136.0" x2="624.0" y2="136.0" stroke="currentColor" stroke-opacity="0.15" stroke-width="1" />
<text x="50" y="136.0" font-size="11" fill="currentColor" opacity="0.75" text-anchor="end">250</text>
<line x1="56.0" y1="86.0" x2="624.0" y2="86.0" stroke="currentColor" stroke-opacity="0.15" stroke-width="1" />
<text x="50" y="86.0" font-size="11" fill="currentColor" opacity="0.75" text-anchor="end">375</text>
<line x1="56.0" y1="36.0" x2="624.0" y2="36.0" stroke="currentColor" stroke-opacity="0.15" stroke-width="1" />
<text x="50" y="36.0" font-size="11" fill="currentColor" opacity="0.75" text-anchor="end">500</text>
<text x="96.6" y="232.0" font-size="11" fill="currentColor" text-anchor="middle">0</text>
<text x="96.6" y="252.0" font-size="11" fill="currentColor" opacity="0.85" text-anchor="end" transform="rotate(-30 96.6 252.0)">&lt; 0</text>
<rect x="143.2" y="122.4" width="69.0" height="113.6" fill="#5b8dd9" rx="2" />
<text x="177.7" y="118.4" font-size="11" fill="currentColor" text-anchor="middle">284</text>
<text x="177.7" y="252.0" font-size="11" fill="currentColor" opacity="0.85" text-anchor="end" transform="rotate(-30 177.7 252.0)">[0, 500)</text>
<rect x="224.4" y="221.6" width="69.0" height="14.4" fill="#5b8dd9" rx="2" />
<text x="258.9" y="217.6" font-size="11" fill="currentColor" text-anchor="middle">36</text>
<text x="258.9" y="252.0" font-size="11" fill="currentColor" opacity="0.85" text-anchor="end" transform="rotate(-30 258.9 252.0)">[500, 1000)</text>
<rect x="305.5" y="211.2" width="69.0" height="24.8" fill="#5b8dd9" rx="2" />
<text x="340.0" y="207.2" font-size="11" fill="currentColor" text-anchor="middle">62</text>
<text x="340.0" y="252.0" font-size="11" fill="currentColor" opacity="0.85" text-anchor="end" transform="rotate(-30 340.0 252.0)">[1000, 2000)</text>
<rect x="386.7" y="190.4" width="69.0" height="45.6" fill="#5b8dd9" rx="2" />
<text x="421.1" y="186.4" font-size="11" fill="currentColor" text-anchor="middle">114</text>
<text x="421.1" y="252.0" font-size="11" fill="currentColor" opacity="0.85" text-anchor="end" transform="rotate(-30 421.1 252.0)">[2000, 4000)</text>
<rect x="467.8" y="152.8" width="69.0" height="83.2" fill="#5b8dd9" rx="2" />
<text x="502.3" y="148.8" font-size="11" fill="currentColor" text-anchor="middle">208</text>
<text x="502.3" y="252.0" font-size="11" fill="currentColor" opacity="0.85" text-anchor="end" transform="rotate(-30 502.3 252.0)">[4000, 8000)</text>
<rect x="548.9" y="117.6" width="69.0" height="118.4" fill="#5b8dd9" rx="2" />
<text x="583.4" y="113.6" font-size="11" fill="currentColor" text-anchor="middle">296</text>
<text x="583.4" y="252.0" font-size="11" fill="currentColor" opacity="0.85" text-anchor="end" transform="rotate(-30 583.4 252.0)">&gt;= 8000</text>
</svg>
