<svg viewBox="0 0 640 300" width="100%" xmlns="http://www.w3.org/2000/svg" font-family="ui-sans-serif, system-ui, sans-serif">
<text x="56" y="20" font-size="13" font-weight="600" fill="currentColor">pantheon-size — default</text>
<line x1="56.0" y1="186.0" x2="624.0" y2="186.0" stroke="currentColor" stroke-opacity="0.15" stroke-width="1" />
<text x="50" y="186.0" font-size="11" fill="currentColor" opacity="0.75" text-anchor="end">250</text>
<line x1="56.0" y1="136.0" x2="624.0" y2="136.0" stroke="currentColor" stroke-opacity="0.15" stroke-width="1" />
<text x="50" y="136.0" font-size="11" fill="currentColor" opacity="0.75" text-anchor="end">500</text>
<line x1="56.0" y1="86.0" x2="624.0" y2="86.0" stroke="currentColor" stroke-opacity="0.15" stroke-width="1" />
<text x="50" y="86.0" font-size="11" fill="currentColor" opacity="0.75" text-anchor="end">750</text>
<line x1="56.0" y1="36.0" x2="624.0" y2="36.0" stroke="currentColor" stroke-opacity="0.15" stroke-width="1" />
<text x="50" y="36.0" font-size="11" fill="currentColor" opacity="0.75" text-anchor="end">1000</text>
<text x="96.6" y="232.0" font-size="11" fill="currentColor" text-anchor="middle">0</text>
<text x="96.6" y="252.0" font-size="11" fill="currentColor" opacity="0.85" text-anchor="middle">&lt; 1</text>
<rect x="143.2" y="227.0" width="69.0" height="9.0" fill="#5b8dd9" rx="2" />
<text x="177.7" y="223.0" font-size="11" fill="currentColor" text-anchor="middle">45</text>
<text x="177.7" y="252.0" font-size="11" fill="currentColor" opacity="0.85" text-anchor="middle">[1, 2)</text>
<rect x="224.4" y="223.4" width="69.0" height="12.6" fill="#5b8dd9" rx="2" />
<text x="258.9" y="219.4" font-size="11" fill="currentColor" text-anchor="middle">63</text>
<text x="258.9" y="252.0" font-size="11" fill="currentColor" opacity="0.85" text-anchor="middle">[2, 3)</text>
<rect x="305.5" y="226.4" width="69.0" height="9.6" fill="#5b8dd9" rx="2" />
<text x="340.0" y="222.4" font-size="11" fill="currentColor" text-anchor="middle">48</text>
<text x="340.0" y="252.0" font-size="11" fill="currentColor" opacity="0.85" text-anchor="middle">[3, 4)</text>
<rect x="386.7" y="233.0" width="69.0" height="3.0" fill="#5b8dd9" rx="2" />
<text x="421.1" y="229.0" font-size="11" fill="currentColor" text-anchor="middle">15</text>
<text x="421.1" y="252.0" font-size="11" fill="currentColor" opacity="0.85" text-anchor="middle">[4, 5)</text>
<rect x="467.8" y="213.0" width="69.0" height="23.0" fill="#5b8dd9" rx="2" />
<text x="502.3" y="209.0" font-size="11" fill="currentColor" text-anchor="middle">115</text>
<text x="502.3" y="252.0" font-size="11" fill="currentColor" opacity="0.85" text-anchor="middle">[5, 6)</text>
<rect x="548.9" y="93.2" width="69.0" height="142.8" fill="#5b8dd9" rx="2" />
<text x="583.4" y="89.2" font-size="11" fill="currentColor" text-anchor="middle">714</text>
<text x="583.4" y="252.0" font-size="11" fill="currentColor" opacity="0.85" text-anchor="middle">&gt;= 6</text>
</svg>
