<svg viewBox="0 0 640 300" width="100%" xmlns="http://www.w3.org/2000/svg" font-family="ui-sans-serif, system-ui, sans-serif">
<text x="56" y="20" font-size="13" font-weight="600" fill="currentColor">capacity-by-abs-latitude — default</text>
<line x1="56.0" y1="186.0" x2="624.0" y2="186.0" stroke="currentColor" stroke-opacity="0.15" stroke-width="1" />
<text x="50" y="186.0" font-size="11" fill="currentColor" opacity="0.75" text-anchor="end">125</text>
<line x1="56.0" y1="136.0" x2="624.0" y2="136.0" stroke="currentColor" stroke-opacity="0.15" stroke-width="1" />
<text x="50" y="136.0" font-size="11" fill="currentColor" opacity="0.75" text-anchor="end">250</text>
<line x1="56.0" y1="86.0" x2="624.0" y2="86.0" stroke="currentColor" stroke-opacity="0.15" stroke-width="1" />
<text x="50" y="86.0" font-size="11" fill="currentColor" opacity="0.75" text-anchor="end">375</text>
<line x1="56.0" y1="36.0" x2="624.0" y2="36.0" stroke="currentColor" stroke-opacity="0.15" stroke-width="1" />
<text x="50" y="36.0" font-size="11" fill="currentColor" opacity="0.75" text-anchor="end">500</text>
<rect x="61.3" y="192.4" width="60.4" height="43.6" fill="#5b8dd9" rx="2" />
<text x="91.5" y="188.4" font-size="11" fill="currentColor" text-anchor="middle">109</text>
<text x="91.5" y="252.0" font-size="11" fill="currentColor" opacity="0.85" text-anchor="middle">&lt; 1</text>
<rect x="132.3" y="201.6" width="60.4" height="34.4" fill="#5b8dd9" rx="2" />
<text x="162.5" y="197.6" font-size="11" fill="currentColor" text-anchor="middle">86</text>
<text x="162.5" y="252.0" font-size="11" fill="currentColor" opacity="0.85" text-anchor="middle">[1, 3)</text>
<rect x="203.3" y="214.4" width="60.4" height="21.6" fill="#5b8dd9" rx="2" />
<text x="233.5" y="210.4" font-size="11" fill="currentColor" text-anchor="middle">54</text>
<text x="233.5" y="252.0" font-size="11" fill="currentColor" opacity="0.85" text-anchor="middle">[3, 5)</text>
<rect x="274.3" y="201.6" width="60.4" height="34.4" fill="#5b8dd9" rx="2" />
<text x="304.5" y="197.6" font-size="11" fill="currentColor" text-anchor="middle">86</text>
<text x="304.5" y="252.0" font-size="11" fill="currentColor" opacity="0.85" text-anchor="middle">[5, 10)</text>
<rect x="345.3" y="183.6" width="60.4" height="52.4" fill="#5b8dd9" rx="2" />
<text x="375.5" y="179.6" font-size="11" fill="currentColor" text-anchor="middle">131</text>
<text x="375.5" y="252.0" font-size="11" fill="currentColor" opacity="0.85" text-anchor="middle">[10, 20)</text>
<rect x="416.3" y="68.8" width="60.4" height="167.2" fill="#5b8dd9" rx="2" />
<text x="446.5" y="64.8" font-size="11" fill="currentColor" text-anchor="middle">418</text>
<text x="446.5" y="252.0" font-size="11" fill="currentColor" opacity="0.85" text-anchor="middle">[20, 40)</text>
<rect x="487.3" y="189.6" width="60.4" height="46.4" fill="#5b8dd9" rx="2" />
<text x="517.5" y="185.6" font-size="11" fill="currentColor" text-anchor="middle">116</text>
<text x="517.5" y="252.0" font-size="11" fill="currentColor" opacity="0.85" text-anchor="middle">[40, 60)</text>
<text x="588.5" y="232.0" font-size="11" fill="currentColor" text-anchor="middle">0</text>
<text x="588.5" y="252.0" font-size="11" fill="currentColor" opacity="0.85" text-anchor="middle">&gt;= 60</text>
</svg>
