<svg viewBox="0 0 640 300" width="100%" xmlns="http://www.w3.org/2000/svg" font-family="ui-sans-serif, system-ui, sans-serif">
<text x="56" y="20" font-size="13" font-weight="600" fill="currentColor">pop-weighted-abs-latitude — default</text>
<line x1="56.0" y1="186.0" x2="624.0" y2="186.0" stroke="currentColor" stroke-opacity="0.15" stroke-width="1" />
<text x="50" y="186.0" font-size="11" fill="currentColor" opacity="0.75" text-anchor="end">250</text>
<line x1="56.0" y1="136.0" x2="624.0" y2="136.0" stroke="currentColor" stroke-opacity="0.15" stroke-width="1" />
<text x="50" y="136.0" font-size="11" fill="currentColor" opacity="0.75" text-anchor="end">500</text>
<line x1="56.0" y1="86.0" x2="624.0" y2="86.0" stroke="currentColor" stroke-opacity="0.15" stroke-width="1" />
<text x="50" y="86.0" font-size="11" fill="currentColor" opacity="0.75" text-anchor="end">750</text>
<line x1="56.0" y1="36.0" x2="624.0" y2="36.0" stroke="currentColor" stroke-opacity="0.15" stroke-width="1" />
<text x="50" y="36.0" font-size="11" fill="currentColor" opacity="0.75" text-anchor="end">1000</text>
<text x="91.5" y="232.0" font-size="11" fill="currentColor" text-anchor="middle">0</text>
<text x="91.5" y="252.0" font-size="11" fill="currentColor" opacity="0.85" text-anchor="middle">&lt; 0</text>
<rect x="132.3" y="134.6" width="60.4" height="101.4" fill="#5b8dd9" rx="2" />
<text x="162.5" y="130.6" font-size="11" fill="currentColor" text-anchor="middle">507</text>
<text x="162.5" y="252.0" font-size="11" fill="currentColor" opacity="0.85" text-anchor="middle">[0, 10)</text>
<rect x="203.3" y="164.0" width="60.4" height="72.0" fill="#5b8dd9" rx="2" />
<text x="233.5" y="160.0" font-size="11" fill="currentColor" text-anchor="middle">360</text>
<text x="233.5" y="252.0" font-size="11" fill="currentColor" opacity="0.85" text-anchor="middle">[10, 20)</text>
<rect x="274.3" y="218.0" width="60.4" height="18.0" fill="#5b8dd9" rx="2" />
<text x="304.5" y="214.0" font-size="11" fill="currentColor" text-anchor="middle">90</text>
<text x="304.5" y="252.0" font-size="11" fill="currentColor" opacity="0.85" text-anchor="middle">[20, 30)</text>
<rect x="345.3" y="232.2" width="60.4" height="3.8" fill="#5b8dd9" rx="2" />
<text x="375.5" y="228.2" font-size="11" fill="currentColor" text-anchor="middle">19</text>
<text x="375.5" y="252.0" font-size="11" fill="currentColor" opacity="0.85" text-anchor="middle">[30, 40)</text>
<rect x="416.3" y="231.6" width="60.4" height="4.4" fill="#5b8dd9" rx="2" />
<text x="446.5" y="227.6" font-size="11" fill="currentColor" text-anchor="middle">22</text>
<text x="446.5" y="252.0" font-size="11" fill="currentColor" opacity="0.85" text-anchor="middle">[40, 50)</text>
<rect x="487.3" y="235.6" width="60.4" height="0.4" fill="#5b8dd9" rx="2" />
<text x="517.5" y="231.6" font-size="11" fill="currentColor" text-anchor="middle">2</text>
<text x="517.5" y="252.0" font-size="11" fill="currentColor" opacity="0.85" text-anchor="middle">[50, 60)</text>
<text x="588.5" y="232.0" font-size="11" fill="currentColor" text-anchor="middle">0</text>
<text x="588.5" y="252.0" font-size="11" fill="currentColor" opacity="0.85" text-anchor="middle">&gt;= 60</text>
</svg>
