<svg viewBox="0 0 640 300" width="100%" xmlns="http://www.w3.org/2000/svg" font-family="ui-sans-serif, system-ui, sans-serif">
<text x="56" y="20" font-size="13" font-weight="600" fill="currentColor">flagship-biome — default</text>
<line x1="56.0" y1="186.0" x2="624.0" y2="186.0" stroke="currentColor" stroke-opacity="0.15" stroke-width="1" />
<text x="50" y="186.0" font-size="11" fill="currentColor" opacity="0.75" text-anchor="end">125</text>
<line x1="56.0" y1="136.0" x2="624.0" y2="136.0" stroke="currentColor" stroke-opacity="0.15" stroke-width="1" />
<text x="50" y="136.0" font-size="11" fill="currentColor" opacity="0.75" text-anchor="end">250</text>
<line x1="56.0" y1="86.0" x2="624.0" y2="86.0" stroke="currentColor" stroke-opacity="0.15" stroke-width="1" />
<text x="50" y="86.0" font-size="11" fill="currentColor" opacity="0.75" text-anchor="end">375</text>
<line x1="56.0" y1="36.0" x2="624.0" y2="36.0" stroke="currentColor" stroke-opacity="0.15" stroke-width="1" />
<text x="50" y="36.0" font-size="11" fill="currentColor" opacity="0.75" text-anchor="end">500</text>
<rect x="60.3" y="230.8" width="48.3" height="5.2" fill="#5b8dd9" rx="2" />
<text x="84.4" y="226.8" font-size="11" fill="currentColor" text-anchor="middle">13</text>
<text x="84.4" y="252.0" font-size="11" fill="currentColor" opacity="0.85" text-anchor="end" transform="rotate(-30 84.4 252.0)">alpine</text>
<rect x="117.1" y="235.6" width="48.3" height="0.4" fill="#5b8dd9" rx="2" />
<text x="141.2" y="231.6" font-size="11" fill="currentColor" text-anchor="middle">1</text>
<text x="141.2" y="252.0" font-size="11" fill="currentColor" opacity="0.85" text-anchor="end" transform="rotate(-30 141.2 252.0)">coral-reef</text>
<rect x="173.9" y="232.4" width="48.3" height="3.6" fill="#5b8dd9" rx="2" />
<text x="198.0" y="228.4" font-size="11" fill="currentColor" text-anchor="middle">9</text>
<text x="198.0" y="252.0" font-size="11" fill="currentColor" opacity="0.85" text-anchor="end" transform="rotate(-30 198.0 252.0)">savanna</text>
<rect x="230.7" y="234.0" width="48.3" height="2.0" fill="#5b8dd9" rx="2" />
<text x="254.8" y="230.0" font-size="11" fill="currentColor" text-anchor="middle">5</text>
<text x="254.8" y="252.0" font-size="11" fill="currentColor" opacity="0.85" text-anchor="end" transform="rotate(-30 254.8 252.0)">shrubland</text>
<rect x="287.5" y="218.0" width="48.3" height="18.0" fill="#5b8dd9" rx="2" />
<text x="311.6" y="214.0" font-size="11" fill="currentColor" text-anchor="middle">45</text>
<text x="311.6" y="252.0" font-size="11" fill="currentColor" opacity="0.85" text-anchor="end" transform="rotate(-30 311.6 252.0)">taiga</text>
<rect x="344.3" y="140.8" width="48.3" height="95.2" fill="#5b8dd9" rx="2" />
<text x="368.4" y="136.8" font-size="11" fill="currentColor" text-anchor="middle">238</text>
<text x="368.4" y="252.0" font-size="11" fill="currentColor" opacity="0.85" text-anchor="end" transform="rotate(-30 368.4 252.0)">temperate-forest</text>
<rect x="401.1" y="216.8" width="48.3" height="19.2" fill="#5b8dd9" rx="2" />
<text x="425.2" y="212.8" font-size="11" fill="currentColor" text-anchor="middle">48</text>
<text x="425.2" y="252.0" font-size="11" fill="currentColor" opacity="0.85" text-anchor="end" transform="rotate(-30 425.2 252.0)">temperate-rainforest</text>
<rect x="457.9" y="184.8" width="48.3" height="51.2" fill="#5b8dd9" rx="2" />
<text x="482.0" y="180.8" font-size="11" fill="currentColor" text-anchor="middle">128</text>
<text x="482.0" y="252.0" font-size="11" fill="currentColor" opacity="0.85" text-anchor="end" transform="rotate(-30 482.0 252.0)">tropical-rainforest</text>
<rect x="514.7" y="123.2" width="48.3" height="112.8" fill="#5b8dd9" rx="2" />
<text x="538.8" y="119.2" font-size="11" fill="currentColor" text-anchor="middle">282</text>
<text x="538.8" y="252.0" font-size="11" fill="currentColor" opacity="0.85" text-anchor="end" transform="rotate(-30 538.8 252.0)">tropical-seasonal-forest</text>
<rect x="571.5" y="143.6" width="48.3" height="92.4" fill="#5b8dd9" rx="2" />
<text x="595.6" y="139.6" font-size="11" fill="currentColor" text-anchor="middle">231</text>
<text x="595.6" y="252.0" font-size="11" fill="currentColor" opacity="0.85" text-anchor="end" transform="rotate(-30 595.6 252.0)">absent</text>
</svg>
