<svg viewBox="0 0 640 300" width="100%" xmlns="http://www.w3.org/2000/svg" font-family="ui-sans-serif, system-ui, sans-serif">
<text x="56" y="20" font-size="13" font-weight="600" fill="currentColor">pop-weighted-abs-latitude — default</text>
<line x1="56.0" y1="186.0" x2="624.0" y2="186.0" stroke="currentColor" stroke-opacity="0.15" stroke-width="1" />
<text x="50" y="186.0" font-size="11" fill="currentColor" opacity="0.75" text-anchor="end">125</text>
<line x1="56.0" y1="136.0" x2="624.0" y2="136.0" stroke="currentColor" stroke-opacity="0.15" stroke-width="1" />
<text x="50" y="136.0" font-size="11" fill="currentColor" opacity="0.75" text-anchor="end">250</text>
<line x1="56.0" y1="86.0" x2="624.0" y2="86.0" stroke="currentColor" stroke-opacity="0.15" stroke-width="1" />
<text x="50" y="86.0" font-size="11" fill="currentColor" opacity="0.75" text-anchor="end">375</text>
<line x1="56.0" y1="36.0" x2="624.0" y2="36.0" stroke="currentColor" stroke-opacity="0.15" stroke-width="1" />
<text x="50" y="36.0" font-size="11" fill="currentColor" opacity="0.75" text-anchor="end">500</text>
<text x="91.5" y="232.0" font-size="11" fill="currentColor" text-anchor="middle">0</text>
<text x="91.5" y="252.0" font-size="11" fill="currentColor" opacity="0.85" text-anchor="middle">&lt; 0</text>
<rect x="132.3" y="128.0" width="60.4" height="108.0" fill="#5b8dd9" rx="2" />
<text x="162.5" y="124.0" font-size="11" fill="currentColor" text-anchor="middle">270</text>
<text x="162.5" y="252.0" font-size="11" fill="currentColor" opacity="0.85" text-anchor="middle">[0, 10)</text>
<rect x="203.3" y="49.2" width="60.4" height="186.8" fill="#5b8dd9" rx="2" />
<text x="233.5" y="45.2" font-size="11" fill="currentColor" text-anchor="middle">467</text>
<text x="233.5" y="252.0" font-size="11" fill="currentColor" opacity="0.85" text-anchor="middle">[10, 20)</text>
<rect x="274.3" y="163.6" width="60.4" height="72.4" fill="#5b8dd9" rx="2" />
<text x="304.5" y="159.6" font-size="11" fill="currentColor" text-anchor="middle">181</text>
<text x="304.5" y="252.0" font-size="11" fill="currentColor" opacity="0.85" text-anchor="middle">[20, 30)</text>
<rect x="345.3" y="213.6" width="60.4" height="22.4" fill="#5b8dd9" rx="2" />
<text x="375.5" y="209.6" font-size="11" fill="currentColor" text-anchor="middle">56</text>
<text x="375.5" y="252.0" font-size="11" fill="currentColor" opacity="0.85" text-anchor="middle">[30, 40)</text>
<rect x="416.3" y="228.0" width="60.4" height="8.0" fill="#5b8dd9" rx="2" />
<text x="446.5" y="224.0" font-size="11" fill="currentColor" text-anchor="middle">20</text>
<text x="446.5" y="252.0" font-size="11" fill="currentColor" opacity="0.85" text-anchor="middle">[40, 50)</text>
<rect x="487.3" y="234.0" width="60.4" height="2.0" fill="#5b8dd9" rx="2" />
<text x="517.5" y="230.0" font-size="11" fill="currentColor" text-anchor="middle">5</text>
<text x="517.5" y="252.0" font-size="11" fill="currentColor" opacity="0.85" text-anchor="middle">[50, 60)</text>
<rect x="558.3" y="235.6" width="60.4" height="0.4" fill="#5b8dd9" rx="2" />
<text x="588.5" y="231.6" font-size="11" fill="currentColor" text-anchor="middle">1</text>
<text x="588.5" y="252.0" font-size="11" fill="currentColor" opacity="0.85" text-anchor="middle">&gt;= 60</text>
</svg>
