<svg viewBox="0 0 640 300" width="100%" xmlns="http://www.w3.org/2000/svg" font-family="ui-sans-serif, system-ui, sans-serif">
<text x="56" y="20" font-size="13" font-weight="600" fill="currentColor">homophony-count-goblin — default</text>
<line x1="56.0" y1="186.0" x2="624.0" y2="186.0" stroke="currentColor" stroke-opacity="0.15" stroke-width="1" />
<text x="50" y="186.0" font-size="11" fill="currentColor" opacity="0.75" text-anchor="end">125</text>
<line x1="56.0" y1="136.0" x2="624.0" y2="136.0" stroke="currentColor" stroke-opacity="0.15" stroke-width="1" />
<text x="50" y="136.0" font-size="11" fill="currentColor" opacity="0.75" text-anchor="end">250</text>
<line x1="56.0" y1="86.0" x2="624.0" y2="86.0" stroke="currentColor" stroke-opacity="0.15" stroke-width="1" />
<text x="50" y="86.0" font-size="11" fill="currentColor" opacity="0.75" text-anchor="end">375</text>
<line x1="56.0" y1="36.0" x2="624.0" y2="36.0" stroke="currentColor" stroke-opacity="0.15" stroke-width="1" />
<text x="50" y="36.0" font-size="11" fill="currentColor" opacity="0.75" text-anchor="end">500</text>
<text x="91.5" y="232.0" font-size="11" fill="currentColor" text-anchor="middle">0</text>
<text x="91.5" y="252.0" font-size="11" fill="currentColor" opacity="0.85" text-anchor="middle">&lt; 0</text>
<rect x="132.3" y="76.4" width="60.4" height="159.6" fill="#5b8dd9" rx="2" />
<text x="162.5" y="72.4" font-size="11" fill="currentColor" text-anchor="middle">399</text>
<text x="162.5" y="252.0" font-size="11" fill="currentColor" opacity="0.85" text-anchor="middle">[0, 1)</text>
<rect x="203.3" y="151.6" width="60.4" height="84.4" fill="#5b8dd9" rx="2" />
<text x="233.5" y="147.6" font-size="11" fill="currentColor" text-anchor="middle">211</text>
<text x="233.5" y="252.0" font-size="11" fill="currentColor" opacity="0.85" text-anchor="middle">[1, 2)</text>
<rect x="274.3" y="174.0" width="60.4" height="62.0" fill="#5b8dd9" rx="2" />
<text x="304.5" y="170.0" font-size="11" fill="currentColor" text-anchor="middle">155</text>
<text x="304.5" y="252.0" font-size="11" fill="currentColor" opacity="0.85" text-anchor="middle">[2, 3)</text>
<rect x="345.3" y="188.0" width="60.4" height="48.0" fill="#5b8dd9" rx="2" />
<text x="375.5" y="184.0" font-size="11" fill="currentColor" text-anchor="middle">120</text>
<text x="375.5" y="252.0" font-size="11" fill="currentColor" opacity="0.85" text-anchor="middle">[3, 5)</text>
<rect x="416.3" y="208.4" width="60.4" height="27.6" fill="#5b8dd9" rx="2" />
<text x="446.5" y="204.4" font-size="11" fill="currentColor" text-anchor="middle">69</text>
<text x="446.5" y="252.0" font-size="11" fill="currentColor" opacity="0.85" text-anchor="middle">[5, 8)</text>
<rect x="487.3" y="223.6" width="60.4" height="12.4" fill="#5b8dd9" rx="2" />
<text x="517.5" y="219.6" font-size="11" fill="currentColor" text-anchor="middle">31</text>
<text x="517.5" y="252.0" font-size="11" fill="currentColor" opacity="0.85" text-anchor="middle">[8, 12)</text>
<rect x="558.3" y="230.0" width="60.4" height="6.0" fill="#5b8dd9" rx="2" />
<text x="588.5" y="226.0" font-size="11" fill="currentColor" text-anchor="middle">15</text>
<text x="588.5" y="252.0" font-size="11" fill="currentColor" opacity="0.85" text-anchor="middle">&gt;= 12</text>
</svg>
