<svg viewBox="0 0 640 300" width="100%" xmlns="http://www.w3.org/2000/svg" font-family="ui-sans-serif, system-ui, sans-serif">
<text x="56" y="20" font-size="13" font-weight="600" fill="currentColor">first-day-occ-cause-plague — default</text>
<line x1="56.0" y1="186.0" x2="624.0" y2="186.0" stroke="currentColor" stroke-opacity="0.15" stroke-width="1" />
<text x="50" y="186.0" font-size="11" fill="currentColor" opacity="0.75" text-anchor="end">125</text>
<line x1="56.0" y1="136.0" x2="624.0" y2="136.0" stroke="currentColor" stroke-opacity="0.15" stroke-width="1" />
<text x="50" y="136.0" font-size="11" fill="currentColor" opacity="0.75" text-anchor="end">250</text>
<line x1="56.0" y1="86.0" x2="624.0" y2="86.0" stroke="currentColor" stroke-opacity="0.15" stroke-width="1" />
<text x="50" y="86.0" font-size="11" fill="currentColor" opacity="0.75" text-anchor="end">375</text>
<line x1="56.0" y1="36.0" x2="624.0" y2="36.0" stroke="currentColor" stroke-opacity="0.15" stroke-width="1" />
<text x="50" y="36.0" font-size="11" fill="currentColor" opacity="0.75" text-anchor="end">500</text>
<text x="91.5" y="232.0" font-size="11" fill="currentColor" text-anchor="middle">0</text>
<text x="91.5" y="252.0" font-size="11" fill="currentColor" opacity="0.85" text-anchor="end" transform="rotate(-30 91.5 252.0)">&lt; 0</text>
<rect x="132.3" y="221.2" width="60.4" height="14.8" fill="#5b8dd9" rx="2" />
<text x="162.5" y="217.2" font-size="11" fill="currentColor" text-anchor="middle">37</text>
<text x="162.5" y="252.0" font-size="11" fill="currentColor" opacity="0.85" text-anchor="end" transform="rotate(-30 162.5 252.0)">[0, 50000)</text>
<rect x="203.3" y="197.2" width="60.4" height="38.8" fill="#5b8dd9" rx="2" />
<text x="233.5" y="193.2" font-size="11" fill="currentColor" text-anchor="middle">97</text>
<text x="233.5" y="252.0" font-size="11" fill="currentColor" opacity="0.85" text-anchor="end" transform="rotate(-30 233.5 252.0)">[50000, 150000)</text>
<rect x="274.3" y="165.6" width="60.4" height="70.4" fill="#5b8dd9" rx="2" />
<text x="304.5" y="161.6" font-size="11" fill="currentColor" text-anchor="middle">176</text>
<text x="304.5" y="252.0" font-size="11" fill="currentColor" opacity="0.85" text-anchor="end" transform="rotate(-30 304.5 252.0)">[150000, 300000)</text>
<rect x="345.3" y="144.4" width="60.4" height="91.6" fill="#5b8dd9" rx="2" />
<text x="375.5" y="140.4" font-size="11" fill="currentColor" text-anchor="middle">229</text>
<text x="375.5" y="252.0" font-size="11" fill="currentColor" opacity="0.85" text-anchor="end" transform="rotate(-30 375.5 252.0)">[300000, 500000)</text>
<rect x="416.3" y="156.0" width="60.4" height="80.0" fill="#5b8dd9" rx="2" />
<text x="446.5" y="152.0" font-size="11" fill="currentColor" text-anchor="middle">200</text>
<text x="446.5" y="252.0" font-size="11" fill="currentColor" opacity="0.85" text-anchor="end" transform="rotate(-30 446.5 252.0)">[500000, 750000)</text>
<text x="517.5" y="232.0" font-size="11" fill="currentColor" text-anchor="middle">0</text>
<text x="517.5" y="252.0" font-size="11" fill="currentColor" opacity="0.85" text-anchor="end" transform="rotate(-30 517.5 252.0)">&gt;= 750000</text>
<rect x="558.3" y="131.6" width="60.4" height="104.4" fill="#5b8dd9" rx="2" />
<text x="588.5" y="127.6" font-size="11" fill="currentColor" text-anchor="middle">261</text>
<text x="588.5" y="252.0" font-size="11" fill="currentColor" opacity="0.85" text-anchor="end" transform="rotate(-30 588.5 252.0)">absent</text>
</svg>
