<svg viewBox="0 0 640 300" width="100%" xmlns="http://www.w3.org/2000/svg" font-family="ui-sans-serif, system-ui, sans-serif">
<text x="56" y="20" font-size="13" font-weight="600" fill="currentColor">name-length-kobold — default</text>
<line x1="56.0" y1="186.0" x2="624.0" y2="186.0" stroke="currentColor" stroke-opacity="0.15" stroke-width="1" />
<text x="50" y="186.0" font-size="11" fill="currentColor" opacity="0.75" text-anchor="end">250</text>
<line x1="56.0" y1="136.0" x2="624.0" y2="136.0" stroke="currentColor" stroke-opacity="0.15" stroke-width="1" />
<text x="50" y="136.0" font-size="11" fill="currentColor" opacity="0.75" text-anchor="end">500</text>
<line x1="56.0" y1="86.0" x2="624.0" y2="86.0" stroke="currentColor" stroke-opacity="0.15" stroke-width="1" />
<text x="50" y="86.0" font-size="11" fill="currentColor" opacity="0.75" text-anchor="end">750</text>
<line x1="56.0" y1="36.0" x2="624.0" y2="36.0" stroke="currentColor" stroke-opacity="0.15" stroke-width="1" />
<text x="50" y="36.0" font-size="11" fill="currentColor" opacity="0.75" text-anchor="end">1000</text>
<text x="81.8" y="232.0" font-size="11" fill="currentColor" text-anchor="middle">0</text>
<text x="81.8" y="252.0" font-size="11" fill="currentColor" opacity="0.85" text-anchor="middle">&lt; 2</text>
<text x="133.5" y="232.0" font-size="11" fill="currentColor" text-anchor="middle">0</text>
<text x="133.5" y="252.0" font-size="11" fill="currentColor" opacity="0.85" text-anchor="middle">[2, 3)</text>
<rect x="163.1" y="235.6" width="43.9" height="0.4" fill="#5b8dd9" rx="2" />
<text x="185.1" y="231.6" font-size="11" fill="currentColor" text-anchor="middle">2</text>
<text x="185.1" y="252.0" font-size="11" fill="currentColor" opacity="0.85" text-anchor="middle">[3, 4)</text>
<rect x="214.8" y="234.8" width="43.9" height="1.2" fill="#5b8dd9" rx="2" />
<text x="236.7" y="230.8" font-size="11" fill="currentColor" text-anchor="middle">6</text>
<text x="236.7" y="252.0" font-size="11" fill="currentColor" opacity="0.85" text-anchor="middle">[4, 5)</text>
<rect x="266.4" y="233.4" width="43.9" height="2.6" fill="#5b8dd9" rx="2" />
<text x="288.4" y="229.4" font-size="11" fill="currentColor" text-anchor="middle">13</text>
<text x="288.4" y="252.0" font-size="11" fill="currentColor" opacity="0.85" text-anchor="middle">[5, 6)</text>
<rect x="318.1" y="231.8" width="43.9" height="4.2" fill="#5b8dd9" rx="2" />
<text x="340.0" y="227.8" font-size="11" fill="currentColor" text-anchor="middle">21</text>
<text x="340.0" y="252.0" font-size="11" fill="currentColor" opacity="0.85" text-anchor="middle">[6, 7)</text>
<rect x="369.7" y="230.0" width="43.9" height="6.0" fill="#5b8dd9" rx="2" />
<text x="391.6" y="226.0" font-size="11" fill="currentColor" text-anchor="middle">30</text>
<text x="391.6" y="252.0" font-size="11" fill="currentColor" opacity="0.85" text-anchor="middle">[7, 8)</text>
<rect x="421.3" y="229.4" width="43.9" height="6.6" fill="#5b8dd9" rx="2" />
<text x="443.3" y="225.4" font-size="11" fill="currentColor" text-anchor="middle">33</text>
<text x="443.3" y="252.0" font-size="11" fill="currentColor" opacity="0.85" text-anchor="middle">[8, 9)</text>
<rect x="473.0" y="229.2" width="43.9" height="6.8" fill="#5b8dd9" rx="2" />
<text x="494.9" y="225.2" font-size="11" fill="currentColor" text-anchor="middle">34</text>
<text x="494.9" y="252.0" font-size="11" fill="currentColor" opacity="0.85" text-anchor="middle">[9, 10)</text>
<rect x="524.6" y="218.8" width="43.9" height="17.2" fill="#5b8dd9" rx="2" />
<text x="546.5" y="214.8" font-size="11" fill="currentColor" text-anchor="middle">86</text>
<text x="546.5" y="252.0" font-size="11" fill="currentColor" opacity="0.85" text-anchor="middle">&gt;= 10</text>
<rect x="576.2" y="81.0" width="43.9" height="155.0" fill="#5b8dd9" rx="2" />
<text x="598.2" y="77.0" font-size="11" fill="currentColor" text-anchor="middle">775</text>
<text x="598.2" y="252.0" font-size="11" fill="currentColor" opacity="0.85" text-anchor="middle">absent</text>
</svg>
