<svg viewBox="0 0 640 300" width="100%" xmlns="http://www.w3.org/2000/svg" font-family="ui-sans-serif, system-ui, sans-serif">
<text x="56" y="20" font-size="13" font-weight="600" fill="currentColor">total-population — default</text>
<line x1="56.0" y1="186.0" x2="624.0" y2="186.0" stroke="currentColor" stroke-opacity="0.15" stroke-width="1" />
<text x="50" y="186.0" font-size="11" fill="currentColor" opacity="0.75" text-anchor="end">125</text>
<line x1="56.0" y1="136.0" x2="624.0" y2="136.0" stroke="currentColor" stroke-opacity="0.15" stroke-width="1" />
<text x="50" y="136.0" font-size="11" fill="currentColor" opacity="0.75" text-anchor="end">250</text>
<line x1="56.0" y1="86.0" x2="624.0" y2="86.0" stroke="currentColor" stroke-opacity="0.15" stroke-width="1" />
<text x="50" y="86.0" font-size="11" fill="currentColor" opacity="0.75" text-anchor="end">375</text>
<line x1="56.0" y1="36.0" x2="624.0" y2="36.0" stroke="currentColor" stroke-opacity="0.15" stroke-width="1" />
<text x="50" y="36.0" font-size="11" fill="currentColor" opacity="0.75" text-anchor="end">500</text>
<text x="91.5" y="232.0" font-size="11" fill="currentColor" text-anchor="middle">0</text>
<text x="91.5" y="252.0" font-size="11" fill="currentColor" opacity="0.85" text-anchor="end" transform="rotate(-30 91.5 252.0)">&lt; 0</text>
<rect x="132.3" y="221.6" width="60.4" height="14.4" fill="#5b8dd9" rx="2" />
<text x="162.5" y="217.6" font-size="11" fill="currentColor" text-anchor="middle">36</text>
<text x="162.5" y="252.0" font-size="11" fill="currentColor" opacity="0.85" text-anchor="end" transform="rotate(-30 162.5 252.0)">[0, 500)</text>
<rect x="203.3" y="215.2" width="60.4" height="20.8" fill="#5b8dd9" rx="2" />
<text x="233.5" y="211.2" font-size="11" fill="currentColor" text-anchor="middle">52</text>
<text x="233.5" y="252.0" font-size="11" fill="currentColor" opacity="0.85" text-anchor="end" transform="rotate(-30 233.5 252.0)">[500, 1000)</text>
<rect x="274.3" y="205.6" width="60.4" height="30.4" fill="#5b8dd9" rx="2" />
<text x="304.5" y="201.6" font-size="11" fill="currentColor" text-anchor="middle">76</text>
<text x="304.5" y="252.0" font-size="11" fill="currentColor" opacity="0.85" text-anchor="end" transform="rotate(-30 304.5 252.0)">[1000, 2000)</text>
<rect x="345.3" y="172.0" width="60.4" height="64.0" fill="#5b8dd9" rx="2" />
<text x="375.5" y="168.0" font-size="11" fill="currentColor" text-anchor="middle">160</text>
<text x="375.5" y="252.0" font-size="11" fill="currentColor" opacity="0.85" text-anchor="end" transform="rotate(-30 375.5 252.0)">[2000, 4000)</text>
<rect x="416.3" y="87.2" width="60.4" height="148.8" fill="#5b8dd9" rx="2" />
<text x="446.5" y="83.2" font-size="11" fill="currentColor" text-anchor="middle">372</text>
<text x="446.5" y="252.0" font-size="11" fill="currentColor" opacity="0.85" text-anchor="end" transform="rotate(-30 446.5 252.0)">[4000, 8000)</text>
<rect x="487.3" y="205.2" width="60.4" height="30.8" fill="#5b8dd9" rx="2" />
<text x="517.5" y="201.2" font-size="11" fill="currentColor" text-anchor="middle">77</text>
<text x="517.5" y="252.0" font-size="11" fill="currentColor" opacity="0.85" text-anchor="end" transform="rotate(-30 517.5 252.0)">&gt;= 8000</text>
<rect x="558.3" y="145.2" width="60.4" height="90.8" fill="#5b8dd9" rx="2" />
<text x="588.5" y="141.2" font-size="11" fill="currentColor" text-anchor="middle">227</text>
<text x="588.5" y="252.0" font-size="11" fill="currentColor" opacity="0.85" text-anchor="end" transform="rotate(-30 588.5 252.0)">absent</text>
</svg>
