<svg viewBox="0 0 640 300" width="100%" xmlns="http://www.w3.org/2000/svg" font-family="ui-sans-serif, system-ui, sans-serif">
<text x="56" y="20" font-size="13" font-weight="600" fill="currentColor">flagship-biome — default</text>
<line x1="56.0" y1="186.0" x2="624.0" y2="186.0" stroke="currentColor" stroke-opacity="0.15" stroke-width="1" />
<text x="50" y="186.0" font-size="11" fill="currentColor" opacity="0.75" text-anchor="end">250</text>
<line x1="56.0" y1="136.0" x2="624.0" y2="136.0" stroke="currentColor" stroke-opacity="0.15" stroke-width="1" />
<text x="50" y="136.0" font-size="11" fill="currentColor" opacity="0.75" text-anchor="end">500</text>
<line x1="56.0" y1="86.0" x2="624.0" y2="86.0" stroke="currentColor" stroke-opacity="0.15" stroke-width="1" />
<text x="50" y="86.0" font-size="11" fill="currentColor" opacity="0.75" text-anchor="end">750</text>
<line x1="56.0" y1="36.0" x2="624.0" y2="36.0" stroke="currentColor" stroke-opacity="0.15" stroke-width="1" />
<text x="50" y="36.0" font-size="11" fill="currentColor" opacity="0.75" text-anchor="end">1000</text>
<rect x="59.9" y="235.0" width="43.9" height="1.0" fill="#5b8dd9" rx="2" />
<text x="81.8" y="231.0" font-size="11" fill="currentColor" text-anchor="middle">5</text>
<text x="81.8" y="252.0" font-size="11" fill="currentColor" opacity="0.85" text-anchor="end" transform="rotate(-30 81.8 252.0)">alpine</text>
<rect x="111.5" y="234.0" width="43.9" height="2.0" fill="#5b8dd9" rx="2" />
<text x="133.5" y="230.0" font-size="11" fill="currentColor" text-anchor="middle">10</text>
<text x="133.5" y="252.0" font-size="11" fill="currentColor" opacity="0.85" text-anchor="end" transform="rotate(-30 133.5 252.0)">savanna</text>
<rect x="163.1" y="230.4" width="43.9" height="5.6" fill="#5b8dd9" rx="2" />
<text x="185.1" y="226.4" font-size="11" fill="currentColor" text-anchor="middle">28</text>
<text x="185.1" y="252.0" font-size="11" fill="currentColor" opacity="0.85" text-anchor="end" transform="rotate(-30 185.1 252.0)">shrubland</text>
<rect x="214.8" y="214.0" width="43.9" height="22.0" fill="#5b8dd9" rx="2" />
<text x="236.7" y="210.0" font-size="11" fill="currentColor" text-anchor="middle">110</text>
<text x="236.7" y="252.0" font-size="11" fill="currentColor" opacity="0.85" text-anchor="end" transform="rotate(-30 236.7 252.0)">taiga</text>
<rect x="266.4" y="126.8" width="43.9" height="109.2" fill="#5b8dd9" rx="2" />
<text x="288.4" y="122.8" font-size="11" fill="currentColor" text-anchor="middle">546</text>
<text x="288.4" y="252.0" font-size="11" fill="currentColor" opacity="0.85" text-anchor="end" transform="rotate(-30 288.4 252.0)">temperate-forest</text>
<rect x="318.1" y="235.4" width="43.9" height="0.6" fill="#5b8dd9" rx="2" />
<text x="340.0" y="231.4" font-size="11" fill="currentColor" text-anchor="middle">3</text>
<text x="340.0" y="252.0" font-size="11" fill="currentColor" opacity="0.85" text-anchor="end" transform="rotate(-30 340.0 252.0)">temperate-grassland</text>
<rect x="369.7" y="233.0" width="43.9" height="3.0" fill="#5b8dd9" rx="2" />
<text x="391.6" y="229.0" font-size="11" fill="currentColor" text-anchor="middle">15</text>
<text x="391.6" y="252.0" font-size="11" fill="currentColor" opacity="0.85" text-anchor="end" transform="rotate(-30 391.6 252.0)">temperate-rainforest</text>
<rect x="421.3" y="234.2" width="43.9" height="1.8" fill="#5b8dd9" rx="2" />
<text x="443.3" y="230.2" font-size="11" fill="currentColor" text-anchor="middle">9</text>
<text x="443.3" y="252.0" font-size="11" fill="currentColor" opacity="0.85" text-anchor="end" transform="rotate(-30 443.3 252.0)">tropical-rainforest</text>
<rect x="473.0" y="183.2" width="43.9" height="52.8" fill="#5b8dd9" rx="2" />
<text x="494.9" y="179.2" font-size="11" fill="currentColor" text-anchor="middle">264</text>
<text x="494.9" y="252.0" font-size="11" fill="currentColor" opacity="0.85" text-anchor="end" transform="rotate(-30 494.9 252.0)">tropical-seasonal-forest</text>
<rect x="524.6" y="235.8" width="43.9" height="0.2" fill="#5b8dd9" rx="2" />
<text x="546.5" y="231.8" font-size="11" fill="currentColor" text-anchor="middle">1</text>
<text x="546.5" y="252.0" font-size="11" fill="currentColor" opacity="0.85" text-anchor="end" transform="rotate(-30 546.5 252.0)">tundra</text>
<rect x="576.2" y="234.2" width="43.9" height="1.8" fill="#5b8dd9" rx="2" />
<text x="598.2" y="230.2" font-size="11" fill="currentColor" text-anchor="middle">9</text>
<text x="598.2" y="252.0" font-size="11" fill="currentColor" opacity="0.85" text-anchor="end" transform="rotate(-30 598.2 252.0)">absent</text>
</svg>
