<svg viewBox="0 0 640 300" width="100%" xmlns="http://www.w3.org/2000/svg" font-family="ui-sans-serif, system-ui, sans-serif">
<text x="56" y="20" font-size="13" font-weight="600" fill="currentColor">belief-kind-bugbear — default</text>
<line x1="56.0" y1="186.0" x2="624.0" y2="186.0" stroke="currentColor" stroke-opacity="0.15" stroke-width="1" />
<text x="50" y="186.0" font-size="11" fill="currentColor" opacity="0.75" text-anchor="end">250</text>
<line x1="56.0" y1="136.0" x2="624.0" y2="136.0" stroke="currentColor" stroke-opacity="0.15" stroke-width="1" />
<text x="50" y="136.0" font-size="11" fill="currentColor" opacity="0.75" text-anchor="end">500</text>
<line x1="56.0" y1="86.0" x2="624.0" y2="86.0" stroke="currentColor" stroke-opacity="0.15" stroke-width="1" />
<text x="50" y="86.0" font-size="11" fill="currentColor" opacity="0.75" text-anchor="end">750</text>
<line x1="56.0" y1="36.0" x2="624.0" y2="36.0" stroke="currentColor" stroke-opacity="0.15" stroke-width="1" />
<text x="50" y="36.0" font-size="11" fill="currentColor" opacity="0.75" text-anchor="end">1000</text>
<rect x="66.7" y="222.6" width="120.7" height="13.4" fill="#5b8dd9" rx="2" />
<text x="127.0" y="218.6" font-size="11" fill="currentColor" text-anchor="middle">67</text>
<text x="127.0" y="252.0" font-size="11" fill="currentColor" opacity="0.85" text-anchor="middle">ambient</text>
<rect x="208.7" y="97.4" width="120.7" height="138.6" fill="#5b8dd9" rx="2" />
<text x="269.0" y="93.4" font-size="11" fill="currentColor" text-anchor="middle">693</text>
<text x="269.0" y="252.0" font-size="11" fill="currentColor" opacity="0.85" text-anchor="middle">cyclic</text>
<rect x="350.6" y="234.2" width="120.7" height="1.8" fill="#5b8dd9" rx="2" />
<text x="411.0" y="230.2" font-size="11" fill="currentColor" text-anchor="middle">9</text>
<text x="411.0" y="252.0" font-size="11" fill="currentColor" opacity="0.85" text-anchor="middle">eternal</text>
<rect x="492.6" y="189.8" width="120.7" height="46.2" fill="#5b8dd9" rx="2" />
<text x="553.0" y="185.8" font-size="11" fill="currentColor" text-anchor="middle">231</text>
<text x="553.0" y="252.0" font-size="11" fill="currentColor" opacity="0.85" text-anchor="middle">absent</text>
</svg>
