<svg viewBox="0 0 640 300" width="100%" xmlns="http://www.w3.org/2000/svg" font-family="ui-sans-serif, system-ui, sans-serif">
<text x="56" y="20" font-size="13" font-weight="600" fill="currentColor">plate-count — default</text>
<line x1="56.0" y1="186.0" x2="624.0" y2="186.0" stroke="currentColor" stroke-opacity="0.15" stroke-width="1" />
<text x="50" y="186.0" font-size="11" fill="currentColor" opacity="0.75" text-anchor="end">12.5</text>
<line x1="56.0" y1="136.0" x2="624.0" y2="136.0" stroke="currentColor" stroke-opacity="0.15" stroke-width="1" />
<text x="50" y="136.0" font-size="11" fill="currentColor" opacity="0.75" text-anchor="end">25</text>
<line x1="56.0" y1="86.0" x2="624.0" y2="86.0" stroke="currentColor" stroke-opacity="0.15" stroke-width="1" />
<text x="50" y="86.0" font-size="11" fill="currentColor" opacity="0.75" text-anchor="end">37.5</text>
<line x1="56.0" y1="36.0" x2="624.0" y2="36.0" stroke="currentColor" stroke-opacity="0.15" stroke-width="1" />
<text x="50" y="36.0" font-size="11" fill="currentColor" opacity="0.75" text-anchor="end">50</text>
<rect x="57.3" y="120.0" width="14.6" height="116.0" fill="#5b8dd9" rx="2" />
<text x="64.6" y="116.0" font-size="11" fill="currentColor" text-anchor="middle">29</text>
<text x="64.6" y="252.0" font-size="11" fill="currentColor" opacity="0.85" text-anchor="middle">10</text>
<rect x="74.5" y="100.0" width="14.6" height="136.0" fill="#5b8dd9" rx="2" />
<text x="81.8" y="96.0" font-size="11" fill="currentColor" text-anchor="middle">34</text>
<text x="81.8" y="252.0" font-size="11" fill="currentColor" opacity="0.85" text-anchor="middle">11</text>
<rect x="91.7" y="124.0" width="14.6" height="112.0" fill="#5b8dd9" rx="2" />
<text x="99.0" y="120.0" font-size="11" fill="currentColor" text-anchor="middle">28</text>
<text x="99.0" y="252.0" font-size="11" fill="currentColor" opacity="0.85" text-anchor="middle">12</text>
<rect x="108.9" y="120.0" width="14.6" height="116.0" fill="#5b8dd9" rx="2" />
<text x="116.2" y="116.0" font-size="11" fill="currentColor" text-anchor="middle">29</text>
<text x="116.2" y="252.0" font-size="11" fill="currentColor" opacity="0.85" text-anchor="middle">13</text>
<rect x="126.1" y="152.0" width="14.6" height="84.0" fill="#5b8dd9" rx="2" />
<text x="133.5" y="148.0" font-size="11" fill="currentColor" text-anchor="middle">21</text>
<text x="133.5" y="252.0" font-size="11" fill="currentColor" opacity="0.85" text-anchor="middle">14</text>
<rect x="143.4" y="88.0" width="14.6" height="148.0" fill="#5b8dd9" rx="2" />
<text x="150.7" y="84.0" font-size="11" fill="currentColor" text-anchor="middle">37</text>
<text x="150.7" y="252.0" font-size="11" fill="currentColor" opacity="0.85" text-anchor="middle">15</text>
<rect x="160.6" y="112.0" width="14.6" height="124.0" fill="#5b8dd9" rx="2" />
<text x="167.9" y="108.0" font-size="11" fill="currentColor" text-anchor="middle">31</text>
<text x="167.9" y="252.0" font-size="11" fill="currentColor" opacity="0.85" text-anchor="middle">16</text>
<rect x="177.8" y="116.0" width="14.6" height="120.0" fill="#5b8dd9" rx="2" />
<text x="185.1" y="112.0" font-size="11" fill="currentColor" text-anchor="middle">30</text>
<text x="185.1" y="252.0" font-size="11" fill="currentColor" opacity="0.85" text-anchor="middle">17</text>
<rect x="195.0" y="152.0" width="14.6" height="84.0" fill="#5b8dd9" rx="2" />
<text x="202.3" y="148.0" font-size="11" fill="currentColor" text-anchor="middle">21</text>
<text x="202.3" y="252.0" font-size="11" fill="currentColor" opacity="0.85" text-anchor="middle">18</text>
<rect x="212.2" y="108.0" width="14.6" height="128.0" fill="#5b8dd9" rx="2" />
<text x="219.5" y="104.0" font-size="11" fill="currentColor" text-anchor="middle">32</text>
<text x="219.5" y="252.0" font-size="11" fill="currentColor" opacity="0.85" text-anchor="middle">19</text>
<rect x="229.4" y="132.0" width="14.6" height="104.0" fill="#5b8dd9" rx="2" />
<text x="236.7" y="128.0" font-size="11" fill="currentColor" text-anchor="middle">26</text>
<text x="236.7" y="252.0" font-size="11" fill="currentColor" opacity="0.85" text-anchor="middle">20</text>
<rect x="246.6" y="108.0" width="14.6" height="128.0" fill="#5b8dd9" rx="2" />
<text x="253.9" y="104.0" font-size="11" fill="currentColor" text-anchor="middle">32</text>
<text x="253.9" y="252.0" font-size="11" fill="currentColor" opacity="0.85" text-anchor="middle">21</text>
<rect x="263.8" y="144.0" width="14.6" height="92.0" fill="#5b8dd9" rx="2" />
<text x="271.2" y="140.0" font-size="11" fill="currentColor" text-anchor="middle">23</text>
<text x="271.2" y="252.0" font-size="11" fill="currentColor" opacity="0.85" text-anchor="middle">22</text>
<rect x="281.0" y="88.0" width="14.6" height="148.0" fill="#5b8dd9" rx="2" />
<text x="288.4" y="84.0" font-size="11" fill="currentColor" text-anchor="middle">37</text>
<text x="288.4" y="252.0" font-size="11" fill="currentColor" opacity="0.85" text-anchor="middle">23</text>
<rect x="298.3" y="96.0" width="14.6" height="140.0" fill="#5b8dd9" rx="2" />
<text x="305.6" y="92.0" font-size="11" fill="currentColor" text-anchor="middle">35</text>
<text x="305.6" y="252.0" font-size="11" fill="currentColor" opacity="0.85" text-anchor="middle">24</text>
<rect x="315.5" y="128.0" width="14.6" height="108.0" fill="#5b8dd9" rx="2" />
<text x="322.8" y="124.0" font-size="11" fill="currentColor" text-anchor="middle">27</text>
<text x="322.8" y="252.0" font-size="11" fill="currentColor" opacity="0.85" text-anchor="middle">25</text>
<rect x="332.7" y="124.0" width="14.6" height="112.0" fill="#5b8dd9" rx="2" />
<text x="340.0" y="120.0" font-size="11" fill="currentColor" text-anchor="middle">28</text>
<text x="340.0" y="252.0" font-size="11" fill="currentColor" opacity="0.85" text-anchor="middle">26</text>
<rect x="349.9" y="52.0" width="14.6" height="184.0" fill="#5b8dd9" rx="2" />
<text x="357.2" y="48.0" font-size="11" fill="currentColor" text-anchor="middle">46</text>
<text x="357.2" y="252.0" font-size="11" fill="currentColor" opacity="0.85" text-anchor="middle">27</text>
<rect x="367.1" y="116.0" width="14.6" height="120.0" fill="#5b8dd9" rx="2" />
<text x="374.4" y="112.0" font-size="11" fill="currentColor" text-anchor="middle">30</text>
<text x="374.4" y="252.0" font-size="11" fill="currentColor" opacity="0.85" text-anchor="middle">28</text>
<rect x="384.3" y="140.0" width="14.6" height="96.0" fill="#5b8dd9" rx="2" />
<text x="391.6" y="136.0" font-size="11" fill="currentColor" text-anchor="middle">24</text>
<text x="391.6" y="252.0" font-size="11" fill="currentColor" opacity="0.85" text-anchor="middle">29</text>
<rect x="401.5" y="60.0" width="14.6" height="176.0" fill="#5b8dd9" rx="2" />
<text x="408.8" y="56.0" font-size="11" fill="currentColor" text-anchor="middle">44</text>
<text x="408.8" y="252.0" font-size="11" fill="currentColor" opacity="0.85" text-anchor="middle">30</text>
<rect x="418.7" y="148.0" width="14.6" height="88.0" fill="#5b8dd9" rx="2" />
<text x="426.1" y="144.0" font-size="11" fill="currentColor" text-anchor="middle">22</text>
<text x="426.1" y="252.0" font-size="11" fill="currentColor" opacity="0.85" text-anchor="middle">31</text>
<rect x="436.0" y="100.0" width="14.6" height="136.0" fill="#5b8dd9" rx="2" />
<text x="443.3" y="96.0" font-size="11" fill="currentColor" text-anchor="middle">34</text>
<text x="443.3" y="252.0" font-size="11" fill="currentColor" opacity="0.85" text-anchor="middle">32</text>
<rect x="453.2" y="104.0" width="14.6" height="132.0" fill="#5b8dd9" rx="2" />
<text x="460.5" y="100.0" font-size="11" fill="currentColor" text-anchor="middle">33</text>
<text x="460.5" y="252.0" font-size="11" fill="currentColor" opacity="0.85" text-anchor="middle">33</text>
<rect x="470.4" y="96.0" width="14.6" height="140.0" fill="#5b8dd9" rx="2" />
<text x="477.7" y="92.0" font-size="11" fill="currentColor" text-anchor="middle">35</text>
<text x="477.7" y="252.0" font-size="11" fill="currentColor" opacity="0.85" text-anchor="middle">34</text>
<rect x="487.6" y="72.0" width="14.6" height="164.0" fill="#5b8dd9" rx="2" />
<text x="494.9" y="68.0" font-size="11" fill="currentColor" text-anchor="middle">41</text>
<text x="494.9" y="252.0" font-size="11" fill="currentColor" opacity="0.85" text-anchor="middle">35</text>
<rect x="504.8" y="132.0" width="14.6" height="104.0" fill="#5b8dd9" rx="2" />
<text x="512.1" y="128.0" font-size="11" fill="currentColor" text-anchor="middle">26</text>
<text x="512.1" y="252.0" font-size="11" fill="currentColor" opacity="0.85" text-anchor="middle">36</text>
<rect x="522.0" y="124.0" width="14.6" height="112.0" fill="#5b8dd9" rx="2" />
<text x="529.3" y="120.0" font-size="11" fill="currentColor" text-anchor="middle">28</text>
<text x="529.3" y="252.0" font-size="11" fill="currentColor" opacity="0.85" text-anchor="middle">37</text>
<rect x="539.2" y="112.0" width="14.6" height="124.0" fill="#5b8dd9" rx="2" />
<text x="546.5" y="108.0" font-size="11" fill="currentColor" text-anchor="middle">31</text>
<text x="546.5" y="252.0" font-size="11" fill="currentColor" opacity="0.85" text-anchor="middle">38</text>
<rect x="556.4" y="124.0" width="14.6" height="112.0" fill="#5b8dd9" rx="2" />
<text x="563.8" y="120.0" font-size="11" fill="currentColor" text-anchor="middle">28</text>
<text x="563.8" y="252.0" font-size="11" fill="currentColor" opacity="0.85" text-anchor="middle">39</text>
<rect x="573.7" y="124.0" width="14.6" height="112.0" fill="#5b8dd9" rx="2" />
<text x="581.0" y="120.0" font-size="11" fill="currentColor" text-anchor="middle">28</text>
<text x="581.0" y="252.0" font-size="11" fill="currentColor" opacity="0.85" text-anchor="middle">40</text>
<rect x="590.9" y="128.0" width="14.6" height="108.0" fill="#5b8dd9" rx="2" />
<text x="598.2" y="124.0" font-size="11" fill="currentColor" text-anchor="middle">27</text>
<text x="598.2" y="252.0" font-size="11" fill="currentColor" opacity="0.85" text-anchor="middle">8</text>
<rect x="608.1" y="144.0" width="14.6" height="92.0" fill="#5b8dd9" rx="2" />
<text x="615.4" y="140.0" font-size="11" fill="currentColor" text-anchor="middle">23</text>
<text x="615.4" y="252.0" font-size="11" fill="currentColor" opacity="0.85" text-anchor="middle">9</text>
</svg>
