<svg viewBox="0 0 640 300" width="100%" xmlns="http://www.w3.org/2000/svg" font-family="ui-sans-serif, system-ui, sans-serif">
<text x="56" y="20" font-size="13" font-weight="600" fill="currentColor">kobold-flagship-roles — default</text>
<line x1="56.0" y1="186.0" x2="624.0" y2="186.0" stroke="currentColor" stroke-opacity="0.15" stroke-width="1" />
<text x="50" y="186.0" font-size="11" fill="currentColor" opacity="0.75" text-anchor="end">250</text>
<line x1="56.0" y1="136.0" x2="624.0" y2="136.0" stroke="currentColor" stroke-opacity="0.15" stroke-width="1" />
<text x="50" y="136.0" font-size="11" fill="currentColor" opacity="0.75" text-anchor="end">500</text>
<line x1="56.0" y1="86.0" x2="624.0" y2="86.0" stroke="currentColor" stroke-opacity="0.15" stroke-width="1" />
<text x="50" y="86.0" font-size="11" fill="currentColor" opacity="0.75" text-anchor="end">750</text>
<line x1="56.0" y1="36.0" x2="624.0" y2="36.0" stroke="currentColor" stroke-opacity="0.15" stroke-width="1" />
<text x="50" y="36.0" font-size="11" fill="currentColor" opacity="0.75" text-anchor="end">1000</text>
<rect x="66.7" y="220.8" width="120.7" height="15.2" fill="#5b8dd9" rx="2" />
<text x="127.0" y="216.8" font-size="11" fill="currentColor" text-anchor="middle">76</text>
<text x="127.0" y="252.0" font-size="11" fill="currentColor" opacity="0.85" text-anchor="end" transform="rotate(-30 127.0 252.0)">digger,elders</text>
<rect x="208.7" y="82.0" width="120.7" height="154.0" fill="#5b8dd9" rx="2" />
<text x="269.0" y="78.0" font-size="11" fill="currentColor" text-anchor="middle">770</text>
<text x="269.0" y="252.0" font-size="11" fill="currentColor" opacity="0.85" text-anchor="end" transform="rotate(-30 269.0 252.0)">digger,keeper,elders</text>
<rect x="350.6" y="205.4" width="120.7" height="30.6" fill="#5b8dd9" rx="2" />
<text x="411.0" y="201.4" font-size="11" fill="currentColor" text-anchor="middle">153</text>
<text x="411.0" y="252.0" font-size="11" fill="currentColor" opacity="0.85" text-anchor="end" transform="rotate(-30 411.0 252.0)">digger,shaper,keeper,elders</text>
<rect x="492.6" y="235.8" width="120.7" height="0.2" fill="#5b8dd9" rx="2" />
<text x="553.0" y="231.8" font-size="11" fill="currentColor" text-anchor="middle">1</text>
<text x="553.0" y="252.0" font-size="11" fill="currentColor" opacity="0.85" text-anchor="end" transform="rotate(-30 553.0 252.0)">digger,warden,keeper,elders</text>
</svg>
