<svg viewBox="0 0 640 300" width="100%" xmlns="http://www.w3.org/2000/svg" font-family="ui-sans-serif, system-ui, sans-serif">
<text x="56" y="20" font-size="13" font-weight="600" fill="currentColor">solar-eclipses-per-century — default</text>
<line x1="56.0" y1="186.0" x2="624.0" y2="186.0" stroke="currentColor" stroke-opacity="0.15" stroke-width="1" />
<text x="50" y="186.0" font-size="11" fill="currentColor" opacity="0.75" text-anchor="end">125</text>
<line x1="56.0" y1="136.0" x2="624.0" y2="136.0" stroke="currentColor" stroke-opacity="0.15" stroke-width="1" />
<text x="50" y="136.0" font-size="11" fill="currentColor" opacity="0.75" text-anchor="end">250</text>
<line x1="56.0" y1="86.0" x2="624.0" y2="86.0" stroke="currentColor" stroke-opacity="0.15" stroke-width="1" />
<text x="50" y="86.0" font-size="11" fill="currentColor" opacity="0.75" text-anchor="end">375</text>
<line x1="56.0" y1="36.0" x2="624.0" y2="36.0" stroke="currentColor" stroke-opacity="0.15" stroke-width="1" />
<text x="50" y="36.0" font-size="11" fill="currentColor" opacity="0.75" text-anchor="end">500</text>
<text x="91.5" y="232.0" font-size="11" fill="currentColor" text-anchor="middle">0</text>
<text x="91.5" y="252.0" font-size="11" fill="currentColor" opacity="0.85" text-anchor="end" transform="rotate(-30 91.5 252.0)">&lt; 0</text>
<rect x="132.3" y="122.0" width="60.4" height="114.0" fill="#5b8dd9" rx="2" />
<text x="162.5" y="118.0" font-size="11" fill="currentColor" text-anchor="middle">285</text>
<text x="162.5" y="252.0" font-size="11" fill="currentColor" opacity="0.85" text-anchor="end" transform="rotate(-30 162.5 252.0)">[0, 50)</text>
<rect x="203.3" y="220.8" width="60.4" height="15.2" fill="#5b8dd9" rx="2" />
<text x="233.5" y="216.8" font-size="11" fill="currentColor" text-anchor="middle">38</text>
<text x="233.5" y="252.0" font-size="11" fill="currentColor" opacity="0.85" text-anchor="end" transform="rotate(-30 233.5 252.0)">[50, 100)</text>
<rect x="274.3" y="201.6" width="60.4" height="34.4" fill="#5b8dd9" rx="2" />
<text x="304.5" y="197.6" font-size="11" fill="currentColor" text-anchor="middle">86</text>
<text x="304.5" y="252.0" font-size="11" fill="currentColor" opacity="0.85" text-anchor="end" transform="rotate(-30 304.5 252.0)">[100, 200)</text>
<rect x="345.3" y="178.4" width="60.4" height="57.6" fill="#5b8dd9" rx="2" />
<text x="375.5" y="174.4" font-size="11" fill="currentColor" text-anchor="middle">144</text>
<text x="375.5" y="252.0" font-size="11" fill="currentColor" opacity="0.85" text-anchor="end" transform="rotate(-30 375.5 252.0)">[200, 400)</text>
<rect x="416.3" y="170.8" width="60.4" height="65.2" fill="#5b8dd9" rx="2" />
<text x="446.5" y="166.8" font-size="11" fill="currentColor" text-anchor="middle">163</text>
<text x="446.5" y="252.0" font-size="11" fill="currentColor" opacity="0.85" text-anchor="end" transform="rotate(-30 446.5 252.0)">[400, 800)</text>
<rect x="487.3" y="188.0" width="60.4" height="48.0" fill="#5b8dd9" rx="2" />
<text x="517.5" y="184.0" font-size="11" fill="currentColor" text-anchor="middle">120</text>
<text x="517.5" y="252.0" font-size="11" fill="currentColor" opacity="0.85" text-anchor="end" transform="rotate(-30 517.5 252.0)">[800, 1600)</text>
<rect x="558.3" y="170.4" width="60.4" height="65.6" fill="#5b8dd9" rx="2" />
<text x="588.5" y="166.4" font-size="11" fill="currentColor" text-anchor="middle">164</text>
<text x="588.5" y="252.0" font-size="11" fill="currentColor" opacity="0.85" text-anchor="end" transform="rotate(-30 588.5 252.0)">&gt;= 1600</text>
</svg>
