<svg viewBox="0 0 640 300" width="100%" xmlns="http://www.w3.org/2000/svg" font-family="ui-sans-serif, system-ui, sans-serif">
<text x="56" y="20" font-size="13" font-weight="600" fill="currentColor">name-collision-rate — default</text>
<line x1="56.0" y1="186.0" x2="624.0" y2="186.0" stroke="currentColor" stroke-opacity="0.15" stroke-width="1" />
<text x="50" y="186.0" font-size="11" fill="currentColor" opacity="0.75" text-anchor="end">125</text>
<line x1="56.0" y1="136.0" x2="624.0" y2="136.0" stroke="currentColor" stroke-opacity="0.15" stroke-width="1" />
<text x="50" y="136.0" font-size="11" fill="currentColor" opacity="0.75" text-anchor="end">250</text>
<line x1="56.0" y1="86.0" x2="624.0" y2="86.0" stroke="currentColor" stroke-opacity="0.15" stroke-width="1" />
<text x="50" y="86.0" font-size="11" fill="currentColor" opacity="0.75" text-anchor="end">375</text>
<line x1="56.0" y1="36.0" x2="624.0" y2="36.0" stroke="currentColor" stroke-opacity="0.15" stroke-width="1" />
<text x="50" y="36.0" font-size="11" fill="currentColor" opacity="0.75" text-anchor="end">500</text>
<text x="91.5" y="232.0" font-size="11" fill="currentColor" text-anchor="middle">0</text>
<text x="91.5" y="252.0" font-size="11" fill="currentColor" opacity="0.85" text-anchor="end" transform="rotate(-30 91.5 252.0)">&lt; 0</text>
<rect x="132.3" y="102.4" width="60.4" height="133.6" fill="#5b8dd9" rx="2" />
<text x="162.5" y="98.4" font-size="11" fill="currentColor" text-anchor="middle">334</text>
<text x="162.5" y="252.0" font-size="11" fill="currentColor" opacity="0.85" text-anchor="end" transform="rotate(-30 162.5 252.0)">[0, 0.01)</text>
<rect x="203.3" y="202.0" width="60.4" height="34.0" fill="#5b8dd9" rx="2" />
<text x="233.5" y="198.0" font-size="11" fill="currentColor" text-anchor="middle">85</text>
<text x="233.5" y="252.0" font-size="11" fill="currentColor" opacity="0.85" text-anchor="end" transform="rotate(-30 233.5 252.0)">[0.01, 0.02)</text>
<rect x="274.3" y="168.8" width="60.4" height="67.2" fill="#5b8dd9" rx="2" />
<text x="304.5" y="164.8" font-size="11" fill="currentColor" text-anchor="middle">168</text>
<text x="304.5" y="252.0" font-size="11" fill="currentColor" opacity="0.85" text-anchor="end" transform="rotate(-30 304.5 252.0)">[0.02, 0.05)</text>
<rect x="345.3" y="157.2" width="60.4" height="78.8" fill="#5b8dd9" rx="2" />
<text x="375.5" y="153.2" font-size="11" fill="currentColor" text-anchor="middle">197</text>
<text x="375.5" y="252.0" font-size="11" fill="currentColor" opacity="0.85" text-anchor="end" transform="rotate(-30 375.5 252.0)">[0.05, 0.1)</text>
<rect x="416.3" y="204.0" width="60.4" height="32.0" fill="#5b8dd9" rx="2" />
<text x="446.5" y="200.0" font-size="11" fill="currentColor" text-anchor="middle">80</text>
<text x="446.5" y="252.0" font-size="11" fill="currentColor" opacity="0.85" text-anchor="end" transform="rotate(-30 446.5 252.0)">[0.1, 0.2)</text>
<rect x="487.3" y="190.8" width="60.4" height="45.2" fill="#5b8dd9" rx="2" />
<text x="517.5" y="186.8" font-size="11" fill="currentColor" text-anchor="middle">113</text>
<text x="517.5" y="252.0" font-size="11" fill="currentColor" opacity="0.85" text-anchor="end" transform="rotate(-30 517.5 252.0)">[0.2, 0.4)</text>
<rect x="558.3" y="226.8" width="60.4" height="9.2" fill="#5b8dd9" rx="2" />
<text x="588.5" y="222.8" font-size="11" fill="currentColor" text-anchor="middle">23</text>
<text x="588.5" y="252.0" font-size="11" fill="currentColor" opacity="0.85" text-anchor="end" transform="rotate(-30 588.5 252.0)">&gt;= 0.4</text>
</svg>
