<svg viewBox="0 0 640 300" width="100%" xmlns="http://www.w3.org/2000/svg" font-family="ui-sans-serif, system-ui, sans-serif">
<text x="56" y="20" font-size="13" font-weight="600" fill="currentColor">moons-admitted — default</text>
<line x1="56.0" y1="186.0" x2="624.0" y2="186.0" stroke="currentColor" stroke-opacity="0.15" stroke-width="1" />
<text x="50" y="186.0" font-size="11" fill="currentColor" opacity="0.75" text-anchor="end">125</text>
<line x1="56.0" y1="136.0" x2="624.0" y2="136.0" stroke="currentColor" stroke-opacity="0.15" stroke-width="1" />
<text x="50" y="136.0" font-size="11" fill="currentColor" opacity="0.75" text-anchor="end">250</text>
<line x1="56.0" y1="86.0" x2="624.0" y2="86.0" stroke="currentColor" stroke-opacity="0.15" stroke-width="1" />
<text x="50" y="86.0" font-size="11" fill="currentColor" opacity="0.75" text-anchor="end">375</text>
<line x1="56.0" y1="36.0" x2="624.0" y2="36.0" stroke="currentColor" stroke-opacity="0.15" stroke-width="1" />
<text x="50" y="36.0" font-size="11" fill="currentColor" opacity="0.75" text-anchor="end">500</text>
<rect x="66.7" y="174.0" width="120.7" height="62.0" fill="#5b8dd9" rx="2" />
<text x="127.0" y="170.0" font-size="11" fill="currentColor" text-anchor="middle">155</text>
<text x="127.0" y="252.0" font-size="11" fill="currentColor" opacity="0.85" text-anchor="middle">0</text>
<rect x="208.7" y="67.2" width="120.7" height="168.8" fill="#5b8dd9" rx="2" />
<text x="269.0" y="63.2" font-size="11" fill="currentColor" text-anchor="middle">422</text>
<text x="269.0" y="252.0" font-size="11" fill="currentColor" opacity="0.85" text-anchor="middle">1</text>
<rect x="350.6" y="112.0" width="120.7" height="124.0" fill="#5b8dd9" rx="2" />
<text x="411.0" y="108.0" font-size="11" fill="currentColor" text-anchor="middle">310</text>
<text x="411.0" y="252.0" font-size="11" fill="currentColor" opacity="0.85" text-anchor="middle">2</text>
<rect x="492.6" y="190.8" width="120.7" height="45.2" fill="#5b8dd9" rx="2" />
<text x="553.0" y="186.8" font-size="11" fill="currentColor" text-anchor="middle">113</text>
<text x="553.0" y="252.0" font-size="11" fill="currentColor" opacity="0.85" text-anchor="middle">3</text>
</svg>
