<svg viewBox="0 0 640 300" width="100%" xmlns="http://www.w3.org/2000/svg" font-family="ui-sans-serif, system-ui, sans-serif">
<text x="56" y="20" font-size="13" font-weight="600" fill="currentColor">largest-figure-members — default</text>
<line x1="56.0" y1="186.0" x2="624.0" y2="186.0" stroke="currentColor" stroke-opacity="0.15" stroke-width="1" />
<text x="50" y="186.0" font-size="11" fill="currentColor" opacity="0.75" text-anchor="end">125</text>
<line x1="56.0" y1="136.0" x2="624.0" y2="136.0" stroke="currentColor" stroke-opacity="0.15" stroke-width="1" />
<text x="50" y="136.0" font-size="11" fill="currentColor" opacity="0.75" text-anchor="end">250</text>
<line x1="56.0" y1="86.0" x2="624.0" y2="86.0" stroke="currentColor" stroke-opacity="0.15" stroke-width="1" />
<text x="50" y="86.0" font-size="11" fill="currentColor" opacity="0.75" text-anchor="end">375</text>
<line x1="56.0" y1="36.0" x2="624.0" y2="36.0" stroke="currentColor" stroke-opacity="0.15" stroke-width="1" />
<text x="50" y="36.0" font-size="11" fill="currentColor" opacity="0.75" text-anchor="end">500</text>
<rect x="59.9" y="210.4" width="43.9" height="25.6" fill="#5b8dd9" rx="2" />
<text x="81.8" y="206.4" font-size="11" fill="currentColor" text-anchor="middle">64</text>
<text x="81.8" y="252.0" font-size="11" fill="currentColor" opacity="0.85" text-anchor="middle">0</text>
<rect x="111.5" y="234.8" width="43.9" height="1.2" fill="#5b8dd9" rx="2" />
<text x="133.5" y="230.8" font-size="11" fill="currentColor" text-anchor="middle">3</text>
<text x="133.5" y="252.0" font-size="11" fill="currentColor" opacity="0.85" text-anchor="middle">10</text>
<rect x="163.1" y="235.6" width="43.9" height="0.4" fill="#5b8dd9" rx="2" />
<text x="185.1" y="231.6" font-size="11" fill="currentColor" text-anchor="middle">1</text>
<text x="185.1" y="252.0" font-size="11" fill="currentColor" opacity="0.85" text-anchor="middle">11</text>
<rect x="214.8" y="235.6" width="43.9" height="0.4" fill="#5b8dd9" rx="2" />
<text x="236.7" y="231.6" font-size="11" fill="currentColor" text-anchor="middle">1</text>
<text x="236.7" y="252.0" font-size="11" fill="currentColor" opacity="0.85" text-anchor="middle">13</text>
<rect x="266.4" y="138.8" width="43.9" height="97.2" fill="#5b8dd9" rx="2" />
<text x="288.4" y="134.8" font-size="11" fill="currentColor" text-anchor="middle">243</text>
<text x="288.4" y="252.0" font-size="11" fill="currentColor" opacity="0.85" text-anchor="middle">3</text>
<rect x="318.1" y="114.4" width="43.9" height="121.6" fill="#5b8dd9" rx="2" />
<text x="340.0" y="110.4" font-size="11" fill="currentColor" text-anchor="middle">304</text>
<text x="340.0" y="252.0" font-size="11" fill="currentColor" opacity="0.85" text-anchor="middle">4</text>
<rect x="369.7" y="158.4" width="43.9" height="77.6" fill="#5b8dd9" rx="2" />
<text x="391.6" y="154.4" font-size="11" fill="currentColor" text-anchor="middle">194</text>
<text x="391.6" y="252.0" font-size="11" fill="currentColor" opacity="0.85" text-anchor="middle">5</text>
<rect x="421.3" y="190.4" width="43.9" height="45.6" fill="#5b8dd9" rx="2" />
<text x="443.3" y="186.4" font-size="11" fill="currentColor" text-anchor="middle">114</text>
<text x="443.3" y="252.0" font-size="11" fill="currentColor" opacity="0.85" text-anchor="middle">6</text>
<rect x="473.0" y="215.6" width="43.9" height="20.4" fill="#5b8dd9" rx="2" />
<text x="494.9" y="211.6" font-size="11" fill="currentColor" text-anchor="middle">51</text>
<text x="494.9" y="252.0" font-size="11" fill="currentColor" opacity="0.85" text-anchor="middle">7</text>
<rect x="524.6" y="230.0" width="43.9" height="6.0" fill="#5b8dd9" rx="2" />
<text x="546.5" y="226.0" font-size="11" fill="currentColor" text-anchor="middle">15</text>
<text x="546.5" y="252.0" font-size="11" fill="currentColor" opacity="0.85" text-anchor="middle">8</text>
<rect x="576.2" y="232.0" width="43.9" height="4.0" fill="#5b8dd9" rx="2" />
<text x="598.2" y="228.0" font-size="11" fill="currentColor" text-anchor="middle">10</text>
<text x="598.2" y="252.0" font-size="11" fill="currentColor" opacity="0.85" text-anchor="middle">9</text>
</svg>
