<svg viewBox="0 0 640 300" width="100%" xmlns="http://www.w3.org/2000/svg" font-family="ui-sans-serif, system-ui, sans-serif">
<text x="56" y="20" font-size="13" font-weight="600" fill="currentColor">goblin-settlement-count — default</text>
<line x1="56.0" y1="186.0" x2="624.0" y2="186.0" stroke="currentColor" stroke-opacity="0.15" stroke-width="1" />
<text x="50" y="186.0" font-size="11" fill="currentColor" opacity="0.75" text-anchor="end">125</text>
<line x1="56.0" y1="136.0" x2="624.0" y2="136.0" stroke="currentColor" stroke-opacity="0.15" stroke-width="1" />
<text x="50" y="136.0" font-size="11" fill="currentColor" opacity="0.75" text-anchor="end">250</text>
<line x1="56.0" y1="86.0" x2="624.0" y2="86.0" stroke="currentColor" stroke-opacity="0.15" stroke-width="1" />
<text x="50" y="86.0" font-size="11" fill="currentColor" opacity="0.75" text-anchor="end">375</text>
<line x1="56.0" y1="36.0" x2="624.0" y2="36.0" stroke="currentColor" stroke-opacity="0.15" stroke-width="1" />
<text x="50" y="36.0" font-size="11" fill="currentColor" opacity="0.75" text-anchor="end">500</text>
<text x="96.6" y="232.0" font-size="11" fill="currentColor" text-anchor="middle">0</text>
<text x="96.6" y="252.0" font-size="11" fill="currentColor" opacity="0.85" text-anchor="middle">&lt; 0</text>
<rect x="143.2" y="235.6" width="69.0" height="0.4" fill="#5b8dd9" rx="2" />
<text x="177.7" y="231.6" font-size="11" fill="currentColor" text-anchor="middle">1</text>
<text x="177.7" y="252.0" font-size="11" fill="currentColor" opacity="0.85" text-anchor="middle">[0, 1)</text>
<rect x="224.4" y="222.8" width="69.0" height="13.2" fill="#5b8dd9" rx="2" />
<text x="258.9" y="218.8" font-size="11" fill="currentColor" text-anchor="middle">33</text>
<text x="258.9" y="252.0" font-size="11" fill="currentColor" opacity="0.85" text-anchor="middle">[1, 2)</text>
<rect x="305.5" y="159.6" width="69.0" height="76.4" fill="#5b8dd9" rx="2" />
<text x="340.0" y="155.6" font-size="11" fill="currentColor" text-anchor="middle">191</text>
<text x="340.0" y="252.0" font-size="11" fill="currentColor" opacity="0.85" text-anchor="middle">[2, 4)</text>
<rect x="386.7" y="190.8" width="69.0" height="45.2" fill="#5b8dd9" rx="2" />
<text x="421.1" y="186.8" font-size="11" fill="currentColor" text-anchor="middle">113</text>
<text x="421.1" y="252.0" font-size="11" fill="currentColor" opacity="0.85" text-anchor="middle">[4, 8)</text>
<rect x="467.8" y="124.8" width="69.0" height="111.2" fill="#5b8dd9" rx="2" />
<text x="502.3" y="120.8" font-size="11" fill="currentColor" text-anchor="middle">278</text>
<text x="502.3" y="252.0" font-size="11" fill="currentColor" opacity="0.85" text-anchor="middle">[8, 16)</text>
<rect x="548.9" y="82.4" width="69.0" height="153.6" fill="#5b8dd9" rx="2" />
<text x="583.4" y="78.4" font-size="11" fill="currentColor" text-anchor="middle">384</text>
<text x="583.4" y="252.0" font-size="11" fill="currentColor" opacity="0.85" text-anchor="middle">&gt;= 16</text>
</svg>
