<svg xmlns="http://www.w3.org/2000/svg" xmlns:xlink="http://www.w3.org/1999/xlink" width="1230" height="1015.24"><rect width="1230" height="1015.24" rx="5" ry="5" class="a"/><svg y="0%" x="0%"><circle cx="20" cy="20" r="6" fill="#ff5f58"/><circle cx="40" cy="20" r="6" fill="#ffbd2e"/><circle cx="60" cy="20" r="6" fill="#18c132"/></svg><svg height="955.24" viewBox="0 0 119 95.524" width="1190" x="15" xmlns="http://www.w3.org/2000/svg" xmlns:xlink="http://www.w3.org/1999/xlink" y="50"><style>@keyframes o{0%{transform:translateX(0)}1%{transform:translateX(-119px)}5.5%{transform:translateX(-238px)}7.2%{transform:translateX(-357px)}9.2%{transform:translateX(-476px)}11.3%{transform:translateX(-595px)}12.4%{transform:translateX(-714px)}14%{transform:translateX(-833px)}16.3%{transform:translateX(-952px)}17.8%{transform:translateX(-1071px)}18.4%{transform:translateX(-1190px)}19.6%{transform:translateX(-1309px)}21.2%{transform:translateX(-1428px)}23%{transform:translateX(-1547px)}24.6%{transform:translateX(-1666px)}25.1%{transform:translateX(-1785px)}26.6%{transform:translateX(-1904px)}27.5%{transform:translateX(-2023px)}29.4%{transform:translateX(-2142px)}29.9%{transform:translateX(-2261px)}31.8%{transform:translateX(-2380px)}33.3%{transform:translateX(-2499px)}37.1%{transform:translateX(-2856px)}41%{transform:translateX(-2975px)}46.5%{transform:translateX(-3094px)}52.1%{transform:translateX(-3213px)}52.2%{transform:translateX(-3332px)}53.6%{transform:translateX(-3451px)}59.2%{transform:translateX(-3570px)}62.6%{transform:translateX(-3689px)}64.2%{transform:translateX(-3808px)}65.2%{transform:translateX(-3927px)}67.7%{transform:translateX(-4046px)}68%{transform:translateX(-4165px)}73.6%{transform:translateX(-4284px)}76.4%{transform:translateX(-4403px)}78.3%{transform:translateX(-4522px)}80%{transform:translateX(-4641px)}81.8%{transform:translateX(-4760px)}82%{transform:translateX(-4879px)}87.6%{transform:translateX(-4998px)}89.1%{transform:translateX(-5117px)}89.7%{transform:translateX(-5236px)}91.2%{transform:translateX(-5355px)}94.2%{transform:translateX(-5474px)}94.4%{transform:translateX(-5712px)}to{transform:translateX(-5831px)}}.a{fill:#000}.f,.h,.k,.l{fill:#f2f2f2;white-space:pre}.h,.k,.l{fill:#fff;font-weight:700}.k,.l{fill:#25bc24}.l{fill:#33bbc8}</style><g font-family="Monaco,Consolas,Menlo,'Bitstream Vera Sans Mono','Powerline Symbols',monospace" font-size="1.67"><defs><symbol id="1"><text y="1.67" class="f">🦑</text><text x="2.004" y="1.67" style="white-space:pre" fill="#ff0" font-weight="700">nathan</text><text x="8.016" y="1.67" class="h">@</text><text x="9.018" y="1.67" style="white-space:pre" fill="gray" font-weight="700">Greyjoy</text><text x="16.032" y="1.67" class="h">:</text><text x="17.034" y="1.67" style="white-space:pre" fill="#a8a8a8" font-weight="700">~/Projects/hornvale</text></symbol><symbol id="2"><text y="1.67" class="h">$</text></symbol><symbol id="3"><text y="1.67" class="h">$</text><text x="2.004" y="1.67" class="f">cargo</text></symbol><symbol id="4"><text y="1.67" class="h">$</text><text x="2.004" y="1.67" class="f">cargo</text><text x="8.016" y="1.67" class="f">run</text></symbol><symbol id="5"><text y="1.67" class="h">$</text><text x="2.004" y="1.67" class="f">cargo</text><text x="8.016" y="1.67" class="f">run</text><text x="12.024" y="1.67" class="f">--release</text></symbol><symbol id="6"><text x="3.006" y="1.67" class="k">Compiling</text><text x="13.026" y="1.67" class="f">hornvale</text><text x="22.044" y="1.67" class="f">v0.1.0</text><text x="29.058" y="1.67" class="f">(/Users/nathan/Projects/hornvale)</text></symbol><symbol id="7"><text x="4.008" y="1.67" class="l">Building</text><text x="13.026" y="1.67" class="f">[=======================&gt;</text><text x="39.078" y="1.67" class="f">]</text><text x="41.082" y="1.67" class="f">147/150:</text><text x="50.1" y="1.67" class="f">hornvale(build)</text></symbol><symbol id="8"><text x="4.008" y="1.67" class="k">Finished</text><text x="13.026" y="1.67" class="f">release</text><text x="21.042" y="1.67" class="f">[optimized]</text><text x="33.066" y="1.67" class="f">target(s)</text><text x="43.086" y="1.67" class="f">in</text><text x="46.092" y="1.67" class="f">3.42s</text></symbol><symbol id="9"><text x="5.01" y="1.67" class="k">Running</text><text x="13.026" y="1.67" class="f">`target/release/hornvale`</text></symbol><symbol id="10"><text y="1.67" class="f">&gt;</text></symbol><symbol id="11"><text y="1.67" class="f">&gt;</text><text x="2.004" y="1.67" class="f">look</text></symbol><symbol id="12"><text y="1.67" class="f">You</text><text x="4.008" y="1.67" class="f">look</text><text x="9.018" y="1.67" class="f">around.</text></symbol><symbol id="13"><text y="1.67" class="f">&gt;</text><text x="2.004" y="1.67" class="f">wait</text></symbol><symbol id="14"><text y="1.67" class="f">Time</text><text x="5.01" y="1.67" class="f">passes...</text></symbol><symbol id="15"><text y="1.67" class="f">&gt;</text><text x="2.004" y="1.67" class="f">quit</text></symbol><symbol id="16"><text y="1.67" class="f">Quit:</text><text x="6.012" y="1.67" class="f">You</text><text x="10.02" y="1.67" class="f">quit</text><text x="15.03" y="1.67" class="f">the</text><text x="19.038" y="1.67" class="f">game.</text></symbol><symbol id="17"><text y="1.67" class="f">Goodbye!</text></symbol><symbol id="a"><path fill="transparent" d="M0 0h119v44H0z"/></symbol><symbol id="b"><path fill="#4d4d4d" d="M0 0h1.102v2.171H0z"/></symbol></defs><path class="a" d="M0 0h119v95.524H0z"/><g style="animation-duration:8.946863s;animation-iteration-count:infinite;animation-name:o;animation-timing-function:steps(1,end)"><svg width="5950"><svg><use xlink:href="#a"/><use xlink:href="#b" x="-.004"/></svg><svg x="119"><use xlink:href="#a"/><use xlink:href="#b" x="1.996" y="2.146"/><use xlink:href="#1"/><use xlink:href="#2" y="2.171"/></svg><svg x="238"><use xlink:href="#a"/><use xlink:href="#b" x="2.996" y="2.146"/><use xlink:href="#1"/><text y="3.841" class="h">$</text><text x="2.004" y="3.841" class="f">c</text></svg><svg x="357"><use xlink:href="#a"/><use xlink:href="#b" x="3.996" y="2.146"/><use xlink:href="#1"/><text y="3.841" class="h">$</text><text x="2.004" y="3.841" class="f">ca</text></svg><svg x="476"><use xlink:href="#a"/><use xlink:href="#b" x="4.996" y="2.146"/><use xlink:href="#1"/><text y="3.841" class="h">$</text><text x="2.004" y="3.841" class="f">car</text></svg><svg x="595"><use xlink:href="#a"/><use xlink:href="#b" x="5.996" y="2.146"/><use xlink:href="#1"/><text y="3.841" class="h">$</text><text x="2.004" y="3.841" class="f">carg</text></svg><svg x="714"><use xlink:href="#a"/><use xlink:href="#b" x="6.996" y="2.146"/><use xlink:href="#1"/><use xlink:href="#3" y="2.171"/></svg><svg x="833"><use xlink:href="#a"/><use xlink:href="#b" x="7.996" y="2.146"/><use xlink:href="#1"/><use xlink:href="#3" y="2.171"/></svg><svg x="952"><use xlink:href="#a"/><use xlink:href="#b" x="8.996" y="2.146"/><use xlink:href="#1"/><text y="3.841" class="h">$</text><text x="2.004" y="3.841" class="f">cargo</text><text x="8.016" y="3.841" class="f">r</text></svg><svg x="1071"><use xlink:href="#a"/><use xlink:href="#b" x="9.996" y="2.146"/><use xlink:href="#1"/><text y="3.841" class="h">$</text><text x="2.004" y="3.841" class="f">cargo</text><text x="8.016" y="3.841" class="f">ru</text></svg><svg x="1190"><use xlink:href="#a"/><use xlink:href="#b" x="10.996" y="2.146"/><use xlink:href="#1"/><use xlink:href="#4" y="2.171"/></svg><svg x="1309"><use xlink:href="#a"/><use xlink:href="#b" x="11.996" y="2.146"/><use xlink:href="#1"/><use xlink:href="#4" y="2.171"/></svg><svg x="1428"><use xlink:href="#a"/><use xlink:href="#b" x="12.996" y="2.146"/><use xlink:href="#1"/><text y="3.841" class="h">$</text><text x="2.004" y="3.841" class="f">cargo</text><text x="8.016" y="3.841" class="f">run</text><text x="12.024" y="3.841" class="f">-</text></svg><svg x="1547"><use xlink:href="#a"/><use xlink:href="#b" x="13.996" y="2.146"/><use xlink:href="#1"/><text y="3.841" class="h">$</text><text x="2.004" y="3.841" class="f">cargo</text><text x="8.016" y="3.841" class="f">run</text><text x="12.024" y="3.841" class="f">--</text></svg><svg x="1666"><use xlink:href="#a"/><use xlink:href="#b" x="14.996" y="2.146"/><use xlink:href="#1"/><text y="3.841" class="h">$</text><text x="2.004" y="3.841" class="f">cargo</text><text x="8.016" y="3.841" class="f">run</text><text x="12.024" y="3.841" class="f">--r</text></svg><svg x="1785"><use xlink:href="#a"/><use xlink:href="#b" x="15.996" y="2.146"/><use xlink:href="#1"/><text y="3.841" class="h">$</text><text x="2.004" y="3.841" class="f">cargo</text><text x="8.016" y="3.841" class="f">run</text><text x="12.024" y="3.841" class="f">--re</text></svg><svg x="1904"><use xlink:href="#a"/><use xlink:href="#b" x="16.996" y="2.146"/><use xlink:href="#1"/><text y="3.841" class="h">$</text><text x="2.004" y="3.841" class="f">cargo</text><text x="8.016" y="3.841" class="f">run</text><text x="12.024" y="3.841" class="f">--rel</text></svg><svg x="2023"><use xlink:href="#a"/><use xlink:href="#b" x="17.996" y="2.146"/><use xlink:href="#1"/><text y="3.841" class="h">$</text><text x="2.004" y="3.841" class="f">cargo</text><text x="8.016" y="3.841" class="f">run</text><text x="12.024" y="3.841" class="f">--rele</text></svg><svg x="2142"><use xlink:href="#a"/><use xlink:href="#b" x="18.996" y="2.146"/><use xlink:href="#1"/><text y="3.841" class="h">$</text><text x="2.004" y="3.841" class="f">cargo</text><text x="8.016" y="3.841" class="f">run</text><text x="12.024" y="3.841" class="f">--relea</text></svg><svg x="2261"><use xlink:href="#a"/><use xlink:href="#b" x="19.996" y="2.146"/><use xlink:href="#1"/><text y="3.841" class="h">$</text><text x="2.004" y="3.841" class="f">cargo</text><text x="8.016" y="3.841" class="f">run</text><text x="12.024" y="3.841" class="f">--releas</text></svg><svg x="2380"><use xlink:href="#a"/><use xlink:href="#b" x="20.996" y="2.146"/><use xlink:href="#1"/><use xlink:href="#5" y="2.171"/></svg><svg x="2499"><use xlink:href="#a"/><use xlink:href="#b" x="-.004" y="4.317"/><use xlink:href="#1"/><use xlink:href="#5" y="2.171"/></svg><svg x="2618"><use xlink:href="#a"/><use xlink:href="#b" x="-.004" y="6.488"/><use xlink:href="#1"/><use xlink:href="#5" y="2.171"/><use xlink:href="#6" y="4.342"/></svg><svg x="2737"><use xlink:href="#a"/><use xlink:href="#b" x="116.996" y="6.488"/><use xlink:href="#1"/><use xlink:href="#5" y="2.171"/><use xlink:href="#6" y="4.342"/><use xlink:href="#7" y="6.513"/></svg><svg x="2856"><use xlink:href="#a"/><use xlink:href="#b" x="-.004" y="6.488"/><use xlink:href="#1"/><use xlink:href="#5" y="2.171"/><use xlink:href="#6" y="4.342"/><use xlink:href="#7" y="6.513"/></svg><svg x="2975"><use xlink:href="#a"/><use xlink:href="#b" x="-.004" y="6.488"/><use xlink:href="#1"/><use xlink:href="#5" y="2.171"/><use xlink:href="#6" y="4.342"/><text x="4.008" y="8.183" class="l">Building</text><text x="13.026" y="8.183" class="f">[=======================&gt;</text><text x="39.078" y="8.183" class="f">]</text><text x="41.082" y="8.183" class="f">148/150:</text><text x="50.1" y="8.183" class="f">hornvale</text></svg><svg x="3094"><use xlink:href="#a"/><use xlink:href="#b" x="-.004" y="6.488"/><use xlink:href="#1"/><use xlink:href="#5" y="2.171"/><use xlink:href="#6" y="4.342"/><text x="4.008" y="8.183" class="l">Building</text><text x="13.026" y="8.183" class="f">[=======================&gt;</text><text x="39.078" y="8.183" class="f">]</text><text x="41.082" y="8.183" class="f">149/150:</text><text x="50.1" y="8.183" class="f">hornvale(bin)</text></svg><svg x="3213"><use xlink:href="#a"/><use xlink:href="#b" x="-.004" y="8.659"/><use xlink:href="#1"/><use xlink:href="#5" y="2.171"/><use xlink:href="#6" y="4.342"/><use xlink:href="#8" y="6.513"/></svg><svg x="3332"><use xlink:href="#a"/><use xlink:href="#b" x="-.004" y="10.83"/><use xlink:href="#1"/><use xlink:href="#5" y="2.171"/><use xlink:href="#6" y="4.342"/><use xlink:href="#8" y="6.513"/><use xlink:href="#9" y="8.684"/></svg><svg x="3451"><use xlink:href="#a"/><use xlink:href="#b" x="1.996" y="10.83"/><use xlink:href="#1"/><use xlink:href="#5" y="2.171"/><use xlink:href="#6" y="4.342"/><use xlink:href="#8" y="6.513"/><use xlink:href="#9" y="8.684"/><use xlink:href="#10" y="10.855"/></svg><svg x="3570"><use xlink:href="#a"/><use xlink:href="#b" x="2.996" y="10.83"/><use xlink:href="#1"/><use xlink:href="#5" y="2.171"/><use xlink:href="#6" y="4.342"/><use xlink:href="#8" y="6.513"/><use xlink:href="#9" y="8.684"/><text y="12.525" class="f">&gt;</text><text x="2.004" y="12.525" class="f">l</text></svg><svg x="3689"><use xlink:href="#a"/><use xlink:href="#b" x="3.996" y="10.83"/><use xlink:href="#1"/><use xlink:href="#5" y="2.171"/><use xlink:href="#6" y="4.342"/><use xlink:href="#8" y="6.513"/><use xlink:href="#9" y="8.684"/><text y="12.525" class="f">&gt;</text><text x="2.004" y="12.525" class="f">lo</text></svg><svg x="3808"><use xlink:href="#a"/><use xlink:href="#b" x="4.996" y="10.83"/><use xlink:href="#1"/><use xlink:href="#5" y="2.171"/><use xlink:href="#6" y="4.342"/><use xlink:href="#8" y="6.513"/><use xlink:href="#9" y="8.684"/><text y="12.525" class="f">&gt;</text><text x="2.004" y="12.525" class="f">loo</text></svg><svg x="3927"><use xlink:href="#a"/><use xlink:href="#b" x="5.996" y="10.83"/><use xlink:href="#1"/><use xlink:href="#5" y="2.171"/><use xlink:href="#6" y="4.342"/><use xlink:href="#8" y="6.513"/><use xlink:href="#9" y="8.684"/><use xlink:href="#11" y="10.855"/></svg><svg x="4046"><use xlink:href="#a"/><use xlink:href="#b" x="1.996" y="13.001"/><use xlink:href="#1"/><use xlink:href="#5" y="2.171"/><use xlink:href="#6" y="4.342"/><use xlink:href="#8" y="6.513"/><use xlink:href="#9" y="8.684"/><use xlink:href="#11" y="10.855"/><text y="14.696" class="f">&gt;</text><text x="2.004" y="14.696" class="f">look&gt;</text></svg><svg x="4165"><use xlink:href="#a"/><use xlink:href="#b" x="1.996" y="15.172"/><use xlink:href="#1"/><use xlink:href="#5" y="2.171"/><use xlink:href="#6" y="4.342"/><use xlink:href="#8" y="6.513"/><use xlink:href="#9" y="8.684"/><use xlink:href="#11" y="10.855"/><use xlink:href="#12" y="13.026"/><use xlink:href="#10" y="15.197"/></svg><svg x="4284"><use xlink:href="#a"/><use xlink:href="#b" x="2.996" y="15.172"/><use xlink:href="#1"/><use xlink:href="#5" y="2.171"/><use xlink:href="#6" y="4.342"/><use xlink:href="#8" y="6.513"/><use xlink:href="#9" y="8.684"/><use xlink:href="#11" y="10.855"/><use xlink:href="#12" y="13.026"/><text y="16.867" class="f">&gt;</text><text x="2.004" y="16.867" class="f">w</text></svg><svg x="4403"><use xlink:href="#a"/><use xlink:href="#b" x="3.996" y="15.172"/><use xlink:href="#1"/><use xlink:href="#5" y="2.171"/><use xlink:href="#6" y="4.342"/><use xlink:href="#8" y="6.513"/><use xlink:href="#9" y="8.684"/><use xlink:href="#11" y="10.855"/><use xlink:href="#12" y="13.026"/><text y="16.867" class="f">&gt;</text><text x="2.004" y="16.867" class="f">wa</text></svg><svg x="4522"><use xlink:href="#a"/><use xlink:href="#b" x="4.996" y="15.172"/><use xlink:href="#1"/><use xlink:href="#5" y="2.171"/><use xlink:href="#6" y="4.342"/><use xlink:href="#8" y="6.513"/><use xlink:href="#9" y="8.684"/><use xlink:href="#11" y="10.855"/><use xlink:href="#12" y="13.026"/><text y="16.867" class="f">&gt;</text><text x="2.004" y="16.867" class="f">wai</text></svg><svg x="4641"><use xlink:href="#a"/><use xlink:href="#b" x="5.996" y="15.172"/><use xlink:href="#1"/><use xlink:href="#5" y="2.171"/><use xlink:href="#6" y="4.342"/><use xlink:href="#8" y="6.513"/><use xlink:href="#9" y="8.684"/><use xlink:href="#11" y="10.855"/><use xlink:href="#12" y="13.026"/><use xlink:href="#13" y="15.197"/></svg><svg x="4760"><use xlink:href="#a"/><use xlink:href="#b" x="1.996" y="17.343"/><use xlink:href="#1"/><use xlink:href="#5" y="2.171"/><use xlink:href="#6" y="4.342"/><use xlink:href="#8" y="6.513"/><use xlink:href="#9" y="8.684"/><use xlink:href="#11" y="10.855"/><use xlink:href="#12" y="13.026"/><use xlink:href="#13" y="15.197"/><text y="19.038" class="f">&gt;</text><text x="2.004" y="19.038" class="f">wait&gt;</text></svg><svg x="4879"><use xlink:href="#a"/><use xlink:href="#b" x="1.996" y="19.514"/><use xlink:href="#1"/><use xlink:href="#5" y="2.171"/><use xlink:href="#6" y="4.342"/><use xlink:href="#8" y="6.513"/><use xlink:href="#9" y="8.684"/><use xlink:href="#11" y="10.855"/><use xlink:href="#12" y="13.026"/><use xlink:href="#13" y="15.197"/><use xlink:href="#14" y="17.368"/><use xlink:href="#10" y="19.539"/></svg><svg x="4998"><use xlink:href="#a"/><use xlink:href="#b" x="2.996" y="19.514"/><use xlink:href="#1"/><use xlink:href="#5" y="2.171"/><use xlink:href="#6" y="4.342"/><use xlink:href="#8" y="6.513"/><use xlink:href="#9" y="8.684"/><use xlink:href="#11" y="10.855"/><use xlink:href="#12" y="13.026"/><use xlink:href="#13" y="15.197"/><use xlink:href="#14" y="17.368"/><text y="21.209" class="f">&gt;</text><text x="2.004" y="21.209" class="f">q</text></svg><svg x="5117"><use xlink:href="#a"/><use xlink:href="#b" x="3.996" y="19.514"/><use xlink:href="#1"/><use xlink:href="#5" y="2.171"/><use xlink:href="#6" y="4.342"/><use xlink:href="#8" y="6.513"/><use xlink:href="#9" y="8.684"/><use xlink:href="#11" y="10.855"/><use xlink:href="#12" y="13.026"/><use xlink:href="#13" y="15.197"/><use xlink:href="#14" y="17.368"/><text y="21.209" class="f">&gt;</text><text x="2.004" y="21.209" class="f">qu</text></svg><svg x="5236"><use xlink:href="#a"/><use xlink:href="#b" x="4.996" y="19.514"/><use xlink:href="#1"/><use xlink:href="#5" y="2.171"/><use xlink:href="#6" y="4.342"/><use xlink:href="#8" y="6.513"/><use xlink:href="#9" y="8.684"/><use xlink:href="#11" y="10.855"/><use xlink:href="#12" y="13.026"/><use xlink:href="#13" y="15.197"/><use xlink:href="#14" y="17.368"/><text y="21.209" class="f">&gt;</text><text x="2.004" y="21.209" class="f">qui</text></svg><svg x="5355"><use xlink:href="#a"/><use xlink:href="#b" x="5.996" y="19.514"/><use xlink:href="#1"/><use xlink:href="#5" y="2.171"/><use xlink:href="#6" y="4.342"/><use xlink:href="#8" y="6.513"/><use xlink:href="#9" y="8.684"/><use xlink:href="#11" y="10.855"/><use xlink:href="#12" y="13.026"/><use xlink:href="#13" y="15.197"/><use xlink:href="#14" y="17.368"/><use xlink:href="#15" y="19.539"/></svg><svg x="5474"><use xlink:href="#a"/><use xlink:href="#b" x="1.996" y="21.685"/><use xlink:href="#1"/><use xlink:href="#5" y="2.171"/><use xlink:href="#6" y="4.342"/><use xlink:href="#8" y="6.513"/><use xlink:href="#9" y="8.684"/><use xlink:href="#11" y="10.855"/><use xlink:href="#12" y="13.026"/><use xlink:href="#13" y="15.197"/><use xlink:href="#14" y="17.368"/><use xlink:href="#15" y="19.539"/><text y="23.38" class="f">&gt;</text><text x="2.004" y="23.38" class="f">quit&gt;</text></svg><svg x="5593"><use xlink:href="#a"/><use xlink:href="#b" x="-.004" y="26.027"/><use xlink:href="#1"/><use xlink:href="#5" y="2.171"/><use xlink:href="#6" y="4.342"/><use xlink:href="#8" y="6.513"/><use xlink:href="#9" y="8.684"/><use xlink:href="#11" y="10.855"/><use xlink:href="#12" y="13.026"/><use xlink:href="#13" y="15.197"/><use xlink:href="#14" y="17.368"/><use xlink:href="#15" y="19.539"/><use xlink:href="#16" y="21.71"/><use xlink:href="#17" y="23.881"/></svg><svg x="5712"><use xlink:href="#a"/><use xlink:href="#b" x="1.996" y="28.198"/><use xlink:href="#1"/><use xlink:href="#5" y="2.171"/><use xlink:href="#6" y="4.342"/><use xlink:href="#8" y="6.513"/><use xlink:href="#9" y="8.684"/><use xlink:href="#11" y="10.855"/><use xlink:href="#12" y="13.026"/><use xlink:href="#13" y="15.197"/><use xlink:href="#14" y="17.368"/><use xlink:href="#15" y="19.539"/><use xlink:href="#16" y="21.71"/><use xlink:href="#17" y="23.881"/><use xlink:href="#1" y="26.052"/><use xlink:href="#2" y="28.223"/></svg><svg x="5831"><use xlink:href="#a"/><use xlink:href="#b" x="-.004" y="30.369"/><use xlink:href="#1"/><use xlink:href="#5" y="2.171"/><use xlink:href="#6" y="4.342"/><use xlink:href="#8" y="6.513"/><use xlink:href="#9" y="8.684"/><use xlink:href="#11" y="10.855"/><use xlink:href="#12" y="13.026"/><use xlink:href="#13" y="15.197"/><use xlink:href="#14" y="17.368"/><use xlink:href="#15" y="19.539"/><use xlink:href="#16" y="21.71"/><use xlink:href="#17" y="23.881"/><use xlink:href="#1" y="26.052"/><text y="29.893" class="h">$</text><text x="2.004" y="29.893" class="f">exit</text></svg></svg></g></g></svg></svg>