<svg xmlns="http://www.w3.org/2000/svg" xmlns:xlink="http://www.w3.org/1999/xlink" width="1390" height="667.88"><rect width="1390" height="667.88" rx="5" ry="5" class="a"/><svg y="0%" x="0%"><circle cx="20" cy="20" r="6" fill="#ff5f58"/><circle cx="40" cy="20" r="6" fill="#ffbd2e"/><circle cx="60" cy="20" r="6" fill="#18c132"/></svg><svg height="607.88" viewBox="0 0 135 60.788" width="1350" x="15" xmlns="http://www.w3.org/2000/svg" xmlns:xlink="http://www.w3.org/1999/xlink" y="50"><style>@keyframes o{0%{transform:translateX(0)}.9%{transform:translateX(-135px)}7.1%{transform:translateX(-270px)}8.9%{transform:translateX(-405px)}10.7%{transform:translateX(-540px)}12.7%{transform:translateX(-675px)}13.8%{transform:translateX(-810px)}15.4%{transform:translateX(-945px)}17.4%{transform:translateX(-1080px)}18.5%{transform:translateX(-1215px)}19.3%{transform:translateX(-1350px)}20.7%{transform:translateX(-1485px)}26.9%{transform:translateX(-1620px)}28.4%{transform:translateX(-1890px)}29.9%{transform:translateX(-2025px)}36%{transform:translateX(-2160px)}39.2%{transform:translateX(-2430px)}42.5%{transform:translateX(-2565px)}48.6%{transform:translateX(-2700px)}54.8%{transform:translateX(-2835px)}57.1%{transform:translateX(-3105px)}63.3%{transform:translateX(-3240px)}65.4%{transform:translateX(-3645px)}71.6%{transform:translateX(-3780px)}73.9%{transform:translateX(-4050px)}79.5%{transform:translateX(-4185px)}81.3%{transform:translateX(-4455px)}87.5%{transform:translateX(-4590px)}89%{transform:translateX(-4725px)}90.1%{transform:translateX(-4860px)}91.4%{transform:translateX(-4995px)}93.8%{transform:translateX(-5400px)}to{transform:translateX(-5535px)}}.a{fill:#282d35}.f,.h{fill:#b9c0cb}.f{white-space:pre}.h{font-weight:700}.h,.k,.l,.q{white-space:pre}.k{fill:#a8cc8c;font-weight:700}.l,.q{fill:#66c2cd}.q{font-weight:700}</style><g font-family="Monaco,Consolas,Menlo,'Bitstream Vera Sans Mono','Powerline Symbols',monospace" font-size="1.67"><defs><symbol id="1"><text y="1.67" class="f">🦑</text><text x="2.004" y="1.67" style="white-space:pre" fill="#ff0" font-weight="700">nathan</text><text x="8.016" y="1.67" class="h">@</text><text x="9.018" y="1.67" style="white-space:pre" fill="gray" font-weight="700">Greyjoy</text><text x="16.032" y="1.67" class="h">:</text><text x="17.034" y="1.67" style="white-space:pre" fill="#a8a8a8" font-weight="700">~/Projects/hornvale</text></symbol><symbol id="2"><text y="1.67" class="h">$</text></symbol><symbol id="3"><text y="1.67" class="h">$</text><text x="2.004" y="1.67" class="f">cargo</text></symbol><symbol id="4"><text y="1.67" class="h">$</text><text x="2.004" y="1.67" class="f">cargo</text><text x="8.016" y="1.67" class="f">run</text></symbol><symbol id="5"><text x="3.006" y="1.67" class="k">Compiling</text><text x="13.026" y="1.67" class="f">hornvale</text><text x="22.044" y="1.67" class="f">v0.1.0</text><text x="29.058" y="1.67" class="f">(/Users/nathan/Projects/hornvale)</text></symbol><symbol id="6"><text x="4.008" y="1.67" class="k">Finished</text><text x="13.026" y="1.67" class="f">dev</text><text x="17.034" y="1.67" class="f">[unoptimized</text><text x="30.06" y="1.67" class="f">+</text><text x="32.064" y="1.67" class="f">debuginfo]</text><text x="43.086" y="1.67" class="f">target(s)</text><text x="53.106" y="1.67" class="f">in</text><text x="56.112" y="1.67" class="f">1.09s</text></symbol><symbol id="7"><text x="5.01" y="1.67" class="k">Running</text><text x="13.026" y="1.67" class="f">`target/debug/hornvale`</text></symbol><symbol id="8"><text y="1.67" class="f">Welcome</text><text x="8.016" y="1.67" class="f">to</text><text x="11.022" y="1.67" class="f">Hornvale!</text></symbol><symbol id="9"><text y="1.67" class="h">Center</text><text x="7.014" y="1.67" class="h">Room</text></symbol><symbol id="10"><text y="1.67" class="f">A</text><text x="2.004" y="1.67" class="f">room</text><text x="7.014" y="1.67" class="f">in</text><text x="10.02" y="1.67" class="f">the</text><text x="14.028" y="1.67" class="f">center.</text></symbol><symbol id="11"><text y="1.67" class="l">There</text><text x="6.012" y="1.67" class="l">are</text><text x="10.02" y="1.67" class="l">paths</text><text x="16.032" y="1.67" class="l">west,</text><text x="22.044" y="1.67" class="l">east,</text><text x="28.056" y="1.67" class="l">southwest,</text><text x="39.078" y="1.67" class="l">northeast,</text><text x="50.1" y="1.67" class="l">northwest,</text><text x="61.122" y="1.67" class="l">southeast,</text><text x="72.144" y="1.67" class="l">north,</text><text x="79.158" y="1.67" class="l">and</text><text x="83.166" y="1.67" class="l">south.</text></symbol><symbol id="12"><text y="1.67" class="f">&gt;</text></symbol><symbol id="13"><text y="1.67" class="f">&gt;</text><text x="2.004" y="1.67" class="f">e</text></symbol><symbol id="14"><text y="1.67" class="h">East</text><text x="5.01" y="1.67" class="h">Room</text></symbol><symbol id="15"><text y="1.67" class="f">A</text><text x="2.004" y="1.67" class="f">room</text><text x="7.014" y="1.67" class="f">to</text><text x="10.02" y="1.67" class="f">the</text><text x="14.028" y="1.67" class="f">east.</text></symbol><symbol id="16"><text y="1.67" class="l">There</text><text x="6.012" y="1.67" class="l">are</text><text x="10.02" y="1.67" class="l">paths</text><text x="16.032" y="1.67" class="l">north,</text><text x="23.046" y="1.67" class="l">west,</text><text x="29.058" y="1.67" class="l">and</text><text x="33.066" y="1.67" class="l">south.</text></symbol><symbol id="17"><text y="1.67" class="f">&gt;</text><text x="2.004" y="1.67" class="f">w</text></symbol><symbol id="18"><text y="1.67" class="f">&gt;</text><text x="2.004" y="1.67" class="f">n</text></symbol><symbol id="19"><text y="1.67" class="h">North</text><text x="6.012" y="1.67" class="h">Room</text></symbol><symbol id="20"><text y="1.67" class="f">A</text><text x="2.004" y="1.67" class="f">room</text><text x="7.014" y="1.67" class="f">to</text><text x="10.02" y="1.67" class="f">the</text><text x="14.028" y="1.67" class="f">north.</text></symbol><symbol id="21"><text y="1.67" class="l">There</text><text x="6.012" y="1.67" class="l">are</text><text x="10.02" y="1.67" class="l">paths</text><text x="16.032" y="1.67" class="l">south,</text><text x="23.046" y="1.67" class="l">east,</text><text x="29.058" y="1.67" class="l">and</text><text x="33.066" y="1.67" class="l">west.</text></symbol><symbol id="22"><text y="1.67" class="f">&gt;</text><text x="2.004" y="1.67" class="f">s</text></symbol><symbol id="23"><text y="1.67" class="f">&gt;</text><text x="2.004" y="1.67" class="f">quit</text></symbol><symbol id="24"><text y="1.67" class="f">Thanks</text><text x="7.014" y="1.67" class="f">for</text><text x="11.022" y="1.67" class="f">playing!</text></symbol><symbol id="a"><path fill="transparent" d="M0 0h135v28H0z"/></symbol><symbol id="b"><path fill="#6f7683" d="M0 0h1.102v2.171H0z"/></symbol></defs><path class="a" d="M0 0h135v60.788H0z"/><g style="animation-duration:8.118305999999999s;animation-iteration-count:infinite;animation-name:o;animation-timing-function:steps(1,end)"><svg width="5670"><svg><use xlink:href="#a"/><use xlink:href="#b" x="-.004"/></svg><svg x="135"><use xlink:href="#a"/><use xlink:href="#b" x="1.996" y="2.146"/><use xlink:href="#1"/><use xlink:href="#2" y="2.171"/></svg><svg x="270"><use xlink:href="#a"/><use xlink:href="#b" x="2.996" y="2.146"/><use xlink:href="#1"/><text y="3.841" class="h">$</text><text x="2.004" y="3.841" class="f">c</text></svg><svg x="405"><use xlink:href="#a"/><use xlink:href="#b" x="3.996" y="2.146"/><use xlink:href="#1"/><text y="3.841" class="h">$</text><text x="2.004" y="3.841" class="f">ca</text></svg><svg x="540"><use xlink:href="#a"/><use xlink:href="#b" x="4.996" y="2.146"/><use xlink:href="#1"/><text y="3.841" class="h">$</text><text x="2.004" y="3.841" class="f">car</text></svg><svg x="675"><use xlink:href="#a"/><use xlink:href="#b" x="5.996" y="2.146"/><use xlink:href="#1"/><text y="3.841" class="h">$</text><text x="2.004" y="3.841" class="f">carg</text></svg><svg x="810"><use xlink:href="#a"/><use xlink:href="#b" x="6.996" y="2.146"/><use xlink:href="#1"/><use xlink:href="#3" y="2.171"/></svg><svg x="945"><use xlink:href="#a"/><use xlink:href="#b" x="7.996" y="2.146"/><use xlink:href="#1"/><use xlink:href="#3" y="2.171"/></svg><svg x="1080"><use xlink:href="#a"/><use xlink:href="#b" x="8.996" y="2.146"/><use xlink:href="#1"/><text y="3.841" class="h">$</text><text x="2.004" y="3.841" class="f">cargo</text><text x="8.016" y="3.841" class="f">r</text></svg><svg x="1215"><use xlink:href="#a"/><use xlink:href="#b" x="9.996" y="2.146"/><use xlink:href="#1"/><text y="3.841" class="h">$</text><text x="2.004" y="3.841" class="f">cargo</text><text x="8.016" y="3.841" class="f">ru</text></svg><svg x="1350"><use xlink:href="#a"/><use xlink:href="#b" x="10.996" y="2.146"/><use xlink:href="#1"/><use xlink:href="#4" y="2.171"/></svg><svg x="1485"><use xlink:href="#a"/><use xlink:href="#b" x="11.996" y="2.146"/><use xlink:href="#1"/><use xlink:href="#4" y="2.171"/></svg><svg x="1620"><use xlink:href="#a"/><use xlink:href="#b" x="-.004" y="4.317"/><use xlink:href="#1"/><use xlink:href="#4" y="2.171"/></svg><svg x="1755"><use xlink:href="#a"/><use xlink:href="#b" x="-.004" y="6.488"/><use xlink:href="#1"/><use xlink:href="#4" y="2.171"/><use xlink:href="#5" y="4.342"/></svg><svg x="1890"><use xlink:href="#a"/><use xlink:href="#b" x="-.004" y="6.488"/><use xlink:href="#1"/><use xlink:href="#4" y="2.171"/><use xlink:href="#5" y="4.342"/><text x="4.008" y="8.183" class="q">Building</text><text x="13.026" y="8.183" class="f">[=======================&gt;</text><text x="39.078" y="8.183" class="f">]</text><text x="41.082" y="8.183" class="f">193/196:</text><text x="50.1" y="8.183" class="f">hornvale(build)</text></svg><svg x="2025"><use xlink:href="#a"/><use xlink:href="#b" x="-.004" y="6.488"/><use xlink:href="#1"/><use xlink:href="#4" y="2.171"/><use xlink:href="#5" y="4.342"/><text x="4.008" y="8.183" class="q">Building</text><text x="13.026" y="8.183" class="f">[=======================&gt;</text><text x="39.078" y="8.183" class="f">]</text><text x="41.082" y="8.183" class="f">194/196:</text><text x="50.1" y="8.183" class="f">hornvale</text></svg><svg x="2160"><use xlink:href="#a"/><use xlink:href="#b" x="-.004" y="6.488"/><use xlink:href="#1"/><use xlink:href="#4" y="2.171"/><use xlink:href="#5" y="4.342"/><text x="4.008" y="8.183" class="q">Building</text><text x="13.026" y="8.183" class="f">[=======================&gt;</text><text x="39.078" y="8.183" class="f">]</text><text x="41.082" y="8.183" class="f">195/196:</text><text x="50.1" y="8.183" class="f">hornvale(bin)</text></svg><svg x="2295"><use xlink:href="#a"/><use xlink:href="#b" x="-.004" y="8.659"/><use xlink:href="#1"/><use xlink:href="#4" y="2.171"/><use xlink:href="#5" y="4.342"/><use xlink:href="#6" y="6.513"/></svg><svg x="2430"><use xlink:href="#a"/><use xlink:href="#b" x="-.004" y="10.83"/><use xlink:href="#1"/><use xlink:href="#4" y="2.171"/><use xlink:href="#5" y="4.342"/><use xlink:href="#6" y="6.513"/><use xlink:href="#7" y="8.684"/></svg><svg x="2565"><use xlink:href="#a"/><use xlink:href="#b" x="-.004" y="13.001"/><use xlink:href="#1"/><use xlink:href="#4" y="2.171"/><use xlink:href="#5" y="4.342"/><use xlink:href="#6" y="6.513"/><use xlink:href="#7" y="8.684"/><use xlink:href="#8" y="10.855"/></svg><svg x="2700"><use xlink:href="#a"/><use xlink:href="#b" x="1.996" y="21.685"/><use xlink:href="#1"/><use xlink:href="#4" y="2.171"/><use xlink:href="#5" y="4.342"/><use xlink:href="#6" y="6.513"/><use xlink:href="#7" y="8.684"/><use xlink:href="#8" y="10.855"/><use xlink:href="#9" y="13.026"/><use xlink:href="#10" y="15.197"/><use xlink:href="#11" y="17.368"/><use xlink:href="#12" y="21.71"/></svg><svg x="2835"><use xlink:href="#a"/><use xlink:href="#b" x="2.996" y="21.685"/><use xlink:href="#1"/><use xlink:href="#4" y="2.171"/><use xlink:href="#5" y="4.342"/><use xlink:href="#6" y="6.513"/><use xlink:href="#7" y="8.684"/><use xlink:href="#8" y="10.855"/><use xlink:href="#9" y="13.026"/><use xlink:href="#10" y="15.197"/><use xlink:href="#11" y="17.368"/><use xlink:href="#13" y="21.71"/></svg><svg x="2970"><use xlink:href="#a"/><use xlink:href="#b" x="-.004" y="23.856"/><use xlink:href="#1"/><use xlink:href="#4" y="2.171"/><use xlink:href="#5" y="4.342"/><use xlink:href="#6" y="6.513"/><use xlink:href="#7" y="8.684"/><use xlink:href="#8" y="10.855"/><use xlink:href="#9" y="13.026"/><use xlink:href="#10" y="15.197"/><use xlink:href="#11" y="17.368"/><use xlink:href="#13" y="21.71"/></svg><svg x="3105"><use xlink:href="#a"/><use xlink:href="#b" x="1.996" y="32.54"/><use xlink:href="#1"/><use xlink:href="#4" y="2.171"/><use xlink:href="#5" y="4.342"/><use xlink:href="#6" y="6.513"/><use xlink:href="#7" y="8.684"/><use xlink:href="#8" y="10.855"/><use xlink:href="#9" y="13.026"/><use xlink:href="#10" y="15.197"/><use xlink:href="#11" y="17.368"/><use xlink:href="#13" y="21.71"/><use xlink:href="#14" y="23.881"/><use xlink:href="#15" y="26.052"/><use xlink:href="#16" y="28.223"/><use xlink:href="#12" y="32.565"/></svg><svg x="3240"><use xlink:href="#a"/><use xlink:href="#b" x="2.996" y="32.54"/><use xlink:href="#1"/><use xlink:href="#4" y="2.171"/><use xlink:href="#5" y="4.342"/><use xlink:href="#6" y="6.513"/><use xlink:href="#7" y="8.684"/><use xlink:href="#8" y="10.855"/><use xlink:href="#9" y="13.026"/><use xlink:href="#10" y="15.197"/><use xlink:href="#11" y="17.368"/><use xlink:href="#13" y="21.71"/><use xlink:href="#14" y="23.881"/><use xlink:href="#15" y="26.052"/><use xlink:href="#16" y="28.223"/><use xlink:href="#17" y="32.565"/></svg><svg x="3375"><use xlink:href="#a"/><use xlink:href="#b" x="-.004" y="34.711"/><use xlink:href="#1"/><use xlink:href="#4" y="2.171"/><use xlink:href="#5" y="4.342"/><use xlink:href="#6" y="6.513"/><use xlink:href="#7" y="8.684"/><use xlink:href="#8" y="10.855"/><use xlink:href="#9" y="13.026"/><use xlink:href="#10" y="15.197"/><use xlink:href="#11" y="17.368"/><use xlink:href="#13" y="21.71"/><use xlink:href="#14" y="23.881"/><use xlink:href="#15" y="26.052"/><use xlink:href="#16" y="28.223"/><use xlink:href="#17" y="32.565"/></svg><svg x="3510"><use xlink:href="#a"/><use xlink:href="#b" x="-.004" y="43.395"/><use xlink:href="#1"/><use xlink:href="#4" y="2.171"/><use xlink:href="#5" y="4.342"/><use xlink:href="#6" y="6.513"/><use xlink:href="#7" y="8.684"/><use xlink:href="#8" y="10.855"/><use xlink:href="#9" y="13.026"/><use xlink:href="#10" y="15.197"/><use xlink:href="#11" y="17.368"/><use xlink:href="#13" y="21.71"/><use xlink:href="#14" y="23.881"/><use xlink:href="#15" y="26.052"/><use xlink:href="#16" y="28.223"/><use xlink:href="#17" y="32.565"/><use xlink:href="#9" y="34.736"/><use xlink:href="#10" y="36.907"/><use xlink:href="#11" y="39.078"/></svg><svg x="3645"><use xlink:href="#a"/><use xlink:href="#b" x="1.996" y="43.395"/><use xlink:href="#1"/><use xlink:href="#4" y="2.171"/><use xlink:href="#5" y="4.342"/><use xlink:href="#6" y="6.513"/><use xlink:href="#7" y="8.684"/><use xlink:href="#8" y="10.855"/><use xlink:href="#9" y="13.026"/><use xlink:href="#10" y="15.197"/><use xlink:href="#11" y="17.368"/><use xlink:href="#13" y="21.71"/><use xlink:href="#14" y="23.881"/><use xlink:href="#15" y="26.052"/><use xlink:href="#16" y="28.223"/><use xlink:href="#17" y="32.565"/><use xlink:href="#9" y="34.736"/><use xlink:href="#10" y="36.907"/><use xlink:href="#11" y="39.078"/><use xlink:href="#12" y="43.42"/></svg><svg x="3780"><use xlink:href="#a"/><use xlink:href="#b" x="2.996" y="43.395"/><use xlink:href="#1"/><use xlink:href="#4" y="2.171"/><use xlink:href="#5" y="4.342"/><use xlink:href="#6" y="6.513"/><use xlink:href="#7" y="8.684"/><use xlink:href="#8" y="10.855"/><use xlink:href="#9" y="13.026"/><use xlink:href="#10" y="15.197"/><use xlink:href="#11" y="17.368"/><use xlink:href="#13" y="21.71"/><use xlink:href="#14" y="23.881"/><use xlink:href="#15" y="26.052"/><use xlink:href="#16" y="28.223"/><use xlink:href="#17" y="32.565"/><use xlink:href="#9" y="34.736"/><use xlink:href="#10" y="36.907"/><use xlink:href="#11" y="39.078"/><use xlink:href="#18" y="43.42"/></svg><svg x="3915"><use xlink:href="#a"/><use xlink:href="#b" x="-.004" y="45.566"/><use xlink:href="#1"/><use xlink:href="#4" y="2.171"/><use xlink:href="#5" y="4.342"/><use xlink:href="#6" y="6.513"/><use xlink:href="#7" y="8.684"/><use xlink:href="#8" y="10.855"/><use xlink:href="#9" y="13.026"/><use xlink:href="#10" y="15.197"/><use xlink:href="#11" y="17.368"/><use xlink:href="#13" y="21.71"/><use xlink:href="#14" y="23.881"/><use xlink:href="#15" y="26.052"/><use xlink:href="#16" y="28.223"/><use xlink:href="#17" y="32.565"/><use xlink:href="#9" y="34.736"/><use xlink:href="#10" y="36.907"/><use xlink:href="#11" y="39.078"/><use xlink:href="#18" y="43.42"/></svg><svg x="4050"><use xlink:href="#a"/><use xlink:href="#b" x="1.996" y="54.25"/><use xlink:href="#1"/><use xlink:href="#4" y="2.171"/><use xlink:href="#5" y="4.342"/><use xlink:href="#6" y="6.513"/><use xlink:href="#7" y="8.684"/><use xlink:href="#8" y="10.855"/><use xlink:href="#9" y="13.026"/><use xlink:href="#10" y="15.197"/><use xlink:href="#11" y="17.368"/><use xlink:href="#13" y="21.71"/><use xlink:href="#14" y="23.881"/><use xlink:href="#15" y="26.052"/><use xlink:href="#16" y="28.223"/><use xlink:href="#17" y="32.565"/><use xlink:href="#9" y="34.736"/><use xlink:href="#10" y="36.907"/><use xlink:href="#11" y="39.078"/><use xlink:href="#18" y="43.42"/><use xlink:href="#19" y="45.591"/><use xlink:href="#20" y="47.762"/><use xlink:href="#21" y="49.933"/><use xlink:href="#12" y="54.275"/></svg><svg x="4185"><use xlink:href="#a"/><use xlink:href="#b" x="2.996" y="54.25"/><use xlink:href="#1"/><use xlink:href="#4" y="2.171"/><use xlink:href="#5" y="4.342"/><use xlink:href="#6" y="6.513"/><use xlink:href="#7" y="8.684"/><use xlink:href="#8" y="10.855"/><use xlink:href="#9" y="13.026"/><use xlink:href="#10" y="15.197"/><use xlink:href="#11" y="17.368"/><use xlink:href="#13" y="21.71"/><use xlink:href="#14" y="23.881"/><use xlink:href="#15" y="26.052"/><use xlink:href="#16" y="28.223"/><use xlink:href="#17" y="32.565"/><use xlink:href="#9" y="34.736"/><use xlink:href="#10" y="36.907"/><use xlink:href="#11" y="39.078"/><use xlink:href="#18" y="43.42"/><use xlink:href="#19" y="45.591"/><use xlink:href="#20" y="47.762"/><use xlink:href="#21" y="49.933"/><use xlink:href="#22" y="54.275"/></svg><svg x="4320"><use xlink:href="#a"/><use xlink:href="#b" x="-.004" y="56.421"/><use xlink:href="#1"/><use xlink:href="#4" y="2.171"/><use xlink:href="#5" y="4.342"/><use xlink:href="#6" y="6.513"/><use xlink:href="#7" y="8.684"/><use xlink:href="#8" y="10.855"/><use xlink:href="#9" y="13.026"/><use xlink:href="#10" y="15.197"/><use xlink:href="#11" y="17.368"/><use xlink:href="#13" y="21.71"/><use xlink:href="#14" y="23.881"/><use xlink:href="#15" y="26.052"/><use xlink:href="#16" y="28.223"/><use xlink:href="#17" y="32.565"/><use xlink:href="#9" y="34.736"/><use xlink:href="#10" y="36.907"/><use xlink:href="#11" y="39.078"/><use xlink:href="#18" y="43.42"/><use xlink:href="#19" y="45.591"/><use xlink:href="#20" y="47.762"/><use xlink:href="#21" y="49.933"/><use xlink:href="#22" y="54.275"/></svg><svg x="4455"><use xlink:href="#a"/><use xlink:href="#b" x="1.996" y="58.592"/><use xlink:href="#6"/><use xlink:href="#7" y="2.171"/><use xlink:href="#8" y="4.342"/><use xlink:href="#9" y="6.513"/><use xlink:href="#10" y="8.684"/><use xlink:href="#11" y="10.855"/><use xlink:href="#13" y="15.197"/><use xlink:href="#14" y="17.368"/><use xlink:href="#15" y="19.539"/><use xlink:href="#16" y="21.71"/><use xlink:href="#17" y="26.052"/><use xlink:href="#9" y="28.223"/><use xlink:href="#10" y="30.394"/><use xlink:href="#11" y="32.565"/><use xlink:href="#18" y="36.907"/><use xlink:href="#19" y="39.078"/><use xlink:href="#20" y="41.249"/><use xlink:href="#21" y="43.42"/><use xlink:href="#22" y="47.762"/><use xlink:href="#9" y="49.933"/><use xlink:href="#10" y="52.104"/><use xlink:href="#11" y="54.275"/><use xlink:href="#12" y="58.617"/></svg><svg x="4590"><use xlink:href="#a"/><use xlink:href="#b" x="2.996" y="58.592"/><use xlink:href="#6"/><use xlink:href="#7" y="2.171"/><use xlink:href="#8" y="4.342"/><use xlink:href="#9" y="6.513"/><use xlink:href="#10" y="8.684"/><use xlink:href="#11" y="10.855"/><use xlink:href="#13" y="15.197"/><use xlink:href="#14" y="17.368"/><use xlink:href="#15" y="19.539"/><use xlink:href="#16" y="21.71"/><use xlink:href="#17" y="26.052"/><use xlink:href="#9" y="28.223"/><use xlink:href="#10" y="30.394"/><use xlink:href="#11" y="32.565"/><use xlink:href="#18" y="36.907"/><use xlink:href="#19" y="39.078"/><use xlink:href="#20" y="41.249"/><use xlink:href="#21" y="43.42"/><use xlink:href="#22" y="47.762"/><use xlink:href="#9" y="49.933"/><use xlink:href="#10" y="52.104"/><use xlink:href="#11" y="54.275"/><text y="60.287" class="f">&gt;</text><text x="2.004" y="60.287" class="f">q</text></svg><svg x="4725"><use xlink:href="#a"/><use xlink:href="#b" x="3.996" y="58.592"/><use xlink:href="#6"/><use xlink:href="#7" y="2.171"/><use xlink:href="#8" y="4.342"/><use xlink:href="#9" y="6.513"/><use xlink:href="#10" y="8.684"/><use xlink:href="#11" y="10.855"/><use xlink:href="#13" y="15.197"/><use xlink:href="#14" y="17.368"/><use xlink:href="#15" y="19.539"/><use xlink:href="#16" y="21.71"/><use xlink:href="#17" y="26.052"/><use xlink:href="#9" y="28.223"/><use xlink:href="#10" y="30.394"/><use xlink:href="#11" y="32.565"/><use xlink:href="#18" y="36.907"/><use xlink:href="#19" y="39.078"/><use xlink:href="#20" y="41.249"/><use xlink:href="#21" y="43.42"/><use xlink:href="#22" y="47.762"/><use xlink:href="#9" y="49.933"/><use xlink:href="#10" y="52.104"/><use xlink:href="#11" y="54.275"/><text y="60.287" class="f">&gt;</text><text x="2.004" y="60.287" class="f">qu</text></svg><svg x="4860"><use xlink:href="#a"/><use xlink:href="#b" x="4.996" y="58.592"/><use xlink:href="#6"/><use xlink:href="#7" y="2.171"/><use xlink:href="#8" y="4.342"/><use xlink:href="#9" y="6.513"/><use xlink:href="#10" y="8.684"/><use xlink:href="#11" y="10.855"/><use xlink:href="#13" y="15.197"/><use xlink:href="#14" y="17.368"/><use xlink:href="#15" y="19.539"/><use xlink:href="#16" y="21.71"/><use xlink:href="#17" y="26.052"/><use xlink:href="#9" y="28.223"/><use xlink:href="#10" y="30.394"/><use xlink:href="#11" y="32.565"/><use xlink:href="#18" y="36.907"/><use xlink:href="#19" y="39.078"/><use xlink:href="#20" y="41.249"/><use xlink:href="#21" y="43.42"/><use xlink:href="#22" y="47.762"/><use xlink:href="#9" y="49.933"/><use xlink:href="#10" y="52.104"/><use xlink:href="#11" y="54.275"/><text y="60.287" class="f">&gt;</text><text x="2.004" y="60.287" class="f">qui</text></svg><svg x="4995"><use xlink:href="#a"/><use xlink:href="#b" x="5.996" y="58.592"/><use xlink:href="#6"/><use xlink:href="#7" y="2.171"/><use xlink:href="#8" y="4.342"/><use xlink:href="#9" y="6.513"/><use xlink:href="#10" y="8.684"/><use xlink:href="#11" y="10.855"/><use xlink:href="#13" y="15.197"/><use xlink:href="#14" y="17.368"/><use xlink:href="#15" y="19.539"/><use xlink:href="#16" y="21.71"/><use xlink:href="#17" y="26.052"/><use xlink:href="#9" y="28.223"/><use xlink:href="#10" y="30.394"/><use xlink:href="#11" y="32.565"/><use xlink:href="#18" y="36.907"/><use xlink:href="#19" y="39.078"/><use xlink:href="#20" y="41.249"/><use xlink:href="#21" y="43.42"/><use xlink:href="#22" y="47.762"/><use xlink:href="#9" y="49.933"/><use xlink:href="#10" y="52.104"/><use xlink:href="#11" y="54.275"/><use xlink:href="#23" y="58.617"/></svg><svg x="5130"><use xlink:href="#a"/><use xlink:href="#b" x="-.004" y="58.592"/><use xlink:href="#7"/><use xlink:href="#8" y="2.171"/><use xlink:href="#9" y="4.342"/><use xlink:href="#10" y="6.513"/><use xlink:href="#11" y="8.684"/><use xlink:href="#13" y="13.026"/><use xlink:href="#14" y="15.197"/><use xlink:href="#15" y="17.368"/><use xlink:href="#16" y="19.539"/><use xlink:href="#17" y="23.881"/><use xlink:href="#9" y="26.052"/><use xlink:href="#10" y="28.223"/><use xlink:href="#11" y="30.394"/><use xlink:href="#18" y="34.736"/><use xlink:href="#19" y="36.907"/><use xlink:href="#20" y="39.078"/><use xlink:href="#21" y="41.249"/><use xlink:href="#22" y="45.591"/><use xlink:href="#9" y="47.762"/><use xlink:href="#10" y="49.933"/><use xlink:href="#11" y="52.104"/><use xlink:href="#23" y="56.446"/></svg><svg x="5265"><use xlink:href="#a"/><use xlink:href="#b" x="-.004" y="58.592"/><use xlink:href="#8"/><use xlink:href="#9" y="2.171"/><use xlink:href="#10" y="4.342"/><use xlink:href="#11" y="6.513"/><use xlink:href="#13" y="10.855"/><use xlink:href="#14" y="13.026"/><use xlink:href="#15" y="15.197"/><use xlink:href="#16" y="17.368"/><use xlink:href="#17" y="21.71"/><use xlink:href="#9" y="23.881"/><use xlink:href="#10" y="26.052"/><use xlink:href="#11" y="28.223"/><use xlink:href="#18" y="32.565"/><use xlink:href="#19" y="34.736"/><use xlink:href="#20" y="36.907"/><use xlink:href="#21" y="39.078"/><use xlink:href="#22" y="43.42"/><use xlink:href="#9" y="45.591"/><use xlink:href="#10" y="47.762"/><use xlink:href="#11" y="49.933"/><use xlink:href="#23" y="54.275"/><use xlink:href="#24" y="56.446"/></svg><svg x="5400"><use xlink:href="#a"/><use xlink:href="#b" x="1.996" y="58.592"/><use xlink:href="#9"/><use xlink:href="#10" y="2.171"/><use xlink:href="#11" y="4.342"/><use xlink:href="#13" y="8.684"/><use xlink:href="#14" y="10.855"/><use xlink:href="#15" y="13.026"/><use xlink:href="#16" y="15.197"/><use xlink:href="#17" y="19.539"/><use xlink:href="#9" y="21.71"/><use xlink:href="#10" y="23.881"/><use xlink:href="#11" y="26.052"/><use xlink:href="#18" y="30.394"/><use xlink:href="#19" y="32.565"/><use xlink:href="#20" y="34.736"/><use xlink:href="#21" y="36.907"/><use xlink:href="#22" y="41.249"/><use xlink:href="#9" y="43.42"/><use xlink:href="#10" y="45.591"/><use xlink:href="#11" y="47.762"/><use xlink:href="#23" y="52.104"/><use xlink:href="#24" y="54.275"/><use xlink:href="#1" y="56.446"/><use xlink:href="#2" y="58.617"/></svg><svg x="5535"><use xlink:href="#a"/><use xlink:href="#b" x="-.004" y="58.592"/><use xlink:href="#10"/><use xlink:href="#11" y="2.171"/><use xlink:href="#13" y="6.513"/><use xlink:href="#14" y="8.684"/><use xlink:href="#15" y="10.855"/><use xlink:href="#16" y="13.026"/><use xlink:href="#17" y="17.368"/><use xlink:href="#9" y="19.539"/><use xlink:href="#10" y="21.71"/><use xlink:href="#11" y="23.881"/><use xlink:href="#18" y="28.223"/><use xlink:href="#19" y="30.394"/><use xlink:href="#20" y="32.565"/><use xlink:href="#21" y="34.736"/><use xlink:href="#22" y="39.078"/><use xlink:href="#9" y="41.249"/><use xlink:href="#10" y="43.42"/><use xlink:href="#11" y="45.591"/><use xlink:href="#23" y="49.933"/><use xlink:href="#24" y="52.104"/><use xlink:href="#1" y="54.275"/><text y="58.116" class="h">$</text><text x="2.004" y="58.116" class="f">exit</text></svg></svg></g></g></svg></svg>