<svg viewBox="0 0 640 300" width="100%" xmlns="http://www.w3.org/2000/svg" font-family="ui-sans-serif, system-ui, sans-serif">
<text x="56" y="20" font-size="13" font-weight="600" fill="currentColor">continent-count — default</text>
<line x1="56.0" y1="186.0" x2="624.0" y2="186.0" stroke="currentColor" stroke-opacity="0.15" stroke-width="1" />
<text x="50" y="186.0" font-size="11" fill="currentColor" opacity="0.75" text-anchor="end">2500</text>
<line x1="56.0" y1="136.0" x2="624.0" y2="136.0" stroke="currentColor" stroke-opacity="0.15" stroke-width="1" />
<text x="50" y="136.0" font-size="11" fill="currentColor" opacity="0.75" text-anchor="end">5000</text>
<line x1="56.0" y1="86.0" x2="624.0" y2="86.0" stroke="currentColor" stroke-opacity="0.15" stroke-width="1" />
<text x="50" y="86.0" font-size="11" fill="currentColor" opacity="0.75" text-anchor="end">7500</text>
<line x1="56.0" y1="36.0" x2="624.0" y2="36.0" stroke="currentColor" stroke-opacity="0.15" stroke-width="1" />
<text x="50" y="36.0" font-size="11" fill="currentColor" opacity="0.75" text-anchor="end">10000</text>
<text x="87.6" y="232.0" font-size="11" fill="currentColor" text-anchor="middle">0</text>
<text x="87.6" y="252.0" font-size="11" fill="currentColor" opacity="0.85" text-anchor="middle">&lt; 0</text>
<text x="150.7" y="232.0" font-size="11" fill="currentColor" text-anchor="middle">0</text>
<text x="150.7" y="252.0" font-size="11" fill="currentColor" opacity="0.85" text-anchor="middle">[0, 1)</text>
<rect x="187.0" y="231.8" width="53.6" height="4.2" fill="#5b8dd9" rx="2" />
<text x="213.8" y="227.8" font-size="11" fill="currentColor" text-anchor="middle">208</text>
<text x="213.8" y="252.0" font-size="11" fill="currentColor" opacity="0.85" text-anchor="middle">[1, 2)</text>
<rect x="250.1" y="227.1" width="53.6" height="8.9" fill="#5b8dd9" rx="2" />
<text x="276.9" y="223.1" font-size="11" fill="currentColor" text-anchor="middle">446</text>
<text x="276.9" y="252.0" font-size="11" fill="currentColor" opacity="0.85" text-anchor="middle">[2, 3)</text>
<rect x="313.2" y="226.3" width="53.6" height="9.7" fill="#5b8dd9" rx="2" />
<text x="340.0" y="222.3" font-size="11" fill="currentColor" text-anchor="middle">483</text>
<text x="340.0" y="252.0" font-size="11" fill="currentColor" opacity="0.85" text-anchor="middle">[3, 4)</text>
<rect x="376.3" y="220.2" width="53.6" height="15.8" fill="#5b8dd9" rx="2" />
<text x="403.1" y="216.2" font-size="11" fill="currentColor" text-anchor="middle">789</text>
<text x="403.1" y="252.0" font-size="11" fill="currentColor" opacity="0.85" text-anchor="middle">[4, 6)</text>
<rect x="439.4" y="225.6" width="53.6" height="10.4" fill="#5b8dd9" rx="2" />
<text x="466.2" y="221.6" font-size="11" fill="currentColor" text-anchor="middle">521</text>
<text x="466.2" y="252.0" font-size="11" fill="currentColor" opacity="0.85" text-anchor="middle">[6, 8)</text>
<rect x="502.5" y="222.7" width="53.6" height="13.3" fill="#5b8dd9" rx="2" />
<text x="529.3" y="218.7" font-size="11" fill="currentColor" text-anchor="middle">665</text>
<text x="529.3" y="252.0" font-size="11" fill="currentColor" opacity="0.85" text-anchor="middle">[8, 12)</text>
<rect x="565.6" y="98.2" width="53.6" height="137.8" fill="#5b8dd9" rx="2" />
<text x="592.4" y="94.2" font-size="11" fill="currentColor" text-anchor="middle">6888</text>
<text x="592.4" y="252.0" font-size="11" fill="currentColor" opacity="0.85" text-anchor="middle">&gt;= 12</text>
</svg>
