<svg viewBox="0 0 640 300" width="100%" xmlns="http://www.w3.org/2000/svg" font-family="ui-sans-serif, system-ui, sans-serif">
<text x="56" y="20" font-size="13" font-weight="600" fill="currentColor">chorus-distortion — default</text>
<line x1="56.0" y1="186.0" x2="624.0" y2="186.0" stroke="currentColor" stroke-opacity="0.15" stroke-width="1" />
<text x="50" y="186.0" font-size="11" fill="currentColor" opacity="0.75" text-anchor="end">12.5</text>
<line x1="56.0" y1="136.0" x2="624.0" y2="136.0" stroke="currentColor" stroke-opacity="0.15" stroke-width="1" />
<text x="50" y="136.0" font-size="11" fill="currentColor" opacity="0.75" text-anchor="end">25</text>
<line x1="56.0" y1="86.0" x2="624.0" y2="86.0" stroke="currentColor" stroke-opacity="0.15" stroke-width="1" />
<text x="50" y="86.0" font-size="11" fill="currentColor" opacity="0.75" text-anchor="end">37.5</text>
<line x1="56.0" y1="36.0" x2="624.0" y2="36.0" stroke="currentColor" stroke-opacity="0.15" stroke-width="1" />
<text x="50" y="36.0" font-size="11" fill="currentColor" opacity="0.75" text-anchor="end">50</text>
<text x="103.3" y="232.0" font-size="11" fill="currentColor" text-anchor="middle">0</text>
<text x="103.3" y="252.0" font-size="11" fill="currentColor" opacity="0.85" text-anchor="end" transform="rotate(-30 103.3 252.0)">&lt; 0.1</text>
<text x="198.0" y="232.0" font-size="11" fill="currentColor" text-anchor="middle">0</text>
<text x="198.0" y="252.0" font-size="11" fill="currentColor" opacity="0.85" text-anchor="end" transform="rotate(-30 198.0 252.0)">[0.1, 0.25)</text>
<rect x="252.4" y="140.0" width="80.5" height="96.0" fill="#5b8dd9" rx="2" />
<text x="292.7" y="136.0" font-size="11" fill="currentColor" text-anchor="middle">24</text>
<text x="292.7" y="252.0" font-size="11" fill="currentColor" opacity="0.85" text-anchor="end" transform="rotate(-30 292.7 252.0)">[0.25, 0.5)</text>
<rect x="347.1" y="132.0" width="80.5" height="104.0" fill="#5b8dd9" rx="2" />
<text x="387.3" y="128.0" font-size="11" fill="currentColor" text-anchor="middle">26</text>
<text x="387.3" y="252.0" font-size="11" fill="currentColor" opacity="0.85" text-anchor="end" transform="rotate(-30 387.3 252.0)">[0.5, 0.75)</text>
<text x="482.0" y="232.0" font-size="11" fill="currentColor" text-anchor="middle">0</text>
<text x="482.0" y="252.0" font-size="11" fill="currentColor" opacity="0.85" text-anchor="end" transform="rotate(-30 482.0 252.0)">[0.75, 0.9)</text>
<text x="576.7" y="232.0" font-size="11" fill="currentColor" text-anchor="middle">0</text>
<text x="576.7" y="252.0" font-size="11" fill="currentColor" opacity="0.85" text-anchor="end" transform="rotate(-30 576.7 252.0)">&gt;= 0.9</text>
</svg>
