<svg viewBox="0 0 640 300" width="100%" xmlns="http://www.w3.org/2000/svg" font-family="ui-sans-serif, system-ui, sans-serif">
<text x="56" y="20" font-size="13" font-weight="600" fill="currentColor">chorus-distinctiveness — default</text>
<line x1="56.0" y1="186.0" x2="624.0" y2="186.0" stroke="currentColor" stroke-opacity="0.15" stroke-width="1" />
<text x="50" y="186.0" font-size="11" fill="currentColor" opacity="0.75" text-anchor="end">12.5</text>
<line x1="56.0" y1="136.0" x2="624.0" y2="136.0" stroke="currentColor" stroke-opacity="0.15" stroke-width="1" />
<text x="50" y="136.0" font-size="11" fill="currentColor" opacity="0.75" text-anchor="end">25</text>
<line x1="56.0" y1="86.0" x2="624.0" y2="86.0" stroke="currentColor" stroke-opacity="0.15" stroke-width="1" />
<text x="50" y="86.0" font-size="11" fill="currentColor" opacity="0.75" text-anchor="end">37.5</text>
<line x1="56.0" y1="36.0" x2="624.0" y2="36.0" stroke="currentColor" stroke-opacity="0.15" stroke-width="1" />
<text x="50" y="36.0" font-size="11" fill="currentColor" opacity="0.75" text-anchor="end">50</text>
<text x="96.6" y="232.0" font-size="11" fill="currentColor" text-anchor="middle">0</text>
<text x="96.6" y="252.0" font-size="11" fill="currentColor" opacity="0.85" text-anchor="end" transform="rotate(-30 96.6 252.0)">&lt; 0.1</text>
<rect x="143.2" y="104.0" width="69.0" height="132.0" fill="#5b8dd9" rx="2" />
<text x="177.7" y="100.0" font-size="11" fill="currentColor" text-anchor="middle">33</text>
<text x="177.7" y="252.0" font-size="11" fill="currentColor" opacity="0.85" text-anchor="end" transform="rotate(-30 177.7 252.0)">[0.1, 0.25)</text>
<rect x="224.4" y="204.0" width="69.0" height="32.0" fill="#5b8dd9" rx="2" />
<text x="258.9" y="200.0" font-size="11" fill="currentColor" text-anchor="middle">8</text>
<text x="258.9" y="252.0" font-size="11" fill="currentColor" opacity="0.85" text-anchor="end" transform="rotate(-30 258.9 252.0)">[0.25, 0.5)</text>
<text x="340.0" y="232.0" font-size="11" fill="currentColor" text-anchor="middle">0</text>
<text x="340.0" y="252.0" font-size="11" fill="currentColor" opacity="0.85" text-anchor="end" transform="rotate(-30 340.0 252.0)">[0.5, 0.75)</text>
<text x="421.1" y="232.0" font-size="11" fill="currentColor" text-anchor="middle">0</text>
<text x="421.1" y="252.0" font-size="11" fill="currentColor" opacity="0.85" text-anchor="end" transform="rotate(-30 421.1 252.0)">[0.75, 0.9)</text>
<text x="502.3" y="232.0" font-size="11" fill="currentColor" text-anchor="middle">0</text>
<text x="502.3" y="252.0" font-size="11" fill="currentColor" opacity="0.85" text-anchor="end" transform="rotate(-30 502.3 252.0)">&gt;= 0.9</text>
<rect x="548.9" y="200.0" width="69.0" height="36.0" fill="#5b8dd9" rx="2" />
<text x="583.4" y="196.0" font-size="11" fill="currentColor" text-anchor="middle">9</text>
<text x="583.4" y="252.0" font-size="11" fill="currentColor" opacity="0.85" text-anchor="end" transform="rotate(-30 583.4 252.0)">absent</text>
</svg>
